G04 #@! TF.FileFunction,Copper,L2,Bot,Signal*
%FSLAX46Y46*%
G04 Gerber Fmt 4.6, Leading zero omitted, Abs format (unit mm)*
G04 Created by KiCad (PCBNEW 4.0.7) date Wed Jun 13 11:36:42 2018*
%MOMM*%
%LPD*%
G01*
G04 APERTURE LIST*
%ADD10C,0.100000*%
%ADD11R,0.750000X0.800000*%
%ADD12R,1.700000X1.700000*%
%ADD13O,1.700000X1.700000*%
%ADD14R,0.850000X0.850000*%
%ADD15C,0.850000*%
%ADD16C,3.556000*%
%ADD17R,0.500000X0.900000*%
%ADD18R,1.550000X0.600000*%
%ADD19C,3.000000*%
%ADD20C,2.400000*%
%ADD21C,0.600000*%
%ADD22C,0.400000*%
%ADD23C,0.250000*%
G04 APERTURE END LIST*
D10*
D11*
X14150000Y12680000D03*
X14150000Y11180000D03*
X36650000Y9930000D03*
X36650000Y11430000D03*
D12*
X6350000Y1270000D03*
D13*
X8890000Y1270000D03*
X11430000Y1270000D03*
X13970000Y1270000D03*
X16510000Y1270000D03*
X19050000Y1270000D03*
X21590000Y1270000D03*
X24130000Y1270000D03*
X26670000Y1270000D03*
X29210000Y1270000D03*
X31750000Y1270000D03*
X34290000Y1270000D03*
X36830000Y1270000D03*
X39370000Y1270000D03*
X41910000Y1270000D03*
X44450000Y1270000D03*
D12*
X16510000Y21590000D03*
D13*
X19050000Y21590000D03*
X21590000Y21590000D03*
X24130000Y21590000D03*
X26670000Y21590000D03*
X29210000Y21590000D03*
X31750000Y21590000D03*
X34290000Y21590000D03*
X36830000Y21590000D03*
X39370000Y21590000D03*
X41910000Y21590000D03*
X44450000Y21590000D03*
D14*
X23495000Y14625000D03*
D15*
X23495000Y15875000D03*
X23495000Y17125000D03*
D14*
X27305000Y8235000D03*
D15*
X27305000Y6985000D03*
X27305000Y5735000D03*
D16*
X2540000Y20320000D03*
X48260000Y20320000D03*
X2540000Y2540000D03*
X48260000Y2540000D03*
D17*
X15900000Y15180000D03*
X17400000Y15180000D03*
X17400000Y16930000D03*
X15900000Y16930000D03*
X34900000Y7680000D03*
X33400000Y7680000D03*
X33400000Y5930000D03*
X34900000Y5930000D03*
D18*
X21750000Y8255000D03*
X21750000Y6985000D03*
X21750000Y5715000D03*
X21750000Y4445000D03*
X16350000Y4445000D03*
X16350000Y5715000D03*
X16350000Y6985000D03*
X16350000Y8255000D03*
X29050000Y14605000D03*
X29050000Y15875000D03*
X29050000Y17145000D03*
X29050000Y18415000D03*
X34450000Y18415000D03*
X34450000Y17145000D03*
X34450000Y15875000D03*
X34450000Y14605000D03*
D19*
X38200000Y14490000D03*
X37565000Y6870000D03*
D20*
X33755000Y10680000D03*
X43900000Y18930000D03*
D19*
X12475000Y8370000D03*
X13110000Y15990000D03*
D20*
X16920000Y12180000D03*
X6775000Y3930000D03*
D21*
X36650000Y8930000D03*
X14150000Y13680000D03*
X14650000Y4430000D03*
X35900000Y18930000D03*
X31900000Y12180000D03*
X18900000Y10680000D03*
X15150000Y10680000D03*
X35650000Y12180000D03*
X23400000Y8180000D03*
D22*
X36650000Y9930000D02*
X36650000Y8930000D01*
X14150000Y12680000D02*
X14150000Y13680000D01*
D23*
X16350000Y4445000D02*
X14665000Y4445000D01*
X14665000Y4445000D02*
X14650000Y4430000D01*
X34450000Y18415000D02*
X35385000Y18415000D01*
X35385000Y18415000D02*
X35900000Y18930000D01*
D22*
X34900000Y9430000D02*
X34900000Y7680000D01*
X36650000Y11430000D02*
X36400000Y11430000D01*
X36400000Y11430000D02*
X35650000Y12180000D01*
X36650000Y12230000D02*
X34925000Y13955000D01*
X34925000Y13955000D02*
X34925000Y14605000D01*
X36650000Y11430000D02*
X36650000Y12230000D01*
X15150000Y10680000D02*
X15150000Y12830000D01*
X15150000Y12830000D02*
X15900000Y13580000D01*
X15900000Y13580000D02*
X15900000Y15180000D01*
X14150000Y11180000D02*
X14650000Y11180000D01*
X14650000Y11180000D02*
X15150000Y10680000D01*
X14150000Y11180000D02*
X14150000Y10455000D01*
X14150000Y10455000D02*
X16350000Y8255000D01*
X31650000Y12180000D02*
X31900000Y12180000D01*
X26150000Y12180000D02*
X31650000Y12180000D01*
X24650000Y10680000D02*
X26150000Y12180000D01*
X18900000Y10680000D02*
X24650000Y10680000D01*
X35650000Y10180000D02*
X34900000Y9430000D01*
X35650000Y12180000D02*
X35650000Y10180000D01*
D23*
X34450000Y14605000D02*
X34925000Y14605000D01*
D22*
X17400000Y16930000D02*
X17400000Y15180000D01*
X17400000Y15180000D02*
X17400000Y12660000D01*
X17400000Y12660000D02*
X16920000Y12180000D01*
X16825000Y5715000D02*
X18119999Y7009999D01*
X18119999Y7009999D02*
X18119999Y10980001D01*
X18119999Y10980001D02*
X16920000Y12180000D01*
D23*
X19860000Y2680000D02*
X16825000Y5715000D01*
X29210000Y1270000D02*
X27800000Y2680000D01*
X27800000Y2680000D02*
X19860000Y2680000D01*
D22*
X16350000Y5715000D02*
X16825000Y5715000D01*
D23*
X23400000Y8180000D02*
X21825000Y8180000D01*
X21825000Y8180000D02*
X21750000Y8255000D01*
X41910000Y1270000D02*
X40000000Y3180000D01*
X40000000Y3180000D02*
X24650000Y3180000D01*
X24650000Y3180000D02*
X23385000Y4445000D01*
X23385000Y4445000D02*
X21750000Y4445000D01*
X44450000Y1270000D02*
X42089989Y3630011D01*
X42089989Y3630011D02*
X24949989Y3630011D01*
X24949989Y3630011D02*
X22865000Y5715000D01*
X22865000Y5715000D02*
X22775000Y5715000D01*
X22775000Y5715000D02*
X21750000Y5715000D01*
X21750000Y6985000D02*
X21750000Y5715000D01*
X29210000Y21590000D02*
X27150000Y19530000D01*
X27150000Y19530000D02*
X27150000Y16030000D01*
X27150000Y16030000D02*
X28575000Y14605000D01*
X28575000Y14605000D02*
X29050000Y14605000D01*
X31750000Y21590000D02*
X29050000Y18890000D01*
X29050000Y18890000D02*
X29050000Y18415000D01*
X29050000Y15875000D02*
X29050000Y17145000D01*
X34290000Y21590000D02*
X34290000Y21320000D01*
X34290000Y21320000D02*
X30115000Y17145000D01*
X30115000Y17145000D02*
X29050000Y17145000D01*
D22*
X33400000Y7680000D02*
X33400000Y10325000D01*
X33400000Y10325000D02*
X33755000Y10680000D01*
X33400000Y5930000D02*
X33400000Y7680000D01*
X33400000Y10950000D02*
X33880000Y11430000D01*
D23*
X34450000Y17145000D02*
X35475000Y17145000D01*
X35475000Y17145000D02*
X36830000Y18500000D01*
X36830000Y18500000D02*
X36830000Y20387919D01*
X36830000Y20387919D02*
X36830000Y21590000D01*
D22*
X34450000Y17145000D02*
X33975000Y17145000D01*
X33975000Y17145000D02*
X32680001Y15850001D01*
X32680001Y15850001D02*
X32680001Y12629999D01*
X32680001Y12629999D02*
X33880000Y11430000D01*
X15900000Y16930000D02*
X14050000Y16930000D01*
X14050000Y16930000D02*
X13110000Y15990000D01*
X16350000Y6985000D02*
X15595000Y6985000D01*
X15595000Y6985000D02*
X14650000Y7930000D01*
X14650000Y7930000D02*
X14650000Y9007002D01*
X14650000Y9007002D02*
X13110000Y10547002D01*
X13110000Y10547002D02*
X13110000Y15990000D01*
X13300000Y16180000D02*
X13110000Y15990000D01*
X34450000Y15875000D02*
X35455000Y15875000D01*
X35455000Y15875000D02*
X36150000Y15180000D01*
X37900000Y7205000D02*
X37565000Y6870000D01*
X36150000Y15180000D02*
X36150000Y13727998D01*
X36150000Y13727998D02*
X37900000Y11977998D01*
X37900000Y11977998D02*
X37900000Y7205000D01*
X34900000Y5930000D02*
X36625000Y5930000D01*
X36625000Y5930000D02*
X37565000Y6870000D01*
D23*
G36*
X15277654Y20740000D02*
X15303802Y20601034D01*
X15385931Y20473401D01*
X15511246Y20387777D01*
X15660000Y20357654D01*
X17360000Y20357654D01*
X17498966Y20383802D01*
X17626599Y20465931D01*
X17712223Y20591246D01*
X17742346Y20740000D01*
X17742346Y22410000D01*
X18136885Y22410000D01*
X17918248Y22082786D01*
X17825000Y21613999D01*
X17825000Y21566001D01*
X17918248Y21097214D01*
X18183794Y20699795D01*
X18581213Y20434249D01*
X19050000Y20341001D01*
X19518787Y20434249D01*
X19916206Y20699795D01*
X20181752Y21097214D01*
X20275000Y21566001D01*
X20275000Y21613999D01*
X20181752Y22082786D01*
X19963115Y22410000D01*
X20676885Y22410000D01*
X20458248Y22082786D01*
X20365000Y21613999D01*
X20365000Y21566001D01*
X20458248Y21097214D01*
X20723794Y20699795D01*
X21121213Y20434249D01*
X21590000Y20341001D01*
X22058787Y20434249D01*
X22456206Y20699795D01*
X22721752Y21097214D01*
X22815000Y21566001D01*
X22815000Y21613999D01*
X22721752Y22082786D01*
X22503115Y22410000D01*
X23216885Y22410000D01*
X22998248Y22082786D01*
X22905000Y21613999D01*
X22905000Y21566001D01*
X22998248Y21097214D01*
X23263794Y20699795D01*
X23661213Y20434249D01*
X24130000Y20341001D01*
X24598787Y20434249D01*
X24996206Y20699795D01*
X25261752Y21097214D01*
X25355000Y21566001D01*
X25355000Y21613999D01*
X25261752Y22082786D01*
X25043115Y22410000D01*
X25756885Y22410000D01*
X25538248Y22082786D01*
X25445000Y21613999D01*
X25445000Y21566001D01*
X25538248Y21097214D01*
X25803794Y20699795D01*
X26201213Y20434249D01*
X26670000Y20341001D01*
X27138787Y20434249D01*
X27536206Y20699795D01*
X27801752Y21097214D01*
X27895000Y21566001D01*
X27895000Y21613999D01*
X27801752Y22082786D01*
X27583115Y22410000D01*
X28296885Y22410000D01*
X28078248Y22082786D01*
X27985000Y21613999D01*
X27985000Y21566001D01*
X28066943Y21154049D01*
X26796447Y19883553D01*
X26688060Y19721342D01*
X26650000Y19530000D01*
X26650000Y16030000D01*
X26675049Y15904069D01*
X26688060Y15838658D01*
X26796447Y15676447D01*
X27892654Y14580239D01*
X27892654Y14305000D01*
X27918802Y14166034D01*
X28000931Y14038401D01*
X28126246Y13952777D01*
X28275000Y13922654D01*
X29825000Y13922654D01*
X29963966Y13948802D01*
X30091599Y14030931D01*
X30177223Y14156246D01*
X30207346Y14305000D01*
X30207346Y14905000D01*
X30181198Y15043966D01*
X30099069Y15171599D01*
X29997966Y15240680D01*
X30091599Y15300931D01*
X30177223Y15426246D01*
X30207346Y15575000D01*
X30207346Y16175000D01*
X30181198Y16313966D01*
X30099069Y16441599D01*
X29997966Y16510680D01*
X30091599Y16570931D01*
X30146488Y16651263D01*
X30306342Y16683060D01*
X30468553Y16791447D01*
X32466698Y18789592D01*
X33300000Y18789592D01*
X33300000Y18633750D01*
X33393750Y18540000D01*
X34325000Y18540000D01*
X34325000Y18996250D01*
X34575000Y18996250D01*
X34575000Y18540000D01*
X35506250Y18540000D01*
X35600000Y18633750D01*
X35600000Y18789592D01*
X35542910Y18927421D01*
X35437420Y19032910D01*
X35299592Y19090000D01*
X34668750Y19090000D01*
X34575000Y18996250D01*
X34325000Y18996250D01*
X34231250Y19090000D01*
X33600408Y19090000D01*
X33462580Y19032910D01*
X33357090Y18927421D01*
X33300000Y18789592D01*
X32466698Y18789592D01*
X34063218Y20386111D01*
X34290000Y20341001D01*
X34758787Y20434249D01*
X35156206Y20699795D01*
X35421752Y21097214D01*
X35515000Y21566001D01*
X35515000Y21613999D01*
X35421752Y22082786D01*
X35203115Y22410000D01*
X35916885Y22410000D01*
X35698248Y22082786D01*
X35605000Y21613999D01*
X35605000Y21566001D01*
X35698248Y21097214D01*
X35963794Y20699795D01*
X36330000Y20455105D01*
X36330000Y18707107D01*
X35555240Y17932346D01*
X35600000Y18040408D01*
X35600000Y18196250D01*
X35506250Y18290000D01*
X34575000Y18290000D01*
X34575000Y18270000D01*
X34325000Y18270000D01*
X34325000Y18290000D01*
X33393750Y18290000D01*
X33300000Y18196250D01*
X33300000Y18040408D01*
X33357090Y17902579D01*
X33462580Y17797090D01*
X33503384Y17780188D01*
X33408401Y17719069D01*
X33322777Y17593754D01*
X33292654Y17445000D01*
X33292654Y17275827D01*
X32273415Y16256587D01*
X32148770Y16070044D01*
X32105001Y15850001D01*
X32105001Y12825756D01*
X32034855Y12854883D01*
X31766323Y12855117D01*
X31524022Y12755000D01*
X26150000Y12755000D01*
X25929957Y12711231D01*
X25743413Y12586586D01*
X24411828Y11255000D01*
X19275398Y11255000D01*
X19034855Y11354883D01*
X18766323Y11355117D01*
X18594932Y11284300D01*
X18526585Y11386587D01*
X18363606Y11549566D01*
X18494726Y11865339D01*
X18495273Y12491912D01*
X18255999Y13071000D01*
X17975000Y13352490D01*
X17975000Y14406250D01*
X22695000Y14406250D01*
X22695000Y14125408D01*
X22752090Y13987580D01*
X22857579Y13882090D01*
X22995408Y13825000D01*
X23276250Y13825000D01*
X23370000Y13918750D01*
X23370000Y14500000D01*
X23620000Y14500000D01*
X23620000Y13918750D01*
X23713750Y13825000D01*
X23994592Y13825000D01*
X24132421Y13882090D01*
X24237910Y13987580D01*
X24295000Y14125408D01*
X24295000Y14406250D01*
X24201250Y14500000D01*
X23620000Y14500000D01*
X23370000Y14500000D01*
X22788750Y14500000D01*
X22695000Y14406250D01*
X17975000Y14406250D01*
X17975000Y14541404D01*
X18002223Y14581246D01*
X18032346Y14730000D01*
X18032346Y15630000D01*
X18006198Y15768966D01*
X17975000Y15817449D01*
X17975000Y16291404D01*
X18002223Y16331246D01*
X18032346Y16480000D01*
X18032346Y16966568D01*
X22694861Y16966568D01*
X22816397Y16672428D01*
X22988628Y16499897D01*
X22817188Y16328755D01*
X22695139Y16034828D01*
X22694861Y15716568D01*
X22816397Y15422428D01*
X22866947Y15371790D01*
X22857579Y15367910D01*
X22752090Y15262420D01*
X22695000Y15124592D01*
X22695000Y14843750D01*
X22788750Y14750000D01*
X23370000Y14750000D01*
X23370000Y14770000D01*
X23620000Y14770000D01*
X23620000Y14750000D01*
X24201250Y14750000D01*
X24295000Y14843750D01*
X24295000Y15124592D01*
X24237910Y15262420D01*
X24132421Y15367910D01*
X24123207Y15371726D01*
X24172812Y15421245D01*
X24294861Y15715172D01*
X24295139Y16033432D01*
X24173603Y16327572D01*
X24001372Y16500103D01*
X24172812Y16671245D01*
X24294861Y16965172D01*
X24295139Y17283432D01*
X24173603Y17577572D01*
X23948755Y17802812D01*
X23654828Y17924861D01*
X23336568Y17925139D01*
X23042428Y17803603D01*
X22817188Y17578755D01*
X22695139Y17284828D01*
X22694861Y16966568D01*
X18032346Y16966568D01*
X18032346Y17380000D01*
X18006198Y17518966D01*
X17924069Y17646599D01*
X17798754Y17732223D01*
X17650000Y17762346D01*
X17150000Y17762346D01*
X17011034Y17736198D01*
X16883401Y17654069D01*
X16797777Y17528754D01*
X16767654Y17380000D01*
X16767654Y16480000D01*
X16793802Y16341034D01*
X16825000Y16292551D01*
X16825000Y15818596D01*
X16797777Y15778754D01*
X16767654Y15630000D01*
X16767654Y14730000D01*
X16793802Y14591034D01*
X16825000Y14542551D01*
X16825000Y13755084D01*
X16608088Y13755273D01*
X16475000Y13700282D01*
X16475000Y14541404D01*
X16502223Y14581246D01*
X16532346Y14730000D01*
X16532346Y15630000D01*
X16506198Y15768966D01*
X16424069Y15896599D01*
X16298754Y15982223D01*
X16150000Y16012346D01*
X15650000Y16012346D01*
X15511034Y15986198D01*
X15383401Y15904069D01*
X15297777Y15778754D01*
X15267654Y15630000D01*
X15267654Y14730000D01*
X15293802Y14591034D01*
X15325000Y14542551D01*
X15325000Y13818173D01*
X14821079Y13314251D01*
X14737421Y13397910D01*
X14599592Y13455000D01*
X14368750Y13455000D01*
X14275000Y13361250D01*
X14275000Y12805000D01*
X14295000Y12805000D01*
X14295000Y12555000D01*
X14275000Y12555000D01*
X14275000Y12535000D01*
X14025000Y12535000D01*
X14025000Y12555000D01*
X14005000Y12555000D01*
X14005000Y12805000D01*
X14025000Y12805000D01*
X14025000Y13361250D01*
X13931250Y13455000D01*
X13700408Y13455000D01*
X13685000Y13448618D01*
X13685000Y14198833D01*
X14170714Y14399526D01*
X14698620Y14926511D01*
X14984673Y15615403D01*
X14985318Y16355000D01*
X15291174Y16355000D01*
X15293802Y16341034D01*
X15375931Y16213401D01*
X15501246Y16127777D01*
X15650000Y16097654D01*
X16150000Y16097654D01*
X16288966Y16123802D01*
X16416599Y16205931D01*
X16502223Y16331246D01*
X16532346Y16480000D01*
X16532346Y17380000D01*
X16506198Y17518966D01*
X16424069Y17646599D01*
X16298754Y17732223D01*
X16150000Y17762346D01*
X15650000Y17762346D01*
X15511034Y17736198D01*
X15383401Y17654069D01*
X15297777Y17528754D01*
X15292967Y17505000D01*
X14246981Y17505000D01*
X14173489Y17578620D01*
X13484597Y17864673D01*
X12738676Y17865324D01*
X12049286Y17580474D01*
X11521380Y17053489D01*
X11235327Y16364597D01*
X11234676Y15618676D01*
X11519526Y14929286D01*
X12046511Y14401380D01*
X12535000Y14198542D01*
X12535000Y10547002D01*
X12559506Y10423802D01*
X12578769Y10326959D01*
X12630387Y10249707D01*
X12053118Y10234600D01*
X11454844Y9986788D01*
X11280922Y9740854D01*
X12475000Y8546777D01*
X12489142Y8560919D01*
X12665919Y8384142D01*
X12651777Y8370000D01*
X13845854Y7175922D01*
X14091788Y7349844D01*
X14189432Y7604203D01*
X14243414Y7523414D01*
X15188414Y6578413D01*
X15216203Y6559845D01*
X15218802Y6546034D01*
X15300931Y6418401D01*
X15402034Y6349320D01*
X15308401Y6289069D01*
X15222777Y6163754D01*
X15192654Y6015000D01*
X15192654Y5415000D01*
X15218802Y5276034D01*
X15300931Y5148401D01*
X15402096Y5079278D01*
X15362580Y5062910D01*
X15257090Y4957421D01*
X15200000Y4819592D01*
X15200000Y4663750D01*
X15293750Y4570000D01*
X16225000Y4570000D01*
X16225000Y4590000D01*
X16475000Y4590000D01*
X16475000Y4570000D01*
X16495000Y4570000D01*
X16495000Y4320000D01*
X16475000Y4320000D01*
X16475000Y3863750D01*
X16568750Y3770000D01*
X17199592Y3770000D01*
X17337420Y3827090D01*
X17442910Y3932579D01*
X17500000Y4070408D01*
X17500000Y4226250D01*
X17406252Y4319998D01*
X17500000Y4319998D01*
X17500000Y4332894D01*
X19379420Y2453473D01*
X19050000Y2518999D01*
X18581213Y2425751D01*
X18183794Y2160205D01*
X17918248Y1762786D01*
X17825000Y1293999D01*
X17825000Y1246001D01*
X17918248Y777214D01*
X18136885Y450000D01*
X17423115Y450000D01*
X17641752Y777214D01*
X17735000Y1246001D01*
X17735000Y1293999D01*
X17641752Y1762786D01*
X17376206Y2160205D01*
X16978787Y2425751D01*
X16510000Y2518999D01*
X16041213Y2425751D01*
X15643794Y2160205D01*
X15378248Y1762786D01*
X15285000Y1293999D01*
X15285000Y1246001D01*
X15378248Y777214D01*
X15596885Y450000D01*
X14856716Y450000D01*
X14943729Y526694D01*
X15154059Y955905D01*
X15094867Y1145000D01*
X14095000Y1145000D01*
X14095000Y1125000D01*
X13845000Y1125000D01*
X13845000Y1145000D01*
X12845133Y1145000D01*
X12785941Y955905D01*
X12996271Y526694D01*
X13083284Y450000D01*
X12343115Y450000D01*
X12561752Y777214D01*
X12655000Y1246001D01*
X12655000Y1293999D01*
X12597297Y1584095D01*
X12785941Y1584095D01*
X12845133Y1395000D01*
X13845000Y1395000D01*
X13845000Y2394323D01*
X14095000Y2394323D01*
X14095000Y1395000D01*
X15094867Y1395000D01*
X15154059Y1584095D01*
X14943729Y2013306D01*
X14585157Y2329355D01*
X14284093Y2454049D01*
X14095000Y2394323D01*
X13845000Y2394323D01*
X13655907Y2454049D01*
X13354843Y2329355D01*
X12996271Y2013306D01*
X12785941Y1584095D01*
X12597297Y1584095D01*
X12561752Y1762786D01*
X12296206Y2160205D01*
X11898787Y2425751D01*
X11430000Y2518999D01*
X10961213Y2425751D01*
X10563794Y2160205D01*
X10298248Y1762786D01*
X10205000Y1293999D01*
X10205000Y1246001D01*
X10298248Y777214D01*
X10516885Y450000D01*
X9803115Y450000D01*
X10021752Y777214D01*
X10115000Y1246001D01*
X10115000Y1293999D01*
X10021752Y1762786D01*
X9756206Y2160205D01*
X9358787Y2425751D01*
X8890000Y2518999D01*
X8421213Y2425751D01*
X8023794Y2160205D01*
X7758248Y1762786D01*
X7665000Y1293999D01*
X7665000Y1246001D01*
X7758248Y777214D01*
X7976885Y450000D01*
X7582346Y450000D01*
X7582346Y2120000D01*
X7556198Y2258966D01*
X7474069Y2386599D01*
X7368038Y2459047D01*
X7614908Y2561304D01*
X7752173Y2776051D01*
X6775000Y3753223D01*
X5797827Y2776051D01*
X5935092Y2561304D01*
X6094600Y2502346D01*
X5500000Y2502346D01*
X5361034Y2476198D01*
X5233401Y2394069D01*
X5147777Y2268754D01*
X5117654Y2120000D01*
X5117654Y450000D01*
X3119753Y450000D01*
X3757983Y713711D01*
X4364160Y1318831D01*
X4692626Y2109863D01*
X4693373Y2966379D01*
X4366289Y3757983D01*
X3942816Y4182196D01*
X5189071Y4182196D01*
X5213280Y3556090D01*
X5406304Y3090092D01*
X5621051Y2952827D01*
X6598223Y3930000D01*
X6951777Y3930000D01*
X7928949Y2952827D01*
X8143696Y3090092D01*
X8360929Y3677804D01*
X8339723Y4226250D01*
X15200000Y4226250D01*
X15200000Y4070408D01*
X15257090Y3932579D01*
X15362580Y3827090D01*
X15500408Y3770000D01*
X16131250Y3770000D01*
X16225000Y3863750D01*
X16225000Y4320000D01*
X15293750Y4320000D01*
X15200000Y4226250D01*
X8339723Y4226250D01*
X8336720Y4303910D01*
X8143696Y4769908D01*
X7928949Y4907173D01*
X6951777Y3930000D01*
X6598223Y3930000D01*
X5621051Y4907173D01*
X5406304Y4769908D01*
X5189071Y4182196D01*
X3942816Y4182196D01*
X3761169Y4364160D01*
X2970137Y4692626D01*
X2113621Y4693373D01*
X1322017Y4366289D01*
X715840Y3761169D01*
X450000Y3120957D01*
X450000Y5083949D01*
X5797827Y5083949D01*
X6775000Y4106777D01*
X7752173Y5083949D01*
X7614908Y5298696D01*
X7027196Y5515929D01*
X6401090Y5491720D01*
X5935092Y5298696D01*
X5797827Y5083949D01*
X450000Y5083949D01*
X450000Y6999146D01*
X11280922Y6999146D01*
X11454844Y6753212D01*
X12151217Y6485886D01*
X12896882Y6505400D01*
X13495156Y6753212D01*
X13669078Y6999146D01*
X12475000Y8193223D01*
X11280922Y6999146D01*
X450000Y6999146D01*
X450000Y8137303D01*
X2409796Y8137303D01*
X2588302Y7705285D01*
X2918547Y7374464D01*
X3350253Y7195204D01*
X3817697Y7194796D01*
X4249715Y7373302D01*
X4580536Y7703547D01*
X4759796Y8135253D01*
X4760204Y8602697D01*
X4722569Y8693783D01*
X10590886Y8693783D01*
X10610400Y7948118D01*
X10858212Y7349844D01*
X11104146Y7175922D01*
X12298223Y8370000D01*
X11104146Y9564078D01*
X10858212Y9390156D01*
X10590886Y8693783D01*
X4722569Y8693783D01*
X4581698Y9034715D01*
X4251453Y9365536D01*
X3819747Y9544796D01*
X3352303Y9545204D01*
X2920285Y9366698D01*
X2589464Y9036453D01*
X2410204Y8604747D01*
X2409796Y8137303D01*
X450000Y8137303D01*
X450000Y15757303D01*
X7489796Y15757303D01*
X7668302Y15325285D01*
X7998547Y14994464D01*
X8430253Y14815204D01*
X8897697Y14814796D01*
X9329715Y14993302D01*
X9660536Y15323547D01*
X9839796Y15755253D01*
X9840204Y16222697D01*
X9661698Y16654715D01*
X9331453Y16985536D01*
X8899747Y17164796D01*
X8432303Y17165204D01*
X8000285Y16986698D01*
X7669464Y16656453D01*
X7490204Y16224747D01*
X7489796Y15757303D01*
X450000Y15757303D01*
X450000Y19740247D01*
X713711Y19102017D01*
X1318831Y18495840D01*
X2109863Y18167374D01*
X2966379Y18166627D01*
X3757983Y18493711D01*
X4364160Y19098831D01*
X4692626Y19889863D01*
X4693373Y20746379D01*
X4366289Y21537983D01*
X3761169Y22144160D01*
X3120957Y22410000D01*
X15277654Y22410000D01*
X15277654Y20740000D01*
X15277654Y20740000D01*
G37*
X15277654Y20740000D02*
X15303802Y20601034D01*
X15385931Y20473401D01*
X15511246Y20387777D01*
X15660000Y20357654D01*
X17360000Y20357654D01*
X17498966Y20383802D01*
X17626599Y20465931D01*
X17712223Y20591246D01*
X17742346Y20740000D01*
X17742346Y22410000D01*
X18136885Y22410000D01*
X17918248Y22082786D01*
X17825000Y21613999D01*
X17825000Y21566001D01*
X17918248Y21097214D01*
X18183794Y20699795D01*
X18581213Y20434249D01*
X19050000Y20341001D01*
X19518787Y20434249D01*
X19916206Y20699795D01*
X20181752Y21097214D01*
X20275000Y21566001D01*
X20275000Y21613999D01*
X20181752Y22082786D01*
X19963115Y22410000D01*
X20676885Y22410000D01*
X20458248Y22082786D01*
X20365000Y21613999D01*
X20365000Y21566001D01*
X20458248Y21097214D01*
X20723794Y20699795D01*
X21121213Y20434249D01*
X21590000Y20341001D01*
X22058787Y20434249D01*
X22456206Y20699795D01*
X22721752Y21097214D01*
X22815000Y21566001D01*
X22815000Y21613999D01*
X22721752Y22082786D01*
X22503115Y22410000D01*
X23216885Y22410000D01*
X22998248Y22082786D01*
X22905000Y21613999D01*
X22905000Y21566001D01*
X22998248Y21097214D01*
X23263794Y20699795D01*
X23661213Y20434249D01*
X24130000Y20341001D01*
X24598787Y20434249D01*
X24996206Y20699795D01*
X25261752Y21097214D01*
X25355000Y21566001D01*
X25355000Y21613999D01*
X25261752Y22082786D01*
X25043115Y22410000D01*
X25756885Y22410000D01*
X25538248Y22082786D01*
X25445000Y21613999D01*
X25445000Y21566001D01*
X25538248Y21097214D01*
X25803794Y20699795D01*
X26201213Y20434249D01*
X26670000Y20341001D01*
X27138787Y20434249D01*
X27536206Y20699795D01*
X27801752Y21097214D01*
X27895000Y21566001D01*
X27895000Y21613999D01*
X27801752Y22082786D01*
X27583115Y22410000D01*
X28296885Y22410000D01*
X28078248Y22082786D01*
X27985000Y21613999D01*
X27985000Y21566001D01*
X28066943Y21154049D01*
X26796447Y19883553D01*
X26688060Y19721342D01*
X26650000Y19530000D01*
X26650000Y16030000D01*
X26675049Y15904069D01*
X26688060Y15838658D01*
X26796447Y15676447D01*
X27892654Y14580239D01*
X27892654Y14305000D01*
X27918802Y14166034D01*
X28000931Y14038401D01*
X28126246Y13952777D01*
X28275000Y13922654D01*
X29825000Y13922654D01*
X29963966Y13948802D01*
X30091599Y14030931D01*
X30177223Y14156246D01*
X30207346Y14305000D01*
X30207346Y14905000D01*
X30181198Y15043966D01*
X30099069Y15171599D01*
X29997966Y15240680D01*
X30091599Y15300931D01*
X30177223Y15426246D01*
X30207346Y15575000D01*
X30207346Y16175000D01*
X30181198Y16313966D01*
X30099069Y16441599D01*
X29997966Y16510680D01*
X30091599Y16570931D01*
X30146488Y16651263D01*
X30306342Y16683060D01*
X30468553Y16791447D01*
X32466698Y18789592D01*
X33300000Y18789592D01*
X33300000Y18633750D01*
X33393750Y18540000D01*
X34325000Y18540000D01*
X34325000Y18996250D01*
X34575000Y18996250D01*
X34575000Y18540000D01*
X35506250Y18540000D01*
X35600000Y18633750D01*
X35600000Y18789592D01*
X35542910Y18927421D01*
X35437420Y19032910D01*
X35299592Y19090000D01*
X34668750Y19090000D01*
X34575000Y18996250D01*
X34325000Y18996250D01*
X34231250Y19090000D01*
X33600408Y19090000D01*
X33462580Y19032910D01*
X33357090Y18927421D01*
X33300000Y18789592D01*
X32466698Y18789592D01*
X34063218Y20386111D01*
X34290000Y20341001D01*
X34758787Y20434249D01*
X35156206Y20699795D01*
X35421752Y21097214D01*
X35515000Y21566001D01*
X35515000Y21613999D01*
X35421752Y22082786D01*
X35203115Y22410000D01*
X35916885Y22410000D01*
X35698248Y22082786D01*
X35605000Y21613999D01*
X35605000Y21566001D01*
X35698248Y21097214D01*
X35963794Y20699795D01*
X36330000Y20455105D01*
X36330000Y18707107D01*
X35555240Y17932346D01*
X35600000Y18040408D01*
X35600000Y18196250D01*
X35506250Y18290000D01*
X34575000Y18290000D01*
X34575000Y18270000D01*
X34325000Y18270000D01*
X34325000Y18290000D01*
X33393750Y18290000D01*
X33300000Y18196250D01*
X33300000Y18040408D01*
X33357090Y17902579D01*
X33462580Y17797090D01*
X33503384Y17780188D01*
X33408401Y17719069D01*
X33322777Y17593754D01*
X33292654Y17445000D01*
X33292654Y17275827D01*
X32273415Y16256587D01*
X32148770Y16070044D01*
X32105001Y15850001D01*
X32105001Y12825756D01*
X32034855Y12854883D01*
X31766323Y12855117D01*
X31524022Y12755000D01*
X26150000Y12755000D01*
X25929957Y12711231D01*
X25743413Y12586586D01*
X24411828Y11255000D01*
X19275398Y11255000D01*
X19034855Y11354883D01*
X18766323Y11355117D01*
X18594932Y11284300D01*
X18526585Y11386587D01*
X18363606Y11549566D01*
X18494726Y11865339D01*
X18495273Y12491912D01*
X18255999Y13071000D01*
X17975000Y13352490D01*
X17975000Y14406250D01*
X22695000Y14406250D01*
X22695000Y14125408D01*
X22752090Y13987580D01*
X22857579Y13882090D01*
X22995408Y13825000D01*
X23276250Y13825000D01*
X23370000Y13918750D01*
X23370000Y14500000D01*
X23620000Y14500000D01*
X23620000Y13918750D01*
X23713750Y13825000D01*
X23994592Y13825000D01*
X24132421Y13882090D01*
X24237910Y13987580D01*
X24295000Y14125408D01*
X24295000Y14406250D01*
X24201250Y14500000D01*
X23620000Y14500000D01*
X23370000Y14500000D01*
X22788750Y14500000D01*
X22695000Y14406250D01*
X17975000Y14406250D01*
X17975000Y14541404D01*
X18002223Y14581246D01*
X18032346Y14730000D01*
X18032346Y15630000D01*
X18006198Y15768966D01*
X17975000Y15817449D01*
X17975000Y16291404D01*
X18002223Y16331246D01*
X18032346Y16480000D01*
X18032346Y16966568D01*
X22694861Y16966568D01*
X22816397Y16672428D01*
X22988628Y16499897D01*
X22817188Y16328755D01*
X22695139Y16034828D01*
X22694861Y15716568D01*
X22816397Y15422428D01*
X22866947Y15371790D01*
X22857579Y15367910D01*
X22752090Y15262420D01*
X22695000Y15124592D01*
X22695000Y14843750D01*
X22788750Y14750000D01*
X23370000Y14750000D01*
X23370000Y14770000D01*
X23620000Y14770000D01*
X23620000Y14750000D01*
X24201250Y14750000D01*
X24295000Y14843750D01*
X24295000Y15124592D01*
X24237910Y15262420D01*
X24132421Y15367910D01*
X24123207Y15371726D01*
X24172812Y15421245D01*
X24294861Y15715172D01*
X24295139Y16033432D01*
X24173603Y16327572D01*
X24001372Y16500103D01*
X24172812Y16671245D01*
X24294861Y16965172D01*
X24295139Y17283432D01*
X24173603Y17577572D01*
X23948755Y17802812D01*
X23654828Y17924861D01*
X23336568Y17925139D01*
X23042428Y17803603D01*
X22817188Y17578755D01*
X22695139Y17284828D01*
X22694861Y16966568D01*
X18032346Y16966568D01*
X18032346Y17380000D01*
X18006198Y17518966D01*
X17924069Y17646599D01*
X17798754Y17732223D01*
X17650000Y17762346D01*
X17150000Y17762346D01*
X17011034Y17736198D01*
X16883401Y17654069D01*
X16797777Y17528754D01*
X16767654Y17380000D01*
X16767654Y16480000D01*
X16793802Y16341034D01*
X16825000Y16292551D01*
X16825000Y15818596D01*
X16797777Y15778754D01*
X16767654Y15630000D01*
X16767654Y14730000D01*
X16793802Y14591034D01*
X16825000Y14542551D01*
X16825000Y13755084D01*
X16608088Y13755273D01*
X16475000Y13700282D01*
X16475000Y14541404D01*
X16502223Y14581246D01*
X16532346Y14730000D01*
X16532346Y15630000D01*
X16506198Y15768966D01*
X16424069Y15896599D01*
X16298754Y15982223D01*
X16150000Y16012346D01*
X15650000Y16012346D01*
X15511034Y15986198D01*
X15383401Y15904069D01*
X15297777Y15778754D01*
X15267654Y15630000D01*
X15267654Y14730000D01*
X15293802Y14591034D01*
X15325000Y14542551D01*
X15325000Y13818173D01*
X14821079Y13314251D01*
X14737421Y13397910D01*
X14599592Y13455000D01*
X14368750Y13455000D01*
X14275000Y13361250D01*
X14275000Y12805000D01*
X14295000Y12805000D01*
X14295000Y12555000D01*
X14275000Y12555000D01*
X14275000Y12535000D01*
X14025000Y12535000D01*
X14025000Y12555000D01*
X14005000Y12555000D01*
X14005000Y12805000D01*
X14025000Y12805000D01*
X14025000Y13361250D01*
X13931250Y13455000D01*
X13700408Y13455000D01*
X13685000Y13448618D01*
X13685000Y14198833D01*
X14170714Y14399526D01*
X14698620Y14926511D01*
X14984673Y15615403D01*
X14985318Y16355000D01*
X15291174Y16355000D01*
X15293802Y16341034D01*
X15375931Y16213401D01*
X15501246Y16127777D01*
X15650000Y16097654D01*
X16150000Y16097654D01*
X16288966Y16123802D01*
X16416599Y16205931D01*
X16502223Y16331246D01*
X16532346Y16480000D01*
X16532346Y17380000D01*
X16506198Y17518966D01*
X16424069Y17646599D01*
X16298754Y17732223D01*
X16150000Y17762346D01*
X15650000Y17762346D01*
X15511034Y17736198D01*
X15383401Y17654069D01*
X15297777Y17528754D01*
X15292967Y17505000D01*
X14246981Y17505000D01*
X14173489Y17578620D01*
X13484597Y17864673D01*
X12738676Y17865324D01*
X12049286Y17580474D01*
X11521380Y17053489D01*
X11235327Y16364597D01*
X11234676Y15618676D01*
X11519526Y14929286D01*
X12046511Y14401380D01*
X12535000Y14198542D01*
X12535000Y10547002D01*
X12559506Y10423802D01*
X12578769Y10326959D01*
X12630387Y10249707D01*
X12053118Y10234600D01*
X11454844Y9986788D01*
X11280922Y9740854D01*
X12475000Y8546777D01*
X12489142Y8560919D01*
X12665919Y8384142D01*
X12651777Y8370000D01*
X13845854Y7175922D01*
X14091788Y7349844D01*
X14189432Y7604203D01*
X14243414Y7523414D01*
X15188414Y6578413D01*
X15216203Y6559845D01*
X15218802Y6546034D01*
X15300931Y6418401D01*
X15402034Y6349320D01*
X15308401Y6289069D01*
X15222777Y6163754D01*
X15192654Y6015000D01*
X15192654Y5415000D01*
X15218802Y5276034D01*
X15300931Y5148401D01*
X15402096Y5079278D01*
X15362580Y5062910D01*
X15257090Y4957421D01*
X15200000Y4819592D01*
X15200000Y4663750D01*
X15293750Y4570000D01*
X16225000Y4570000D01*
X16225000Y4590000D01*
X16475000Y4590000D01*
X16475000Y4570000D01*
X16495000Y4570000D01*
X16495000Y4320000D01*
X16475000Y4320000D01*
X16475000Y3863750D01*
X16568750Y3770000D01*
X17199592Y3770000D01*
X17337420Y3827090D01*
X17442910Y3932579D01*
X17500000Y4070408D01*
X17500000Y4226250D01*
X17406252Y4319998D01*
X17500000Y4319998D01*
X17500000Y4332894D01*
X19379420Y2453473D01*
X19050000Y2518999D01*
X18581213Y2425751D01*
X18183794Y2160205D01*
X17918248Y1762786D01*
X17825000Y1293999D01*
X17825000Y1246001D01*
X17918248Y777214D01*
X18136885Y450000D01*
X17423115Y450000D01*
X17641752Y777214D01*
X17735000Y1246001D01*
X17735000Y1293999D01*
X17641752Y1762786D01*
X17376206Y2160205D01*
X16978787Y2425751D01*
X16510000Y2518999D01*
X16041213Y2425751D01*
X15643794Y2160205D01*
X15378248Y1762786D01*
X15285000Y1293999D01*
X15285000Y1246001D01*
X15378248Y777214D01*
X15596885Y450000D01*
X14856716Y450000D01*
X14943729Y526694D01*
X15154059Y955905D01*
X15094867Y1145000D01*
X14095000Y1145000D01*
X14095000Y1125000D01*
X13845000Y1125000D01*
X13845000Y1145000D01*
X12845133Y1145000D01*
X12785941Y955905D01*
X12996271Y526694D01*
X13083284Y450000D01*
X12343115Y450000D01*
X12561752Y777214D01*
X12655000Y1246001D01*
X12655000Y1293999D01*
X12597297Y1584095D01*
X12785941Y1584095D01*
X12845133Y1395000D01*
X13845000Y1395000D01*
X13845000Y2394323D01*
X14095000Y2394323D01*
X14095000Y1395000D01*
X15094867Y1395000D01*
X15154059Y1584095D01*
X14943729Y2013306D01*
X14585157Y2329355D01*
X14284093Y2454049D01*
X14095000Y2394323D01*
X13845000Y2394323D01*
X13655907Y2454049D01*
X13354843Y2329355D01*
X12996271Y2013306D01*
X12785941Y1584095D01*
X12597297Y1584095D01*
X12561752Y1762786D01*
X12296206Y2160205D01*
X11898787Y2425751D01*
X11430000Y2518999D01*
X10961213Y2425751D01*
X10563794Y2160205D01*
X10298248Y1762786D01*
X10205000Y1293999D01*
X10205000Y1246001D01*
X10298248Y777214D01*
X10516885Y450000D01*
X9803115Y450000D01*
X10021752Y777214D01*
X10115000Y1246001D01*
X10115000Y1293999D01*
X10021752Y1762786D01*
X9756206Y2160205D01*
X9358787Y2425751D01*
X8890000Y2518999D01*
X8421213Y2425751D01*
X8023794Y2160205D01*
X7758248Y1762786D01*
X7665000Y1293999D01*
X7665000Y1246001D01*
X7758248Y777214D01*
X7976885Y450000D01*
X7582346Y450000D01*
X7582346Y2120000D01*
X7556198Y2258966D01*
X7474069Y2386599D01*
X7368038Y2459047D01*
X7614908Y2561304D01*
X7752173Y2776051D01*
X6775000Y3753223D01*
X5797827Y2776051D01*
X5935092Y2561304D01*
X6094600Y2502346D01*
X5500000Y2502346D01*
X5361034Y2476198D01*
X5233401Y2394069D01*
X5147777Y2268754D01*
X5117654Y2120000D01*
X5117654Y450000D01*
X3119753Y450000D01*
X3757983Y713711D01*
X4364160Y1318831D01*
X4692626Y2109863D01*
X4693373Y2966379D01*
X4366289Y3757983D01*
X3942816Y4182196D01*
X5189071Y4182196D01*
X5213280Y3556090D01*
X5406304Y3090092D01*
X5621051Y2952827D01*
X6598223Y3930000D01*
X6951777Y3930000D01*
X7928949Y2952827D01*
X8143696Y3090092D01*
X8360929Y3677804D01*
X8339723Y4226250D01*
X15200000Y4226250D01*
X15200000Y4070408D01*
X15257090Y3932579D01*
X15362580Y3827090D01*
X15500408Y3770000D01*
X16131250Y3770000D01*
X16225000Y3863750D01*
X16225000Y4320000D01*
X15293750Y4320000D01*
X15200000Y4226250D01*
X8339723Y4226250D01*
X8336720Y4303910D01*
X8143696Y4769908D01*
X7928949Y4907173D01*
X6951777Y3930000D01*
X6598223Y3930000D01*
X5621051Y4907173D01*
X5406304Y4769908D01*
X5189071Y4182196D01*
X3942816Y4182196D01*
X3761169Y4364160D01*
X2970137Y4692626D01*
X2113621Y4693373D01*
X1322017Y4366289D01*
X715840Y3761169D01*
X450000Y3120957D01*
X450000Y5083949D01*
X5797827Y5083949D01*
X6775000Y4106777D01*
X7752173Y5083949D01*
X7614908Y5298696D01*
X7027196Y5515929D01*
X6401090Y5491720D01*
X5935092Y5298696D01*
X5797827Y5083949D01*
X450000Y5083949D01*
X450000Y6999146D01*
X11280922Y6999146D01*
X11454844Y6753212D01*
X12151217Y6485886D01*
X12896882Y6505400D01*
X13495156Y6753212D01*
X13669078Y6999146D01*
X12475000Y8193223D01*
X11280922Y6999146D01*
X450000Y6999146D01*
X450000Y8137303D01*
X2409796Y8137303D01*
X2588302Y7705285D01*
X2918547Y7374464D01*
X3350253Y7195204D01*
X3817697Y7194796D01*
X4249715Y7373302D01*
X4580536Y7703547D01*
X4759796Y8135253D01*
X4760204Y8602697D01*
X4722569Y8693783D01*
X10590886Y8693783D01*
X10610400Y7948118D01*
X10858212Y7349844D01*
X11104146Y7175922D01*
X12298223Y8370000D01*
X11104146Y9564078D01*
X10858212Y9390156D01*
X10590886Y8693783D01*
X4722569Y8693783D01*
X4581698Y9034715D01*
X4251453Y9365536D01*
X3819747Y9544796D01*
X3352303Y9545204D01*
X2920285Y9366698D01*
X2589464Y9036453D01*
X2410204Y8604747D01*
X2409796Y8137303D01*
X450000Y8137303D01*
X450000Y15757303D01*
X7489796Y15757303D01*
X7668302Y15325285D01*
X7998547Y14994464D01*
X8430253Y14815204D01*
X8897697Y14814796D01*
X9329715Y14993302D01*
X9660536Y15323547D01*
X9839796Y15755253D01*
X9840204Y16222697D01*
X9661698Y16654715D01*
X9331453Y16985536D01*
X8899747Y17164796D01*
X8432303Y17165204D01*
X8000285Y16986698D01*
X7669464Y16656453D01*
X7490204Y16224747D01*
X7489796Y15757303D01*
X450000Y15757303D01*
X450000Y19740247D01*
X713711Y19102017D01*
X1318831Y18495840D01*
X2109863Y18167374D01*
X2966379Y18166627D01*
X3757983Y18493711D01*
X4364160Y19098831D01*
X4692626Y19889863D01*
X4693373Y20746379D01*
X4366289Y21537983D01*
X3761169Y22144160D01*
X3120957Y22410000D01*
X15277654Y22410000D01*
X15277654Y20740000D01*
G36*
X38238248Y22082786D02*
X38145000Y21613999D01*
X38145000Y21566001D01*
X38238248Y21097214D01*
X38503794Y20699795D01*
X38901213Y20434249D01*
X39370000Y20341001D01*
X39838787Y20434249D01*
X40236206Y20699795D01*
X40501752Y21097214D01*
X40595000Y21566001D01*
X40595000Y21613999D01*
X40501752Y22082786D01*
X40283115Y22410000D01*
X40996885Y22410000D01*
X40778248Y22082786D01*
X40685000Y21613999D01*
X40685000Y21566001D01*
X40778248Y21097214D01*
X41043794Y20699795D01*
X41441213Y20434249D01*
X41910000Y20341001D01*
X42378787Y20434249D01*
X42776206Y20699795D01*
X43041752Y21097214D01*
X43135000Y21566001D01*
X43135000Y21613999D01*
X43041752Y22082786D01*
X42823115Y22410000D01*
X43536885Y22410000D01*
X43318248Y22082786D01*
X43225000Y21613999D01*
X43225000Y21566001D01*
X43318248Y21097214D01*
X43583794Y20699795D01*
X43875010Y20505211D01*
X43526090Y20491720D01*
X43060092Y20298696D01*
X42922827Y20083949D01*
X43900000Y19106777D01*
X44877173Y20083949D01*
X44739908Y20298696D01*
X44564068Y20363691D01*
X44918787Y20434249D01*
X45316206Y20699795D01*
X45581752Y21097214D01*
X45675000Y21566001D01*
X45675000Y21613999D01*
X45581752Y22082786D01*
X45363115Y22410000D01*
X47680247Y22410000D01*
X47042017Y22146289D01*
X46435840Y21541169D01*
X46107374Y20750137D01*
X46106627Y19893621D01*
X46433711Y19102017D01*
X47038831Y18495840D01*
X47829863Y18167374D01*
X48686379Y18166627D01*
X49477983Y18493711D01*
X50084160Y19098831D01*
X50350000Y19739043D01*
X50350000Y3119753D01*
X50086289Y3757983D01*
X49481169Y4364160D01*
X48690137Y4692626D01*
X47833621Y4693373D01*
X47042017Y4366289D01*
X46435840Y3761169D01*
X46107374Y2970137D01*
X46106627Y2113621D01*
X46433711Y1322017D01*
X47038831Y715840D01*
X47679043Y450000D01*
X45363115Y450000D01*
X45581752Y777214D01*
X45675000Y1246001D01*
X45675000Y1293999D01*
X45581752Y1762786D01*
X45316206Y2160205D01*
X44918787Y2425751D01*
X44450000Y2518999D01*
X43998014Y2429093D01*
X42443542Y3983564D01*
X42281331Y4091951D01*
X42089989Y4130011D01*
X25157096Y4130011D01*
X23218553Y6068553D01*
X23056342Y6176940D01*
X22865000Y6215000D01*
X22841924Y6215000D01*
X22799069Y6281599D01*
X22697966Y6350680D01*
X22791599Y6410931D01*
X22877223Y6536246D01*
X22907346Y6685000D01*
X22907346Y6826568D01*
X26504861Y6826568D01*
X26626397Y6532428D01*
X26798628Y6359897D01*
X26627188Y6188755D01*
X26505139Y5894828D01*
X26504861Y5576568D01*
X26626397Y5282428D01*
X26851245Y5057188D01*
X27145172Y4935139D01*
X27463432Y4934861D01*
X27757572Y5056397D01*
X27982812Y5281245D01*
X28104861Y5575172D01*
X28105139Y5893432D01*
X27983603Y6187572D01*
X27811372Y6360103D01*
X27982812Y6531245D01*
X28104861Y6825172D01*
X28105139Y7143432D01*
X27983603Y7437572D01*
X27933053Y7488210D01*
X27942421Y7492090D01*
X28047910Y7597580D01*
X28105000Y7735408D01*
X28105000Y8016250D01*
X28011250Y8110000D01*
X27430000Y8110000D01*
X27430000Y8090000D01*
X27180000Y8090000D01*
X27180000Y8110000D01*
X26598750Y8110000D01*
X26505000Y8016250D01*
X26505000Y7735408D01*
X26562090Y7597580D01*
X26667579Y7492090D01*
X26676793Y7488274D01*
X26627188Y7438755D01*
X26505139Y7144828D01*
X26504861Y6826568D01*
X22907346Y6826568D01*
X22907346Y7285000D01*
X22881198Y7423966D01*
X22799069Y7551599D01*
X22697966Y7620680D01*
X22790152Y7680000D01*
X22945366Y7680000D01*
X23017144Y7608097D01*
X23265145Y7505117D01*
X23533677Y7504883D01*
X23781857Y7607429D01*
X23971903Y7797144D01*
X24074883Y8045145D01*
X24075117Y8313677D01*
X23972571Y8561857D01*
X23800137Y8734592D01*
X26505000Y8734592D01*
X26505000Y8453750D01*
X26598750Y8360000D01*
X27180000Y8360000D01*
X27180000Y8941250D01*
X27430000Y8941250D01*
X27430000Y8360000D01*
X28011250Y8360000D01*
X28105000Y8453750D01*
X28105000Y8734592D01*
X28047910Y8872420D01*
X27942421Y8977910D01*
X27804592Y9035000D01*
X27523750Y9035000D01*
X27430000Y8941250D01*
X27180000Y8941250D01*
X27086250Y9035000D01*
X26805408Y9035000D01*
X26667579Y8977910D01*
X26562090Y8872420D01*
X26505000Y8734592D01*
X23800137Y8734592D01*
X23782856Y8751903D01*
X23534855Y8854883D01*
X23266323Y8855117D01*
X23018143Y8752571D01*
X22945445Y8680000D01*
X22883826Y8680000D01*
X22881198Y8693966D01*
X22799069Y8821599D01*
X22673754Y8907223D01*
X22525000Y8937346D01*
X20975000Y8937346D01*
X20836034Y8911198D01*
X20708401Y8829069D01*
X20622777Y8703754D01*
X20592654Y8555000D01*
X20592654Y7955000D01*
X20618802Y7816034D01*
X20700931Y7688401D01*
X20802034Y7619320D01*
X20708401Y7559069D01*
X20622777Y7433754D01*
X20592654Y7285000D01*
X20592654Y6685000D01*
X20618802Y6546034D01*
X20700931Y6418401D01*
X20802034Y6349320D01*
X20708401Y6289069D01*
X20622777Y6163754D01*
X20592654Y6015000D01*
X20592654Y5415000D01*
X20618802Y5276034D01*
X20700931Y5148401D01*
X20802034Y5079320D01*
X20708401Y5019069D01*
X20622777Y4893754D01*
X20592654Y4745000D01*
X20592654Y4145000D01*
X20618802Y4006034D01*
X20700931Y3878401D01*
X20826246Y3792777D01*
X20975000Y3762654D01*
X22525000Y3762654D01*
X22663966Y3788802D01*
X22791599Y3870931D01*
X22842208Y3945000D01*
X23177894Y3945000D01*
X23942893Y3180000D01*
X20067107Y3180000D01*
X17585139Y5661967D01*
X18526585Y6603412D01*
X18651230Y6789956D01*
X18658235Y6825172D01*
X18694999Y7009999D01*
X18694999Y10034244D01*
X18765145Y10005117D01*
X19033677Y10004883D01*
X19275978Y10105000D01*
X24650000Y10105000D01*
X24870043Y10148769D01*
X25056586Y10273414D01*
X26388173Y11605000D01*
X31524602Y11605000D01*
X31765145Y11505117D01*
X32033677Y11504883D01*
X32281857Y11607429D01*
X32471903Y11797144D01*
X32538735Y11958093D01*
X32672247Y11824581D01*
X32420559Y11573331D01*
X32180274Y10994661D01*
X32179727Y10368088D01*
X32419001Y9789000D01*
X32825000Y9382292D01*
X32825000Y8318596D01*
X32797777Y8278754D01*
X32767654Y8130000D01*
X32767654Y7230000D01*
X32793802Y7091034D01*
X32825000Y7042551D01*
X32825000Y6568596D01*
X32797777Y6528754D01*
X32767654Y6380000D01*
X32767654Y5480000D01*
X32793802Y5341034D01*
X32875931Y5213401D01*
X33001246Y5127777D01*
X33150000Y5097654D01*
X33650000Y5097654D01*
X33788966Y5123802D01*
X33916599Y5205931D01*
X34002223Y5331246D01*
X34032346Y5480000D01*
X34032346Y6380000D01*
X34006198Y6518966D01*
X33975000Y6567449D01*
X33975000Y7041404D01*
X34002223Y7081246D01*
X34032346Y7230000D01*
X34032346Y8130000D01*
X34006198Y8268966D01*
X33975000Y8317449D01*
X33975000Y9104807D01*
X34066912Y9104727D01*
X34325000Y9211367D01*
X34325000Y8318596D01*
X34297777Y8278754D01*
X34267654Y8130000D01*
X34267654Y7230000D01*
X34293802Y7091034D01*
X34375931Y6963401D01*
X34501246Y6877777D01*
X34650000Y6847654D01*
X35150000Y6847654D01*
X35288966Y6873802D01*
X35416599Y6955931D01*
X35502223Y7081246D01*
X35532346Y7230000D01*
X35532346Y8130000D01*
X35506198Y8268966D01*
X35475000Y8317449D01*
X35475000Y9191828D01*
X35900000Y9616827D01*
X35900000Y9455408D01*
X35957090Y9317580D01*
X36062579Y9212090D01*
X36200408Y9155000D01*
X36431250Y9155000D01*
X36525000Y9248750D01*
X36525000Y9805000D01*
X36505000Y9805000D01*
X36505000Y10055000D01*
X36525000Y10055000D01*
X36525000Y10075000D01*
X36775000Y10075000D01*
X36775000Y10055000D01*
X36795000Y10055000D01*
X36795000Y9805000D01*
X36775000Y9805000D01*
X36775000Y9248750D01*
X36868750Y9155000D01*
X37099592Y9155000D01*
X37237421Y9212090D01*
X37325000Y9299670D01*
X37325000Y8745209D01*
X37193676Y8745324D01*
X36504286Y8460474D01*
X35976380Y7933489D01*
X35690327Y7244597D01*
X35689682Y6505000D01*
X35508826Y6505000D01*
X35506198Y6518966D01*
X35424069Y6646599D01*
X35298754Y6732223D01*
X35150000Y6762346D01*
X34650000Y6762346D01*
X34511034Y6736198D01*
X34383401Y6654069D01*
X34297777Y6528754D01*
X34267654Y6380000D01*
X34267654Y5480000D01*
X34293802Y5341034D01*
X34375931Y5213401D01*
X34501246Y5127777D01*
X34650000Y5097654D01*
X35150000Y5097654D01*
X35288966Y5123802D01*
X35416599Y5205931D01*
X35502223Y5331246D01*
X35507033Y5355000D01*
X36428019Y5355000D01*
X36501511Y5281380D01*
X37190403Y4995327D01*
X37936324Y4994676D01*
X38625714Y5279526D01*
X39153620Y5806511D01*
X39439673Y6495403D01*
X39439796Y6637303D01*
X40834796Y6637303D01*
X41013302Y6205285D01*
X41343547Y5874464D01*
X41775253Y5695204D01*
X42242697Y5694796D01*
X42674715Y5873302D01*
X43005536Y6203547D01*
X43184796Y6635253D01*
X43185204Y7102697D01*
X43006698Y7534715D01*
X42676453Y7865536D01*
X42244747Y8044796D01*
X41777303Y8045204D01*
X41345285Y7866698D01*
X41014464Y7536453D01*
X40835204Y7104747D01*
X40834796Y6637303D01*
X39439796Y6637303D01*
X39440324Y7241324D01*
X39155474Y7930714D01*
X38628489Y8458620D01*
X38475000Y8522354D01*
X38475000Y11977998D01*
X38431231Y12198041D01*
X38306587Y12384584D01*
X38079953Y12611218D01*
X38621882Y12625400D01*
X39220156Y12873212D01*
X39394078Y13119146D01*
X38200000Y14313223D01*
X38185858Y14299081D01*
X38009081Y14475858D01*
X38023223Y14490000D01*
X38376777Y14490000D01*
X39570854Y13295922D01*
X39816788Y13469844D01*
X40084114Y14166217D01*
X40081731Y14257303D01*
X45914796Y14257303D01*
X46093302Y13825285D01*
X46423547Y13494464D01*
X46855253Y13315204D01*
X47322697Y13314796D01*
X47754715Y13493302D01*
X48085536Y13823547D01*
X48264796Y14255253D01*
X48265204Y14722697D01*
X48086698Y15154715D01*
X47756453Y15485536D01*
X47324747Y15664796D01*
X46857303Y15665204D01*
X46425285Y15486698D01*
X46094464Y15156453D01*
X45915204Y14724747D01*
X45914796Y14257303D01*
X40081731Y14257303D01*
X40064600Y14911882D01*
X39816788Y15510156D01*
X39570854Y15684078D01*
X38376777Y14490000D01*
X38023223Y14490000D01*
X36829146Y15684078D01*
X36599812Y15521895D01*
X36556586Y15586587D01*
X36282319Y15860854D01*
X37005922Y15860854D01*
X38200000Y14666777D01*
X39394078Y15860854D01*
X39220156Y16106788D01*
X38523783Y16374114D01*
X37778118Y16354600D01*
X37179844Y16106788D01*
X37005922Y15860854D01*
X36282319Y15860854D01*
X35861586Y16281586D01*
X35675043Y16406231D01*
X35499338Y16441181D01*
X35499069Y16441599D01*
X35397966Y16510680D01*
X35491599Y16570931D01*
X35552779Y16660471D01*
X35666342Y16683060D01*
X35828553Y16791447D01*
X36813157Y17776051D01*
X42922827Y17776051D01*
X43060092Y17561304D01*
X43647804Y17344071D01*
X44273910Y17368280D01*
X44739908Y17561304D01*
X44877173Y17776051D01*
X43900000Y18753223D01*
X42922827Y17776051D01*
X36813157Y17776051D01*
X37183553Y18146446D01*
X37291940Y18308658D01*
X37308120Y18390001D01*
X37330000Y18500000D01*
X37330000Y19182196D01*
X42314071Y19182196D01*
X42338280Y18556090D01*
X42531304Y18090092D01*
X42746051Y17952827D01*
X43723223Y18930000D01*
X44076777Y18930000D01*
X45053949Y17952827D01*
X45268696Y18090092D01*
X45485929Y18677804D01*
X45461720Y19303910D01*
X45268696Y19769908D01*
X45053949Y19907173D01*
X44076777Y18930000D01*
X43723223Y18930000D01*
X42746051Y19907173D01*
X42531304Y19769908D01*
X42314071Y19182196D01*
X37330000Y19182196D01*
X37330000Y20455105D01*
X37696206Y20699795D01*
X37961752Y21097214D01*
X38055000Y21566001D01*
X38055000Y21613999D01*
X37961752Y22082786D01*
X37743115Y22410000D01*
X38456885Y22410000D01*
X38238248Y22082786D01*
X38238248Y22082786D01*
G37*
X38238248Y22082786D02*
X38145000Y21613999D01*
X38145000Y21566001D01*
X38238248Y21097214D01*
X38503794Y20699795D01*
X38901213Y20434249D01*
X39370000Y20341001D01*
X39838787Y20434249D01*
X40236206Y20699795D01*
X40501752Y21097214D01*
X40595000Y21566001D01*
X40595000Y21613999D01*
X40501752Y22082786D01*
X40283115Y22410000D01*
X40996885Y22410000D01*
X40778248Y22082786D01*
X40685000Y21613999D01*
X40685000Y21566001D01*
X40778248Y21097214D01*
X41043794Y20699795D01*
X41441213Y20434249D01*
X41910000Y20341001D01*
X42378787Y20434249D01*
X42776206Y20699795D01*
X43041752Y21097214D01*
X43135000Y21566001D01*
X43135000Y21613999D01*
X43041752Y22082786D01*
X42823115Y22410000D01*
X43536885Y22410000D01*
X43318248Y22082786D01*
X43225000Y21613999D01*
X43225000Y21566001D01*
X43318248Y21097214D01*
X43583794Y20699795D01*
X43875010Y20505211D01*
X43526090Y20491720D01*
X43060092Y20298696D01*
X42922827Y20083949D01*
X43900000Y19106777D01*
X44877173Y20083949D01*
X44739908Y20298696D01*
X44564068Y20363691D01*
X44918787Y20434249D01*
X45316206Y20699795D01*
X45581752Y21097214D01*
X45675000Y21566001D01*
X45675000Y21613999D01*
X45581752Y22082786D01*
X45363115Y22410000D01*
X47680247Y22410000D01*
X47042017Y22146289D01*
X46435840Y21541169D01*
X46107374Y20750137D01*
X46106627Y19893621D01*
X46433711Y19102017D01*
X47038831Y18495840D01*
X47829863Y18167374D01*
X48686379Y18166627D01*
X49477983Y18493711D01*
X50084160Y19098831D01*
X50350000Y19739043D01*
X50350000Y3119753D01*
X50086289Y3757983D01*
X49481169Y4364160D01*
X48690137Y4692626D01*
X47833621Y4693373D01*
X47042017Y4366289D01*
X46435840Y3761169D01*
X46107374Y2970137D01*
X46106627Y2113621D01*
X46433711Y1322017D01*
X47038831Y715840D01*
X47679043Y450000D01*
X45363115Y450000D01*
X45581752Y777214D01*
X45675000Y1246001D01*
X45675000Y1293999D01*
X45581752Y1762786D01*
X45316206Y2160205D01*
X44918787Y2425751D01*
X44450000Y2518999D01*
X43998014Y2429093D01*
X42443542Y3983564D01*
X42281331Y4091951D01*
X42089989Y4130011D01*
X25157096Y4130011D01*
X23218553Y6068553D01*
X23056342Y6176940D01*
X22865000Y6215000D01*
X22841924Y6215000D01*
X22799069Y6281599D01*
X22697966Y6350680D01*
X22791599Y6410931D01*
X22877223Y6536246D01*
X22907346Y6685000D01*
X22907346Y6826568D01*
X26504861Y6826568D01*
X26626397Y6532428D01*
X26798628Y6359897D01*
X26627188Y6188755D01*
X26505139Y5894828D01*
X26504861Y5576568D01*
X26626397Y5282428D01*
X26851245Y5057188D01*
X27145172Y4935139D01*
X27463432Y4934861D01*
X27757572Y5056397D01*
X27982812Y5281245D01*
X28104861Y5575172D01*
X28105139Y5893432D01*
X27983603Y6187572D01*
X27811372Y6360103D01*
X27982812Y6531245D01*
X28104861Y6825172D01*
X28105139Y7143432D01*
X27983603Y7437572D01*
X27933053Y7488210D01*
X27942421Y7492090D01*
X28047910Y7597580D01*
X28105000Y7735408D01*
X28105000Y8016250D01*
X28011250Y8110000D01*
X27430000Y8110000D01*
X27430000Y8090000D01*
X27180000Y8090000D01*
X27180000Y8110000D01*
X26598750Y8110000D01*
X26505000Y8016250D01*
X26505000Y7735408D01*
X26562090Y7597580D01*
X26667579Y7492090D01*
X26676793Y7488274D01*
X26627188Y7438755D01*
X26505139Y7144828D01*
X26504861Y6826568D01*
X22907346Y6826568D01*
X22907346Y7285000D01*
X22881198Y7423966D01*
X22799069Y7551599D01*
X22697966Y7620680D01*
X22790152Y7680000D01*
X22945366Y7680000D01*
X23017144Y7608097D01*
X23265145Y7505117D01*
X23533677Y7504883D01*
X23781857Y7607429D01*
X23971903Y7797144D01*
X24074883Y8045145D01*
X24075117Y8313677D01*
X23972571Y8561857D01*
X23800137Y8734592D01*
X26505000Y8734592D01*
X26505000Y8453750D01*
X26598750Y8360000D01*
X27180000Y8360000D01*
X27180000Y8941250D01*
X27430000Y8941250D01*
X27430000Y8360000D01*
X28011250Y8360000D01*
X28105000Y8453750D01*
X28105000Y8734592D01*
X28047910Y8872420D01*
X27942421Y8977910D01*
X27804592Y9035000D01*
X27523750Y9035000D01*
X27430000Y8941250D01*
X27180000Y8941250D01*
X27086250Y9035000D01*
X26805408Y9035000D01*
X26667579Y8977910D01*
X26562090Y8872420D01*
X26505000Y8734592D01*
X23800137Y8734592D01*
X23782856Y8751903D01*
X23534855Y8854883D01*
X23266323Y8855117D01*
X23018143Y8752571D01*
X22945445Y8680000D01*
X22883826Y8680000D01*
X22881198Y8693966D01*
X22799069Y8821599D01*
X22673754Y8907223D01*
X22525000Y8937346D01*
X20975000Y8937346D01*
X20836034Y8911198D01*
X20708401Y8829069D01*
X20622777Y8703754D01*
X20592654Y8555000D01*
X20592654Y7955000D01*
X20618802Y7816034D01*
X20700931Y7688401D01*
X20802034Y7619320D01*
X20708401Y7559069D01*
X20622777Y7433754D01*
X20592654Y7285000D01*
X20592654Y6685000D01*
X20618802Y6546034D01*
X20700931Y6418401D01*
X20802034Y6349320D01*
X20708401Y6289069D01*
X20622777Y6163754D01*
X20592654Y6015000D01*
X20592654Y5415000D01*
X20618802Y5276034D01*
X20700931Y5148401D01*
X20802034Y5079320D01*
X20708401Y5019069D01*
X20622777Y4893754D01*
X20592654Y4745000D01*
X20592654Y4145000D01*
X20618802Y4006034D01*
X20700931Y3878401D01*
X20826246Y3792777D01*
X20975000Y3762654D01*
X22525000Y3762654D01*
X22663966Y3788802D01*
X22791599Y3870931D01*
X22842208Y3945000D01*
X23177894Y3945000D01*
X23942893Y3180000D01*
X20067107Y3180000D01*
X17585139Y5661967D01*
X18526585Y6603412D01*
X18651230Y6789956D01*
X18658235Y6825172D01*
X18694999Y7009999D01*
X18694999Y10034244D01*
X18765145Y10005117D01*
X19033677Y10004883D01*
X19275978Y10105000D01*
X24650000Y10105000D01*
X24870043Y10148769D01*
X25056586Y10273414D01*
X26388173Y11605000D01*
X31524602Y11605000D01*
X31765145Y11505117D01*
X32033677Y11504883D01*
X32281857Y11607429D01*
X32471903Y11797144D01*
X32538735Y11958093D01*
X32672247Y11824581D01*
X32420559Y11573331D01*
X32180274Y10994661D01*
X32179727Y10368088D01*
X32419001Y9789000D01*
X32825000Y9382292D01*
X32825000Y8318596D01*
X32797777Y8278754D01*
X32767654Y8130000D01*
X32767654Y7230000D01*
X32793802Y7091034D01*
X32825000Y7042551D01*
X32825000Y6568596D01*
X32797777Y6528754D01*
X32767654Y6380000D01*
X32767654Y5480000D01*
X32793802Y5341034D01*
X32875931Y5213401D01*
X33001246Y5127777D01*
X33150000Y5097654D01*
X33650000Y5097654D01*
X33788966Y5123802D01*
X33916599Y5205931D01*
X34002223Y5331246D01*
X34032346Y5480000D01*
X34032346Y6380000D01*
X34006198Y6518966D01*
X33975000Y6567449D01*
X33975000Y7041404D01*
X34002223Y7081246D01*
X34032346Y7230000D01*
X34032346Y8130000D01*
X34006198Y8268966D01*
X33975000Y8317449D01*
X33975000Y9104807D01*
X34066912Y9104727D01*
X34325000Y9211367D01*
X34325000Y8318596D01*
X34297777Y8278754D01*
X34267654Y8130000D01*
X34267654Y7230000D01*
X34293802Y7091034D01*
X34375931Y6963401D01*
X34501246Y6877777D01*
X34650000Y6847654D01*
X35150000Y6847654D01*
X35288966Y6873802D01*
X35416599Y6955931D01*
X35502223Y7081246D01*
X35532346Y7230000D01*
X35532346Y8130000D01*
X35506198Y8268966D01*
X35475000Y8317449D01*
X35475000Y9191828D01*
X35900000Y9616827D01*
X35900000Y9455408D01*
X35957090Y9317580D01*
X36062579Y9212090D01*
X36200408Y9155000D01*
X36431250Y9155000D01*
X36525000Y9248750D01*
X36525000Y9805000D01*
X36505000Y9805000D01*
X36505000Y10055000D01*
X36525000Y10055000D01*
X36525000Y10075000D01*
X36775000Y10075000D01*
X36775000Y10055000D01*
X36795000Y10055000D01*
X36795000Y9805000D01*
X36775000Y9805000D01*
X36775000Y9248750D01*
X36868750Y9155000D01*
X37099592Y9155000D01*
X37237421Y9212090D01*
X37325000Y9299670D01*
X37325000Y8745209D01*
X37193676Y8745324D01*
X36504286Y8460474D01*
X35976380Y7933489D01*
X35690327Y7244597D01*
X35689682Y6505000D01*
X35508826Y6505000D01*
X35506198Y6518966D01*
X35424069Y6646599D01*
X35298754Y6732223D01*
X35150000Y6762346D01*
X34650000Y6762346D01*
X34511034Y6736198D01*
X34383401Y6654069D01*
X34297777Y6528754D01*
X34267654Y6380000D01*
X34267654Y5480000D01*
X34293802Y5341034D01*
X34375931Y5213401D01*
X34501246Y5127777D01*
X34650000Y5097654D01*
X35150000Y5097654D01*
X35288966Y5123802D01*
X35416599Y5205931D01*
X35502223Y5331246D01*
X35507033Y5355000D01*
X36428019Y5355000D01*
X36501511Y5281380D01*
X37190403Y4995327D01*
X37936324Y4994676D01*
X38625714Y5279526D01*
X39153620Y5806511D01*
X39439673Y6495403D01*
X39439796Y6637303D01*
X40834796Y6637303D01*
X41013302Y6205285D01*
X41343547Y5874464D01*
X41775253Y5695204D01*
X42242697Y5694796D01*
X42674715Y5873302D01*
X43005536Y6203547D01*
X43184796Y6635253D01*
X43185204Y7102697D01*
X43006698Y7534715D01*
X42676453Y7865536D01*
X42244747Y8044796D01*
X41777303Y8045204D01*
X41345285Y7866698D01*
X41014464Y7536453D01*
X40835204Y7104747D01*
X40834796Y6637303D01*
X39439796Y6637303D01*
X39440324Y7241324D01*
X39155474Y7930714D01*
X38628489Y8458620D01*
X38475000Y8522354D01*
X38475000Y11977998D01*
X38431231Y12198041D01*
X38306587Y12384584D01*
X38079953Y12611218D01*
X38621882Y12625400D01*
X39220156Y12873212D01*
X39394078Y13119146D01*
X38200000Y14313223D01*
X38185858Y14299081D01*
X38009081Y14475858D01*
X38023223Y14490000D01*
X38376777Y14490000D01*
X39570854Y13295922D01*
X39816788Y13469844D01*
X40084114Y14166217D01*
X40081731Y14257303D01*
X45914796Y14257303D01*
X46093302Y13825285D01*
X46423547Y13494464D01*
X46855253Y13315204D01*
X47322697Y13314796D01*
X47754715Y13493302D01*
X48085536Y13823547D01*
X48264796Y14255253D01*
X48265204Y14722697D01*
X48086698Y15154715D01*
X47756453Y15485536D01*
X47324747Y15664796D01*
X46857303Y15665204D01*
X46425285Y15486698D01*
X46094464Y15156453D01*
X45915204Y14724747D01*
X45914796Y14257303D01*
X40081731Y14257303D01*
X40064600Y14911882D01*
X39816788Y15510156D01*
X39570854Y15684078D01*
X38376777Y14490000D01*
X38023223Y14490000D01*
X36829146Y15684078D01*
X36599812Y15521895D01*
X36556586Y15586587D01*
X36282319Y15860854D01*
X37005922Y15860854D01*
X38200000Y14666777D01*
X39394078Y15860854D01*
X39220156Y16106788D01*
X38523783Y16374114D01*
X37778118Y16354600D01*
X37179844Y16106788D01*
X37005922Y15860854D01*
X36282319Y15860854D01*
X35861586Y16281586D01*
X35675043Y16406231D01*
X35499338Y16441181D01*
X35499069Y16441599D01*
X35397966Y16510680D01*
X35491599Y16570931D01*
X35552779Y16660471D01*
X35666342Y16683060D01*
X35828553Y16791447D01*
X36813157Y17776051D01*
X42922827Y17776051D01*
X43060092Y17561304D01*
X43647804Y17344071D01*
X44273910Y17368280D01*
X44739908Y17561304D01*
X44877173Y17776051D01*
X43900000Y18753223D01*
X42922827Y17776051D01*
X36813157Y17776051D01*
X37183553Y18146446D01*
X37291940Y18308658D01*
X37308120Y18390001D01*
X37330000Y18500000D01*
X37330000Y19182196D01*
X42314071Y19182196D01*
X42338280Y18556090D01*
X42531304Y18090092D01*
X42746051Y17952827D01*
X43723223Y18930000D01*
X44076777Y18930000D01*
X45053949Y17952827D01*
X45268696Y18090092D01*
X45485929Y18677804D01*
X45461720Y19303910D01*
X45268696Y19769908D01*
X45053949Y19907173D01*
X44076777Y18930000D01*
X43723223Y18930000D01*
X42746051Y19907173D01*
X42531304Y19769908D01*
X42314071Y19182196D01*
X37330000Y19182196D01*
X37330000Y20455105D01*
X37696206Y20699795D01*
X37961752Y21097214D01*
X38055000Y21566001D01*
X38055000Y21613999D01*
X37961752Y22082786D01*
X37743115Y22410000D01*
X38456885Y22410000D01*
X38238248Y22082786D01*
M02*
