G04 #@! TF.FileFunction,Soldermask,Bot*
%FSLAX46Y46*%
G04 Gerber Fmt 4.6, Leading zero omitted, Abs format (unit mm)*
G04 Created by KiCad (PCBNEW 4.0.7) date Wed Jun 13 11:36:42 2018*
%MOMM*%
%LPD*%
G01*
G04 APERTURE LIST*
%ADD10C,0.100000*%
%ADD11R,0.890000X0.940000*%
%ADD12R,1.840000X1.840000*%
%ADD13O,1.840000X1.840000*%
%ADD14R,0.990000X0.990000*%
%ADD15C,0.990000*%
%ADD16C,3.696000*%
%ADD17R,0.640000X1.040000*%
%ADD18R,1.690000X0.740000*%
%ADD19C,1.740000*%
%ADD20C,3.140000*%
%ADD21C,2.540000*%
G04 APERTURE END LIST*
D10*
D11*
X14150000Y12680000D03*
X14150000Y11180000D03*
X36650000Y9930000D03*
X36650000Y11430000D03*
D12*
X6350000Y1270000D03*
D13*
X8890000Y1270000D03*
X11430000Y1270000D03*
X13970000Y1270000D03*
X16510000Y1270000D03*
X19050000Y1270000D03*
X21590000Y1270000D03*
X24130000Y1270000D03*
X26670000Y1270000D03*
X29210000Y1270000D03*
X31750000Y1270000D03*
X34290000Y1270000D03*
X36830000Y1270000D03*
X39370000Y1270000D03*
X41910000Y1270000D03*
X44450000Y1270000D03*
D12*
X16510000Y21590000D03*
D13*
X19050000Y21590000D03*
X21590000Y21590000D03*
X24130000Y21590000D03*
X26670000Y21590000D03*
X29210000Y21590000D03*
X31750000Y21590000D03*
X34290000Y21590000D03*
X36830000Y21590000D03*
X39370000Y21590000D03*
X41910000Y21590000D03*
X44450000Y21590000D03*
D14*
X23495000Y14625000D03*
D15*
X23495000Y15875000D03*
X23495000Y17125000D03*
D14*
X27305000Y8235000D03*
D15*
X27305000Y6985000D03*
X27305000Y5735000D03*
D16*
X2540000Y20320000D03*
X48260000Y20320000D03*
X2540000Y2540000D03*
X48260000Y2540000D03*
D17*
X15900000Y15180000D03*
X17400000Y15180000D03*
X17400000Y16930000D03*
X15900000Y16930000D03*
X34900000Y7680000D03*
X33400000Y7680000D03*
X33400000Y5930000D03*
X34900000Y5930000D03*
D18*
X21750000Y8255000D03*
X21750000Y6985000D03*
X21750000Y5715000D03*
X21750000Y4445000D03*
X16350000Y4445000D03*
X16350000Y5715000D03*
X16350000Y6985000D03*
X16350000Y8255000D03*
X29050000Y14605000D03*
X29050000Y15875000D03*
X29050000Y17145000D03*
X29050000Y18415000D03*
X34450000Y18415000D03*
X34450000Y17145000D03*
X34450000Y15875000D03*
X34450000Y14605000D03*
D19*
X47090000Y14490000D03*
X42010000Y6870000D03*
D20*
X38200000Y14490000D03*
X37565000Y6870000D03*
D21*
X33755000Y10680000D03*
X43900000Y18930000D03*
D19*
X3585000Y8370000D03*
X8665000Y15990000D03*
D20*
X12475000Y8370000D03*
X13110000Y15990000D03*
D21*
X16920000Y12180000D03*
X6775000Y3930000D03*
M02*
