M48
;DRILL file {KiCad 4.0.7} date Wed Jun 13 11:36:44 2018
;FORMAT={-:-/ absolute / metric / decimal}
FMAT,2
METRIC,TZ
T1C0.400
T2C0.500
T3C1.000
T4C1.200
T5C1.600
T6C1.600
T7C2.540
%
G90
G05
M71
T1
X14.15Y13.68
X14.65Y4.43
X15.15Y10.68
X18.9Y10.68
X23.4Y8.18
X31.9Y12.18
X35.65Y12.18
X35.9Y18.93
X36.65Y8.93
T2
X23.495Y17.125
X23.495Y15.875
X23.495Y14.625
X27.305Y8.235
X27.305Y6.985
X27.305Y5.735
T3
X6.35Y1.27
X8.89Y1.27
X11.43Y1.27
X13.97Y1.27
X16.51Y21.59
X16.51Y1.27
X19.05Y21.59
X19.05Y1.27
X21.59Y21.59
X21.59Y1.27
X24.13Y21.59
X24.13Y1.27
X26.67Y21.59
X26.67Y1.27
X29.21Y21.59
X29.21Y1.27
X31.75Y21.59
X31.75Y1.27
X34.29Y21.59
X34.29Y1.27
X36.83Y21.59
X36.83Y1.27
X39.37Y21.59
X39.37Y1.27
X41.91Y21.59
X41.91Y1.27
X44.45Y21.59
X44.45Y1.27
T4
X6.775Y3.93
X16.92Y12.18
X33.755Y10.68
X43.9Y18.93
T5
X12.475Y8.37
X13.11Y15.99
X37.565Y6.87
X38.2Y14.49
T6
X3.585Y8.37
X8.665Y15.99
X42.01Y6.87
X47.09Y14.49
T7
X2.54Y20.32
X2.54Y2.54
X48.26Y20.32
X48.26Y2.54
T0
M30
