M48
;DRILL file {KiCad 4.0.7} date Thu Jan 25 15:49:42 2018
;FORMAT={-:-/ absolute / metric / decimal}
FMAT,2
METRIC,TZ
T1C0.400
T2C0.500
T3C1.000
T4C1.200
T5C1.600
T6C1.600
%
G90
G05
M71
T1
X3.5Y1.25
X3.526Y3.526
X4.Y13.75
X5.5Y1.25
X7.25Y10.25
X7.25Y8.75
X7.25Y2.95
X7.5Y6.75
X7.5Y5.5
X7.5Y1.25
X9.25Y2.5
X15.5Y6.25
T2
X10.Y13.75
X11.25Y13.75
X12.5Y13.75
T3
X1.88Y11.66
X1.88Y9.12
X1.88Y6.58
X1.88Y4.04
X1.88Y1.5
X17.12Y11.66
X17.12Y9.12
X17.12Y6.58
X17.12Y4.04
X17.12Y1.5
T4
X2.515Y27.995
X9.5Y19.105
T5
X5.69Y23.55
X13.31Y22.915
T6
X5.69Y32.44
X13.31Y27.36
T0
M30
