G04 This is an RS-274x file exported by *
G04 gerbv version 2.6.2 *
G04 More information is available about gerbv at *
G04 http://gerbv.geda-project.org/ *
G04 --End of header info--*
%MOIN*%
%FSLAX34Y34*%
%IPPOS*%
G04 --Define apertures--*
%ADD10C,0.0039*%
%ADD11C,0.0079*%
%ADD12C,0.0118*%
%ADD13C,0.0047*%
%ADD14C,0.0059*%
%ADD15C,0.0098*%
G04 --Start main section--*
G54D11*
G01X0003346Y0000984D02*
G01X0003051Y0000689D01*
G01X0004246Y0001220D02*
G01X0004284Y0001239D01*
G01X0004284Y0001239D02*
G01X0004340Y0001239D01*
G01X0004340Y0001239D02*
G01X0004396Y0001220D01*
G01X0004396Y0001220D02*
G01X0004434Y0001183D01*
G01X0004434Y0001183D02*
G01X0004453Y0001145D01*
G01X0004453Y0001145D02*
G01X0004471Y0001070D01*
G01X0004471Y0001070D02*
G01X0004471Y0001014D01*
G01X0004471Y0001014D02*
G01X0004453Y0000939D01*
G01X0004453Y0000939D02*
G01X0004434Y0000902D01*
G01X0004434Y0000902D02*
G01X0004396Y0000864D01*
G01X0004396Y0000864D02*
G01X0004340Y0000846D01*
G01X0004340Y0000846D02*
G01X0004303Y0000846D01*
G01X0004303Y0000846D02*
G01X0004246Y0000864D01*
G01X0004246Y0000864D02*
G01X0004228Y0000883D01*
G01X0004228Y0000883D02*
G01X0004228Y0001014D01*
G01X0004228Y0001014D02*
G01X0004303Y0001014D01*
G01X0004059Y0000846D02*
G01X0004059Y0001239D01*
G01X0004059Y0001239D02*
G01X0003834Y0000846D01*
G01X0003834Y0000846D02*
G01X0003834Y0001239D01*
G01X0003646Y0000846D02*
G01X0003646Y0001239D01*
G01X0003646Y0001239D02*
G01X0003553Y0001239D01*
G01X0003553Y0001239D02*
G01X0003496Y0001220D01*
G01X0003496Y0001220D02*
G01X0003459Y0001183D01*
G01X0003459Y0001183D02*
G01X0003440Y0001145D01*
G01X0003440Y0001145D02*
G01X0003421Y0001070D01*
G01X0003421Y0001070D02*
G01X0003421Y0001014D01*
G01X0003421Y0001014D02*
G01X0003440Y0000939D01*
G01X0003440Y0000939D02*
G01X0003459Y0000902D01*
G01X0003459Y0000902D02*
G01X0003496Y0000864D01*
G01X0003496Y0000864D02*
G01X0003553Y0000846D01*
G01X0003553Y0000846D02*
G01X0003646Y0000846D01*
G01X0003778Y0000570D02*
G01X0003965Y0000570D01*
G01X0003965Y0000570D02*
G01X0003984Y0000382D01*
G01X0003984Y0000382D02*
G01X0003965Y0000401D01*
G01X0003965Y0000401D02*
G01X0003928Y0000420D01*
G01X0003928Y0000420D02*
G01X0003834Y0000420D01*
G01X0003834Y0000420D02*
G01X0003796Y0000401D01*
G01X0003796Y0000401D02*
G01X0003778Y0000382D01*
G01X0003778Y0000382D02*
G01X0003759Y0000345D01*
G01X0003759Y0000345D02*
G01X0003759Y0000251D01*
G01X0003759Y0000251D02*
G01X0003778Y0000214D01*
G01X0003778Y0000214D02*
G01X0003796Y0000195D01*
G01X0003796Y0000195D02*
G01X0003834Y0000176D01*
G01X0003834Y0000176D02*
G01X0003928Y0000176D01*
G01X0003928Y0000176D02*
G01X0003965Y0000195D01*
G01X0003965Y0000195D02*
G01X0003984Y0000214D01*
G01X0003646Y0000570D02*
G01X0003515Y0000176D01*
G01X0003515Y0000176D02*
G01X0003384Y0000570D01*
G01X0004565Y0002676D02*
G01X0004321Y0002676D01*
G01X0004321Y0002676D02*
G01X0004453Y0002526D01*
G01X0004453Y0002526D02*
G01X0004396Y0002526D01*
G01X0004396Y0002526D02*
G01X0004359Y0002507D01*
G01X0004359Y0002507D02*
G01X0004340Y0002489D01*
G01X0004340Y0002489D02*
G01X0004321Y0002451D01*
G01X0004321Y0002451D02*
G01X0004321Y0002358D01*
G01X0004321Y0002358D02*
G01X0004340Y0002320D01*
G01X0004340Y0002320D02*
G01X0004359Y0002301D01*
G01X0004359Y0002301D02*
G01X0004396Y0002283D01*
G01X0004396Y0002283D02*
G01X0004509Y0002283D01*
G01X0004509Y0002283D02*
G01X0004546Y0002301D01*
G01X0004546Y0002301D02*
G01X0004565Y0002320D01*
G01X0004153Y0002320D02*
G01X0004134Y0002301D01*
G01X0004134Y0002301D02*
G01X0004153Y0002283D01*
G01X0004153Y0002283D02*
G01X0004171Y0002301D01*
G01X0004171Y0002301D02*
G01X0004153Y0002320D01*
G01X0004153Y0002320D02*
G01X0004153Y0002283D01*
G01X0004003Y0002676D02*
G01X0003759Y0002676D01*
G01X0003759Y0002676D02*
G01X0003890Y0002526D01*
G01X0003890Y0002526D02*
G01X0003834Y0002526D01*
G01X0003834Y0002526D02*
G01X0003796Y0002507D01*
G01X0003796Y0002507D02*
G01X0003778Y0002489D01*
G01X0003778Y0002489D02*
G01X0003759Y0002451D01*
G01X0003759Y0002451D02*
G01X0003759Y0002358D01*
G01X0003759Y0002358D02*
G01X0003778Y0002320D01*
G01X0003778Y0002320D02*
G01X0003796Y0002301D01*
G01X0003796Y0002301D02*
G01X0003834Y0002283D01*
G01X0003834Y0002283D02*
G01X0003946Y0002283D01*
G01X0003946Y0002283D02*
G01X0003984Y0002301D01*
G01X0003984Y0002301D02*
G01X0004003Y0002320D01*
G01X0003646Y0002676D02*
G01X0003515Y0002283D01*
G01X0003515Y0002283D02*
G01X0003384Y0002676D01*
G01X0001181Y0000492D02*
G01X0003248Y0000492D01*
G01X0001673Y0000689D02*
G01X0003051Y0000689D01*
G01X0001083Y0001280D02*
G01X0001673Y0000689D01*
G01X0001476Y0002461D02*
G01X0003248Y0002461D01*
G01X0001378Y0002559D02*
G01X0001476Y0002461D01*
G01X0004635Y0004349D02*
G01X0004860Y0004349D01*
G01X0004748Y0004349D02*
G01X0004748Y0004743D01*
G01X0004748Y0004743D02*
G01X0004785Y0004687D01*
G01X0004785Y0004687D02*
G01X0004823Y0004649D01*
G01X0004823Y0004649D02*
G01X0004860Y0004631D01*
G01X0004467Y0004499D02*
G01X0004167Y0004499D01*
G01X0004017Y0004743D02*
G01X0003923Y0004349D01*
G01X0003923Y0004349D02*
G01X0003848Y0004631D01*
G01X0003848Y0004631D02*
G01X0003773Y0004349D01*
G01X0003773Y0004349D02*
G01X0003679Y0004743D01*
G01X0003529Y0004349D02*
G01X0003529Y0004612D01*
G01X0003529Y0004743D02*
G01X0003548Y0004724D01*
G01X0003548Y0004724D02*
G01X0003529Y0004706D01*
G01X0003529Y0004706D02*
G01X0003510Y0004724D01*
G01X0003510Y0004724D02*
G01X0003529Y0004743D01*
G01X0003529Y0004743D02*
G01X0003529Y0004706D01*
G01X0003342Y0004349D02*
G01X0003342Y0004612D01*
G01X0003342Y0004537D02*
G01X0003323Y0004574D01*
G01X0003323Y0004574D02*
G01X0003304Y0004593D01*
G01X0003304Y0004593D02*
G01X0003267Y0004612D01*
G01X0003267Y0004612D02*
G01X0003229Y0004612D01*
G01X0002948Y0004368D02*
G01X0002986Y0004349D01*
G01X0002986Y0004349D02*
G01X0003061Y0004349D01*
G01X0003061Y0004349D02*
G01X0003098Y0004368D01*
G01X0003098Y0004368D02*
G01X0003117Y0004406D01*
G01X0003117Y0004406D02*
G01X0003117Y0004556D01*
G01X0003117Y0004556D02*
G01X0003098Y0004593D01*
G01X0003098Y0004593D02*
G01X0003061Y0004612D01*
G01X0003061Y0004612D02*
G01X0002986Y0004612D01*
G01X0002986Y0004612D02*
G01X0002948Y0004593D01*
G01X0002948Y0004593D02*
G01X0002929Y0004556D01*
G01X0002929Y0004556D02*
G01X0002929Y0004518D01*
G01X0002929Y0004518D02*
G01X0003117Y0004481D01*
G01X0002756Y0003839D02*
G01X0002559Y0003839D01*
G01X0002756Y0005020D02*
G01X0002756Y0003839D01*
G01X0002559Y0005020D02*
G01X0002756Y0005020D01*
G01X0001575Y0003543D02*
G01X0001575Y0003839D01*
G01X0001378Y0003543D02*
G01X0001575Y0003543D01*
G01X0002653Y0003956D02*
G01X0002653Y0004349D01*
G01X0002653Y0004349D02*
G01X0002559Y0004349D01*
G01X0002559Y0004349D02*
G01X0002503Y0004331D01*
G01X0002503Y0004331D02*
G01X0002465Y0004293D01*
G01X0002465Y0004293D02*
G01X0002447Y0004256D01*
G01X0002447Y0004256D02*
G01X0002428Y0004181D01*
G01X0002428Y0004181D02*
G01X0002428Y0004124D01*
G01X0002428Y0004124D02*
G01X0002447Y0004049D01*
G01X0002447Y0004049D02*
G01X0002465Y0004012D01*
G01X0002465Y0004012D02*
G01X0002503Y0003975D01*
G01X0002503Y0003975D02*
G01X0002559Y0003956D01*
G01X0002559Y0003956D02*
G01X0002653Y0003956D01*
G01X0002278Y0004068D02*
G01X0002090Y0004068D01*
G01X0002315Y0003956D02*
G01X0002184Y0004349D01*
G01X0002184Y0004349D02*
G01X0002053Y0003956D01*
G01X0001978Y0004349D02*
G01X0001753Y0004349D01*
G01X0001865Y0003956D02*
G01X0001865Y0004349D01*
G01X0001640Y0004068D02*
G01X0001453Y0004068D01*
G01X0001678Y0003956D02*
G01X0001547Y0004349D01*
G01X0001547Y0004349D02*
G01X0001415Y0003956D01*
G01X0002053Y0004753D02*
G01X0001922Y0004753D01*
G01X0001865Y0004546D02*
G01X0002053Y0004546D01*
G01X0002053Y0004546D02*
G01X0002053Y0004940D01*
G01X0002053Y0004940D02*
G01X0001865Y0004940D01*
G01X0001697Y0004546D02*
G01X0001697Y0004940D01*
G01X0001697Y0004940D02*
G01X0001472Y0004546D01*
G01X0001472Y0004546D02*
G01X0001472Y0004940D01*
G01X0005910Y0003365D02*
G01X0005910Y0003759D01*
G01X0005910Y0003759D02*
G01X0005816Y0003759D01*
G01X0005816Y0003759D02*
G01X0005760Y0003740D01*
G01X0005760Y0003740D02*
G01X0005723Y0003703D01*
G01X0005723Y0003703D02*
G01X0005704Y0003665D01*
G01X0005704Y0003665D02*
G01X0005685Y0003590D01*
G01X0005685Y0003590D02*
G01X0005685Y0003534D01*
G01X0005685Y0003534D02*
G01X0005704Y0003459D01*
G01X0005704Y0003459D02*
G01X0005723Y0003421D01*
G01X0005723Y0003421D02*
G01X0005760Y0003384D01*
G01X0005760Y0003384D02*
G01X0005816Y0003365D01*
G01X0005816Y0003365D02*
G01X0005910Y0003365D01*
G01X0005516Y0003571D02*
G01X0005385Y0003571D01*
G01X0005329Y0003365D02*
G01X0005516Y0003365D01*
G01X0005516Y0003365D02*
G01X0005516Y0003759D01*
G01X0005516Y0003759D02*
G01X0005329Y0003759D01*
G01X0005966Y0002775D02*
G01X0005741Y0002775D01*
G01X0005854Y0002381D02*
G01X0005854Y0002775D01*
G01X0005648Y0002775D02*
G01X0005385Y0002381D01*
G01X0005385Y0002775D02*
G01X0005648Y0002381D01*
G01X0005685Y0001397D02*
G01X0005816Y0001584D01*
G01X0005910Y0001397D02*
G01X0005910Y0001790D01*
G01X0005910Y0001790D02*
G01X0005760Y0001790D01*
G01X0005760Y0001790D02*
G01X0005723Y0001772D01*
G01X0005723Y0001772D02*
G01X0005704Y0001753D01*
G01X0005704Y0001753D02*
G01X0005685Y0001715D01*
G01X0005685Y0001715D02*
G01X0005685Y0001659D01*
G01X0005685Y0001659D02*
G01X0005704Y0001622D01*
G01X0005704Y0001622D02*
G01X0005723Y0001603D01*
G01X0005723Y0001603D02*
G01X0005760Y0001584D01*
G01X0005760Y0001584D02*
G01X0005910Y0001584D01*
G01X0005554Y0001790D02*
G01X0005292Y0001397D01*
G01X0005292Y0001790D02*
G01X0005554Y0001397D01*
G01X0005901Y0000787D02*
G01X0005938Y0000806D01*
G01X0005938Y0000806D02*
G01X0005995Y0000806D01*
G01X0005995Y0000806D02*
G01X0006051Y0000787D01*
G01X0006051Y0000787D02*
G01X0006088Y0000750D01*
G01X0006088Y0000750D02*
G01X0006107Y0000712D01*
G01X0006107Y0000712D02*
G01X0006126Y0000637D01*
G01X0006126Y0000637D02*
G01X0006126Y0000581D01*
G01X0006126Y0000581D02*
G01X0006107Y0000506D01*
G01X0006107Y0000506D02*
G01X0006088Y0000469D01*
G01X0006088Y0000469D02*
G01X0006051Y0000431D01*
G01X0006051Y0000431D02*
G01X0005995Y0000412D01*
G01X0005995Y0000412D02*
G01X0005957Y0000412D01*
G01X0005957Y0000412D02*
G01X0005901Y0000431D01*
G01X0005901Y0000431D02*
G01X0005882Y0000450D01*
G01X0005882Y0000450D02*
G01X0005882Y0000581D01*
G01X0005882Y0000581D02*
G01X0005957Y0000581D01*
G01X0005713Y0000412D02*
G01X0005713Y0000806D01*
G01X0005713Y0000806D02*
G01X0005488Y0000412D01*
G01X0005488Y0000412D02*
G01X0005488Y0000806D01*
G01X0005301Y0000412D02*
G01X0005301Y0000806D01*
G01X0005301Y0000806D02*
G01X0005207Y0000806D01*
G01X0005207Y0000806D02*
G01X0005151Y0000787D01*
G01X0005151Y0000787D02*
G01X0005113Y0000750D01*
G01X0005113Y0000750D02*
G01X0005095Y0000712D01*
G01X0005095Y0000712D02*
G01X0005076Y0000637D01*
G01X0005076Y0000637D02*
G01X0005076Y0000581D01*
G01X0005076Y0000581D02*
G01X0005095Y0000506D01*
G01X0005095Y0000506D02*
G01X0005113Y0000469D01*
G01X0005113Y0000469D02*
G01X0005151Y0000431D01*
G01X0005151Y0000431D02*
G01X0005207Y0000412D01*
G01X0005207Y0000412D02*
G01X0005301Y0000412D01*
G01X0007344Y0007440D02*
G01X0007119Y0007440D01*
G01X0007232Y0007046D02*
G01X0007232Y0007440D01*
G01X0006988Y0007084D02*
G01X0006969Y0007065D01*
G01X0006969Y0007065D02*
G01X0006988Y0007046D01*
G01X0006988Y0007046D02*
G01X0007007Y0007065D01*
G01X0007007Y0007065D02*
G01X0006988Y0007084D01*
G01X0006988Y0007084D02*
G01X0006988Y0007046D01*
G01X0006501Y0007046D02*
G01X0006501Y0007440D01*
G01X0006501Y0007440D02*
G01X0006370Y0007159D01*
G01X0006370Y0007159D02*
G01X0006238Y0007440D01*
G01X0006238Y0007440D02*
G01X0006238Y0007046D01*
G01X0005882Y0007046D02*
G01X0005882Y0007253D01*
G01X0005882Y0007253D02*
G01X0005901Y0007290D01*
G01X0005901Y0007290D02*
G01X0005938Y0007309D01*
G01X0005938Y0007309D02*
G01X0006013Y0007309D01*
G01X0006013Y0007309D02*
G01X0006051Y0007290D01*
G01X0005882Y0007065D02*
G01X0005920Y0007046D01*
G01X0005920Y0007046D02*
G01X0006013Y0007046D01*
G01X0006013Y0007046D02*
G01X0006051Y0007065D01*
G01X0006051Y0007065D02*
G01X0006070Y0007103D01*
G01X0006070Y0007103D02*
G01X0006070Y0007140D01*
G01X0006070Y0007140D02*
G01X0006051Y0007178D01*
G01X0006051Y0007178D02*
G01X0006013Y0007196D01*
G01X0006013Y0007196D02*
G01X0005920Y0007196D01*
G01X0005920Y0007196D02*
G01X0005882Y0007215D01*
G01X0005526Y0007309D02*
G01X0005526Y0006990D01*
G01X0005526Y0006990D02*
G01X0005545Y0006953D01*
G01X0005545Y0006953D02*
G01X0005563Y0006934D01*
G01X0005563Y0006934D02*
G01X0005601Y0006915D01*
G01X0005601Y0006915D02*
G01X0005657Y0006915D01*
G01X0005657Y0006915D02*
G01X0005695Y0006934D01*
G01X0005526Y0007065D02*
G01X0005563Y0007046D01*
G01X0005563Y0007046D02*
G01X0005638Y0007046D01*
G01X0005638Y0007046D02*
G01X0005676Y0007065D01*
G01X0005676Y0007065D02*
G01X0005695Y0007084D01*
G01X0005695Y0007084D02*
G01X0005713Y0007121D01*
G01X0005713Y0007121D02*
G01X0005713Y0007234D01*
G01X0005713Y0007234D02*
G01X0005695Y0007271D01*
G01X0005695Y0007271D02*
G01X0005676Y0007290D01*
G01X0005676Y0007290D02*
G01X0005638Y0007309D01*
G01X0005638Y0007309D02*
G01X0005563Y0007309D01*
G01X0005563Y0007309D02*
G01X0005526Y0007290D01*
G01X0005338Y0007309D02*
G01X0005338Y0007046D01*
G01X0005338Y0007271D02*
G01X0005320Y0007290D01*
G01X0005320Y0007290D02*
G01X0005282Y0007309D01*
G01X0005282Y0007309D02*
G01X0005226Y0007309D01*
G01X0005226Y0007309D02*
G01X0005188Y0007290D01*
G01X0005188Y0007290D02*
G01X0005170Y0007253D01*
G01X0005170Y0007253D02*
G01X0005170Y0007046D01*
G01X0004982Y0007046D02*
G01X0004982Y0007309D01*
G01X0004982Y0007440D02*
G01X0005001Y0007421D01*
G01X0005001Y0007421D02*
G01X0004982Y0007403D01*
G01X0004982Y0007403D02*
G01X0004963Y0007421D01*
G01X0004963Y0007421D02*
G01X0004982Y0007440D01*
G01X0004982Y0007440D02*
G01X0004982Y0007403D01*
G01X0004645Y0007065D02*
G01X0004682Y0007046D01*
G01X0004682Y0007046D02*
G01X0004757Y0007046D01*
G01X0004757Y0007046D02*
G01X0004795Y0007065D01*
G01X0004795Y0007065D02*
G01X0004813Y0007103D01*
G01X0004813Y0007103D02*
G01X0004813Y0007253D01*
G01X0004813Y0007253D02*
G01X0004795Y0007290D01*
G01X0004795Y0007290D02*
G01X0004757Y0007309D01*
G01X0004757Y0007309D02*
G01X0004682Y0007309D01*
G01X0004682Y0007309D02*
G01X0004645Y0007290D01*
G01X0004645Y0007290D02*
G01X0004626Y0007253D01*
G01X0004626Y0007253D02*
G01X0004626Y0007215D01*
G01X0004626Y0007215D02*
G01X0004813Y0007178D01*
G01X0004457Y0007046D02*
G01X0004457Y0007309D01*
G01X0004457Y0007234D02*
G01X0004439Y0007271D01*
G01X0004439Y0007271D02*
G01X0004420Y0007290D01*
G01X0004420Y0007290D02*
G01X0004382Y0007309D01*
G01X0004382Y0007309D02*
G01X0004345Y0007309D01*
G01X0007326Y0006639D02*
G01X0007232Y0006377D01*
G01X0007232Y0006377D02*
G01X0007138Y0006639D01*
G01X0006782Y0006377D02*
G01X0007007Y0006377D01*
G01X0006894Y0006377D02*
G01X0006894Y0006771D01*
G01X0006894Y0006771D02*
G01X0006932Y0006714D01*
G01X0006932Y0006714D02*
G01X0006969Y0006677D01*
G01X0006969Y0006677D02*
G01X0007007Y0006658D01*
G01X0006613Y0006415D02*
G01X0006594Y0006396D01*
G01X0006594Y0006396D02*
G01X0006613Y0006377D01*
G01X0006613Y0006377D02*
G01X0006632Y0006396D01*
G01X0006632Y0006396D02*
G01X0006613Y0006415D01*
G01X0006613Y0006415D02*
G01X0006613Y0006377D01*
G01X0006351Y0006771D02*
G01X0006313Y0006771D01*
G01X0006313Y0006771D02*
G01X0006276Y0006752D01*
G01X0006276Y0006752D02*
G01X0006257Y0006733D01*
G01X0006257Y0006733D02*
G01X0006238Y0006696D01*
G01X0006238Y0006696D02*
G01X0006220Y0006621D01*
G01X0006220Y0006621D02*
G01X0006220Y0006527D01*
G01X0006220Y0006527D02*
G01X0006238Y0006452D01*
G01X0006238Y0006452D02*
G01X0006257Y0006415D01*
G01X0006257Y0006415D02*
G01X0006276Y0006396D01*
G01X0006276Y0006396D02*
G01X0006313Y0006377D01*
G01X0006313Y0006377D02*
G01X0006351Y0006377D01*
G01X0006351Y0006377D02*
G01X0006388Y0006396D01*
G01X0006388Y0006396D02*
G01X0006407Y0006415D01*
G01X0006407Y0006415D02*
G01X0006426Y0006452D01*
G01X0006426Y0006452D02*
G01X0006445Y0006527D01*
G01X0006445Y0006527D02*
G01X0006445Y0006621D01*
G01X0006445Y0006621D02*
G01X0006426Y0006696D01*
G01X0006426Y0006696D02*
G01X0006407Y0006733D01*
G01X0006407Y0006733D02*
G01X0006388Y0006752D01*
G01X0006388Y0006752D02*
G01X0006351Y0006771D01*
G01X0006051Y0006377D02*
G01X0006051Y0006771D01*
G01X0006051Y0006621D02*
G01X0006013Y0006639D01*
G01X0006013Y0006639D02*
G01X0005938Y0006639D01*
G01X0005938Y0006639D02*
G01X0005901Y0006621D01*
G01X0005901Y0006621D02*
G01X0005882Y0006602D01*
G01X0005882Y0006602D02*
G01X0005863Y0006564D01*
G01X0005863Y0006564D02*
G01X0005863Y0006452D01*
G01X0005863Y0006452D02*
G01X0005882Y0006415D01*
G01X0005882Y0006415D02*
G01X0005901Y0006396D01*
G01X0005901Y0006396D02*
G01X0005938Y0006377D01*
G01X0005938Y0006377D02*
G01X0006013Y0006377D01*
G01X0006013Y0006377D02*
G01X0006051Y0006396D01*
G01X0005320Y0006771D02*
G01X0005282Y0006771D01*
G01X0005282Y0006771D02*
G01X0005245Y0006752D01*
G01X0005245Y0006752D02*
G01X0005226Y0006733D01*
G01X0005226Y0006733D02*
G01X0005207Y0006696D01*
G01X0005207Y0006696D02*
G01X0005188Y0006621D01*
G01X0005188Y0006621D02*
G01X0005188Y0006527D01*
G01X0005188Y0006527D02*
G01X0005207Y0006452D01*
G01X0005207Y0006452D02*
G01X0005226Y0006415D01*
G01X0005226Y0006415D02*
G01X0005245Y0006396D01*
G01X0005245Y0006396D02*
G01X0005282Y0006377D01*
G01X0005282Y0006377D02*
G01X0005320Y0006377D01*
G01X0005320Y0006377D02*
G01X0005357Y0006396D01*
G01X0005357Y0006396D02*
G01X0005376Y0006415D01*
G01X0005376Y0006415D02*
G01X0005395Y0006452D01*
G01X0005395Y0006452D02*
G01X0005413Y0006527D01*
G01X0005413Y0006527D02*
G01X0005413Y0006621D01*
G01X0005413Y0006621D02*
G01X0005395Y0006696D01*
G01X0005395Y0006696D02*
G01X0005376Y0006733D01*
G01X0005376Y0006733D02*
G01X0005357Y0006752D01*
G01X0005357Y0006752D02*
G01X0005320Y0006771D01*
G01X0004851Y0006771D02*
G01X0004926Y0006771D01*
G01X0004926Y0006771D02*
G01X0004963Y0006752D01*
G01X0004963Y0006752D02*
G01X0004982Y0006733D01*
G01X0004982Y0006733D02*
G01X0005020Y0006677D01*
G01X0005020Y0006677D02*
G01X0005038Y0006602D01*
G01X0005038Y0006602D02*
G01X0005038Y0006452D01*
G01X0005038Y0006452D02*
G01X0005020Y0006415D01*
G01X0005020Y0006415D02*
G01X0005001Y0006396D01*
G01X0005001Y0006396D02*
G01X0004963Y0006377D01*
G01X0004963Y0006377D02*
G01X0004888Y0006377D01*
G01X0004888Y0006377D02*
G01X0004851Y0006396D01*
G01X0004851Y0006396D02*
G01X0004832Y0006415D01*
G01X0004832Y0006415D02*
G01X0004813Y0006452D01*
G01X0004813Y0006452D02*
G01X0004813Y0006546D01*
G01X0004813Y0006546D02*
G01X0004832Y0006583D01*
G01X0004832Y0006583D02*
G01X0004851Y0006602D01*
G01X0004851Y0006602D02*
G01X0004888Y0006621D01*
G01X0004888Y0006621D02*
G01X0004963Y0006621D01*
G01X0004963Y0006621D02*
G01X0005001Y0006602D01*
G01X0005001Y0006602D02*
G01X0005020Y0006583D01*
G01X0005020Y0006583D02*
G01X0005038Y0006546D01*
G01X0004364Y0006789D02*
G01X0004701Y0006283D01*
G01X0004251Y0006733D02*
G01X0004232Y0006752D01*
G01X0004232Y0006752D02*
G01X0004195Y0006771D01*
G01X0004195Y0006771D02*
G01X0004101Y0006771D01*
G01X0004101Y0006771D02*
G01X0004064Y0006752D01*
G01X0004064Y0006752D02*
G01X0004045Y0006733D01*
G01X0004045Y0006733D02*
G01X0004026Y0006696D01*
G01X0004026Y0006696D02*
G01X0004026Y0006658D01*
G01X0004026Y0006658D02*
G01X0004045Y0006602D01*
G01X0004045Y0006602D02*
G01X0004270Y0006377D01*
G01X0004270Y0006377D02*
G01X0004026Y0006377D01*
G01X0003782Y0006771D02*
G01X0003745Y0006771D01*
G01X0003745Y0006771D02*
G01X0003707Y0006752D01*
G01X0003707Y0006752D02*
G01X0003689Y0006733D01*
G01X0003689Y0006733D02*
G01X0003670Y0006696D01*
G01X0003670Y0006696D02*
G01X0003651Y0006621D01*
G01X0003651Y0006621D02*
G01X0003651Y0006527D01*
G01X0003651Y0006527D02*
G01X0003670Y0006452D01*
G01X0003670Y0006452D02*
G01X0003689Y0006415D01*
G01X0003689Y0006415D02*
G01X0003707Y0006396D01*
G01X0003707Y0006396D02*
G01X0003745Y0006377D01*
G01X0003745Y0006377D02*
G01X0003782Y0006377D01*
G01X0003782Y0006377D02*
G01X0003820Y0006396D01*
G01X0003820Y0006396D02*
G01X0003839Y0006415D01*
G01X0003839Y0006415D02*
G01X0003857Y0006452D01*
G01X0003857Y0006452D02*
G01X0003876Y0006527D01*
G01X0003876Y0006527D02*
G01X0003876Y0006621D01*
G01X0003876Y0006621D02*
G01X0003857Y0006696D01*
G01X0003857Y0006696D02*
G01X0003839Y0006733D01*
G01X0003839Y0006733D02*
G01X0003820Y0006752D01*
G01X0003820Y0006752D02*
G01X0003782Y0006771D01*
G01X0003276Y0006377D02*
G01X0003501Y0006377D01*
G01X0003389Y0006377D02*
G01X0003389Y0006771D01*
G01X0003389Y0006771D02*
G01X0003426Y0006714D01*
G01X0003426Y0006714D02*
G01X0003464Y0006677D01*
G01X0003464Y0006677D02*
G01X0003501Y0006658D01*
G01X0003051Y0006602D02*
G01X0003089Y0006621D01*
G01X0003089Y0006621D02*
G01X0003107Y0006639D01*
G01X0003107Y0006639D02*
G01X0003126Y0006677D01*
G01X0003126Y0006677D02*
G01X0003126Y0006696D01*
G01X0003126Y0006696D02*
G01X0003107Y0006733D01*
G01X0003107Y0006733D02*
G01X0003089Y0006752D01*
G01X0003089Y0006752D02*
G01X0003051Y0006771D01*
G01X0003051Y0006771D02*
G01X0002976Y0006771D01*
G01X0002976Y0006771D02*
G01X0002939Y0006752D01*
G01X0002939Y0006752D02*
G01X0002920Y0006733D01*
G01X0002920Y0006733D02*
G01X0002901Y0006696D01*
G01X0002901Y0006696D02*
G01X0002901Y0006677D01*
G01X0002901Y0006677D02*
G01X0002920Y0006639D01*
G01X0002920Y0006639D02*
G01X0002939Y0006621D01*
G01X0002939Y0006621D02*
G01X0002976Y0006602D01*
G01X0002976Y0006602D02*
G01X0003051Y0006602D01*
G01X0003051Y0006602D02*
G01X0003089Y0006583D01*
G01X0003089Y0006583D02*
G01X0003107Y0006564D01*
G01X0003107Y0006564D02*
G01X0003126Y0006527D01*
G01X0003126Y0006527D02*
G01X0003126Y0006452D01*
G01X0003126Y0006452D02*
G01X0003107Y0006415D01*
G01X0003107Y0006415D02*
G01X0003089Y0006396D01*
G01X0003089Y0006396D02*
G01X0003051Y0006377D01*
G01X0003051Y0006377D02*
G01X0002976Y0006377D01*
G01X0002976Y0006377D02*
G01X0002939Y0006396D01*
G01X0002939Y0006396D02*
G01X0002920Y0006415D01*
G01X0002920Y0006415D02*
G01X0002901Y0006452D01*
G01X0002901Y0006452D02*
G01X0002901Y0006527D01*
G01X0002901Y0006527D02*
G01X0002920Y0006564D01*
G01X0002920Y0006564D02*
G01X0002939Y0006583D01*
G01X0002939Y0006583D02*
G01X0002976Y0006602D01*
G54D12*
G01X0002203Y0007705D02*
G01X0002203Y0007424D01*
G01X0002203Y0007424D02*
G01X0001922Y0007396D01*
G01X0001922Y0007396D02*
G01X0001950Y0007424D01*
G01X0001950Y0007424D02*
G01X0001978Y0007480D01*
G01X0001978Y0007480D02*
G01X0001978Y0007621D01*
G01X0001978Y0007621D02*
G01X0001950Y0007677D01*
G01X0001950Y0007677D02*
G01X0001922Y0007705D01*
G01X0001922Y0007705D02*
G01X0001866Y0007733D01*
G01X0001866Y0007733D02*
G01X0001725Y0007733D01*
G01X0001725Y0007733D02*
G01X0001669Y0007705D01*
G01X0001669Y0007705D02*
G01X0001641Y0007677D01*
G01X0001641Y0007677D02*
G01X0001613Y0007621D01*
G01X0001613Y0007621D02*
G01X0001613Y0007480D01*
G01X0001613Y0007480D02*
G01X0001641Y0007424D01*
G01X0001641Y0007424D02*
G01X0001669Y0007396D01*
G01X0002203Y0007902D02*
G01X0001613Y0008099D01*
G01X0001613Y0008099D02*
G01X0002203Y0008296D01*
G01X0001199Y0007368D02*
G01X0001199Y0007733D01*
G01X0001199Y0007733D02*
G01X0000974Y0007537D01*
G01X0000974Y0007537D02*
G01X0000974Y0007621D01*
G01X0000974Y0007621D02*
G01X0000946Y0007677D01*
G01X0000946Y0007677D02*
G01X0000918Y0007705D01*
G01X0000918Y0007705D02*
G01X0000862Y0007733D01*
G01X0000862Y0007733D02*
G01X0000721Y0007733D01*
G01X0000721Y0007733D02*
G01X0000665Y0007705D01*
G01X0000665Y0007705D02*
G01X0000637Y0007677D01*
G01X0000637Y0007677D02*
G01X0000609Y0007621D01*
G01X0000609Y0007621D02*
G01X0000609Y0007452D01*
G01X0000609Y0007452D02*
G01X0000637Y0007396D01*
G01X0000637Y0007396D02*
G01X0000665Y0007368D01*
G01X0000665Y0007987D02*
G01X0000637Y0008015D01*
G01X0000637Y0008015D02*
G01X0000609Y0007987D01*
G01X0000609Y0007987D02*
G01X0000637Y0007958D01*
G01X0000637Y0007958D02*
G01X0000665Y0007987D01*
G01X0000665Y0007987D02*
G01X0000609Y0007987D01*
G01X0001199Y0008211D02*
G01X0001199Y0008577D01*
G01X0001199Y0008577D02*
G01X0000974Y0008380D01*
G01X0000974Y0008380D02*
G01X0000974Y0008465D01*
G01X0000974Y0008465D02*
G01X0000946Y0008521D01*
G01X0000946Y0008521D02*
G01X0000918Y0008549D01*
G01X0000918Y0008549D02*
G01X0000862Y0008577D01*
G01X0000862Y0008577D02*
G01X0000721Y0008577D01*
G01X0000721Y0008577D02*
G01X0000665Y0008549D01*
G01X0000665Y0008549D02*
G01X0000637Y0008521D01*
G01X0000637Y0008521D02*
G01X0000609Y0008465D01*
G01X0000609Y0008465D02*
G01X0000609Y0008296D01*
G01X0000609Y0008296D02*
G01X0000637Y0008240D01*
G01X0000637Y0008240D02*
G01X0000665Y0008211D01*
G01X0001199Y0008746D02*
G01X0000609Y0008943D01*
G01X0000609Y0008943D02*
G01X0001199Y0009139D01*
G01X0004566Y0008324D02*
G01X0004566Y0008661D01*
G01X0003975Y0008493D02*
G01X0004566Y0008493D01*
G01X0003975Y0008858D02*
G01X0004369Y0008858D01*
G01X0004256Y0008858D02*
G01X0004312Y0008886D01*
G01X0004312Y0008886D02*
G01X0004341Y0008915D01*
G01X0004341Y0008915D02*
G01X0004369Y0008971D01*
G01X0004369Y0008971D02*
G01X0004369Y0009027D01*
G01X0003975Y0009477D02*
G01X0004284Y0009477D01*
G01X0004284Y0009477D02*
G01X0004341Y0009449D01*
G01X0004341Y0009449D02*
G01X0004369Y0009393D01*
G01X0004369Y0009393D02*
G01X0004369Y0009280D01*
G01X0004369Y0009280D02*
G01X0004341Y0009224D01*
G01X0004003Y0009477D02*
G01X0003975Y0009421D01*
G01X0003975Y0009421D02*
G01X0003975Y0009280D01*
G01X0003975Y0009280D02*
G01X0004003Y0009224D01*
G01X0004003Y0009224D02*
G01X0004059Y0009196D01*
G01X0004059Y0009196D02*
G01X0004116Y0009196D01*
G01X0004116Y0009196D02*
G01X0004172Y0009224D01*
G01X0004172Y0009224D02*
G01X0004200Y0009280D01*
G01X0004200Y0009280D02*
G01X0004200Y0009421D01*
G01X0004200Y0009421D02*
G01X0004228Y0009477D01*
G01X0004369Y0009758D02*
G01X0003975Y0009758D01*
G01X0004312Y0009758D02*
G01X0004341Y0009786D01*
G01X0004341Y0009786D02*
G01X0004369Y0009843D01*
G01X0004369Y0009843D02*
G01X0004369Y0009927D01*
G01X0004369Y0009927D02*
G01X0004341Y0009983D01*
G01X0004341Y0009983D02*
G01X0004284Y0010011D01*
G01X0004284Y0010011D02*
G01X0003975Y0010011D01*
G01X0004003Y0010264D02*
G01X0003975Y0010321D01*
G01X0003975Y0010321D02*
G01X0003975Y0010433D01*
G01X0003975Y0010433D02*
G01X0004003Y0010489D01*
G01X0004003Y0010489D02*
G01X0004059Y0010517D01*
G01X0004059Y0010517D02*
G01X0004087Y0010517D01*
G01X0004087Y0010517D02*
G01X0004144Y0010489D01*
G01X0004144Y0010489D02*
G01X0004172Y0010433D01*
G01X0004172Y0010433D02*
G01X0004172Y0010349D01*
G01X0004172Y0010349D02*
G01X0004200Y0010292D01*
G01X0004200Y0010292D02*
G01X0004256Y0010264D01*
G01X0004256Y0010264D02*
G01X0004284Y0010264D01*
G01X0004284Y0010264D02*
G01X0004341Y0010292D01*
G01X0004341Y0010292D02*
G01X0004369Y0010349D01*
G01X0004369Y0010349D02*
G01X0004369Y0010433D01*
G01X0004369Y0010433D02*
G01X0004341Y0010489D01*
G01X0004003Y0011024D02*
G01X0003975Y0010967D01*
G01X0003975Y0010967D02*
G01X0003975Y0010855D01*
G01X0003975Y0010855D02*
G01X0004003Y0010799D01*
G01X0004003Y0010799D02*
G01X0004031Y0010771D01*
G01X0004031Y0010771D02*
G01X0004087Y0010742D01*
G01X0004087Y0010742D02*
G01X0004256Y0010742D01*
G01X0004256Y0010742D02*
G01X0004312Y0010771D01*
G01X0004312Y0010771D02*
G01X0004341Y0010799D01*
G01X0004341Y0010799D02*
G01X0004369Y0010855D01*
G01X0004369Y0010855D02*
G01X0004369Y0010967D01*
G01X0004369Y0010967D02*
G01X0004341Y0011024D01*
G01X0004003Y0011502D02*
G01X0003975Y0011445D01*
G01X0003975Y0011445D02*
G01X0003975Y0011333D01*
G01X0003975Y0011333D02*
G01X0004003Y0011277D01*
G01X0004003Y0011277D02*
G01X0004059Y0011249D01*
G01X0004059Y0011249D02*
G01X0004284Y0011249D01*
G01X0004284Y0011249D02*
G01X0004341Y0011277D01*
G01X0004341Y0011277D02*
G01X0004369Y0011333D01*
G01X0004369Y0011333D02*
G01X0004369Y0011445D01*
G01X0004369Y0011445D02*
G01X0004341Y0011502D01*
G01X0004341Y0011502D02*
G01X0004284Y0011530D01*
G01X0004284Y0011530D02*
G01X0004228Y0011530D01*
G01X0004228Y0011530D02*
G01X0004172Y0011249D01*
G01X0003975Y0011783D02*
G01X0004369Y0011783D01*
G01X0004566Y0011783D02*
G01X0004537Y0011755D01*
G01X0004537Y0011755D02*
G01X0004509Y0011783D01*
G01X0004509Y0011783D02*
G01X0004537Y0011811D01*
G01X0004537Y0011811D02*
G01X0004566Y0011783D01*
G01X0004566Y0011783D02*
G01X0004509Y0011783D01*
G01X0004369Y0012008D02*
G01X0003975Y0012148D01*
G01X0003975Y0012148D02*
G01X0004369Y0012289D01*
G01X0004003Y0012739D02*
G01X0003975Y0012683D01*
G01X0003975Y0012683D02*
G01X0003975Y0012570D01*
G01X0003975Y0012570D02*
G01X0004003Y0012514D01*
G01X0004003Y0012514D02*
G01X0004059Y0012486D01*
G01X0004059Y0012486D02*
G01X0004284Y0012486D01*
G01X0004284Y0012486D02*
G01X0004341Y0012514D01*
G01X0004341Y0012514D02*
G01X0004369Y0012570D01*
G01X0004369Y0012570D02*
G01X0004369Y0012683D01*
G01X0004369Y0012683D02*
G01X0004341Y0012739D01*
G01X0004341Y0012739D02*
G01X0004284Y0012767D01*
G01X0004284Y0012767D02*
G01X0004228Y0012767D01*
G01X0004228Y0012767D02*
G01X0004172Y0012486D01*
G01X0003975Y0013020D02*
G01X0004369Y0013020D01*
G01X0004256Y0013020D02*
G01X0004312Y0013048D01*
G01X0004312Y0013048D02*
G01X0004341Y0013076D01*
G01X0004341Y0013076D02*
G01X0004369Y0013133D01*
G01X0004369Y0013133D02*
G01X0004369Y0013189D01*
G01X0002971Y0008408D02*
G01X0003562Y0008408D01*
G01X0003337Y0008408D02*
G01X0003365Y0008465D01*
G01X0003365Y0008465D02*
G01X0003365Y0008577D01*
G01X0003365Y0008577D02*
G01X0003337Y0008633D01*
G01X0003337Y0008633D02*
G01X0003308Y0008661D01*
G01X0003308Y0008661D02*
G01X0003252Y0008690D01*
G01X0003252Y0008690D02*
G01X0003084Y0008690D01*
G01X0003084Y0008690D02*
G01X0003027Y0008661D01*
G01X0003027Y0008661D02*
G01X0002999Y0008633D01*
G01X0002999Y0008633D02*
G01X0002971Y0008577D01*
G01X0002971Y0008577D02*
G01X0002971Y0008465D01*
G01X0002971Y0008465D02*
G01X0002999Y0008408D01*
G01X0002971Y0009027D02*
G01X0002999Y0008971D01*
G01X0002999Y0008971D02*
G01X0003027Y0008943D01*
G01X0003027Y0008943D02*
G01X0003084Y0008915D01*
G01X0003084Y0008915D02*
G01X0003252Y0008915D01*
G01X0003252Y0008915D02*
G01X0003308Y0008943D01*
G01X0003308Y0008943D02*
G01X0003337Y0008971D01*
G01X0003337Y0008971D02*
G01X0003365Y0009027D01*
G01X0003365Y0009027D02*
G01X0003365Y0009111D01*
G01X0003365Y0009111D02*
G01X0003337Y0009168D01*
G01X0003337Y0009168D02*
G01X0003308Y0009196D01*
G01X0003308Y0009196D02*
G01X0003252Y0009224D01*
G01X0003252Y0009224D02*
G01X0003084Y0009224D01*
G01X0003084Y0009224D02*
G01X0003027Y0009196D01*
G01X0003027Y0009196D02*
G01X0002999Y0009168D01*
G01X0002999Y0009168D02*
G01X0002971Y0009111D01*
G01X0002971Y0009111D02*
G01X0002971Y0009027D01*
G01X0002971Y0009730D02*
G01X0003280Y0009730D01*
G01X0003280Y0009730D02*
G01X0003337Y0009702D01*
G01X0003337Y0009702D02*
G01X0003365Y0009646D01*
G01X0003365Y0009646D02*
G01X0003365Y0009533D01*
G01X0003365Y0009533D02*
G01X0003337Y0009477D01*
G01X0002999Y0009730D02*
G01X0002971Y0009674D01*
G01X0002971Y0009674D02*
G01X0002971Y0009533D01*
G01X0002971Y0009533D02*
G01X0002999Y0009477D01*
G01X0002999Y0009477D02*
G01X0003055Y0009449D01*
G01X0003055Y0009449D02*
G01X0003112Y0009449D01*
G01X0003112Y0009449D02*
G01X0003168Y0009477D01*
G01X0003168Y0009477D02*
G01X0003196Y0009533D01*
G01X0003196Y0009533D02*
G01X0003196Y0009674D01*
G01X0003196Y0009674D02*
G01X0003224Y0009730D01*
G01X0002971Y0010011D02*
G01X0003365Y0010011D01*
G01X0003252Y0010011D02*
G01X0003308Y0010039D01*
G01X0003308Y0010039D02*
G01X0003337Y0010067D01*
G01X0003337Y0010067D02*
G01X0003365Y0010124D01*
G01X0003365Y0010124D02*
G01X0003365Y0010180D01*
G01X0002971Y0010630D02*
G01X0003562Y0010630D01*
G01X0002999Y0010630D02*
G01X0002971Y0010574D01*
G01X0002971Y0010574D02*
G01X0002971Y0010461D01*
G01X0002971Y0010461D02*
G01X0002999Y0010405D01*
G01X0002999Y0010405D02*
G01X0003027Y0010377D01*
G01X0003027Y0010377D02*
G01X0003084Y0010349D01*
G01X0003084Y0010349D02*
G01X0003252Y0010349D01*
G01X0003252Y0010349D02*
G01X0003308Y0010377D01*
G01X0003308Y0010377D02*
G01X0003337Y0010405D01*
G01X0003337Y0010405D02*
G01X0003365Y0010461D01*
G01X0003365Y0010461D02*
G01X0003365Y0010574D01*
G01X0003365Y0010574D02*
G01X0003337Y0010630D01*
G01X0006440Y0008605D02*
G01X0006440Y0008408D01*
G01X0006130Y0008408D02*
G01X0006721Y0008408D01*
G01X0006721Y0008408D02*
G01X0006721Y0008690D01*
G01X0006130Y0009168D02*
G01X0006440Y0009168D01*
G01X0006440Y0009168D02*
G01X0006496Y0009139D01*
G01X0006496Y0009139D02*
G01X0006524Y0009083D01*
G01X0006524Y0009083D02*
G01X0006524Y0008971D01*
G01X0006524Y0008971D02*
G01X0006496Y0008915D01*
G01X0006159Y0009168D02*
G01X0006130Y0009111D01*
G01X0006130Y0009111D02*
G01X0006130Y0008971D01*
G01X0006130Y0008971D02*
G01X0006159Y0008915D01*
G01X0006159Y0008915D02*
G01X0006215Y0008886D01*
G01X0006215Y0008886D02*
G01X0006271Y0008886D01*
G01X0006271Y0008886D02*
G01X0006327Y0008915D01*
G01X0006327Y0008915D02*
G01X0006355Y0008971D01*
G01X0006355Y0008971D02*
G01X0006355Y0009111D01*
G01X0006355Y0009111D02*
G01X0006384Y0009168D01*
G01X0006130Y0009449D02*
G01X0006524Y0009449D01*
G01X0006412Y0009449D02*
G01X0006468Y0009477D01*
G01X0006468Y0009477D02*
G01X0006496Y0009505D01*
G01X0006496Y0009505D02*
G01X0006524Y0009561D01*
G01X0006524Y0009561D02*
G01X0006524Y0009618D01*
G01X0006524Y0009730D02*
G01X0006524Y0009955D01*
G01X0006130Y0009814D02*
G01X0006637Y0009814D01*
G01X0006637Y0009814D02*
G01X0006693Y0009843D01*
G01X0006693Y0009843D02*
G01X0006721Y0009899D01*
G01X0006721Y0009899D02*
G01X0006721Y0009955D01*
G01X0006130Y0010405D02*
G01X0006440Y0010405D01*
G01X0006440Y0010405D02*
G01X0006496Y0010377D01*
G01X0006496Y0010377D02*
G01X0006524Y0010321D01*
G01X0006524Y0010321D02*
G01X0006524Y0010208D01*
G01X0006524Y0010208D02*
G01X0006496Y0010152D01*
G01X0006159Y0010405D02*
G01X0006130Y0010349D01*
G01X0006130Y0010349D02*
G01X0006130Y0010208D01*
G01X0006130Y0010208D02*
G01X0006159Y0010152D01*
G01X0006159Y0010152D02*
G01X0006215Y0010124D01*
G01X0006215Y0010124D02*
G01X0006271Y0010124D01*
G01X0006271Y0010124D02*
G01X0006327Y0010152D01*
G01X0006327Y0010152D02*
G01X0006355Y0010208D01*
G01X0006355Y0010208D02*
G01X0006355Y0010349D01*
G01X0006355Y0010349D02*
G01X0006384Y0010405D01*
G01X0006130Y0010939D02*
G01X0006721Y0010939D01*
G01X0006159Y0010939D02*
G01X0006130Y0010883D01*
G01X0006130Y0010883D02*
G01X0006130Y0010771D01*
G01X0006130Y0010771D02*
G01X0006159Y0010714D01*
G01X0006159Y0010714D02*
G01X0006187Y0010686D01*
G01X0006187Y0010686D02*
G01X0006243Y0010658D01*
G01X0006243Y0010658D02*
G01X0006412Y0010658D01*
G01X0006412Y0010658D02*
G01X0006468Y0010686D01*
G01X0006468Y0010686D02*
G01X0006496Y0010714D01*
G01X0006496Y0010714D02*
G01X0006524Y0010771D01*
G01X0006524Y0010771D02*
G01X0006524Y0010883D01*
G01X0006524Y0010883D02*
G01X0006496Y0010939D01*
G01X0006159Y0011445D02*
G01X0006130Y0011389D01*
G01X0006130Y0011389D02*
G01X0006130Y0011277D01*
G01X0006130Y0011277D02*
G01X0006159Y0011220D01*
G01X0006159Y0011220D02*
G01X0006215Y0011192D01*
G01X0006215Y0011192D02*
G01X0006440Y0011192D01*
G01X0006440Y0011192D02*
G01X0006496Y0011220D01*
G01X0006496Y0011220D02*
G01X0006524Y0011277D01*
G01X0006524Y0011277D02*
G01X0006524Y0011389D01*
G01X0006524Y0011389D02*
G01X0006496Y0011445D01*
G01X0006496Y0011445D02*
G01X0006440Y0011474D01*
G01X0006440Y0011474D02*
G01X0006384Y0011474D01*
G01X0006384Y0011474D02*
G01X0006327Y0011192D01*
G01X0006524Y0011642D02*
G01X0006524Y0011867D01*
G01X0006721Y0011727D02*
G01X0006215Y0011727D01*
G01X0006215Y0011727D02*
G01X0006159Y0011755D01*
G01X0006159Y0011755D02*
G01X0006130Y0011811D01*
G01X0006130Y0011811D02*
G01X0006130Y0011867D01*
G54D13*
G01X0006217Y0005114D02*
G01X0007264Y0005114D01*
G01X0006217Y0001091D02*
G01X0006217Y0005114D01*
G01X0007264Y0001091D02*
G01X0007264Y0005114D01*
G01X0006217Y0001091D02*
G01X0007264Y0001091D01*
G01X0006217Y0000591D02*
G01X0006217Y0000067D01*
G01X0006217Y0000067D02*
G01X0006740Y0000067D01*
G01X0000217Y0005114D02*
G01X0001264Y0005114D01*
G01X0000217Y0001091D02*
G01X0000217Y0005114D01*
G01X0001264Y0001091D02*
G01X0001264Y0005114D01*
G01X0000217Y0001091D02*
G01X0001264Y0001091D01*
G01X0000217Y0000591D02*
G01X0000217Y0000067D01*
G01X0000217Y0000067D02*
G01X0000740Y0000067D01*
G54D14*
G01X0002417Y0002325D02*
G01X0002417Y0000825D01*
G01X0002417Y0000825D02*
G01X0001717Y0000825D01*
G01X0001717Y0000825D02*
G01X0001717Y0002325D01*
G01X0002417Y0002325D02*
G01X0001717Y0002325D01*
G01X0001717Y0002650D02*
G01X0001717Y0003650D01*
G01X0002417Y0003650D02*
G01X0002417Y0002650D01*
G01X0002417Y0003650D02*
G01X0001717Y0003650D01*
G01X0001717Y0002650D02*
G01X0002417Y0002650D01*
G01X0002737Y0002001D02*
G01X0003018Y0002001D01*
G01X0003018Y0002001D02*
G01X0003075Y0002020D01*
G01X0003075Y0002020D02*
G01X0003112Y0002058D01*
G01X0003112Y0002058D02*
G01X0003131Y0002114D01*
G01X0003131Y0002114D02*
G01X0003131Y0002151D01*
G01X0003131Y0001814D02*
G01X0002737Y0001814D01*
G01X0002737Y0001814D02*
G01X0002737Y0001664D01*
G01X0002737Y0001664D02*
G01X0002756Y0001626D01*
G01X0002756Y0001626D02*
G01X0002775Y0001608D01*
G01X0002775Y0001608D02*
G01X0002812Y0001589D01*
G01X0002812Y0001589D02*
G01X0002868Y0001589D01*
G01X0002868Y0001589D02*
G01X0002906Y0001608D01*
G01X0002906Y0001608D02*
G01X0002925Y0001626D01*
G01X0002925Y0001626D02*
G01X0002943Y0001664D01*
G01X0002943Y0001664D02*
G01X0002943Y0001814D01*
G01X0003131Y0001214D02*
G01X0003131Y0001439D01*
G01X0003131Y0001326D02*
G01X0002737Y0001326D01*
G01X0002737Y0001326D02*
G01X0002793Y0001364D01*
G01X0002793Y0001364D02*
G01X0002831Y0001401D01*
G01X0002831Y0001401D02*
G01X0002850Y0001439D01*
G01X0002737Y0003576D02*
G01X0003018Y0003576D01*
G01X0003018Y0003576D02*
G01X0003075Y0003595D01*
G01X0003075Y0003595D02*
G01X0003112Y0003632D01*
G01X0003112Y0003632D02*
G01X0003131Y0003689D01*
G01X0003131Y0003689D02*
G01X0003131Y0003726D01*
G01X0003131Y0003389D02*
G01X0002737Y0003389D01*
G01X0002737Y0003389D02*
G01X0002737Y0003239D01*
G01X0002737Y0003239D02*
G01X0002756Y0003201D01*
G01X0002756Y0003201D02*
G01X0002775Y0003182D01*
G01X0002775Y0003182D02*
G01X0002812Y0003164D01*
G01X0002812Y0003164D02*
G01X0002868Y0003164D01*
G01X0002868Y0003164D02*
G01X0002906Y0003182D01*
G01X0002906Y0003182D02*
G01X0002925Y0003201D01*
G01X0002925Y0003201D02*
G01X0002943Y0003239D01*
G01X0002943Y0003239D02*
G01X0002943Y0003389D01*
G01X0002775Y0003014D02*
G01X0002756Y0002995D01*
G01X0002756Y0002995D02*
G01X0002737Y0002957D01*
G01X0002737Y0002957D02*
G01X0002737Y0002864D01*
G01X0002737Y0002864D02*
G01X0002756Y0002826D01*
G01X0002756Y0002826D02*
G01X0002775Y0002807D01*
G01X0002775Y0002807D02*
G01X0002812Y0002789D01*
G01X0002812Y0002789D02*
G01X0002850Y0002789D01*
G01X0002850Y0002789D02*
G01X0002906Y0002807D01*
G01X0002906Y0002807D02*
G01X0003131Y0003032D01*
G01X0003131Y0003032D02*
G01X0003131Y0002789D01*
G54D15*
G36*
G01X0002313Y0006348D02*
G01X0001526Y0006348D01*
G01X0001526Y0007136D01*
G01X0002313Y0007136D01*
G01X0002313Y0006348D01*
G01X0002313Y0006348D01*
G37*
G01X0002313Y0006348D02*
G01X0001526Y0006348D01*
G01X0001526Y0006348D02*
G01X0001526Y0007136D01*
G01X0001526Y0007136D02*
G01X0002313Y0007136D01*
G01X0002313Y0007136D02*
G01X0002313Y0006348D01*
G36*
G01X0001329Y0006348D02*
G01X0000541Y0006348D01*
G01X0000541Y0007136D01*
G01X0001329Y0007136D01*
G01X0001329Y0006348D01*
G01X0001329Y0006348D01*
G37*
G01X0001329Y0006348D02*
G01X0000541Y0006348D01*
G01X0000541Y0006348D02*
G01X0000541Y0007136D01*
G01X0000541Y0007136D02*
G01X0001329Y0007136D01*
G01X0001329Y0007136D02*
G01X0001329Y0006348D01*
M02*
