G04 This is an RS-274x file exported by *
G04 gerbv version 2.6.2 *
G04 More information is available about gerbv at *
G04 http://gerbv.geda-project.org/ *
G04 --End of header info--*
%MOIN*%
%FSLAX34Y34*%
%IPPOS*%
G04 --Define apertures--*
%ADD10C,0.0039*%
%ADD11C,0.0047*%
%ADD12C,0.0059*%
G04 --Start main section--*
G54D11*
G01X0001535Y0000650D02*
G01X0001535Y0000925D01*
G01X0002008Y0000925D02*
G01X0002008Y0000650D01*
G01X0003110Y0000650D02*
G01X0003110Y0000925D01*
G01X0003583Y0000925D02*
G01X0003583Y0000650D01*
G01X0002323Y0000650D02*
G01X0002323Y0000925D01*
G01X0002795Y0000925D02*
G01X0002795Y0000650D01*
G01X0005571Y0004537D02*
G01X0005571Y0005915D01*
G01X0005571Y0005915D02*
G01X0003287Y0005915D01*
G01X0003287Y0005915D02*
G01X0003287Y0004537D01*
G01X0003287Y0004537D02*
G01X0005571Y0004537D01*
G01X0004429Y0005699D02*
G01X0005354Y0005699D01*
G01X0005354Y0005699D02*
G01X0005354Y0005413D01*
G01X0005354Y0005413D02*
G01X0005433Y0005413D01*
G01X0005433Y0005413D02*
G01X0005433Y0005098D01*
G01X0005433Y0005098D02*
G01X0005354Y0005098D01*
G01X0005354Y0005098D02*
G01X0005354Y0004754D01*
G01X0005354Y0004754D02*
G01X0004429Y0004754D01*
G01X0004429Y0005699D02*
G01X0003504Y0005699D01*
G01X0003504Y0005699D02*
G01X0003504Y0005413D01*
G01X0003504Y0005413D02*
G01X0003425Y0005413D01*
G01X0003425Y0005413D02*
G01X0003425Y0005098D01*
G01X0003425Y0005098D02*
G01X0003504Y0005098D01*
G01X0003504Y0005098D02*
G01X0003504Y0004754D01*
G01X0003504Y0004754D02*
G01X0004429Y0004754D01*
G01X0005669Y0006014D02*
G01X0005669Y0005620D01*
G01X0005669Y0006014D02*
G01X0005276Y0006014D01*
G01X0001543Y0004031D02*
G01X0001909Y0004031D01*
G01X0002787Y0004031D02*
G01X0002421Y0004031D01*
G01X0002787Y0004031D02*
G01X0002787Y0004882D01*
G01X0001543Y0004031D02*
G01X0001543Y0004606D01*
G01X0003740Y0003669D02*
G01X0003346Y0003669D01*
G01X0003346Y0004205D02*
G01X0003740Y0004205D01*
G01X0004823Y0003669D02*
G01X0004429Y0003669D01*
G01X0004429Y0004205D02*
G01X0004823Y0004205D01*
G01X0002362Y0002980D02*
G01X0001969Y0002980D01*
G01X0001969Y0003516D02*
G01X0002362Y0003516D01*
G01X0002362Y0005146D02*
G01X0001969Y0005146D01*
G01X0001969Y0005681D02*
G01X0002362Y0005681D01*
G01X0002520Y0002799D02*
G01X0001811Y0002799D01*
G01X0001811Y0001531D02*
G01X0002776Y0001531D01*
G54D12*
G01X0005344Y0001447D02*
G01X0005344Y0001467D01*
G01X0003711Y0001447D02*
G01X0003711Y0001504D01*
G01X0003711Y0003474D02*
G01X0003711Y0003417D01*
G01X0005344Y0003474D02*
G01X0005344Y0003417D01*
G01X0005344Y0001447D02*
G01X0003711Y0001447D01*
G01X0005344Y0003474D02*
G01X0003711Y0003474D01*
G01X0005344Y0001467D02*
G01X0005896Y0001467D01*
G01X-001181Y0006594D02*
G01X-001181Y0014272D01*
G01X0008661Y0006594D02*
G01X-001181Y0006594D01*
G01X0008661Y0014272D02*
G01X0008661Y0006594D01*
G01X-001181Y0014272D02*
G01X0008661Y0014272D01*
G01X0004298Y0006416D02*
G01X0004298Y0006135D01*
G01X0004298Y0006135D02*
G01X0004279Y0006079D01*
G01X0004279Y0006079D02*
G01X0004242Y0006041D01*
G01X0004242Y0006041D02*
G01X0004185Y0006023D01*
G01X0004185Y0006023D02*
G01X0004148Y0006023D01*
G01X0004654Y0006285D02*
G01X0004654Y0006023D01*
G01X0004560Y0006435D02*
G01X0004467Y0006154D01*
G01X0004467Y0006154D02*
G01X0004710Y0006154D01*
G54D10*
G01X0003635Y0010507D02*
G01X0003635Y0010282D01*
G01X0003635Y0010282D02*
G01X0003620Y0010237D01*
G01X0003620Y0010237D02*
G01X0003590Y0010207D01*
G01X0003590Y0010207D02*
G01X0003545Y0010192D01*
G01X0003545Y0010192D02*
G01X0003515Y0010192D01*
G01X0003755Y0010507D02*
G01X0003950Y0010507D01*
G01X0003950Y0010507D02*
G01X0003845Y0010387D01*
G01X0003845Y0010387D02*
G01X0003890Y0010387D01*
G01X0003890Y0010387D02*
G01X0003920Y0010372D01*
G01X0003920Y0010372D02*
G01X0003935Y0010357D01*
G01X0003935Y0010357D02*
G01X0003950Y0010327D01*
G01X0003950Y0010327D02*
G01X0003950Y0010252D01*
G01X0003950Y0010252D02*
G01X0003935Y0010222D01*
G01X0003935Y0010222D02*
G01X0003920Y0010207D01*
G01X0003920Y0010207D02*
G01X0003890Y0010192D01*
G01X0003890Y0010192D02*
G01X0003800Y0010192D01*
G01X0003800Y0010192D02*
G01X0003770Y0010207D01*
G01X0003770Y0010207D02*
G01X0003755Y0010222D01*
M02*
