G04 #@! TF.FileFunction,Copper,L2,Bot,Signal*
%FSLAX46Y46*%
G04 Gerber Fmt 4.6, Leading zero omitted, Abs format (unit mm)*
G04 Created by KiCad (PCBNEW 4.0.7) date Thu Jan 25 15:49:40 2018*
%MOMM*%
%LPD*%
G01*
G04 APERTURE LIST*
%ADD10C,0.100000*%
%ADD11C,0.500000*%
%ADD12R,1.700000X1.700000*%
%ADD13O,1.700000X1.700000*%
%ADD14R,0.850000X0.850000*%
%ADD15C,0.850000*%
%ADD16R,1.270000X0.965200*%
%ADD17C,3.000000*%
%ADD18C,2.400000*%
%ADD19C,0.600000*%
%ADD20C,0.400000*%
%ADD21C,0.250000*%
G04 APERTURE END LIST*
D10*
D11*
X5250000Y5000000D02*
X5250000Y4200000D01*
X5250000Y7600000D02*
X5250000Y8400000D01*
D12*
X17120000Y1500000D03*
D13*
X17120000Y4040000D03*
X17120000Y6580000D03*
X17120000Y9120000D03*
X17120000Y11660000D03*
D12*
X1880000Y1500000D03*
D13*
X1880000Y4040000D03*
X1880000Y6580000D03*
X1880000Y9120000D03*
X1880000Y11660000D03*
D14*
X12500000Y13750000D03*
D15*
X11250000Y13750000D03*
X10000000Y13750000D03*
D16*
X5250000Y5270000D03*
X5250000Y4000000D03*
X5250000Y2730000D03*
D17*
X5690000Y23550000D03*
X13310000Y22915000D03*
D18*
X9500000Y19105000D03*
X2515000Y27995000D03*
D16*
X5250000Y7365000D03*
X5250000Y8635000D03*
D19*
X3500000Y1250000D03*
X7500000Y1250000D03*
X5500000Y1250000D03*
X7500000Y5500000D03*
X7250000Y8750000D03*
X3525693Y3525693D03*
X9250000Y2500000D03*
X7250009Y2950010D03*
X4000000Y13750000D03*
X7250000Y10250000D03*
X15500000Y6250000D03*
X7500000Y6750000D03*
D20*
X5250000Y4000000D02*
X4000000Y4000000D01*
X3825692Y3825692D02*
X3525693Y3525693D01*
X4000000Y4000000D02*
X3825692Y3825692D01*
X6067602Y3750000D02*
X6549999Y3267603D01*
X9000000Y2250000D02*
X9250000Y2500000D01*
X6549999Y3267603D02*
X6549999Y2496590D01*
X6549999Y2496590D02*
X6796589Y2250000D01*
X6796589Y2250000D02*
X9000000Y2250000D01*
X5250000Y3750000D02*
X6067602Y3750000D01*
X6067602Y3750000D02*
X6285001Y3532601D01*
X5250000Y4000000D02*
X5250000Y3750000D01*
X7250009Y4304991D02*
X7250009Y3374274D01*
X6285000Y5270000D02*
X7250009Y4304991D01*
X7250009Y3374274D02*
X7250009Y2950010D01*
X5250000Y5270000D02*
X6285000Y5270000D01*
X1880000Y6580000D02*
X629999Y7830001D01*
X629999Y7830001D02*
X629999Y12260001D01*
X629999Y12260001D02*
X2119998Y13750000D01*
X2119998Y13750000D02*
X3575736Y13750000D01*
X3575736Y13750000D02*
X4000000Y13750000D01*
X7250000Y10250000D02*
X4000000Y13500000D01*
X4000000Y13500000D02*
X4000000Y13750000D01*
X5250000Y5270000D02*
X3190000Y5270000D01*
X3190000Y5270000D02*
X1880000Y6580000D01*
X15500000Y6250000D02*
X15500000Y7500000D01*
X15500000Y7500000D02*
X17120000Y9120000D01*
X5250000Y2730000D02*
X3110000Y2730000D01*
X3110000Y2730000D02*
X1880000Y1500000D01*
X1880000Y9120000D02*
X3635000Y7365000D01*
X3635000Y7365000D02*
X5250000Y7365000D01*
X5250000Y8635000D02*
X6285000Y8635000D01*
X6285000Y8635000D02*
X7500000Y7420000D01*
X7500000Y7420000D02*
X7500000Y6750000D01*
D21*
G36*
X17917952Y35509028D02*
X18272276Y35272276D01*
X18509028Y34917952D01*
X18600000Y34460604D01*
X18600000Y2483155D01*
X18506631Y2708566D01*
X18328565Y2886632D01*
X18095911Y2983000D01*
X17653250Y2983000D01*
X17495002Y2824752D01*
X17495002Y2935014D01*
X17592673Y2954442D01*
X17973870Y3209150D01*
X18228578Y3590347D01*
X18318020Y4040000D01*
X18228578Y4489653D01*
X17973870Y4870850D01*
X17592673Y5125558D01*
X17143020Y5215000D01*
X17096980Y5215000D01*
X16647327Y5125558D01*
X16266130Y4870850D01*
X16011422Y4489653D01*
X15921980Y4040000D01*
X16011422Y3590347D01*
X16266130Y3209150D01*
X16647327Y2954442D01*
X16744998Y2935014D01*
X16744998Y2824752D01*
X16586750Y2983000D01*
X16144089Y2983000D01*
X15911435Y2886632D01*
X15733369Y2708566D01*
X15637000Y2475912D01*
X15637000Y2033250D01*
X15795250Y1875000D01*
X16745000Y1875000D01*
X16745000Y1895000D01*
X17495000Y1895000D01*
X17495000Y1875000D01*
X17515000Y1875000D01*
X17515000Y1125000D01*
X17495000Y1125000D01*
X17495000Y1105000D01*
X16745000Y1105000D01*
X16745000Y1125000D01*
X15795250Y1125000D01*
X15637000Y966750D01*
X15637000Y524088D01*
X15688399Y400000D01*
X2941668Y400000D01*
X2961053Y412474D01*
X3035260Y521080D01*
X3061367Y650000D01*
X3061367Y1938905D01*
X3327462Y2205000D01*
X4291611Y2205000D01*
X4306295Y2126962D01*
X4377474Y2016347D01*
X4486080Y1942140D01*
X4615000Y1916033D01*
X5885000Y1916033D01*
X6005438Y1938695D01*
X6116053Y2009874D01*
X6188388Y2115739D01*
X6425358Y1878769D01*
X6595680Y1764963D01*
X6796589Y1725000D01*
X9000000Y1725000D01*
X9200909Y1764963D01*
X9365440Y1874899D01*
X9373775Y1874892D01*
X9603571Y1969842D01*
X9779540Y2145504D01*
X9874891Y2375134D01*
X9875108Y2623775D01*
X9780158Y2853571D01*
X9604496Y3029540D01*
X9374866Y3124891D01*
X9126225Y3125108D01*
X8896429Y3030158D01*
X8720460Y2854496D01*
X8687450Y2775000D01*
X7854078Y2775000D01*
X7874900Y2825144D01*
X7875117Y3073785D01*
X7780167Y3303581D01*
X7775009Y3308748D01*
X7775009Y4304991D01*
X7735046Y4505900D01*
X7621240Y4676222D01*
X6656231Y5641231D01*
X6485909Y5755037D01*
X6285000Y5795000D01*
X6208389Y5795000D01*
X6193705Y5873038D01*
X6122526Y5983653D01*
X6013920Y6057860D01*
X5885000Y6083967D01*
X4615000Y6083967D01*
X4494562Y6061305D01*
X4383947Y5990126D01*
X4309740Y5881520D01*
X4292219Y5795000D01*
X3407462Y5795000D01*
X3002438Y6200024D01*
X3078020Y6580000D01*
X2988578Y7029653D01*
X2733870Y7410850D01*
X2352673Y7665558D01*
X1903020Y7755000D01*
X1856980Y7755000D01*
X1515406Y7687056D01*
X1154999Y8047463D01*
X1154999Y8203042D01*
X1407327Y8034442D01*
X1856980Y7945000D01*
X1903020Y7945000D01*
X2244594Y8012944D01*
X3263769Y6993769D01*
X3434091Y6879963D01*
X3635000Y6840000D01*
X4291611Y6840000D01*
X4306295Y6761962D01*
X4377474Y6651347D01*
X4486080Y6577140D01*
X4615000Y6551033D01*
X5885000Y6551033D01*
X6005438Y6573695D01*
X6116053Y6644874D01*
X6190260Y6753480D01*
X6216367Y6882400D01*
X6216367Y7847600D01*
X6193705Y7968038D01*
X6173661Y7999187D01*
X6175565Y8001973D01*
X6975000Y7202538D01*
X6975000Y7109028D01*
X6970460Y7104496D01*
X6875109Y6874866D01*
X6874892Y6626225D01*
X6969842Y6396429D01*
X7145504Y6220460D01*
X7375134Y6125109D01*
X7623775Y6124892D01*
X7627001Y6126225D01*
X14874892Y6126225D01*
X14969842Y5896429D01*
X15145504Y5720460D01*
X15375134Y5625109D01*
X15623775Y5624892D01*
X15853571Y5719842D01*
X16029540Y5895504D01*
X16082737Y6023617D01*
X16266130Y5749150D01*
X16647327Y5494442D01*
X17096980Y5405000D01*
X17143020Y5405000D01*
X17592673Y5494442D01*
X17973870Y5749150D01*
X18228578Y6130347D01*
X18318020Y6580000D01*
X18228578Y7029653D01*
X17973870Y7410850D01*
X17592673Y7665558D01*
X17143020Y7755000D01*
X17096980Y7755000D01*
X16647327Y7665558D01*
X16266130Y7410850D01*
X16025000Y7049974D01*
X16025000Y7282538D01*
X16755406Y8012944D01*
X17096980Y7945000D01*
X17143020Y7945000D01*
X17592673Y8034442D01*
X17973870Y8289150D01*
X18228578Y8670347D01*
X18318020Y9120000D01*
X18228578Y9569653D01*
X17973870Y9950850D01*
X17592673Y10205558D01*
X17143020Y10295000D01*
X17096980Y10295000D01*
X16647327Y10205558D01*
X16266130Y9950850D01*
X16011422Y9569653D01*
X15921980Y9120000D01*
X15997562Y8740024D01*
X15128769Y7871231D01*
X15014963Y7700909D01*
X14975000Y7500000D01*
X14975000Y6609028D01*
X14970460Y6604496D01*
X14875109Y6374866D01*
X14874892Y6126225D01*
X7627001Y6126225D01*
X7853571Y6219842D01*
X8029540Y6395504D01*
X8124891Y6625134D01*
X8125108Y6873775D01*
X8030158Y7103571D01*
X8025000Y7108738D01*
X8025000Y7420000D01*
X7985037Y7620909D01*
X7871231Y7791231D01*
X6656231Y9006231D01*
X6485909Y9120037D01*
X6285000Y9160000D01*
X6208389Y9160000D01*
X6193705Y9238038D01*
X6122526Y9348653D01*
X6013920Y9422860D01*
X5885000Y9448967D01*
X4615000Y9448967D01*
X4494562Y9426305D01*
X4383947Y9355126D01*
X4309740Y9246520D01*
X4283633Y9117600D01*
X4283633Y8152400D01*
X4306295Y8031962D01*
X4326339Y8000813D01*
X4309740Y7976520D01*
X4292219Y7890000D01*
X3852462Y7890000D01*
X3002438Y8740024D01*
X3078020Y9120000D01*
X2988578Y9569653D01*
X2733870Y9950850D01*
X2352673Y10205558D01*
X1903020Y10295000D01*
X1856980Y10295000D01*
X1407327Y10205558D01*
X1154999Y10036958D01*
X1154999Y10743042D01*
X1407327Y10574442D01*
X1856980Y10485000D01*
X1903020Y10485000D01*
X2352673Y10574442D01*
X2733870Y10829150D01*
X2988578Y11210347D01*
X3078020Y11660000D01*
X2988578Y12109653D01*
X2733870Y12490850D01*
X2352673Y12745558D01*
X1940087Y12827627D01*
X2337460Y13225000D01*
X3564469Y13225000D01*
X3628769Y13128769D01*
X6624898Y10132640D01*
X6624892Y10126225D01*
X6719842Y9896429D01*
X6895504Y9720460D01*
X7125134Y9625109D01*
X7373775Y9624892D01*
X7603571Y9719842D01*
X7779540Y9895504D01*
X7874891Y10125134D01*
X7875108Y10373775D01*
X7780158Y10603571D01*
X7604496Y10779540D01*
X7374866Y10874891D01*
X7367565Y10874897D01*
X6582462Y11660000D01*
X15921980Y11660000D01*
X16011422Y11210347D01*
X16266130Y10829150D01*
X16647327Y10574442D01*
X17096980Y10485000D01*
X17143020Y10485000D01*
X17592673Y10574442D01*
X17973870Y10829150D01*
X18228578Y11210347D01*
X18318020Y11660000D01*
X18228578Y12109653D01*
X17973870Y12490850D01*
X17592673Y12745558D01*
X17143020Y12835000D01*
X17096980Y12835000D01*
X16647327Y12745558D01*
X16266130Y12490850D01*
X16011422Y12109653D01*
X15921980Y11660000D01*
X6582462Y11660000D01*
X4640992Y13601470D01*
X9249870Y13601470D01*
X9363811Y13325714D01*
X9574605Y13114552D01*
X9850161Y13000131D01*
X10148530Y12999870D01*
X10424286Y13113811D01*
X10625165Y13314340D01*
X10824605Y13114552D01*
X11100161Y13000131D01*
X11398530Y12999870D01*
X11506107Y13044320D01*
X11538369Y12966434D01*
X11716435Y12788368D01*
X11949089Y12692000D01*
X12129250Y12692000D01*
X12287500Y12850250D01*
X12287500Y13537500D01*
X12712500Y13537500D01*
X12712500Y12850250D01*
X12870750Y12692000D01*
X13050911Y12692000D01*
X13283565Y12788368D01*
X13461631Y12966434D01*
X13558000Y13199088D01*
X13558000Y13379250D01*
X13399750Y13537500D01*
X12712500Y13537500D01*
X12287500Y13537500D01*
X12105000Y13537500D01*
X12105000Y13962500D01*
X12287500Y13962500D01*
X12287500Y14649750D01*
X12712500Y14649750D01*
X12712500Y13962500D01*
X13399750Y13962500D01*
X13558000Y14120750D01*
X13558000Y14300912D01*
X13461631Y14533566D01*
X13283565Y14711632D01*
X13050911Y14808000D01*
X12870750Y14808000D01*
X12712500Y14649750D01*
X12287500Y14649750D01*
X12129250Y14808000D01*
X11949089Y14808000D01*
X11716435Y14711632D01*
X11538369Y14533566D01*
X11506129Y14455733D01*
X11399839Y14499869D01*
X11101470Y14500130D01*
X10825714Y14386189D01*
X10624835Y14185660D01*
X10425395Y14385448D01*
X10149839Y14499869D01*
X9851470Y14500130D01*
X9575714Y14386189D01*
X9364552Y14175395D01*
X9250131Y13899839D01*
X9249870Y13601470D01*
X4640992Y13601470D01*
X4622672Y13619790D01*
X4624891Y13625134D01*
X4625108Y13873775D01*
X4530158Y14103571D01*
X4354496Y14279540D01*
X4124866Y14374891D01*
X3876225Y14375108D01*
X3646429Y14280158D01*
X3641262Y14275000D01*
X2119998Y14275000D01*
X1919089Y14235037D01*
X1748767Y14121231D01*
X400000Y12772464D01*
X400000Y18802989D01*
X7974735Y18802989D01*
X8206414Y18242285D01*
X8635029Y17812921D01*
X9195328Y17580265D01*
X9802011Y17579735D01*
X10362715Y17811414D01*
X10792079Y18240029D01*
X11024735Y18800328D01*
X11025265Y19407011D01*
X10793586Y19967715D01*
X10364971Y20397079D01*
X9804672Y20629735D01*
X9197989Y20630265D01*
X8637285Y20398586D01*
X8207921Y19969971D01*
X7975265Y19409672D01*
X7974735Y18802989D01*
X400000Y18802989D01*
X400000Y21883800D01*
X4554130Y21883800D01*
X4734220Y21596494D01*
X5554549Y21379435D01*
X6395499Y21492824D01*
X6645780Y21596494D01*
X6825870Y21883800D01*
X5690000Y23019670D01*
X4554130Y21883800D01*
X400000Y21883800D01*
X400000Y23685451D01*
X3519435Y23685451D01*
X3632824Y22844501D01*
X3736494Y22594220D01*
X4023800Y22414130D01*
X5159670Y23550000D01*
X6220330Y23550000D01*
X7356200Y22414130D01*
X7578667Y22553578D01*
X11484684Y22553578D01*
X11761938Y21882571D01*
X12274871Y21368742D01*
X12945392Y21090317D01*
X13671422Y21089684D01*
X14342429Y21366938D01*
X14856258Y21879871D01*
X15134683Y22550392D01*
X15135316Y23276422D01*
X14858062Y23947429D01*
X14345129Y24461258D01*
X13674608Y24739683D01*
X12948578Y24740316D01*
X12277571Y24463062D01*
X11763742Y23950129D01*
X11485317Y23279608D01*
X11484684Y22553578D01*
X7578667Y22553578D01*
X7643506Y22594220D01*
X7860565Y23414549D01*
X7747176Y24255499D01*
X7643506Y24505780D01*
X7356200Y24685870D01*
X6220330Y23550000D01*
X5159670Y23550000D01*
X4023800Y24685870D01*
X3736494Y24505780D01*
X3519435Y23685451D01*
X400000Y23685451D01*
X400000Y25216200D01*
X4554130Y25216200D01*
X5690000Y24080330D01*
X6825870Y25216200D01*
X6645780Y25503506D01*
X5825451Y25720565D01*
X4984501Y25607176D01*
X4734220Y25503506D01*
X4554130Y25216200D01*
X400000Y25216200D01*
X400000Y26549637D01*
X1599967Y26549637D01*
X1742204Y26293350D01*
X2452223Y26127143D01*
X3171800Y26245302D01*
X3287796Y26293350D01*
X3430033Y26549637D01*
X2515000Y27464670D01*
X1599967Y26549637D01*
X400000Y26549637D01*
X400000Y28057777D01*
X647143Y28057777D01*
X765302Y27338200D01*
X813350Y27222204D01*
X1069637Y27079967D01*
X1984670Y27995000D01*
X3045330Y27995000D01*
X3960363Y27079967D01*
X4063496Y27137205D01*
X12184805Y27137205D01*
X12355715Y26723571D01*
X12671907Y26406828D01*
X13085242Y26235196D01*
X13532795Y26234805D01*
X13946429Y26405715D01*
X14263172Y26721907D01*
X14434804Y27135242D01*
X14435195Y27582795D01*
X14264285Y27996429D01*
X13948093Y28313172D01*
X13534758Y28484804D01*
X13087205Y28485195D01*
X12673571Y28314285D01*
X12356828Y27998093D01*
X12185196Y27584758D01*
X12184805Y27137205D01*
X4063496Y27137205D01*
X4216650Y27222204D01*
X4382857Y27932223D01*
X4264698Y28651800D01*
X4216650Y28767796D01*
X3960363Y28910033D01*
X3045330Y27995000D01*
X1984670Y27995000D01*
X1069637Y28910033D01*
X813350Y28767796D01*
X647143Y28057777D01*
X400000Y28057777D01*
X400000Y29440363D01*
X1599967Y29440363D01*
X2515000Y28525330D01*
X3430033Y29440363D01*
X3287796Y29696650D01*
X2577777Y29862857D01*
X1858200Y29744698D01*
X1742204Y29696650D01*
X1599967Y29440363D01*
X400000Y29440363D01*
X400000Y32217205D01*
X4564805Y32217205D01*
X4735715Y31803571D01*
X5051907Y31486828D01*
X5465242Y31315196D01*
X5912795Y31314805D01*
X6326429Y31485715D01*
X6643172Y31801907D01*
X6814804Y32215242D01*
X6815195Y32662795D01*
X6644285Y33076429D01*
X6328093Y33393172D01*
X5914758Y33564804D01*
X5467205Y33565195D01*
X5053571Y33394285D01*
X4736828Y33078093D01*
X4565196Y32664758D01*
X4564805Y32217205D01*
X400000Y32217205D01*
X400000Y34460604D01*
X490972Y34917952D01*
X727724Y35272276D01*
X1082198Y35509128D01*
X1536966Y35600000D01*
X17460604Y35600000D01*
X17917952Y35509028D01*
X17917952Y35509028D01*
G37*
X17917952Y35509028D02*
X18272276Y35272276D01*
X18509028Y34917952D01*
X18600000Y34460604D01*
X18600000Y2483155D01*
X18506631Y2708566D01*
X18328565Y2886632D01*
X18095911Y2983000D01*
X17653250Y2983000D01*
X17495002Y2824752D01*
X17495002Y2935014D01*
X17592673Y2954442D01*
X17973870Y3209150D01*
X18228578Y3590347D01*
X18318020Y4040000D01*
X18228578Y4489653D01*
X17973870Y4870850D01*
X17592673Y5125558D01*
X17143020Y5215000D01*
X17096980Y5215000D01*
X16647327Y5125558D01*
X16266130Y4870850D01*
X16011422Y4489653D01*
X15921980Y4040000D01*
X16011422Y3590347D01*
X16266130Y3209150D01*
X16647327Y2954442D01*
X16744998Y2935014D01*
X16744998Y2824752D01*
X16586750Y2983000D01*
X16144089Y2983000D01*
X15911435Y2886632D01*
X15733369Y2708566D01*
X15637000Y2475912D01*
X15637000Y2033250D01*
X15795250Y1875000D01*
X16745000Y1875000D01*
X16745000Y1895000D01*
X17495000Y1895000D01*
X17495000Y1875000D01*
X17515000Y1875000D01*
X17515000Y1125000D01*
X17495000Y1125000D01*
X17495000Y1105000D01*
X16745000Y1105000D01*
X16745000Y1125000D01*
X15795250Y1125000D01*
X15637000Y966750D01*
X15637000Y524088D01*
X15688399Y400000D01*
X2941668Y400000D01*
X2961053Y412474D01*
X3035260Y521080D01*
X3061367Y650000D01*
X3061367Y1938905D01*
X3327462Y2205000D01*
X4291611Y2205000D01*
X4306295Y2126962D01*
X4377474Y2016347D01*
X4486080Y1942140D01*
X4615000Y1916033D01*
X5885000Y1916033D01*
X6005438Y1938695D01*
X6116053Y2009874D01*
X6188388Y2115739D01*
X6425358Y1878769D01*
X6595680Y1764963D01*
X6796589Y1725000D01*
X9000000Y1725000D01*
X9200909Y1764963D01*
X9365440Y1874899D01*
X9373775Y1874892D01*
X9603571Y1969842D01*
X9779540Y2145504D01*
X9874891Y2375134D01*
X9875108Y2623775D01*
X9780158Y2853571D01*
X9604496Y3029540D01*
X9374866Y3124891D01*
X9126225Y3125108D01*
X8896429Y3030158D01*
X8720460Y2854496D01*
X8687450Y2775000D01*
X7854078Y2775000D01*
X7874900Y2825144D01*
X7875117Y3073785D01*
X7780167Y3303581D01*
X7775009Y3308748D01*
X7775009Y4304991D01*
X7735046Y4505900D01*
X7621240Y4676222D01*
X6656231Y5641231D01*
X6485909Y5755037D01*
X6285000Y5795000D01*
X6208389Y5795000D01*
X6193705Y5873038D01*
X6122526Y5983653D01*
X6013920Y6057860D01*
X5885000Y6083967D01*
X4615000Y6083967D01*
X4494562Y6061305D01*
X4383947Y5990126D01*
X4309740Y5881520D01*
X4292219Y5795000D01*
X3407462Y5795000D01*
X3002438Y6200024D01*
X3078020Y6580000D01*
X2988578Y7029653D01*
X2733870Y7410850D01*
X2352673Y7665558D01*
X1903020Y7755000D01*
X1856980Y7755000D01*
X1515406Y7687056D01*
X1154999Y8047463D01*
X1154999Y8203042D01*
X1407327Y8034442D01*
X1856980Y7945000D01*
X1903020Y7945000D01*
X2244594Y8012944D01*
X3263769Y6993769D01*
X3434091Y6879963D01*
X3635000Y6840000D01*
X4291611Y6840000D01*
X4306295Y6761962D01*
X4377474Y6651347D01*
X4486080Y6577140D01*
X4615000Y6551033D01*
X5885000Y6551033D01*
X6005438Y6573695D01*
X6116053Y6644874D01*
X6190260Y6753480D01*
X6216367Y6882400D01*
X6216367Y7847600D01*
X6193705Y7968038D01*
X6173661Y7999187D01*
X6175565Y8001973D01*
X6975000Y7202538D01*
X6975000Y7109028D01*
X6970460Y7104496D01*
X6875109Y6874866D01*
X6874892Y6626225D01*
X6969842Y6396429D01*
X7145504Y6220460D01*
X7375134Y6125109D01*
X7623775Y6124892D01*
X7627001Y6126225D01*
X14874892Y6126225D01*
X14969842Y5896429D01*
X15145504Y5720460D01*
X15375134Y5625109D01*
X15623775Y5624892D01*
X15853571Y5719842D01*
X16029540Y5895504D01*
X16082737Y6023617D01*
X16266130Y5749150D01*
X16647327Y5494442D01*
X17096980Y5405000D01*
X17143020Y5405000D01*
X17592673Y5494442D01*
X17973870Y5749150D01*
X18228578Y6130347D01*
X18318020Y6580000D01*
X18228578Y7029653D01*
X17973870Y7410850D01*
X17592673Y7665558D01*
X17143020Y7755000D01*
X17096980Y7755000D01*
X16647327Y7665558D01*
X16266130Y7410850D01*
X16025000Y7049974D01*
X16025000Y7282538D01*
X16755406Y8012944D01*
X17096980Y7945000D01*
X17143020Y7945000D01*
X17592673Y8034442D01*
X17973870Y8289150D01*
X18228578Y8670347D01*
X18318020Y9120000D01*
X18228578Y9569653D01*
X17973870Y9950850D01*
X17592673Y10205558D01*
X17143020Y10295000D01*
X17096980Y10295000D01*
X16647327Y10205558D01*
X16266130Y9950850D01*
X16011422Y9569653D01*
X15921980Y9120000D01*
X15997562Y8740024D01*
X15128769Y7871231D01*
X15014963Y7700909D01*
X14975000Y7500000D01*
X14975000Y6609028D01*
X14970460Y6604496D01*
X14875109Y6374866D01*
X14874892Y6126225D01*
X7627001Y6126225D01*
X7853571Y6219842D01*
X8029540Y6395504D01*
X8124891Y6625134D01*
X8125108Y6873775D01*
X8030158Y7103571D01*
X8025000Y7108738D01*
X8025000Y7420000D01*
X7985037Y7620909D01*
X7871231Y7791231D01*
X6656231Y9006231D01*
X6485909Y9120037D01*
X6285000Y9160000D01*
X6208389Y9160000D01*
X6193705Y9238038D01*
X6122526Y9348653D01*
X6013920Y9422860D01*
X5885000Y9448967D01*
X4615000Y9448967D01*
X4494562Y9426305D01*
X4383947Y9355126D01*
X4309740Y9246520D01*
X4283633Y9117600D01*
X4283633Y8152400D01*
X4306295Y8031962D01*
X4326339Y8000813D01*
X4309740Y7976520D01*
X4292219Y7890000D01*
X3852462Y7890000D01*
X3002438Y8740024D01*
X3078020Y9120000D01*
X2988578Y9569653D01*
X2733870Y9950850D01*
X2352673Y10205558D01*
X1903020Y10295000D01*
X1856980Y10295000D01*
X1407327Y10205558D01*
X1154999Y10036958D01*
X1154999Y10743042D01*
X1407327Y10574442D01*
X1856980Y10485000D01*
X1903020Y10485000D01*
X2352673Y10574442D01*
X2733870Y10829150D01*
X2988578Y11210347D01*
X3078020Y11660000D01*
X2988578Y12109653D01*
X2733870Y12490850D01*
X2352673Y12745558D01*
X1940087Y12827627D01*
X2337460Y13225000D01*
X3564469Y13225000D01*
X3628769Y13128769D01*
X6624898Y10132640D01*
X6624892Y10126225D01*
X6719842Y9896429D01*
X6895504Y9720460D01*
X7125134Y9625109D01*
X7373775Y9624892D01*
X7603571Y9719842D01*
X7779540Y9895504D01*
X7874891Y10125134D01*
X7875108Y10373775D01*
X7780158Y10603571D01*
X7604496Y10779540D01*
X7374866Y10874891D01*
X7367565Y10874897D01*
X6582462Y11660000D01*
X15921980Y11660000D01*
X16011422Y11210347D01*
X16266130Y10829150D01*
X16647327Y10574442D01*
X17096980Y10485000D01*
X17143020Y10485000D01*
X17592673Y10574442D01*
X17973870Y10829150D01*
X18228578Y11210347D01*
X18318020Y11660000D01*
X18228578Y12109653D01*
X17973870Y12490850D01*
X17592673Y12745558D01*
X17143020Y12835000D01*
X17096980Y12835000D01*
X16647327Y12745558D01*
X16266130Y12490850D01*
X16011422Y12109653D01*
X15921980Y11660000D01*
X6582462Y11660000D01*
X4640992Y13601470D01*
X9249870Y13601470D01*
X9363811Y13325714D01*
X9574605Y13114552D01*
X9850161Y13000131D01*
X10148530Y12999870D01*
X10424286Y13113811D01*
X10625165Y13314340D01*
X10824605Y13114552D01*
X11100161Y13000131D01*
X11398530Y12999870D01*
X11506107Y13044320D01*
X11538369Y12966434D01*
X11716435Y12788368D01*
X11949089Y12692000D01*
X12129250Y12692000D01*
X12287500Y12850250D01*
X12287500Y13537500D01*
X12712500Y13537500D01*
X12712500Y12850250D01*
X12870750Y12692000D01*
X13050911Y12692000D01*
X13283565Y12788368D01*
X13461631Y12966434D01*
X13558000Y13199088D01*
X13558000Y13379250D01*
X13399750Y13537500D01*
X12712500Y13537500D01*
X12287500Y13537500D01*
X12105000Y13537500D01*
X12105000Y13962500D01*
X12287500Y13962500D01*
X12287500Y14649750D01*
X12712500Y14649750D01*
X12712500Y13962500D01*
X13399750Y13962500D01*
X13558000Y14120750D01*
X13558000Y14300912D01*
X13461631Y14533566D01*
X13283565Y14711632D01*
X13050911Y14808000D01*
X12870750Y14808000D01*
X12712500Y14649750D01*
X12287500Y14649750D01*
X12129250Y14808000D01*
X11949089Y14808000D01*
X11716435Y14711632D01*
X11538369Y14533566D01*
X11506129Y14455733D01*
X11399839Y14499869D01*
X11101470Y14500130D01*
X10825714Y14386189D01*
X10624835Y14185660D01*
X10425395Y14385448D01*
X10149839Y14499869D01*
X9851470Y14500130D01*
X9575714Y14386189D01*
X9364552Y14175395D01*
X9250131Y13899839D01*
X9249870Y13601470D01*
X4640992Y13601470D01*
X4622672Y13619790D01*
X4624891Y13625134D01*
X4625108Y13873775D01*
X4530158Y14103571D01*
X4354496Y14279540D01*
X4124866Y14374891D01*
X3876225Y14375108D01*
X3646429Y14280158D01*
X3641262Y14275000D01*
X2119998Y14275000D01*
X1919089Y14235037D01*
X1748767Y14121231D01*
X400000Y12772464D01*
X400000Y18802989D01*
X7974735Y18802989D01*
X8206414Y18242285D01*
X8635029Y17812921D01*
X9195328Y17580265D01*
X9802011Y17579735D01*
X10362715Y17811414D01*
X10792079Y18240029D01*
X11024735Y18800328D01*
X11025265Y19407011D01*
X10793586Y19967715D01*
X10364971Y20397079D01*
X9804672Y20629735D01*
X9197989Y20630265D01*
X8637285Y20398586D01*
X8207921Y19969971D01*
X7975265Y19409672D01*
X7974735Y18802989D01*
X400000Y18802989D01*
X400000Y21883800D01*
X4554130Y21883800D01*
X4734220Y21596494D01*
X5554549Y21379435D01*
X6395499Y21492824D01*
X6645780Y21596494D01*
X6825870Y21883800D01*
X5690000Y23019670D01*
X4554130Y21883800D01*
X400000Y21883800D01*
X400000Y23685451D01*
X3519435Y23685451D01*
X3632824Y22844501D01*
X3736494Y22594220D01*
X4023800Y22414130D01*
X5159670Y23550000D01*
X6220330Y23550000D01*
X7356200Y22414130D01*
X7578667Y22553578D01*
X11484684Y22553578D01*
X11761938Y21882571D01*
X12274871Y21368742D01*
X12945392Y21090317D01*
X13671422Y21089684D01*
X14342429Y21366938D01*
X14856258Y21879871D01*
X15134683Y22550392D01*
X15135316Y23276422D01*
X14858062Y23947429D01*
X14345129Y24461258D01*
X13674608Y24739683D01*
X12948578Y24740316D01*
X12277571Y24463062D01*
X11763742Y23950129D01*
X11485317Y23279608D01*
X11484684Y22553578D01*
X7578667Y22553578D01*
X7643506Y22594220D01*
X7860565Y23414549D01*
X7747176Y24255499D01*
X7643506Y24505780D01*
X7356200Y24685870D01*
X6220330Y23550000D01*
X5159670Y23550000D01*
X4023800Y24685870D01*
X3736494Y24505780D01*
X3519435Y23685451D01*
X400000Y23685451D01*
X400000Y25216200D01*
X4554130Y25216200D01*
X5690000Y24080330D01*
X6825870Y25216200D01*
X6645780Y25503506D01*
X5825451Y25720565D01*
X4984501Y25607176D01*
X4734220Y25503506D01*
X4554130Y25216200D01*
X400000Y25216200D01*
X400000Y26549637D01*
X1599967Y26549637D01*
X1742204Y26293350D01*
X2452223Y26127143D01*
X3171800Y26245302D01*
X3287796Y26293350D01*
X3430033Y26549637D01*
X2515000Y27464670D01*
X1599967Y26549637D01*
X400000Y26549637D01*
X400000Y28057777D01*
X647143Y28057777D01*
X765302Y27338200D01*
X813350Y27222204D01*
X1069637Y27079967D01*
X1984670Y27995000D01*
X3045330Y27995000D01*
X3960363Y27079967D01*
X4063496Y27137205D01*
X12184805Y27137205D01*
X12355715Y26723571D01*
X12671907Y26406828D01*
X13085242Y26235196D01*
X13532795Y26234805D01*
X13946429Y26405715D01*
X14263172Y26721907D01*
X14434804Y27135242D01*
X14435195Y27582795D01*
X14264285Y27996429D01*
X13948093Y28313172D01*
X13534758Y28484804D01*
X13087205Y28485195D01*
X12673571Y28314285D01*
X12356828Y27998093D01*
X12185196Y27584758D01*
X12184805Y27137205D01*
X4063496Y27137205D01*
X4216650Y27222204D01*
X4382857Y27932223D01*
X4264698Y28651800D01*
X4216650Y28767796D01*
X3960363Y28910033D01*
X3045330Y27995000D01*
X1984670Y27995000D01*
X1069637Y28910033D01*
X813350Y28767796D01*
X647143Y28057777D01*
X400000Y28057777D01*
X400000Y29440363D01*
X1599967Y29440363D01*
X2515000Y28525330D01*
X3430033Y29440363D01*
X3287796Y29696650D01*
X2577777Y29862857D01*
X1858200Y29744698D01*
X1742204Y29696650D01*
X1599967Y29440363D01*
X400000Y29440363D01*
X400000Y32217205D01*
X4564805Y32217205D01*
X4735715Y31803571D01*
X5051907Y31486828D01*
X5465242Y31315196D01*
X5912795Y31314805D01*
X6326429Y31485715D01*
X6643172Y31801907D01*
X6814804Y32215242D01*
X6815195Y32662795D01*
X6644285Y33076429D01*
X6328093Y33393172D01*
X5914758Y33564804D01*
X5467205Y33565195D01*
X5053571Y33394285D01*
X4736828Y33078093D01*
X4565196Y32664758D01*
X4564805Y32217205D01*
X400000Y32217205D01*
X400000Y34460604D01*
X490972Y34917952D01*
X727724Y35272276D01*
X1082198Y35509128D01*
X1536966Y35600000D01*
X17460604Y35600000D01*
X17917952Y35509028D01*
G36*
X2255000Y4415000D02*
X2275000Y4415000D01*
X2275000Y3665000D01*
X2255000Y3665000D01*
X2255000Y3645000D01*
X1505000Y3645000D01*
X1505000Y3665000D01*
X1485000Y3665000D01*
X1485000Y4415000D01*
X1505000Y4415000D01*
X1505000Y4435000D01*
X2255000Y4435000D01*
X2255000Y4415000D01*
X2255000Y4415000D01*
G37*
X2255000Y4415000D02*
X2275000Y4415000D01*
X2275000Y3665000D01*
X2255000Y3665000D01*
X2255000Y3645000D01*
X1505000Y3645000D01*
X1505000Y3665000D01*
X1485000Y3665000D01*
X1485000Y4415000D01*
X1505000Y4415000D01*
X1505000Y4435000D01*
X2255000Y4435000D01*
X2255000Y4415000D01*
M02*
