G04 #@! TF.FileFunction,Soldermask,Top*
%FSLAX46Y46*%
G04 Gerber Fmt 4.6, Leading zero omitted, Abs format (unit mm)*
G04 Created by KiCad (PCBNEW 4.0.7) date Wed Jun 13 11:05:16 2018*
%MOMM*%
%LPD*%
G01*
G04 APERTURE LIST*
%ADD10C,0.100000*%
%ADD11R,0.890000X0.940000*%
%ADD12R,1.840000X1.840000*%
%ADD13O,1.840000X1.840000*%
%ADD14R,0.990000X0.990000*%
%ADD15C,0.990000*%
%ADD16R,0.940000X1.040000*%
%ADD17R,0.640000X1.040000*%
%ADD18R,1.200000X0.790000*%
%ADD19R,1.690000X0.740000*%
%ADD20C,1.740000*%
%ADD21C,3.140000*%
%ADD22C,2.540000*%
G04 APERTURE END LIST*
D10*
D11*
X4500000Y1250000D03*
X4500000Y2750000D03*
X8500000Y1250000D03*
X8500000Y2750000D03*
X6500000Y1250000D03*
X6500000Y2750000D03*
D12*
X17120000Y1500000D03*
D13*
X17120000Y4040000D03*
X17120000Y6580000D03*
X17120000Y9120000D03*
X17120000Y11660000D03*
D12*
X1880000Y1500000D03*
D13*
X1880000Y4040000D03*
X1880000Y6580000D03*
X1880000Y9120000D03*
X1880000Y11660000D03*
D14*
X12500000Y13750000D03*
D15*
X11250000Y13750000D03*
X10000000Y13750000D03*
D16*
X6450000Y12000000D03*
X4550000Y12000000D03*
X5500000Y10000000D03*
D17*
X8250000Y10000000D03*
X9750000Y10000000D03*
X11000000Y10000000D03*
X12500000Y10000000D03*
X4750000Y8250000D03*
X6250000Y8250000D03*
X4750000Y13750000D03*
X6250000Y13750000D03*
D18*
X6600000Y4550000D03*
X6600000Y5500000D03*
X6600000Y6450000D03*
X4400000Y6450000D03*
X4400000Y4550000D03*
X4400000Y5500000D03*
D19*
X14200000Y4345000D03*
X14200000Y5615000D03*
X14200000Y6885000D03*
X14200000Y8155000D03*
X8800000Y8155000D03*
X8800000Y6885000D03*
X8800000Y5615000D03*
X8800000Y4345000D03*
D20*
X5690000Y32440000D03*
X13310000Y27360000D03*
D21*
X5690000Y23550000D03*
X13310000Y22915000D03*
D22*
X9500000Y19105000D03*
X1250000Y29250000D03*
M02*
