G04 #@! TF.FileFunction,Paste,Bot*
%FSLAX46Y46*%
G04 Gerber Fmt 4.6, Leading zero omitted, Abs format (unit mm)*
G04 Created by KiCad (PCBNEW 4.0.7) date Thu Jan 25 16:07:57 2018*
%MOMM*%
%LPD*%
G01*
G04 APERTURE LIST*
%ADD10C,0.100000*%
%ADD11C,0.150000*%
%ADD12R,1.000000X1.250000*%
%ADD13R,0.800000X0.750000*%
%ADD14R,0.500000X0.900000*%
%ADD15R,1.200000X1.200000*%
%ADD16R,1.600000X1.500000*%
%ADD17R,3.500000X1.600000*%
%ADD18R,2.100000X0.750000*%
%ADD19R,0.800000X2.200000*%
%ADD20R,2.750000X3.050000*%
G04 APERTURE END LIST*
D10*
D11*
X42000000Y36500000D02*
X42000000Y5500000D01*
X36500000Y42000000D02*
X42000000Y36500000D01*
X5500000Y42000000D02*
X36500000Y42000000D01*
X0Y36500000D02*
X5500000Y42000000D01*
X0Y5500000D02*
X0Y36500000D01*
X5500000Y0D02*
X0Y5500000D01*
X36500000Y0D02*
X5500000Y0D01*
X42000000Y5500000D02*
X36500000Y0D01*
D12*
X27000000Y14750000D03*
X25000000Y14750000D03*
D13*
X25500000Y13000000D03*
X27000000Y13000000D03*
D14*
X12000000Y29000000D03*
X10500000Y29000000D03*
D15*
X28600000Y20370000D03*
X31400000Y20370000D03*
D16*
X30000000Y17130000D03*
D17*
X12300000Y4250000D03*
X17700000Y4250000D03*
D18*
X34700000Y26715000D03*
X38300000Y26715000D03*
X34700000Y25445000D03*
X38300000Y25445000D03*
X34700000Y24175000D03*
X38300000Y24175000D03*
X34700000Y22905000D03*
X38300000Y22905000D03*
X34700000Y21635000D03*
X38300000Y21635000D03*
X34700000Y20365000D03*
X38300000Y20365000D03*
X34700000Y19095000D03*
X38300000Y19095000D03*
X34700000Y17825000D03*
X38300000Y17825000D03*
X34700000Y16555000D03*
X38300000Y16555000D03*
X34700000Y15285000D03*
X38300000Y15285000D03*
D19*
X27195000Y10550000D03*
X28335000Y10550000D03*
X30615000Y10550000D03*
X31755000Y10550000D03*
D20*
X31000000Y2575000D03*
X27950000Y5925000D03*
X27950000Y2575000D03*
X31000000Y5925000D03*
M02*
