G04 #@! TF.FileFunction,Soldermask,Top*
%FSLAX46Y46*%
G04 Gerber Fmt 4.6, Leading zero omitted, Abs format (unit mm)*
G04 Created by KiCad (PCBNEW 4.0.7) date Thu Jan 25 16:07:57 2018*
%MOMM*%
%LPD*%
G01*
G04 APERTURE LIST*
%ADD10C,0.100000*%
%ADD11C,0.150000*%
%ADD12C,1.283000*%
%ADD13C,6.540000*%
%ADD14C,0.740000*%
%ADD15O,2.138980X2.138980*%
%ADD16R,2.138980X2.138980*%
%ADD17R,1.840000X1.340000*%
%ADD18O,1.840000X1.340000*%
%ADD19C,1.740000*%
%ADD20C,3.140000*%
%ADD21C,2.540000*%
G04 APERTURE END LIST*
D10*
D11*
X42000000Y36500000D02*
X42000000Y5500000D01*
X36500000Y42000000D02*
X42000000Y36500000D01*
X5500000Y42000000D02*
X36500000Y42000000D01*
X0Y36500000D02*
X5500000Y42000000D01*
X0Y5500000D02*
X0Y36500000D01*
X5500000Y0D02*
X0Y5500000D01*
X36500000Y0D02*
X5500000Y0D01*
X42000000Y5500000D02*
X36500000Y0D01*
D12*
X36500000Y11250000D03*
D13*
X36500000Y36500000D03*
D14*
X38900000Y36500000D03*
X38197056Y34802944D03*
X36500000Y34100000D03*
X34802944Y34802944D03*
X34100000Y36500000D03*
X34802944Y38197056D03*
X36500000Y38900000D03*
X38197056Y38197056D03*
D15*
X3500000Y27000000D03*
D16*
X3500000Y29540000D03*
D17*
X2500000Y12750000D03*
D18*
X2500000Y14750000D03*
D13*
X5500000Y36500000D03*
D14*
X7900000Y36500000D03*
X7197056Y34802944D03*
X5500000Y34100000D03*
X3802944Y34802944D03*
X3100000Y36500000D03*
X3802944Y38197056D03*
X5500000Y38900000D03*
X7197056Y38197056D03*
D13*
X5500000Y5500000D03*
D14*
X7900000Y5500000D03*
X7197056Y3802944D03*
X5500000Y3100000D03*
X3802944Y3802944D03*
X3100000Y5500000D03*
X3802944Y7197056D03*
X5500000Y7900000D03*
X7197056Y7197056D03*
D13*
X36500000Y5500000D03*
D14*
X38900000Y5500000D03*
X38197056Y3802944D03*
X36500000Y3100000D03*
X34802944Y3802944D03*
X34100000Y5500000D03*
X34802944Y7197056D03*
X36500000Y7900000D03*
X38197056Y7197056D03*
D19*
X24810000Y3860000D03*
X17190000Y8940000D03*
D20*
X17190000Y17830000D03*
X24810000Y17830000D03*
D21*
X21000000Y17830000D03*
X21000000Y12750000D03*
D19*
X17190000Y38190000D03*
X24810000Y33110000D03*
D20*
X17190000Y29300000D03*
X24810000Y28665000D03*
D21*
X21000000Y24855000D03*
X14015000Y33745000D03*
M02*
