G04 #@! TF.FileFunction,Legend,Top*
%FSLAX46Y46*%
G04 Gerber Fmt 4.6, Leading zero omitted, Abs format (unit mm)*
G04 Created by KiCad (PCBNEW 4.0.7) date Thu Jan 25 16:07:57 2018*
%MOMM*%
%LPD*%
G01*
G04 APERTURE LIST*
%ADD10C,0.100000*%
%ADD11C,0.200000*%
%ADD12C,0.300000*%
%ADD13C,0.150000*%
%ADD14C,0.120000*%
G04 APERTURE END LIST*
D10*
D11*
X7821429Y33357144D02*
X7821429Y33023810D01*
X7297619Y32880953D02*
X7297619Y33357144D01*
X8297619Y33357144D01*
X8297619Y32880953D01*
X7297619Y32452382D02*
X7964286Y32452382D01*
X7869048Y32452382D02*
X7916667Y32404763D01*
X7964286Y32309525D01*
X7964286Y32166667D01*
X7916667Y32071429D01*
X7821429Y32023810D01*
X7297619Y32023810D01*
X7821429Y32023810D02*
X7916667Y31976191D01*
X7964286Y31880953D01*
X7964286Y31738096D01*
X7916667Y31642858D01*
X7821429Y31595239D01*
X7297619Y31595239D01*
X7345238Y30738096D02*
X7297619Y30833334D01*
X7297619Y31023811D01*
X7345238Y31119049D01*
X7440476Y31166668D01*
X7821429Y31166668D01*
X7916667Y31119049D01*
X7964286Y31023811D01*
X7964286Y30833334D01*
X7916667Y30738096D01*
X7821429Y30690477D01*
X7726190Y30690477D01*
X7630952Y31166668D01*
X7297619Y30261906D02*
X7964286Y30261906D01*
X7773810Y30261906D02*
X7869048Y30214287D01*
X7916667Y30166668D01*
X7964286Y30071430D01*
X7964286Y29976191D01*
X7964286Y29214286D02*
X7154762Y29214286D01*
X7059524Y29261905D01*
X7011905Y29309524D01*
X6964286Y29404763D01*
X6964286Y29547620D01*
X7011905Y29642858D01*
X7345238Y29214286D02*
X7297619Y29309524D01*
X7297619Y29500001D01*
X7345238Y29595239D01*
X7392857Y29642858D01*
X7488095Y29690477D01*
X7773810Y29690477D01*
X7869048Y29642858D01*
X7916667Y29595239D01*
X7964286Y29500001D01*
X7964286Y29309524D01*
X7916667Y29214286D01*
X7392857Y28738096D02*
X7345238Y28690477D01*
X7297619Y28738096D01*
X7345238Y28785715D01*
X7392857Y28738096D01*
X7297619Y28738096D01*
X7345238Y27547620D02*
X7297619Y27452382D01*
X7297619Y27261906D01*
X7345238Y27166667D01*
X7440476Y27119048D01*
X7488095Y27119048D01*
X7583333Y27166667D01*
X7630952Y27261906D01*
X7630952Y27404763D01*
X7678571Y27500001D01*
X7773810Y27547620D01*
X7821429Y27547620D01*
X7916667Y27500001D01*
X7964286Y27404763D01*
X7964286Y27261906D01*
X7916667Y27166667D01*
X7964286Y26833334D02*
X7964286Y26452382D01*
X8297619Y26690477D02*
X7440476Y26690477D01*
X7345238Y26642858D01*
X7297619Y26547620D01*
X7297619Y26452382D01*
X7297619Y25976191D02*
X7345238Y26071429D01*
X7392857Y26119048D01*
X7488095Y26166667D01*
X7773810Y26166667D01*
X7869048Y26119048D01*
X7916667Y26071429D01*
X7964286Y25976191D01*
X7964286Y25833333D01*
X7916667Y25738095D01*
X7869048Y25690476D01*
X7773810Y25642857D01*
X7488095Y25642857D01*
X7392857Y25690476D01*
X7345238Y25738095D01*
X7297619Y25833333D01*
X7297619Y25976191D01*
X7964286Y25214286D02*
X6964286Y25214286D01*
X7916667Y25214286D02*
X7964286Y25119048D01*
X7964286Y24928571D01*
X7916667Y24833333D01*
X7869048Y24785714D01*
X7773810Y24738095D01*
X7488095Y24738095D01*
X7392857Y24785714D01*
X7345238Y24833333D01*
X7297619Y24928571D01*
X7297619Y25119048D01*
X7345238Y25214286D01*
X6916667Y23261904D02*
X6964286Y23309524D01*
X7107143Y23404762D01*
X7202381Y23452381D01*
X7345238Y23500000D01*
X7583333Y23547619D01*
X7773810Y23547619D01*
X8011905Y23500000D01*
X8154762Y23452381D01*
X8250000Y23404762D01*
X8392857Y23309524D01*
X8440476Y23261904D01*
X7297619Y22880952D02*
X8297619Y22880952D01*
X7297619Y22309523D01*
X8297619Y22309523D01*
X7392857Y21261904D02*
X7345238Y21309523D01*
X7297619Y21452380D01*
X7297619Y21547618D01*
X7345238Y21690476D01*
X7440476Y21785714D01*
X7535714Y21833333D01*
X7726190Y21880952D01*
X7869048Y21880952D01*
X8059524Y21833333D01*
X8154762Y21785714D01*
X8250000Y21690476D01*
X8297619Y21547618D01*
X8297619Y21452380D01*
X8250000Y21309523D01*
X8202381Y21261904D01*
X6916667Y20928571D02*
X6964286Y20880952D01*
X7107143Y20785714D01*
X7202381Y20738095D01*
X7345238Y20690476D01*
X7583333Y20642857D01*
X7773810Y20642857D01*
X8011905Y20690476D01*
X8154762Y20738095D01*
X8250000Y20785714D01*
X8392857Y20880952D01*
X8440476Y20928571D01*
D12*
X2607143Y17428572D02*
X2607143Y18571429D01*
X2607143Y9178572D02*
X2607143Y10321429D01*
X3178571Y9750000D02*
X2035714Y9750000D01*
D11*
X6571429Y18035714D02*
X6571429Y18369048D01*
X6047619Y18369048D02*
X7047619Y18369048D01*
X7047619Y17892857D01*
X6047619Y17083333D02*
X6571429Y17083333D01*
X6666667Y17130952D01*
X6714286Y17226190D01*
X6714286Y17416667D01*
X6666667Y17511905D01*
X6095238Y17083333D02*
X6047619Y17178571D01*
X6047619Y17416667D01*
X6095238Y17511905D01*
X6190476Y17559524D01*
X6285714Y17559524D01*
X6380952Y17511905D01*
X6428571Y17416667D01*
X6428571Y17178571D01*
X6476190Y17083333D01*
X6714286Y16607143D02*
X6047619Y16607143D01*
X6619048Y16607143D02*
X6666667Y16559524D01*
X6714286Y16464286D01*
X6714286Y16321428D01*
X6666667Y16226190D01*
X6571429Y16178571D01*
X6047619Y16178571D01*
X5666667Y14654761D02*
X5714286Y14702381D01*
X5857143Y14797619D01*
X5952381Y14845238D01*
X6095238Y14892857D01*
X6333333Y14940476D01*
X6523810Y14940476D01*
X6761905Y14892857D01*
X6904762Y14845238D01*
X7000000Y14797619D01*
X7142857Y14702381D01*
X7190476Y14654761D01*
X7047619Y13797618D02*
X7047619Y14273809D01*
X6571429Y14321428D01*
X6619048Y14273809D01*
X6666667Y14178571D01*
X6666667Y13940475D01*
X6619048Y13845237D01*
X6571429Y13797618D01*
X6476190Y13749999D01*
X6238095Y13749999D01*
X6142857Y13797618D01*
X6095238Y13845237D01*
X6047619Y13940475D01*
X6047619Y14178571D01*
X6095238Y14273809D01*
X6142857Y14321428D01*
X6428571Y13321428D02*
X6428571Y12559523D01*
X6952381Y12130952D02*
X7000000Y12083333D01*
X7047619Y11988095D01*
X7047619Y11749999D01*
X7000000Y11654761D01*
X6952381Y11607142D01*
X6857143Y11559523D01*
X6761905Y11559523D01*
X6619048Y11607142D01*
X6047619Y12178571D01*
X6047619Y11559523D01*
X7047619Y10940476D02*
X7047619Y10845237D01*
X7000000Y10749999D01*
X6952381Y10702380D01*
X6857143Y10654761D01*
X6666667Y10607142D01*
X6428571Y10607142D01*
X6238095Y10654761D01*
X6142857Y10702380D01*
X6095238Y10749999D01*
X6047619Y10845237D01*
X6047619Y10940476D01*
X6095238Y11035714D01*
X6142857Y11083333D01*
X6238095Y11130952D01*
X6428571Y11178571D01*
X6666667Y11178571D01*
X6857143Y11130952D01*
X6952381Y11083333D01*
X7000000Y11035714D01*
X7047619Y10940476D01*
X7047619Y10321428D02*
X6047619Y9988095D01*
X7047619Y9654761D01*
X5666667Y9416666D02*
X5714286Y9369047D01*
X5857143Y9273809D01*
X5952381Y9226190D01*
X6095238Y9178571D01*
X6333333Y9130952D01*
X6523810Y9130952D01*
X6761905Y9178571D01*
X6904762Y9226190D01*
X7000000Y9273809D01*
X7142857Y9369047D01*
X7190476Y9416666D01*
D13*
X42000000Y36500000D02*
X42000000Y5500000D01*
X36500000Y42000000D02*
X42000000Y36500000D01*
X5500000Y42000000D02*
X36500000Y42000000D01*
X0Y36500000D02*
X5500000Y42000000D01*
X0Y5500000D02*
X0Y36500000D01*
X5500000Y0D02*
X0Y5500000D01*
X36500000Y0D02*
X5500000Y0D01*
X42000000Y5500000D02*
X36500000Y0D01*
D14*
X37303219Y11250000D02*
G75*
G03X37303219Y11250000I-803219J0D01*
G01*
D13*
X899040Y25470920D02*
X899040Y31069080D01*
X401200Y30870960D02*
X899040Y30870960D01*
X899040Y25669040D02*
X401200Y25669040D01*
X401200Y28270000D02*
X899040Y28270000D01*
X6200020Y31069080D02*
X6200020Y25470920D01*
X401200Y31069080D02*
X401200Y25470920D01*
X401200Y25470920D02*
X6598800Y25470920D01*
X6598800Y25470920D02*
X6598800Y31069080D01*
X6598800Y31069080D02*
X401200Y31069080D01*
D14*
X700000Y10700000D02*
X5400000Y10700000D01*
X5400000Y10700000D02*
X5400000Y16800000D01*
X5400000Y16800000D02*
X700000Y16800000D01*
X700000Y16800000D02*
X700000Y10700000D01*
X700000Y13250000D02*
X1300000Y13250000D01*
X1300000Y13250000D02*
X1300000Y11300000D01*
X1300000Y11300000D02*
X4800000Y11300000D01*
X4800000Y11300000D02*
X4800000Y16200000D01*
X4800000Y16200000D02*
X1300000Y16200000D01*
X1300000Y16200000D02*
X1300000Y14250000D01*
X1300000Y14250000D02*
X700000Y14250000D01*
X2000000Y10700000D02*
X2000000Y11300000D01*
X3300000Y10700000D02*
X3300000Y11300000D01*
X2000000Y16800000D02*
X2000000Y16200000D01*
X3300000Y16800000D02*
X3300000Y16200000D01*
X700000Y12450000D02*
X500000Y12450000D01*
X500000Y12450000D02*
X500000Y12150000D01*
X500000Y12150000D02*
X700000Y12150000D01*
X600000Y12450000D02*
X600000Y12150000D01*
X4800000Y13650000D02*
X4300000Y13650000D01*
X4300000Y13650000D02*
X4300000Y13850000D01*
X4300000Y13850000D02*
X4800000Y13850000D01*
X4800000Y13750000D02*
X4300000Y13750000D01*
X400000Y11650000D02*
X400000Y10400000D01*
X400000Y10400000D02*
X1650000Y10400000D01*
D13*
X33500000Y18550000D02*
X33500000Y50000D01*
X8250000Y18550000D02*
X33500000Y18550000D01*
X8250000Y50000D02*
X8250000Y18550000D01*
X33500000Y50000D02*
X8250000Y50000D01*
X8500000Y22500000D02*
X8500000Y42000000D01*
X33500000Y22500000D02*
X8500000Y22500000D01*
X33500000Y42000000D02*
X33500000Y22500000D01*
X8500000Y42000000D02*
X33500000Y42000000D01*
X36666667Y13547619D02*
X36666667Y12833333D01*
X36619047Y12690476D01*
X36523809Y12595238D01*
X36380952Y12547619D01*
X36285714Y12547619D01*
X37571429Y13547619D02*
X37380952Y13547619D01*
X37285714Y13500000D01*
X37238095Y13452381D01*
X37142857Y13309524D01*
X37095238Y13119048D01*
X37095238Y12738095D01*
X37142857Y12642857D01*
X37190476Y12595238D01*
X37285714Y12547619D01*
X37476191Y12547619D01*
X37571429Y12595238D01*
X37619048Y12642857D01*
X37666667Y12738095D01*
X37666667Y12976190D01*
X37619048Y13071429D01*
X37571429Y13119048D01*
X37476191Y13166667D01*
X37285714Y13166667D01*
X37190476Y13119048D01*
X37142857Y13071429D01*
X37095238Y12976190D01*
X3166667Y32547619D02*
X3166667Y31833333D01*
X3119047Y31690476D01*
X3023809Y31595238D01*
X2880952Y31547619D01*
X2785714Y31547619D01*
X4071429Y32214286D02*
X4071429Y31547619D01*
X3833333Y32595238D02*
X3595238Y31880952D01*
X4214286Y31880952D01*
X4416667Y10297619D02*
X4416667Y9583333D01*
X4369047Y9440476D01*
X4273809Y9345238D01*
X4130952Y9297619D01*
X4035714Y9297619D01*
X5369048Y10297619D02*
X4892857Y10297619D01*
X4845238Y9821429D01*
X4892857Y9869048D01*
X4988095Y9916667D01*
X5226191Y9916667D01*
X5321429Y9869048D01*
X5369048Y9821429D01*
X5416667Y9726190D01*
X5416667Y9488095D01*
X5369048Y9392857D01*
X5321429Y9345238D01*
X5226191Y9297619D01*
X4988095Y9297619D01*
X4892857Y9345238D01*
X4845238Y9392857D01*
D10*
X20733334Y10488095D02*
X20733334Y9916667D01*
X20695238Y9802381D01*
X20619048Y9726190D01*
X20504762Y9688095D01*
X20428572Y9688095D01*
X21533334Y9688095D02*
X21076191Y9688095D01*
X21304762Y9688095D02*
X21304762Y10488095D01*
X21228572Y10373810D01*
X21152381Y10297619D01*
X21076191Y10259524D01*
X20733334Y32438095D02*
X20733334Y31866667D01*
X20695238Y31752381D01*
X20619048Y31676190D01*
X20504762Y31638095D01*
X20428572Y31638095D01*
X21038096Y32438095D02*
X21533334Y32438095D01*
X21266667Y32133333D01*
X21380953Y32133333D01*
X21457143Y32095238D01*
X21495239Y32057143D01*
X21533334Y31980952D01*
X21533334Y31790476D01*
X21495239Y31714286D01*
X21457143Y31676190D01*
X21380953Y31638095D01*
X21152381Y31638095D01*
X21076191Y31676190D01*
X21038096Y31714286D01*
M02*
