M48
;DRILL file {KiCad 4.0.7} date Thu Jan 25 16:07:59 2018
;FORMAT={-:-/ absolute / metric / decimal}
FMAT,2
METRIC,TZ
T1C0.400
T2C0.500
T3C0.635
T4C0.750
T5C1.097
T6C1.200
T7C1.600
T8C3.200
T9C1.600
%
G90
G05
M71
T1
X8.Y31.25
X23.75Y13.5
X25.25Y21.75
X25.5Y10.25
X26.Y7.75
X26.Y0.75
X27.95Y5.925
X27.95Y2.575
X28.75Y21.75
X29.Y12.5
X29.475Y4.25
X29.5Y7.75
X31.Y5.925
X31.Y2.575
X32.Y25.25
X32.5Y14.
X32.75Y11.25
X32.75Y7.75
X32.75Y4.25
X32.75Y0.75
X34.25Y13.5
X35.75Y30.5
X40.Y24.25
X40.Y23.
X40.Y21.5
X40.Y20.25
X40.Y19.
T2
X3.1Y36.5
X3.1Y5.5
X3.803Y38.197
X3.803Y34.803
X3.803Y7.197
X3.803Y3.803
X5.5Y38.9
X5.5Y34.1
X5.5Y7.9
X5.5Y3.1
X7.197Y38.197
X7.197Y34.803
X7.197Y7.197
X7.197Y3.803
X7.9Y36.5
X7.9Y5.5
X34.1Y36.5
X34.1Y5.5
X34.803Y38.197
X34.803Y34.803
X34.803Y7.197
X34.803Y3.803
X36.5Y38.9
X36.5Y34.1
X36.5Y7.9
X36.5Y3.1
X38.197Y38.197
X38.197Y34.803
X38.197Y7.197
X38.197Y3.803
X38.9Y36.5
X38.9Y5.5
T3
X36.5Y11.25
T4
X2.5Y14.75
X2.5Y12.75
T5
X3.5Y29.54
X3.5Y27.
T6
X14.015Y33.745
X21.Y24.855
X21.Y17.83
X21.Y12.75
T7
X17.19Y29.3
X17.19Y17.83
X24.81Y28.665
X24.81Y17.83
T8
X5.5Y36.5
X5.5Y5.5
X36.5Y36.5
X36.5Y5.5
T9
X17.19Y38.19
X17.19Y8.94
X24.81Y33.11
X24.81Y3.86
T0
M30
