G04 #@! TF.FileFunction,Soldermask,Bot*
%FSLAX46Y46*%
G04 Gerber Fmt 4.6, Leading zero omitted, Abs format (unit mm)*
G04 Created by KiCad (PCBNEW 4.0.7) date Tue Jan 23 09:34:51 2018*
%MOMM*%
%LPD*%
G01*
G04 APERTURE LIST*
%ADD10C,0.100000*%
%ADD11C,6.540000*%
%ADD12C,0.740000*%
%ADD13R,0.940000X0.890000*%
%ADD14C,1.540000*%
%ADD15C,1.640000*%
%ADD16R,1.285200X1.590000*%
%ADD17R,0.640000X1.040000*%
%ADD18R,1.890000X0.590000*%
G04 APERTURE END LIST*
D10*
D11*
X44500000Y44500000D03*
D12*
X46900000Y44500000D03*
X46197056Y42802944D03*
X44500000Y42100000D03*
X42802944Y42802944D03*
X42100000Y44500000D03*
X42802944Y46197056D03*
X44500000Y46900000D03*
X46197056Y46197056D03*
D11*
X44500000Y13500000D03*
D12*
X46900000Y13500000D03*
X46197056Y11802944D03*
X44500000Y11100000D03*
X42802944Y11802944D03*
X42100000Y13500000D03*
X42802944Y15197056D03*
X44500000Y15900000D03*
X46197056Y15197056D03*
D11*
X13500000Y13500000D03*
D12*
X15900000Y13500000D03*
X15197056Y11802944D03*
X13500000Y11100000D03*
X11802944Y11802944D03*
X11100000Y13500000D03*
X11802944Y15197056D03*
X13500000Y15900000D03*
X15197056Y15197056D03*
D11*
X13500000Y44500000D03*
D12*
X15900000Y44500000D03*
X15197056Y42802944D03*
X13500000Y42100000D03*
X11802944Y42802944D03*
X11100000Y44500000D03*
X11802944Y46197056D03*
X13500000Y46900000D03*
X15197056Y46197056D03*
D11*
X45000000Y3500000D03*
D12*
X47400000Y3500000D03*
X46697056Y1802944D03*
X45000000Y1100000D03*
X43302944Y1802944D03*
X42600000Y3500000D03*
X43302944Y5197056D03*
X45000000Y5900000D03*
X46697056Y5197056D03*
D11*
X13000000Y3500000D03*
D12*
X15400000Y3500000D03*
X14697056Y1802944D03*
X13000000Y1100000D03*
X11302944Y1802944D03*
X10600000Y3500000D03*
X11302944Y5197056D03*
X13000000Y5900000D03*
X14697056Y5197056D03*
D11*
X45000000Y54500000D03*
D12*
X45000000Y56900000D03*
X46697056Y56197056D03*
X47400000Y54500000D03*
X46697056Y52802944D03*
X45000000Y52100000D03*
X43302944Y52802944D03*
X42600000Y54500000D03*
X43302944Y56197056D03*
D11*
X13000000Y54500000D03*
D12*
X15400000Y54500000D03*
X14697056Y52802944D03*
X13000000Y52100000D03*
X11302944Y52802944D03*
X10600000Y54500000D03*
X11302944Y56197056D03*
X13000000Y56900000D03*
X14697056Y56197056D03*
D11*
X54500000Y13000000D03*
D12*
X56900000Y13000000D03*
X56197056Y11302944D03*
X54500000Y10600000D03*
X52802944Y11302944D03*
X52100000Y13000000D03*
X52802944Y14697056D03*
X54500000Y15400000D03*
X56197056Y14697056D03*
D11*
X54500000Y45000000D03*
D12*
X56900000Y45000000D03*
X56197056Y43302944D03*
X54500000Y42600000D03*
X52802944Y43302944D03*
X52100000Y45000000D03*
X52802944Y46697056D03*
X54500000Y47400000D03*
X56197056Y46697056D03*
D13*
X26750000Y22000000D03*
X25250000Y22000000D03*
X20250000Y29500000D03*
X21750000Y29500000D03*
D14*
X20280000Y26360000D03*
X17740000Y26360000D03*
D15*
X40600000Y26360000D03*
D16*
X20365000Y32000000D03*
X21635000Y32000000D03*
D17*
X37750000Y28500000D03*
X36250000Y28500000D03*
X36250000Y24500000D03*
X37750000Y24500000D03*
X37750000Y22500000D03*
X36250000Y22500000D03*
D11*
X3500000Y13000000D03*
D12*
X5900000Y13000000D03*
X5197056Y11302944D03*
X3500000Y10600000D03*
X1802944Y11302944D03*
X1100000Y13000000D03*
X1802944Y14697056D03*
X3500000Y15400000D03*
X5197056Y14697056D03*
D11*
X3500000Y45000000D03*
D12*
X5900000Y45000000D03*
X5197056Y43302944D03*
X3500000Y42600000D03*
X1802944Y43302944D03*
X1100000Y45000000D03*
X1802944Y46697056D03*
X3500000Y47400000D03*
X5197056Y46697056D03*
D18*
X25400000Y24925000D03*
X25400000Y25575000D03*
X25400000Y26225000D03*
X25400000Y26875000D03*
X25400000Y27525000D03*
X25400000Y28175000D03*
X25400000Y28825000D03*
X25400000Y29475000D03*
X25400000Y30125000D03*
X25400000Y30775000D03*
X32600000Y30775000D03*
X32600000Y30125000D03*
X32600000Y29475000D03*
X32600000Y28825000D03*
X32600000Y28175000D03*
X32600000Y27525000D03*
X32600000Y26875000D03*
X32600000Y26225000D03*
X32600000Y25575000D03*
X32600000Y24925000D03*
M02*
