G04 #@! TF.FileFunction,Paste,Bot*
%FSLAX46Y46*%
G04 Gerber Fmt 4.6, Leading zero omitted, Abs format (unit mm)*
G04 Created by KiCad (PCBNEW 4.0.7) date Tue Jun 12 13:47:43 2018*
%MOMM*%
%LPD*%
G01*
G04 APERTURE LIST*
%ADD10C,0.100000*%
%ADD11R,0.800000X0.750000*%
%ADD12R,0.500000X0.900000*%
%ADD13R,1.750000X0.450000*%
%ADD14R,0.500000X0.800000*%
%ADD15R,0.400000X0.800000*%
G04 APERTURE END LIST*
D10*
D11*
X26750000Y22000000D03*
X25250000Y22000000D03*
X20250000Y29500000D03*
X21750000Y29500000D03*
D12*
X37750000Y28500000D03*
X36250000Y28500000D03*
D13*
X25400000Y24925000D03*
X25400000Y25575000D03*
X25400000Y26225000D03*
X25400000Y26875000D03*
X25400000Y27525000D03*
X25400000Y28175000D03*
X25400000Y28825000D03*
X25400000Y29475000D03*
X25400000Y30125000D03*
X25400000Y30775000D03*
X32600000Y30775000D03*
X32600000Y30125000D03*
X32600000Y29475000D03*
X32600000Y28825000D03*
X32600000Y28175000D03*
X32600000Y27525000D03*
X32600000Y26875000D03*
X32600000Y26225000D03*
X32600000Y25575000D03*
X32600000Y24925000D03*
D14*
X35700000Y19350000D03*
D15*
X34100000Y19350000D03*
X34900000Y19350000D03*
D14*
X33300000Y19350000D03*
D15*
X34900000Y21150000D03*
D14*
X35700000Y21150000D03*
D15*
X34100000Y21150000D03*
D14*
X33300000Y21150000D03*
X31700000Y19350000D03*
D15*
X30100000Y19350000D03*
X30900000Y19350000D03*
D14*
X29300000Y19350000D03*
D15*
X30900000Y21150000D03*
D14*
X31700000Y21150000D03*
D15*
X30100000Y21150000D03*
D14*
X29300000Y21150000D03*
M02*
