G04 #@! TF.FileFunction,Legend,Bot*
%FSLAX46Y46*%
G04 Gerber Fmt 4.6, Leading zero omitted, Abs format (unit mm)*
G04 Created by KiCad (PCBNEW 4.0.7) date Tue Jun 12 13:47:43 2018*
%MOMM*%
%LPD*%
G01*
G04 APERTURE LIST*
%ADD10C,0.100000*%
%ADD11C,0.200000*%
%ADD12C,0.120000*%
%ADD13C,0.150000*%
G04 APERTURE END LIST*
D10*
D11*
X49000000Y29000000D02*
X39000000Y29000000D01*
X9000000Y29000000D02*
X19000000Y29000000D01*
X29000000Y9000000D02*
X29000000Y22000000D01*
X29000000Y49000000D02*
X29000000Y33500000D01*
D12*
X26350000Y22600000D02*
X25650000Y22600000D01*
X25650000Y21400000D02*
X26350000Y21400000D01*
X20650000Y28900000D02*
X21350000Y28900000D01*
X21350000Y30100000D02*
X20650000Y30100000D01*
D13*
X19730000Y32889000D02*
X22270000Y32889000D01*
X22270000Y31111000D02*
X19730000Y31111000D01*
X22270000Y31111000D02*
X22270000Y32889000D01*
X19730000Y32889000D02*
X19730000Y31111000D01*
D12*
X36500000Y27820000D02*
X37500000Y27820000D01*
X37500000Y29180000D02*
X36500000Y29180000D01*
D13*
X26125000Y24025000D02*
X26125000Y24375000D01*
X31875000Y24025000D02*
X31875000Y24475000D01*
X31875000Y31675000D02*
X31875000Y31225000D01*
X26125000Y31675000D02*
X26125000Y31225000D01*
X26125000Y24025000D02*
X31875000Y24025000D01*
X26125000Y31675000D02*
X31875000Y31675000D01*
X26125000Y24375000D02*
X24525000Y24375000D01*
D12*
X32820000Y20750000D02*
X32820000Y19750000D01*
X36180000Y20750000D02*
X36180000Y19750000D01*
X28820000Y20750000D02*
X28820000Y19750000D01*
X32180000Y20750000D02*
X32180000Y19750000D01*
D13*
X21833333Y34297619D02*
X21833333Y33583333D01*
X21880953Y33440476D01*
X21976191Y33345238D01*
X22119048Y33297619D01*
X22214286Y33297619D01*
X21357143Y33297619D02*
X21357143Y34297619D01*
X20976190Y34297619D01*
X20880952Y34250000D01*
X20833333Y34202381D01*
X20785714Y34107143D01*
X20785714Y33964286D01*
X20833333Y33869048D01*
X20880952Y33821429D01*
X20976190Y33773810D01*
X21357143Y33773810D01*
X19833333Y33297619D02*
X20404762Y33297619D01*
X20119048Y33297619D02*
X20119048Y34297619D01*
X20214286Y34154762D01*
X20309524Y34059524D01*
X20404762Y34011905D01*
X29761905Y28047619D02*
X29761905Y27238095D01*
X29714286Y27142857D01*
X29666667Y27095238D01*
X29571429Y27047619D01*
X29380952Y27047619D01*
X29285714Y27095238D01*
X29238095Y27142857D01*
X29190476Y27238095D01*
X29190476Y28047619D01*
X28190476Y27047619D02*
X28761905Y27047619D01*
X28476191Y27047619D02*
X28476191Y28047619D01*
X28571429Y27904762D01*
X28666667Y27809524D01*
X28761905Y27761905D01*
M02*
