M48
INCH,TZ
T10C0.016
T11C0.020
T12C0.031
T13C0.032
T14C0.126
%
T10
X003150Y018012
X003150Y017618
X003150Y017224
X003150Y016831
X003150Y006004
X003150Y005610
X003150Y005217
X003150Y004823
X004823Y019685
X004823Y003150
X005217Y019685
X005217Y003150
X005610Y019685
X005610Y003150
X006004Y019685
X006004Y003150
X009154Y011122
X009350Y012303
X010925Y008661
X012500Y004724
X012992Y006791
X013091Y012500
X013484Y006791
X013484Y003839
X013583Y011516
X013927Y006802
X013976Y003839
X014272Y006791
X014469Y003839
X015039Y006791
X015354Y005315
X016732Y008465
X016831Y019685
X016831Y007677
X016831Y003150
X017126Y008858
X017224Y019685
X017224Y003150
X017618Y019685
X017618Y003150
X017717Y007185
X018012Y019685
X018012Y003150
X019685Y018012
X019685Y017618
X019685Y017224
X019685Y016831
X019685Y006004
X019685Y005610
X019685Y005217
X019685Y004823
T11
X000433Y017717
X000433Y005118
X000710Y018385
X000710Y017048
X000710Y005786
X000710Y004450
X001378Y018661
X001378Y016772
X001378Y006063
X001378Y004173
X002046Y018385
X002046Y017048
X002046Y005786
X002046Y004450
X002323Y017717
X002323Y005118
X004173Y021457
X004173Y001378
X004370Y017520
X004370Y005315
X004450Y022125
X004450Y020789
X004450Y002046
X004450Y000710
X004647Y018188
X004647Y016852
X004647Y005983
X004647Y004647
X005118Y022402
X005118Y020512
X005118Y002323
X005118Y000433
X005315Y018465
X005315Y016575
X005315Y006260
X005315Y004370
X005786Y022125
X005786Y020789
X005786Y002046
X005786Y000710
X005983Y018188
X005983Y016852
X005983Y005983
X005983Y004647
X006063Y021457
X006063Y001378
X006260Y017520
X006260Y005315
X016575Y017520
X016575Y005315
X016772Y021457
X016772Y001378
X016852Y018188
X016852Y016852
X016852Y005983
X016852Y004647
X017048Y022125
X017048Y020789
X017048Y002046
X017048Y000710
X017520Y018465
X017520Y016575
X017520Y006260
X017520Y004370
X017717Y022402
X017717Y020512
X017717Y002323
X017717Y000433
X018188Y018188
X018188Y016852
X018188Y005983
X018188Y004647
X018385Y022125
X018385Y020789
X018385Y002046
X018385Y000710
X018465Y017520
X018465Y005315
X018661Y021457
X018661Y001378
X020512Y017717
X020512Y005118
X020789Y018385
X020789Y017048
X020789Y005786
X020789Y004450
X021457Y018661
X021457Y016772
X021457Y006063
X021457Y004173
X022125Y018385
X022125Y017048
X022125Y005786
X022125Y004450
X022402Y017717
X022402Y005118
T12
X015984Y010378
T13
X006984Y010378
X007984Y010378
T14
X001378Y017717
X001378Y005118
X005118Y021457
X005118Y001378
X005315Y017520
X005315Y005315
X017520Y017520
X017520Y005315
X017717Y021457
X017717Y001378
X021457Y017717
X021457Y005118
M30

