G04 #@! TF.FileFunction,Profile,NP*
%FSLAX46Y46*%
G04 Gerber Fmt 4.6, Leading zero omitted, Abs format (unit mm)*
G04 Created by KiCad (PCBNEW 4.0.7) date Tue Jun 12 13:47:43 2018*
%MOMM*%
%LPD*%
G01*
G04 APERTURE LIST*
%ADD10C,0.100000*%
%ADD11C,0.150000*%
G04 APERTURE END LIST*
D10*
D11*
X8500000Y11500000D02*
G75*
G03X7000000Y10000000I-750000J-750000D01*
G01*
X10000000Y7000000D02*
G75*
G03X11500000Y8500000I750000J750000D01*
G01*
X10000000Y7000000D02*
X7000000Y10000000D01*
X8500000Y11500000D02*
X11500000Y8500000D01*
X48000000Y51000000D02*
G75*
G03X46500000Y49500000I-750000J-750000D01*
G01*
X49500000Y46500000D02*
G75*
G03X51000000Y48000000I750000J750000D01*
G01*
X49500000Y46500000D02*
X46500000Y49500000D01*
X48000000Y51000000D02*
X51000000Y48000000D01*
X11500000Y49500000D02*
G75*
G03X10000000Y51000000I-750000J750000D01*
G01*
X7000000Y48000000D02*
G75*
G03X8500000Y46500000I750000J-750000D01*
G01*
X7000000Y48000000D02*
X10000000Y51000000D01*
X11500000Y49500000D02*
X8500000Y46500000D01*
X51000000Y10000000D02*
G75*
G03X49500000Y11500000I-750000J750000D01*
G01*
X46500000Y8500000D02*
G75*
G03X48000000Y7000000I750000J-750000D01*
G01*
X51000000Y10000000D02*
X48000000Y7000000D01*
X46500000Y8500000D02*
X49500000Y11500000D01*
X8000000Y41750000D02*
X8000000Y16250000D01*
X6000000Y16250000D02*
X6000000Y41750000D01*
X16250000Y8000000D02*
X41750000Y8000000D01*
X41750000Y6000000D02*
X16250000Y6000000D01*
X50000000Y41750000D02*
X50000000Y16250000D01*
X52000000Y16250000D02*
X52000000Y41750000D01*
X52000000Y41750000D02*
G75*
G03X50000000Y41750000I-1000000J0D01*
G01*
X50000000Y16250000D02*
G75*
G03X52000000Y16250000I1000000J0D01*
G01*
X41750000Y6000000D02*
G75*
G03X41750000Y8000000I0J1000000D01*
G01*
X16250000Y8000000D02*
G75*
G03X16250000Y6000000I0J-1000000D01*
G01*
X6000000Y16250000D02*
G75*
G03X8000000Y16250000I1000000J0D01*
G01*
X8000000Y41750000D02*
G75*
G03X6000000Y41750000I-1000000J0D01*
G01*
X41750000Y50000000D02*
G75*
G03X41750000Y52000000I0J1000000D01*
G01*
X16250000Y52000000D02*
X41750000Y52000000D01*
X16250000Y50000000D02*
X41750000Y50000000D01*
X16250000Y52000000D02*
G75*
G03X16250000Y50000000I0J-1000000D01*
G01*
X0Y49000000D02*
X4500000Y49000000D01*
X0Y9000000D02*
X0Y49000000D01*
X4500000Y9000000D02*
X0Y9000000D01*
X9000000Y0D02*
X9000000Y4500000D01*
X49000000Y0D02*
X9000000Y0D01*
X49000000Y4500000D02*
X49000000Y0D01*
X58000000Y9000000D02*
X53500000Y9000000D01*
X58000000Y49000000D02*
X58000000Y9000000D01*
X53500000Y49000000D02*
X58000000Y49000000D01*
X49000000Y58000000D02*
X49000000Y53500000D01*
X9000000Y58000000D02*
X49000000Y58000000D01*
X9000000Y53500000D02*
X9000000Y58000000D01*
X9000000Y4500000D02*
G75*
G03X4500000Y9000000I-4500000J0D01*
G01*
X49000000Y53500000D02*
G75*
G03X53500000Y49000000I4500000J0D01*
G01*
X53500000Y9000000D02*
G75*
G03X49000000Y4500000I0J-4500000D01*
G01*
X4500000Y49000000D02*
G75*
G03X9000000Y53500000I0J4500000D01*
G01*
M02*
