M48
;DRILL file {KiCad 4.0.7} date Tue Jun 12 13:47:47 2018
;FORMAT={-:-/ absolute / metric / decimal}
FMAT,2
METRIC,TZ
T1C0.400
T2C0.500
T3C0.800
T4C0.813
T5C3.200
%
G90
G05
M71
T1
X8.Y50.
X8.Y45.75
X8.Y44.75
X8.Y43.75
X8.Y42.75
X8.Y15.25
X8.Y14.25
X8.Y13.25
X8.Y12.25
X8.Y8.
X12.25Y50.
X12.25Y8.
X13.25Y50.
X13.25Y8.
X14.25Y50.
X14.25Y8.
X15.25Y50.
X15.25Y8.
X23.25Y28.25
X23.75Y31.25
X27.75Y22.
X31.75Y12.
X32.5Y21.25
X33.Y17.
X33.25Y31.75
X34.25Y17.
X34.25Y9.75
X34.5Y29.25
X35.5Y17.
X36.647Y10.475
X37.75Y10.15
X38.2Y17.25
X38.97Y13.3
X40.25Y14.5
X41.875Y20.462
X41.875Y19.385
X42.75Y50.
X42.75Y8.
X43.625Y22.425
X43.75Y50.
X43.75Y8.
X44.75Y50.
X44.75Y8.
X45.Y18.25
X45.75Y50.
X45.75Y8.
X50.Y50.
X50.Y45.75
X50.Y44.75
X50.Y43.75
X50.Y42.75
X50.Y15.25
X50.Y14.25
X50.Y13.25
X50.Y12.25
X50.Y8.
T2
X1.1Y45.
X1.1Y13.
X1.803Y46.697
X1.803Y43.303
X1.803Y14.697
X1.803Y11.303
X3.5Y47.4
X3.5Y42.6
X3.5Y15.4
X3.5Y10.6
X5.197Y46.697
X5.197Y43.303
X5.197Y14.697
X5.197Y11.303
X5.9Y45.
X5.9Y13.
X10.6Y54.5
X10.6Y3.5
X11.1Y44.5
X11.1Y13.5
X11.303Y56.197
X11.303Y52.803
X11.303Y5.197
X11.303Y1.803
X11.803Y46.197
X11.803Y42.803
X11.803Y15.197
X11.803Y11.803
X13.Y56.9
X13.Y52.1
X13.Y5.9
X13.Y1.1
X13.5Y46.9
X13.5Y42.1
X13.5Y15.9
X13.5Y11.1
X14.697Y56.197
X14.697Y52.803
X14.697Y5.197
X14.697Y1.803
X15.197Y46.197
X15.197Y42.803
X15.197Y15.197
X15.197Y11.803
X15.4Y54.5
X15.4Y3.5
X15.9Y44.5
X15.9Y13.5
X42.1Y44.5
X42.1Y13.5
X42.6Y54.5
X42.6Y3.5
X42.803Y46.197
X42.803Y42.803
X42.803Y15.197
X42.803Y11.803
X43.303Y56.197
X43.303Y52.803
X43.303Y5.197
X43.303Y1.803
X44.5Y46.9
X44.5Y42.1
X44.5Y15.9
X44.5Y11.1
X45.Y56.9
X45.Y52.1
X45.Y5.9
X45.Y1.1
X46.197Y46.197
X46.197Y42.803
X46.197Y15.197
X46.197Y11.803
X46.697Y56.197
X46.697Y52.803
X46.697Y5.197
X46.697Y1.803
X46.9Y44.5
X46.9Y13.5
X47.4Y54.5
X47.4Y3.5
X52.1Y45.
X52.1Y13.
X52.803Y46.697
X52.803Y43.303
X52.803Y14.697
X52.803Y11.303
X54.5Y47.4
X54.5Y42.6
X54.5Y15.4
X54.5Y10.6
X56.197Y46.697
X56.197Y43.303
X56.197Y14.697
X56.197Y11.303
X56.9Y45.
X56.9Y13.
T3
X35.5Y26.
T4
X17.74Y26.36
X20.28Y26.36
T5
X3.5Y45.
X3.5Y13.
X13.Y54.5
X13.Y3.5
X13.5Y44.5
X13.5Y13.5
X44.5Y44.5
X44.5Y13.5
X45.Y54.5
X45.Y3.5
X54.5Y45.
X54.5Y13.
T0
M30
