G04 #@! TF.FileFunction,Legend,Top*
%FSLAX46Y46*%
G04 Gerber Fmt 4.6, Leading zero omitted, Abs format (unit mm)*
G04 Created by KiCad (PCBNEW 4.0.7) date Tue Jan 23 09:34:51 2018*
%MOMM*%
%LPD*%
G01*
G04 APERTURE LIST*
%ADD10C,0.100000*%
%ADD11C,0.200000*%
%ADD12C,0.300000*%
%ADD13C,0.150000*%
%ADD14C,0.120000*%
%ADD15C,0.254000*%
G04 APERTURE END LIST*
D10*
D11*
X36190476Y19047619D02*
X36190476Y20047619D01*
X36571429Y20047619D01*
X36666667Y20000000D01*
X36714286Y19952381D01*
X36761905Y19857143D01*
X36761905Y19714286D01*
X36714286Y19619048D01*
X36666667Y19571429D01*
X36571429Y19523810D01*
X36190476Y19523810D01*
X37333333Y19047619D02*
X37238095Y19095238D01*
X37190476Y19142857D01*
X37142857Y19238095D01*
X37142857Y19523810D01*
X37190476Y19619048D01*
X37238095Y19666667D01*
X37333333Y19714286D01*
X37476191Y19714286D01*
X37571429Y19666667D01*
X37619048Y19619048D01*
X37666667Y19523810D01*
X37666667Y19238095D01*
X37619048Y19142857D01*
X37571429Y19095238D01*
X37476191Y19047619D01*
X37333333Y19047619D01*
X38047619Y19095238D02*
X38142857Y19047619D01*
X38333333Y19047619D01*
X38428572Y19095238D01*
X38476191Y19190476D01*
X38476191Y19238095D01*
X38428572Y19333333D01*
X38333333Y19380952D01*
X38190476Y19380952D01*
X38095238Y19428571D01*
X38047619Y19523810D01*
X38047619Y19571429D01*
X38095238Y19666667D01*
X38190476Y19714286D01*
X38333333Y19714286D01*
X38428572Y19666667D01*
X38904762Y19047619D02*
X38904762Y19714286D01*
X38904762Y20047619D02*
X38857143Y20000000D01*
X38904762Y19952381D01*
X38952381Y20000000D01*
X38904762Y20047619D01*
X38904762Y19952381D01*
X39238095Y19714286D02*
X39619047Y19714286D01*
X39380952Y20047619D02*
X39380952Y19190476D01*
X39428571Y19095238D01*
X39523809Y19047619D01*
X39619047Y19047619D01*
X39952381Y19047619D02*
X39952381Y19714286D01*
X39952381Y20047619D02*
X39904762Y20000000D01*
X39952381Y19952381D01*
X40000000Y20000000D01*
X39952381Y20047619D01*
X39952381Y19952381D01*
X40571428Y19047619D02*
X40476190Y19095238D01*
X40428571Y19142857D01*
X40380952Y19238095D01*
X40380952Y19523810D01*
X40428571Y19619048D01*
X40476190Y19666667D01*
X40571428Y19714286D01*
X40714286Y19714286D01*
X40809524Y19666667D01*
X40857143Y19619048D01*
X40904762Y19523810D01*
X40904762Y19238095D01*
X40857143Y19142857D01*
X40809524Y19095238D01*
X40714286Y19047619D01*
X40571428Y19047619D01*
X41333333Y19714286D02*
X41333333Y19047619D01*
X41333333Y19619048D02*
X41380952Y19666667D01*
X41476190Y19714286D01*
X41619048Y19714286D01*
X41714286Y19666667D01*
X41761905Y19571429D01*
X41761905Y19047619D01*
X34428571Y21047619D02*
X34428571Y22047619D01*
X34666666Y22047619D01*
X34809524Y22000000D01*
X34904762Y21904762D01*
X34952381Y21809524D01*
X35000000Y21619048D01*
X35000000Y21476190D01*
X34952381Y21285714D01*
X34904762Y21190476D01*
X34809524Y21095238D01*
X34666666Y21047619D01*
X34428571Y21047619D01*
X35428571Y21047619D02*
X35428571Y21714286D01*
X35428571Y22047619D02*
X35380952Y22000000D01*
X35428571Y21952381D01*
X35476190Y22000000D01*
X35428571Y22047619D01*
X35428571Y21952381D01*
X36333333Y21047619D02*
X36333333Y21571429D01*
X36285714Y21666667D01*
X36190476Y21714286D01*
X35999999Y21714286D01*
X35904761Y21666667D01*
X36333333Y21095238D02*
X36238095Y21047619D01*
X35999999Y21047619D01*
X35904761Y21095238D01*
X35857142Y21190476D01*
X35857142Y21285714D01*
X35904761Y21380952D01*
X35999999Y21428571D01*
X36238095Y21428571D01*
X36333333Y21476190D01*
X37238095Y21714286D02*
X37238095Y20904762D01*
X37190476Y20809524D01*
X37142857Y20761905D01*
X37047618Y20714286D01*
X36904761Y20714286D01*
X36809523Y20761905D01*
X37238095Y21095238D02*
X37142857Y21047619D01*
X36952380Y21047619D01*
X36857142Y21095238D01*
X36809523Y21142857D01*
X36761904Y21238095D01*
X36761904Y21523810D01*
X36809523Y21619048D01*
X36857142Y21666667D01*
X36952380Y21714286D01*
X37142857Y21714286D01*
X37238095Y21666667D01*
X37714285Y21714286D02*
X37714285Y21047619D01*
X37714285Y21619048D02*
X37761904Y21666667D01*
X37857142Y21714286D01*
X38000000Y21714286D01*
X38095238Y21666667D01*
X38142857Y21571429D01*
X38142857Y21047619D01*
X38761904Y21047619D02*
X38666666Y21095238D01*
X38619047Y21142857D01*
X38571428Y21238095D01*
X38571428Y21523810D01*
X38619047Y21619048D01*
X38666666Y21666667D01*
X38761904Y21714286D01*
X38904762Y21714286D01*
X39000000Y21666667D01*
X39047619Y21619048D01*
X39095238Y21523810D01*
X39095238Y21238095D01*
X39047619Y21142857D01*
X39000000Y21095238D01*
X38904762Y21047619D01*
X38761904Y21047619D01*
X39476190Y21095238D02*
X39571428Y21047619D01*
X39761904Y21047619D01*
X39857143Y21095238D01*
X39904762Y21190476D01*
X39904762Y21238095D01*
X39857143Y21333333D01*
X39761904Y21380952D01*
X39619047Y21380952D01*
X39523809Y21428571D01*
X39476190Y21523810D01*
X39476190Y21571429D01*
X39523809Y21666667D01*
X39619047Y21714286D01*
X39761904Y21714286D01*
X39857143Y21666667D01*
X40190476Y21714286D02*
X40571428Y21714286D01*
X40333333Y22047619D02*
X40333333Y21190476D01*
X40380952Y21095238D01*
X40476190Y21047619D01*
X40571428Y21047619D01*
X40904762Y21047619D02*
X40904762Y21714286D01*
X40904762Y22047619D02*
X40857143Y22000000D01*
X40904762Y21952381D01*
X40952381Y22000000D01*
X40904762Y22047619D01*
X40904762Y21952381D01*
X41809524Y21095238D02*
X41714286Y21047619D01*
X41523809Y21047619D01*
X41428571Y21095238D01*
X41380952Y21142857D01*
X41333333Y21238095D01*
X41333333Y21523810D01*
X41380952Y21619048D01*
X41428571Y21666667D01*
X41523809Y21714286D01*
X41714286Y21714286D01*
X41809524Y21666667D01*
X13095238Y32397619D02*
X13666667Y32397619D01*
X13380952Y31397619D02*
X13380952Y32397619D01*
X14000000Y31492857D02*
X14047619Y31445238D01*
X14000000Y31397619D01*
X13952381Y31445238D01*
X14000000Y31492857D01*
X14000000Y31397619D01*
X15238095Y31397619D02*
X15238095Y32397619D01*
X15571429Y31683333D01*
X15904762Y32397619D01*
X15904762Y31397619D01*
X16809524Y31397619D02*
X16809524Y31921429D01*
X16761905Y32016667D01*
X16666667Y32064286D01*
X16476190Y32064286D01*
X16380952Y32016667D01*
X16809524Y31445238D02*
X16714286Y31397619D01*
X16476190Y31397619D01*
X16380952Y31445238D01*
X16333333Y31540476D01*
X16333333Y31635714D01*
X16380952Y31730952D01*
X16476190Y31778571D01*
X16714286Y31778571D01*
X16809524Y31826190D01*
X17714286Y32064286D02*
X17714286Y31254762D01*
X17666667Y31159524D01*
X17619048Y31111905D01*
X17523809Y31064286D01*
X17380952Y31064286D01*
X17285714Y31111905D01*
X17714286Y31445238D02*
X17619048Y31397619D01*
X17428571Y31397619D01*
X17333333Y31445238D01*
X17285714Y31492857D01*
X17238095Y31588095D01*
X17238095Y31873810D01*
X17285714Y31969048D01*
X17333333Y32016667D01*
X17428571Y32064286D01*
X17619048Y32064286D01*
X17714286Y32016667D01*
X18190476Y32064286D02*
X18190476Y31397619D01*
X18190476Y31969048D02*
X18238095Y32016667D01*
X18333333Y32064286D01*
X18476191Y32064286D01*
X18571429Y32016667D01*
X18619048Y31921429D01*
X18619048Y31397619D01*
X19095238Y31397619D02*
X19095238Y32064286D01*
X19095238Y32397619D02*
X19047619Y32350000D01*
X19095238Y32302381D01*
X19142857Y32350000D01*
X19095238Y32397619D01*
X19095238Y32302381D01*
X19952381Y31445238D02*
X19857143Y31397619D01*
X19666666Y31397619D01*
X19571428Y31445238D01*
X19523809Y31540476D01*
X19523809Y31921429D01*
X19571428Y32016667D01*
X19666666Y32064286D01*
X19857143Y32064286D01*
X19952381Y32016667D01*
X20000000Y31921429D01*
X20000000Y31826190D01*
X19523809Y31730952D01*
X20428571Y31397619D02*
X20428571Y32064286D01*
X20428571Y31873810D02*
X20476190Y31969048D01*
X20523809Y32016667D01*
X20619047Y32064286D01*
X20714286Y32064286D01*
X13809524Y29697619D02*
X13476190Y30173810D01*
X13238095Y29697619D02*
X13238095Y30697619D01*
X13619048Y30697619D01*
X13714286Y30650000D01*
X13761905Y30602381D01*
X13809524Y30507143D01*
X13809524Y30364286D01*
X13761905Y30269048D01*
X13714286Y30221429D01*
X13619048Y30173810D01*
X13238095Y30173810D01*
X14619048Y29745238D02*
X14523810Y29697619D01*
X14333333Y29697619D01*
X14238095Y29745238D01*
X14190476Y29840476D01*
X14190476Y30221429D01*
X14238095Y30316667D01*
X14333333Y30364286D01*
X14523810Y30364286D01*
X14619048Y30316667D01*
X14666667Y30221429D01*
X14666667Y30126190D01*
X14190476Y30030952D01*
X15000000Y30364286D02*
X15238095Y29697619D01*
X15476191Y30364286D01*
X17142858Y29697619D02*
X16571429Y29697619D01*
X16857143Y29697619D02*
X16857143Y30697619D01*
X16761905Y30554762D01*
X16666667Y30459524D01*
X16571429Y30411905D01*
X17571429Y29792857D02*
X17619048Y29745238D01*
X17571429Y29697619D01*
X17523810Y29745238D01*
X17571429Y29792857D01*
X17571429Y29697619D01*
X18238095Y30697619D02*
X18333334Y30697619D01*
X18428572Y30650000D01*
X18476191Y30602381D01*
X18523810Y30507143D01*
X18571429Y30316667D01*
X18571429Y30078571D01*
X18523810Y29888095D01*
X18476191Y29792857D01*
X18428572Y29745238D01*
X18333334Y29697619D01*
X18238095Y29697619D01*
X18142857Y29745238D01*
X18095238Y29792857D01*
X18047619Y29888095D01*
X18000000Y30078571D01*
X18000000Y30316667D01*
X18047619Y30507143D01*
X18095238Y30602381D01*
X18142857Y30650000D01*
X18238095Y30697619D01*
X20714286Y30697619D02*
X20809525Y30697619D01*
X20904763Y30650000D01*
X20952382Y30602381D01*
X21000001Y30507143D01*
X21047620Y30316667D01*
X21047620Y30078571D01*
X21000001Y29888095D01*
X20952382Y29792857D01*
X20904763Y29745238D01*
X20809525Y29697619D01*
X20714286Y29697619D01*
X20619048Y29745238D01*
X20571429Y29792857D01*
X20523810Y29888095D01*
X20476191Y30078571D01*
X20476191Y30316667D01*
X20523810Y30507143D01*
X20571429Y30602381D01*
X20619048Y30650000D01*
X20714286Y30697619D01*
X22000001Y29697619D02*
X21428572Y29697619D01*
X21714286Y29697619D02*
X21714286Y30697619D01*
X21619048Y30554762D01*
X21523810Y30459524D01*
X21428572Y30411905D01*
X23142858Y30745238D02*
X22285715Y29459524D01*
X23428572Y30602381D02*
X23476191Y30650000D01*
X23571429Y30697619D01*
X23809525Y30697619D01*
X23904763Y30650000D01*
X23952382Y30602381D01*
X24000001Y30507143D01*
X24000001Y30411905D01*
X23952382Y30269048D01*
X23380953Y29697619D01*
X24000001Y29697619D01*
X24619048Y30697619D02*
X24714287Y30697619D01*
X24809525Y30650000D01*
X24857144Y30602381D01*
X24904763Y30507143D01*
X24952382Y30316667D01*
X24952382Y30078571D01*
X24904763Y29888095D01*
X24857144Y29792857D01*
X24809525Y29745238D01*
X24714287Y29697619D01*
X24619048Y29697619D01*
X24523810Y29745238D01*
X24476191Y29792857D01*
X24428572Y29888095D01*
X24380953Y30078571D01*
X24380953Y30316667D01*
X24428572Y30507143D01*
X24476191Y30602381D01*
X24523810Y30650000D01*
X24619048Y30697619D01*
X25904763Y29697619D02*
X25333334Y29697619D01*
X25619048Y29697619D02*
X25619048Y30697619D01*
X25523810Y30554762D01*
X25428572Y30459524D01*
X25333334Y30411905D01*
X26476191Y30269048D02*
X26380953Y30316667D01*
X26333334Y30364286D01*
X26285715Y30459524D01*
X26285715Y30507143D01*
X26333334Y30602381D01*
X26380953Y30650000D01*
X26476191Y30697619D01*
X26666668Y30697619D01*
X26761906Y30650000D01*
X26809525Y30602381D01*
X26857144Y30507143D01*
X26857144Y30459524D01*
X26809525Y30364286D01*
X26761906Y30316667D01*
X26666668Y30269048D01*
X26476191Y30269048D01*
X26380953Y30221429D01*
X26333334Y30173810D01*
X26285715Y30078571D01*
X26285715Y29888095D01*
X26333334Y29792857D01*
X26380953Y29745238D01*
X26476191Y29697619D01*
X26666668Y29697619D01*
X26761906Y29745238D01*
X26809525Y29792857D01*
X26857144Y29888095D01*
X26857144Y30078571D01*
X26809525Y30173810D01*
X26761906Y30221429D01*
X26666668Y30269048D01*
D12*
X25214286Y38382143D02*
X24714286Y38382143D01*
X24714286Y37596429D02*
X24714286Y39096429D01*
X25428572Y39096429D01*
X26642857Y37596429D02*
X26642857Y38382143D01*
X26571428Y38525000D01*
X26428571Y38596429D01*
X26142857Y38596429D01*
X26000000Y38525000D01*
X26642857Y37667857D02*
X26500000Y37596429D01*
X26142857Y37596429D01*
X26000000Y37667857D01*
X25928571Y37810714D01*
X25928571Y37953571D01*
X26000000Y38096429D01*
X26142857Y38167857D01*
X26500000Y38167857D01*
X26642857Y38239286D01*
X27357143Y37596429D02*
X27357143Y38596429D01*
X27357143Y38310714D02*
X27428571Y38453571D01*
X27500000Y38525000D01*
X27642857Y38596429D01*
X27785714Y38596429D01*
X28071428Y38596429D02*
X28642857Y38596429D01*
X28285714Y37596429D02*
X28285714Y38882143D01*
X28357142Y39025000D01*
X28500000Y39096429D01*
X28642857Y39096429D01*
X29785714Y37596429D02*
X29785714Y38382143D01*
X29714285Y38525000D01*
X29571428Y38596429D01*
X29285714Y38596429D01*
X29142857Y38525000D01*
X29785714Y37667857D02*
X29642857Y37596429D01*
X29285714Y37596429D01*
X29142857Y37667857D01*
X29071428Y37810714D01*
X29071428Y37953571D01*
X29142857Y38096429D01*
X29285714Y38167857D01*
X29642857Y38167857D01*
X29785714Y38239286D01*
X31142857Y37596429D02*
X31142857Y39096429D01*
X31142857Y37667857D02*
X31000000Y37596429D01*
X30714286Y37596429D01*
X30571428Y37667857D01*
X30500000Y37739286D01*
X30428571Y37882143D01*
X30428571Y38310714D01*
X30500000Y38453571D01*
X30571428Y38525000D01*
X30714286Y38596429D01*
X31000000Y38596429D01*
X31142857Y38525000D01*
X32428571Y37667857D02*
X32285714Y37596429D01*
X32000000Y37596429D01*
X31857143Y37667857D01*
X31785714Y37810714D01*
X31785714Y38382143D01*
X31857143Y38525000D01*
X32000000Y38596429D01*
X32285714Y38596429D01*
X32428571Y38525000D01*
X32500000Y38382143D01*
X32500000Y38239286D01*
X31785714Y38096429D01*
X32928571Y38596429D02*
X33500000Y38596429D01*
X33142857Y39096429D02*
X33142857Y37810714D01*
X33214285Y37667857D01*
X33357143Y37596429D01*
X33500000Y37596429D01*
X13500000Y35046429D02*
X13500000Y36546429D01*
X14000000Y35475000D01*
X14500000Y36546429D01*
X14500000Y35046429D01*
X15857143Y35046429D02*
X15857143Y35832143D01*
X15785714Y35975000D01*
X15642857Y36046429D01*
X15357143Y36046429D01*
X15214286Y35975000D01*
X15857143Y35117857D02*
X15714286Y35046429D01*
X15357143Y35046429D01*
X15214286Y35117857D01*
X15142857Y35260714D01*
X15142857Y35403571D01*
X15214286Y35546429D01*
X15357143Y35617857D01*
X15714286Y35617857D01*
X15857143Y35689286D01*
X17214286Y36046429D02*
X17214286Y34832143D01*
X17142857Y34689286D01*
X17071429Y34617857D01*
X16928572Y34546429D01*
X16714286Y34546429D01*
X16571429Y34617857D01*
X17214286Y35117857D02*
X17071429Y35046429D01*
X16785715Y35046429D01*
X16642857Y35117857D01*
X16571429Y35189286D01*
X16500000Y35332143D01*
X16500000Y35760714D01*
X16571429Y35903571D01*
X16642857Y35975000D01*
X16785715Y36046429D01*
X17071429Y36046429D01*
X17214286Y35975000D01*
X17928572Y36046429D02*
X17928572Y35046429D01*
X17928572Y35903571D02*
X18000000Y35975000D01*
X18142858Y36046429D01*
X18357143Y36046429D01*
X18500000Y35975000D01*
X18571429Y35832143D01*
X18571429Y35046429D01*
X19857143Y35117857D02*
X19714286Y35046429D01*
X19428572Y35046429D01*
X19285715Y35117857D01*
X19214286Y35260714D01*
X19214286Y35832143D01*
X19285715Y35975000D01*
X19428572Y36046429D01*
X19714286Y36046429D01*
X19857143Y35975000D01*
X19928572Y35832143D01*
X19928572Y35689286D01*
X19214286Y35546429D01*
X20357143Y36046429D02*
X20928572Y36046429D01*
X20571429Y36546429D02*
X20571429Y35260714D01*
X20642857Y35117857D01*
X20785715Y35046429D01*
X20928572Y35046429D01*
X21428572Y35046429D02*
X21428572Y36046429D01*
X21428572Y36546429D02*
X21357143Y36475000D01*
X21428572Y36403571D01*
X21500000Y36475000D01*
X21428572Y36546429D01*
X21428572Y36403571D01*
X22785715Y35117857D02*
X22642858Y35046429D01*
X22357144Y35046429D01*
X22214286Y35117857D01*
X22142858Y35189286D01*
X22071429Y35332143D01*
X22071429Y35760714D01*
X22142858Y35903571D01*
X22214286Y35975000D01*
X22357144Y36046429D01*
X22642858Y36046429D01*
X22785715Y35975000D01*
X25142857Y35117857D02*
X25000000Y35046429D01*
X24714286Y35046429D01*
X24571429Y35117857D01*
X24500000Y35260714D01*
X24500000Y35832143D01*
X24571429Y35975000D01*
X24714286Y36046429D01*
X25000000Y36046429D01*
X25142857Y35975000D01*
X25214286Y35832143D01*
X25214286Y35689286D01*
X24500000Y35546429D01*
X25857143Y36046429D02*
X25857143Y35046429D01*
X25857143Y35903571D02*
X25928571Y35975000D01*
X26071429Y36046429D01*
X26285714Y36046429D01*
X26428571Y35975000D01*
X26500000Y35832143D01*
X26500000Y35046429D01*
X27857143Y35117857D02*
X27714286Y35046429D01*
X27428572Y35046429D01*
X27285714Y35117857D01*
X27214286Y35189286D01*
X27142857Y35332143D01*
X27142857Y35760714D01*
X27214286Y35903571D01*
X27285714Y35975000D01*
X27428572Y36046429D01*
X27714286Y36046429D01*
X27857143Y35975000D01*
X28714286Y35046429D02*
X28571428Y35117857D01*
X28500000Y35189286D01*
X28428571Y35332143D01*
X28428571Y35760714D01*
X28500000Y35903571D01*
X28571428Y35975000D01*
X28714286Y36046429D01*
X28928571Y36046429D01*
X29071428Y35975000D01*
X29142857Y35903571D01*
X29214286Y35760714D01*
X29214286Y35332143D01*
X29142857Y35189286D01*
X29071428Y35117857D01*
X28928571Y35046429D01*
X28714286Y35046429D01*
X30500000Y35046429D02*
X30500000Y36546429D01*
X30500000Y35117857D02*
X30357143Y35046429D01*
X30071429Y35046429D01*
X29928571Y35117857D01*
X29857143Y35189286D01*
X29785714Y35332143D01*
X29785714Y35760714D01*
X29857143Y35903571D01*
X29928571Y35975000D01*
X30071429Y36046429D01*
X30357143Y36046429D01*
X30500000Y35975000D01*
X31785714Y35117857D02*
X31642857Y35046429D01*
X31357143Y35046429D01*
X31214286Y35117857D01*
X31142857Y35260714D01*
X31142857Y35832143D01*
X31214286Y35975000D01*
X31357143Y36046429D01*
X31642857Y36046429D01*
X31785714Y35975000D01*
X31857143Y35832143D01*
X31857143Y35689286D01*
X31142857Y35546429D01*
X32500000Y35046429D02*
X32500000Y36046429D01*
X32500000Y35760714D02*
X32571428Y35903571D01*
X32642857Y35975000D01*
X32785714Y36046429D01*
X32928571Y36046429D01*
X35142856Y35117857D02*
X34999999Y35046429D01*
X34714285Y35046429D01*
X34571428Y35117857D01*
X34499999Y35260714D01*
X34499999Y35832143D01*
X34571428Y35975000D01*
X34714285Y36046429D01*
X34999999Y36046429D01*
X35142856Y35975000D01*
X35214285Y35832143D01*
X35214285Y35689286D01*
X34499999Y35546429D01*
X35714285Y35046429D02*
X36499999Y36046429D01*
X35714285Y36046429D02*
X36499999Y35046429D01*
X36857142Y36046429D02*
X37428571Y36046429D01*
X37071428Y36546429D02*
X37071428Y35260714D01*
X37142856Y35117857D01*
X37285714Y35046429D01*
X37428571Y35046429D01*
X38499999Y35117857D02*
X38357142Y35046429D01*
X38071428Y35046429D01*
X37928571Y35117857D01*
X37857142Y35260714D01*
X37857142Y35832143D01*
X37928571Y35975000D01*
X38071428Y36046429D01*
X38357142Y36046429D01*
X38499999Y35975000D01*
X38571428Y35832143D01*
X38571428Y35689286D01*
X37857142Y35546429D01*
X39214285Y36046429D02*
X39214285Y35046429D01*
X39214285Y35903571D02*
X39285713Y35975000D01*
X39428571Y36046429D01*
X39642856Y36046429D01*
X39785713Y35975000D01*
X39857142Y35832143D01*
X39857142Y35046429D01*
X40499999Y35117857D02*
X40642856Y35046429D01*
X40928571Y35046429D01*
X41071428Y35117857D01*
X41142856Y35260714D01*
X41142856Y35332143D01*
X41071428Y35475000D01*
X40928571Y35546429D01*
X40714285Y35546429D01*
X40571428Y35617857D01*
X40499999Y35760714D01*
X40499999Y35832143D01*
X40571428Y35975000D01*
X40714285Y36046429D01*
X40928571Y36046429D01*
X41071428Y35975000D01*
X41785714Y35046429D02*
X41785714Y36046429D01*
X41785714Y36546429D02*
X41714285Y36475000D01*
X41785714Y36403571D01*
X41857142Y36475000D01*
X41785714Y36546429D01*
X41785714Y36403571D01*
X42714286Y35046429D02*
X42571428Y35117857D01*
X42500000Y35189286D01*
X42428571Y35332143D01*
X42428571Y35760714D01*
X42500000Y35903571D01*
X42571428Y35975000D01*
X42714286Y36046429D01*
X42928571Y36046429D01*
X43071428Y35975000D01*
X43142857Y35903571D01*
X43214286Y35760714D01*
X43214286Y35332143D01*
X43142857Y35189286D01*
X43071428Y35117857D01*
X42928571Y35046429D01*
X42714286Y35046429D01*
X43857143Y36046429D02*
X43857143Y35046429D01*
X43857143Y35903571D02*
X43928571Y35975000D01*
X44071429Y36046429D01*
X44285714Y36046429D01*
X44428571Y35975000D01*
X44500000Y35832143D01*
X44500000Y35046429D01*
D13*
X47812243Y7807166D02*
X47822344Y7749924D01*
X47785305Y7645541D01*
X47738165Y7598401D01*
X47633782Y7561363D01*
X47519298Y7581565D01*
X47428385Y7625339D01*
X47270127Y7736455D01*
X47169111Y7837471D01*
X47057995Y7995728D01*
X47014222Y8086642D01*
X46994019Y8201126D01*
X47031058Y8305508D01*
X47078198Y8352648D01*
X47182580Y8389687D01*
X47239823Y8379586D01*
X47384611Y8659062D02*
X47957031Y8086642D01*
X48047945Y8042868D01*
X48105186Y8032767D01*
X48185999Y8046236D01*
X48280280Y8140516D01*
X48293749Y8221329D01*
X48283647Y8278570D01*
X48239874Y8369484D01*
X47667454Y8941904D01*
X47832446Y9106896D02*
X48115288Y9389738D01*
X48680974Y8541210D02*
X47973867Y9248317D01*
X48751684Y10026134D02*
X48845964Y10120415D01*
X48926777Y10133883D01*
X49041261Y10113681D01*
X49199518Y10002564D01*
X49435220Y9766861D01*
X49546337Y9608604D01*
X49566540Y9494120D01*
X49553071Y9413308D01*
X49458790Y9319027D01*
X49377978Y9305558D01*
X49263495Y9325762D01*
X49105237Y9436878D01*
X48869534Y9672580D01*
X48758418Y9830838D01*
X48738215Y9945321D01*
X48751684Y10026134D01*
X49175948Y10450398D02*
X49748368Y9877978D01*
X49839281Y9834205D01*
X49896523Y9824103D01*
X49977335Y9837572D01*
X50071616Y9931852D01*
X50085085Y10012665D01*
X50074983Y10069907D01*
X50031210Y10160821D01*
X49458790Y10733241D01*
X49623782Y10898232D02*
X49906624Y11181075D01*
X50472310Y10332547D02*
X49765203Y11039653D01*
X8312243Y47307166D02*
X8322344Y47249924D01*
X8285305Y47145541D01*
X8238165Y47098401D01*
X8133782Y47061363D01*
X8019298Y47081565D01*
X7928385Y47125339D01*
X7770127Y47236455D01*
X7669111Y47337471D01*
X7557995Y47495728D01*
X7514222Y47586642D01*
X7494019Y47701126D01*
X7531058Y47805508D01*
X7578198Y47852648D01*
X7682580Y47889687D01*
X7739823Y47879586D01*
X7884611Y48159062D02*
X8457031Y47586642D01*
X8547945Y47542868D01*
X8605186Y47532767D01*
X8685999Y47546236D01*
X8780280Y47640516D01*
X8793749Y47721329D01*
X8783647Y47778570D01*
X8739874Y47869484D01*
X8167454Y48441904D01*
X8332446Y48606896D02*
X8615288Y48889738D01*
X9180974Y48041210D02*
X8473867Y48748317D01*
X9251684Y49526134D02*
X9345964Y49620415D01*
X9426777Y49633883D01*
X9541261Y49613681D01*
X9699518Y49502564D01*
X9935220Y49266861D01*
X10046337Y49108604D01*
X10066540Y48994120D01*
X10053071Y48913308D01*
X9958790Y48819027D01*
X9877978Y48805558D01*
X9763495Y48825762D01*
X9605237Y48936878D01*
X9369534Y49172580D01*
X9258418Y49330838D01*
X9238215Y49445321D01*
X9251684Y49526134D01*
X9675948Y49950398D02*
X10248368Y49377978D01*
X10339281Y49334205D01*
X10396523Y49324103D01*
X10477335Y49337572D01*
X10571616Y49431852D01*
X10585085Y49512665D01*
X10574983Y49569907D01*
X10531210Y49660821D01*
X9958790Y50233241D01*
X10123782Y50398232D02*
X10406624Y50681075D01*
X10972310Y49832547D02*
X10265203Y50539653D01*
X47307166Y49687757D02*
X47249924Y49677656D01*
X47145541Y49714695D01*
X47098401Y49761835D01*
X47061363Y49866218D01*
X47081565Y49980702D01*
X47125339Y50071615D01*
X47236455Y50229873D01*
X47337471Y50330889D01*
X47495728Y50442005D01*
X47586642Y50485778D01*
X47701126Y50505981D01*
X47805508Y50468942D01*
X47852648Y50421802D01*
X47889687Y50317420D01*
X47879586Y50260177D01*
X48159062Y50115389D02*
X47586642Y49542969D01*
X47542868Y49452055D01*
X47532767Y49394814D01*
X47546236Y49314001D01*
X47640516Y49219720D01*
X47721329Y49206251D01*
X47778570Y49216353D01*
X47869484Y49260126D01*
X48441904Y49832546D01*
X48606896Y49667554D02*
X48889738Y49384712D01*
X48041210Y48819026D02*
X48748317Y49526133D01*
X49526134Y48748316D02*
X49620415Y48654036D01*
X49633883Y48573223D01*
X49613681Y48458739D01*
X49502564Y48300482D01*
X49266861Y48064780D01*
X49108604Y47953663D01*
X48994120Y47933460D01*
X48913308Y47946929D01*
X48819027Y48041210D01*
X48805558Y48122022D01*
X48825762Y48236505D01*
X48936878Y48394763D01*
X49172580Y48630466D01*
X49330838Y48741582D01*
X49445321Y48761785D01*
X49526134Y48748316D01*
X49950398Y48324052D02*
X49377978Y47751632D01*
X49334205Y47660719D01*
X49324103Y47603477D01*
X49337572Y47522665D01*
X49431852Y47428384D01*
X49512665Y47414915D01*
X49569907Y47425017D01*
X49660821Y47468790D01*
X50233241Y48041210D01*
X50398232Y47876218D02*
X50681075Y47593376D01*
X49832547Y47027690D02*
X50539653Y47734797D01*
X7807166Y10187757D02*
X7749924Y10177656D01*
X7645541Y10214695D01*
X7598401Y10261835D01*
X7561363Y10366218D01*
X7581565Y10480702D01*
X7625339Y10571615D01*
X7736455Y10729873D01*
X7837471Y10830889D01*
X7995728Y10942005D01*
X8086642Y10985778D01*
X8201126Y11005981D01*
X8305508Y10968942D01*
X8352648Y10921802D01*
X8389687Y10817420D01*
X8379586Y10760177D01*
X8659062Y10615389D02*
X8086642Y10042969D01*
X8042868Y9952055D01*
X8032767Y9894814D01*
X8046236Y9814001D01*
X8140516Y9719720D01*
X8221329Y9706251D01*
X8278570Y9716353D01*
X8369484Y9760126D01*
X8941904Y10332546D01*
X9106896Y10167554D02*
X9389738Y9884712D01*
X8541210Y9319026D02*
X9248317Y10026133D01*
X10026134Y9248316D02*
X10120415Y9154036D01*
X10133883Y9073223D01*
X10113681Y8958739D01*
X10002564Y8800482D01*
X9766861Y8564780D01*
X9608604Y8453663D01*
X9494120Y8433460D01*
X9413308Y8446929D01*
X9319027Y8541210D01*
X9305558Y8622022D01*
X9325762Y8736505D01*
X9436878Y8894763D01*
X9672580Y9130466D01*
X9830838Y9241582D01*
X9945321Y9261785D01*
X10026134Y9248316D01*
X10450398Y8824052D02*
X9877978Y8251632D01*
X9834205Y8160719D01*
X9824103Y8103477D01*
X9837572Y8022665D01*
X9931852Y7928384D01*
X10012665Y7914915D01*
X10069907Y7925017D01*
X10160821Y7968790D01*
X10733241Y8541210D01*
X10898232Y8376218D02*
X11181075Y8093376D01*
X10332547Y7527690D02*
X11039653Y8234797D01*
D11*
X51000000Y51000000D02*
X38000000Y51000000D01*
X51000000Y38000000D02*
X51000000Y51000000D01*
X38000000Y38000000D02*
X51000000Y38000000D01*
X38000000Y51000000D02*
X38000000Y38000000D01*
X7000000Y20000000D02*
X20000000Y20000000D01*
X7000000Y7000000D02*
X7000000Y20000000D01*
X20000000Y7000000D02*
X7000000Y7000000D01*
X20000000Y20000000D02*
X20000000Y7000000D01*
D13*
X26595238Y6642857D02*
X26547619Y6595238D01*
X26404762Y6547619D01*
X26309524Y6547619D01*
X26166666Y6595238D01*
X26071428Y6690476D01*
X26023809Y6785714D01*
X25976190Y6976190D01*
X25976190Y7119048D01*
X26023809Y7309524D01*
X26071428Y7404762D01*
X26166666Y7500000D01*
X26309524Y7547619D01*
X26404762Y7547619D01*
X26547619Y7500000D01*
X26595238Y7452381D01*
X27023809Y7547619D02*
X27023809Y6738095D01*
X27071428Y6642857D01*
X27119047Y6595238D01*
X27214285Y6547619D01*
X27404762Y6547619D01*
X27500000Y6595238D01*
X27547619Y6642857D01*
X27595238Y6738095D01*
X27595238Y7547619D01*
X27928571Y7547619D02*
X28500000Y7547619D01*
X28214285Y6547619D02*
X28214285Y7547619D01*
X29785714Y7547619D02*
X29976191Y7547619D01*
X30071429Y7500000D01*
X30166667Y7404762D01*
X30214286Y7214286D01*
X30214286Y6880952D01*
X30166667Y6690476D01*
X30071429Y6595238D01*
X29976191Y6547619D01*
X29785714Y6547619D01*
X29690476Y6595238D01*
X29595238Y6690476D01*
X29547619Y6880952D01*
X29547619Y7214286D01*
X29595238Y7404762D01*
X29690476Y7500000D01*
X29785714Y7547619D01*
X30642857Y7547619D02*
X30642857Y6738095D01*
X30690476Y6642857D01*
X30738095Y6595238D01*
X30833333Y6547619D01*
X31023810Y6547619D01*
X31119048Y6595238D01*
X31166667Y6642857D01*
X31214286Y6738095D01*
X31214286Y7547619D01*
X31547619Y7547619D02*
X32119048Y7547619D01*
X31833333Y6547619D02*
X31833333Y7547619D01*
X51357143Y26595238D02*
X51404762Y26547619D01*
X51452381Y26404762D01*
X51452381Y26309524D01*
X51404762Y26166666D01*
X51309524Y26071428D01*
X51214286Y26023809D01*
X51023810Y25976190D01*
X50880952Y25976190D01*
X50690476Y26023809D01*
X50595238Y26071428D01*
X50500000Y26166666D01*
X50452381Y26309524D01*
X50452381Y26404762D01*
X50500000Y26547619D01*
X50547619Y26595238D01*
X50452381Y27023809D02*
X51261905Y27023809D01*
X51357143Y27071428D01*
X51404762Y27119047D01*
X51452381Y27214285D01*
X51452381Y27404762D01*
X51404762Y27500000D01*
X51357143Y27547619D01*
X51261905Y27595238D01*
X50452381Y27595238D01*
X50452381Y27928571D02*
X50452381Y28500000D01*
X51452381Y28214285D02*
X50452381Y28214285D01*
X50452381Y29785714D02*
X50452381Y29976191D01*
X50500000Y30071429D01*
X50595238Y30166667D01*
X50785714Y30214286D01*
X51119048Y30214286D01*
X51309524Y30166667D01*
X51404762Y30071429D01*
X51452381Y29976191D01*
X51452381Y29785714D01*
X51404762Y29690476D01*
X51309524Y29595238D01*
X51119048Y29547619D01*
X50785714Y29547619D01*
X50595238Y29595238D01*
X50500000Y29690476D01*
X50452381Y29785714D01*
X50452381Y30642857D02*
X51261905Y30642857D01*
X51357143Y30690476D01*
X51404762Y30738095D01*
X51452381Y30833333D01*
X51452381Y31023810D01*
X51404762Y31119048D01*
X51357143Y31166667D01*
X51261905Y31214286D01*
X50452381Y31214286D01*
X50452381Y31547619D02*
X50452381Y32119048D01*
X51452381Y31833333D02*
X50452381Y31833333D01*
X7357143Y26595238D02*
X7404762Y26547619D01*
X7452381Y26404762D01*
X7452381Y26309524D01*
X7404762Y26166666D01*
X7309524Y26071428D01*
X7214286Y26023809D01*
X7023810Y25976190D01*
X6880952Y25976190D01*
X6690476Y26023809D01*
X6595238Y26071428D01*
X6500000Y26166666D01*
X6452381Y26309524D01*
X6452381Y26404762D01*
X6500000Y26547619D01*
X6547619Y26595238D01*
X6452381Y27023809D02*
X7261905Y27023809D01*
X7357143Y27071428D01*
X7404762Y27119047D01*
X7452381Y27214285D01*
X7452381Y27404762D01*
X7404762Y27500000D01*
X7357143Y27547619D01*
X7261905Y27595238D01*
X6452381Y27595238D01*
X6452381Y27928571D02*
X6452381Y28500000D01*
X7452381Y28214285D02*
X6452381Y28214285D01*
X6452381Y29785714D02*
X6452381Y29976191D01*
X6500000Y30071429D01*
X6595238Y30166667D01*
X6785714Y30214286D01*
X7119048Y30214286D01*
X7309524Y30166667D01*
X7404762Y30071429D01*
X7452381Y29976191D01*
X7452381Y29785714D01*
X7404762Y29690476D01*
X7309524Y29595238D01*
X7119048Y29547619D01*
X6785714Y29547619D01*
X6595238Y29595238D01*
X6500000Y29690476D01*
X6452381Y29785714D01*
X6452381Y30642857D02*
X7261905Y30642857D01*
X7357143Y30690476D01*
X7404762Y30738095D01*
X7452381Y30833333D01*
X7452381Y31023810D01*
X7404762Y31119048D01*
X7357143Y31166667D01*
X7261905Y31214286D01*
X6452381Y31214286D01*
X6452381Y31547619D02*
X6452381Y32119048D01*
X7452381Y31833333D02*
X6452381Y31833333D01*
X26595238Y50642857D02*
X26547619Y50595238D01*
X26404762Y50547619D01*
X26309524Y50547619D01*
X26166666Y50595238D01*
X26071428Y50690476D01*
X26023809Y50785714D01*
X25976190Y50976190D01*
X25976190Y51119048D01*
X26023809Y51309524D01*
X26071428Y51404762D01*
X26166666Y51500000D01*
X26309524Y51547619D01*
X26404762Y51547619D01*
X26547619Y51500000D01*
X26595238Y51452381D01*
X27023809Y51547619D02*
X27023809Y50738095D01*
X27071428Y50642857D01*
X27119047Y50595238D01*
X27214285Y50547619D01*
X27404762Y50547619D01*
X27500000Y50595238D01*
X27547619Y50642857D01*
X27595238Y50738095D01*
X27595238Y51547619D01*
X27928571Y51547619D02*
X28500000Y51547619D01*
X28214285Y50547619D02*
X28214285Y51547619D01*
X29785714Y51547619D02*
X29976191Y51547619D01*
X30071429Y51500000D01*
X30166667Y51404762D01*
X30214286Y51214286D01*
X30214286Y50880952D01*
X30166667Y50690476D01*
X30071429Y50595238D01*
X29976191Y50547619D01*
X29785714Y50547619D01*
X29690476Y50595238D01*
X29595238Y50690476D01*
X29547619Y50880952D01*
X29547619Y51214286D01*
X29595238Y51404762D01*
X29690476Y51500000D01*
X29785714Y51547619D01*
X30642857Y51547619D02*
X30642857Y50738095D01*
X30690476Y50642857D01*
X30738095Y50595238D01*
X30833333Y50547619D01*
X31023810Y50547619D01*
X31119048Y50595238D01*
X31166667Y50642857D01*
X31214286Y50738095D01*
X31214286Y51547619D01*
X31547619Y51547619D02*
X32119048Y51547619D01*
X31833333Y50547619D02*
X31833333Y51547619D01*
D14*
X45800000Y21000000D02*
X45800000Y22000000D01*
X45800000Y22000000D02*
X43700000Y22000000D01*
X45800000Y21000000D02*
X43700000Y21000000D01*
X45800000Y19000000D02*
X45800000Y20000000D01*
X45800000Y20000000D02*
X43700000Y20000000D01*
X45800000Y19000000D02*
X43700000Y19000000D01*
X32285000Y12170000D02*
X32265000Y12170000D01*
X32265000Y12170000D02*
X32265000Y14830000D01*
X32265000Y14830000D02*
X32285000Y14830000D01*
X38715000Y12170000D02*
X38735000Y12170000D01*
X38735000Y12170000D02*
X38735000Y14830000D01*
X38735000Y14830000D02*
X38715000Y14830000D01*
X32285000Y17135000D02*
X32285000Y14830000D01*
D13*
X20810000Y25460000D02*
X17210000Y25460000D01*
X17210000Y25460000D02*
X16710000Y25960000D01*
X16710000Y25960000D02*
X16710000Y26760000D01*
X16710000Y26760000D02*
X17210000Y27260000D01*
X17210000Y27260000D02*
X20810000Y27260000D01*
X20810000Y27260000D02*
X21310000Y26760000D01*
X21310000Y26760000D02*
X21310000Y25960000D01*
X21310000Y25960000D02*
X20810000Y25460000D01*
X30666667Y14047619D02*
X30666667Y13333333D01*
X30619047Y13190476D01*
X30523809Y13095238D01*
X30380952Y13047619D01*
X30285714Y13047619D01*
X31666667Y13047619D02*
X31095238Y13047619D01*
X31380952Y13047619D02*
X31380952Y14047619D01*
X31285714Y13904762D01*
X31190476Y13809524D01*
X31095238Y13761905D01*
X18676667Y24907619D02*
X18676667Y24193333D01*
X18629047Y24050476D01*
X18533809Y23955238D01*
X18390952Y23907619D01*
X18295714Y23907619D01*
X19105238Y24812381D02*
X19152857Y24860000D01*
X19248095Y24907619D01*
X19486191Y24907619D01*
X19581429Y24860000D01*
X19629048Y24812381D01*
X19676667Y24717143D01*
X19676667Y24621905D01*
X19629048Y24479048D01*
X19057619Y23907619D01*
X19676667Y23907619D01*
X40266667Y25047619D02*
X40266667Y24333333D01*
X40219047Y24190476D01*
X40123809Y24095238D01*
X39980952Y24047619D01*
X39885714Y24047619D01*
X40647619Y25047619D02*
X41266667Y25047619D01*
X40933333Y24666667D01*
X41076191Y24666667D01*
X41171429Y24619048D01*
X41219048Y24571429D01*
X41266667Y24476190D01*
X41266667Y24238095D01*
X41219048Y24142857D01*
X41171429Y24095238D01*
X41076191Y24047619D01*
X40790476Y24047619D01*
X40695238Y24095238D01*
X40647619Y24142857D01*
D15*
G36*
X47873000Y28127000D02*
X32127000Y28127000D01*
X32127000Y33873000D01*
X47873000Y33873000D01*
X47873000Y28127000D01*
X47873000Y28127000D01*
G37*
X47873000Y28127000D02*
X32127000Y28127000D01*
X32127000Y33873000D01*
X47873000Y33873000D01*
X47873000Y28127000D01*
M02*
