G04 #@! TF.FileFunction,Copper,L2,Bot,Signal*
%FSLAX46Y46*%
G04 Gerber Fmt 4.6, Leading zero omitted, Abs format (unit mm)*
G04 Created by KiCad (PCBNEW 4.0.7) date Tue Jan 23 09:34:51 2018*
%MOMM*%
%LPD*%
G01*
G04 APERTURE LIST*
%ADD10C,0.100000*%
%ADD11C,0.500000*%
%ADD12C,6.400000*%
%ADD13C,0.600000*%
%ADD14R,0.800000X0.750000*%
%ADD15C,1.400000*%
%ADD16C,1.500000*%
%ADD17R,0.965200X1.270000*%
%ADD18R,0.500000X0.900000*%
%ADD19R,1.750000X0.450000*%
%ADD20C,0.250000*%
%ADD21C,0.200000*%
G04 APERTURE END LIST*
D10*
D11*
X20600000Y32000000D02*
X21400000Y32000000D01*
D12*
X44500000Y44500000D03*
D13*
X46900000Y44500000D03*
X46197056Y42802944D03*
X44500000Y42100000D03*
X42802944Y42802944D03*
X42100000Y44500000D03*
X42802944Y46197056D03*
X44500000Y46900000D03*
X46197056Y46197056D03*
D12*
X44500000Y13500000D03*
D13*
X46900000Y13500000D03*
X46197056Y11802944D03*
X44500000Y11100000D03*
X42802944Y11802944D03*
X42100000Y13500000D03*
X42802944Y15197056D03*
X44500000Y15900000D03*
X46197056Y15197056D03*
D12*
X13500000Y13500000D03*
D13*
X15900000Y13500000D03*
X15197056Y11802944D03*
X13500000Y11100000D03*
X11802944Y11802944D03*
X11100000Y13500000D03*
X11802944Y15197056D03*
X13500000Y15900000D03*
X15197056Y15197056D03*
D12*
X13500000Y44500000D03*
D13*
X15900000Y44500000D03*
X15197056Y42802944D03*
X13500000Y42100000D03*
X11802944Y42802944D03*
X11100000Y44500000D03*
X11802944Y46197056D03*
X13500000Y46900000D03*
X15197056Y46197056D03*
D12*
X45000000Y3500000D03*
D13*
X47400000Y3500000D03*
X46697056Y1802944D03*
X45000000Y1100000D03*
X43302944Y1802944D03*
X42600000Y3500000D03*
X43302944Y5197056D03*
X45000000Y5900000D03*
X46697056Y5197056D03*
D12*
X13000000Y3500000D03*
D13*
X15400000Y3500000D03*
X14697056Y1802944D03*
X13000000Y1100000D03*
X11302944Y1802944D03*
X10600000Y3500000D03*
X11302944Y5197056D03*
X13000000Y5900000D03*
X14697056Y5197056D03*
D12*
X45000000Y54500000D03*
D13*
X45000000Y56900000D03*
X46697056Y56197056D03*
X47400000Y54500000D03*
X46697056Y52802944D03*
X45000000Y52100000D03*
X43302944Y52802944D03*
X42600000Y54500000D03*
X43302944Y56197056D03*
D12*
X13000000Y54500000D03*
D13*
X15400000Y54500000D03*
X14697056Y52802944D03*
X13000000Y52100000D03*
X11302944Y52802944D03*
X10600000Y54500000D03*
X11302944Y56197056D03*
X13000000Y56900000D03*
X14697056Y56197056D03*
D12*
X54500000Y13000000D03*
D13*
X56900000Y13000000D03*
X56197056Y11302944D03*
X54500000Y10600000D03*
X52802944Y11302944D03*
X52100000Y13000000D03*
X52802944Y14697056D03*
X54500000Y15400000D03*
X56197056Y14697056D03*
D12*
X54500000Y45000000D03*
D13*
X56900000Y45000000D03*
X56197056Y43302944D03*
X54500000Y42600000D03*
X52802944Y43302944D03*
X52100000Y45000000D03*
X52802944Y46697056D03*
X54500000Y47400000D03*
X56197056Y46697056D03*
D14*
X26750000Y22000000D03*
X25250000Y22000000D03*
X20250000Y29500000D03*
X21750000Y29500000D03*
D15*
X20280000Y26360000D03*
X17740000Y26360000D03*
D16*
X40600000Y26360000D03*
D17*
X20365000Y32000000D03*
X21635000Y32000000D03*
D18*
X37750000Y28500000D03*
X36250000Y28500000D03*
X36250000Y24500000D03*
X37750000Y24500000D03*
X37750000Y22500000D03*
X36250000Y22500000D03*
D12*
X3500000Y13000000D03*
D13*
X5900000Y13000000D03*
X5197056Y11302944D03*
X3500000Y10600000D03*
X1802944Y11302944D03*
X1100000Y13000000D03*
X1802944Y14697056D03*
X3500000Y15400000D03*
X5197056Y14697056D03*
D12*
X3500000Y45000000D03*
D13*
X5900000Y45000000D03*
X5197056Y43302944D03*
X3500000Y42600000D03*
X1802944Y43302944D03*
X1100000Y45000000D03*
X1802944Y46697056D03*
X3500000Y47400000D03*
X5197056Y46697056D03*
D19*
X25400000Y24925000D03*
X25400000Y25575000D03*
X25400000Y26225000D03*
X25400000Y26875000D03*
X25400000Y27525000D03*
X25400000Y28175000D03*
X25400000Y28825000D03*
X25400000Y29475000D03*
X25400000Y30125000D03*
X25400000Y30775000D03*
X32600000Y30775000D03*
X32600000Y30125000D03*
X32600000Y29475000D03*
X32600000Y28825000D03*
X32600000Y28175000D03*
X32600000Y27525000D03*
X32600000Y26875000D03*
X32600000Y26225000D03*
X32600000Y25575000D03*
X32600000Y24925000D03*
D13*
X8000000Y12250000D03*
X8000000Y13250000D03*
X8000000Y14250000D03*
X8000000Y15250000D03*
X12250000Y8000000D03*
X13250000Y8000000D03*
X14250000Y8000000D03*
X15250000Y8000000D03*
X45750000Y8000000D03*
X44750000Y8000000D03*
X43750000Y8000000D03*
X42750000Y8000000D03*
X50000000Y12250000D03*
X50000000Y13250000D03*
X50000000Y14250000D03*
X50000000Y15250000D03*
X50000000Y45750000D03*
X50000000Y44750000D03*
X50000000Y43750000D03*
X50000000Y42750000D03*
X45750000Y50000000D03*
X44750000Y50000000D03*
X43750000Y50000000D03*
X42750000Y50000000D03*
X8000000Y45750000D03*
X8000000Y44750000D03*
X8000000Y43750000D03*
X8000000Y42750000D03*
X15250000Y50000000D03*
X14250000Y50000000D03*
X13250000Y50000000D03*
X12250000Y50000000D03*
X27750000Y22000000D03*
X38200022Y17250000D03*
X45000000Y18250000D03*
X34500000Y29250000D03*
X33250000Y31750000D03*
X23750000Y31250000D03*
X23250000Y28250000D03*
X43500000Y22500000D03*
X31750004Y12000000D03*
X39000000Y13500000D03*
X34250000Y9750000D03*
X42500000Y21500000D03*
X42750000Y19500000D03*
X33000000Y17250000D03*
X34250000Y17250000D03*
X35374980Y17278018D03*
X35500000Y9750000D03*
X36250000Y17250000D03*
X36750000Y9750000D03*
D20*
X8000000Y13250000D02*
X8000000Y12250000D01*
X8000000Y15250000D02*
X8000000Y14250000D01*
X13250000Y8000000D02*
X12250000Y8000000D01*
X15250000Y8000000D02*
X14250000Y8000000D01*
X44750000Y8000000D02*
X45750000Y8000000D01*
X42750000Y8000000D02*
X43750000Y8000000D01*
X50000000Y13250000D02*
X50000000Y12250000D01*
X50000000Y15250000D02*
X50000000Y14250000D01*
X50000000Y44750000D02*
X50000000Y45750000D01*
X50000000Y42750000D02*
X50000000Y43750000D01*
X44750000Y50000000D02*
X45750000Y50000000D01*
X42750000Y50000000D02*
X43750000Y50000000D01*
X8000000Y44750000D02*
X8000000Y45750000D01*
X8000000Y42750000D02*
X8000000Y43750000D01*
X14250000Y50000000D02*
X15250000Y50000000D01*
X12250000Y50000000D02*
X13250000Y50000000D01*
X26750000Y22000000D02*
X27750000Y22000000D01*
X32600000Y28825000D02*
X34075000Y28825000D01*
X34075000Y28825000D02*
X34500000Y29250000D01*
X32600000Y30775000D02*
X32600000Y31100000D01*
X32600000Y31100000D02*
X33250000Y31750000D01*
X32600000Y30125000D02*
X32600000Y30775000D01*
X32600000Y29475000D02*
X32600000Y30125000D01*
X32600000Y28825000D02*
X32600000Y29475000D01*
X25400000Y30775000D02*
X24225000Y30775000D01*
X24225000Y30775000D02*
X23750000Y31250000D01*
X25400000Y28175000D02*
X23325000Y28175000D01*
X23325000Y28175000D02*
X23250000Y28250000D01*
X43500000Y18750000D02*
X43500000Y22500000D01*
X43500000Y22500000D02*
X43500000Y25000000D01*
X39000000Y13500000D02*
X39000000Y14250000D01*
X39000000Y14250000D02*
X43500000Y18750000D01*
X43500000Y25000000D02*
X40000000Y28500000D01*
X40000000Y28500000D02*
X38250000Y28500000D01*
X38250000Y28500000D02*
X37750000Y28500000D01*
X25250000Y18500004D02*
X31450005Y12299999D01*
X31450005Y12299999D02*
X31750004Y12000000D01*
X25250000Y22000000D02*
X25250000Y18500004D01*
X25400000Y24925000D02*
X25400000Y22150000D01*
X25400000Y22150000D02*
X25250000Y22000000D01*
X20365000Y32000000D02*
X20365000Y31847600D01*
X20365000Y31847600D02*
X19000000Y30482600D01*
X19000000Y30482600D02*
X19000000Y23750000D01*
X19000000Y23750000D02*
X33000000Y9750000D01*
X33000000Y9750000D02*
X33500000Y9750000D01*
X33500000Y9750000D02*
X34250000Y9750000D01*
X21750000Y29500000D02*
X21750000Y30125000D01*
X21750000Y30125000D02*
X20365000Y31510000D01*
X20365000Y31510000D02*
X20365000Y32000000D01*
X25400000Y29475000D02*
X21775000Y29475000D01*
X21775000Y29475000D02*
X21750000Y29500000D01*
X37750000Y24500000D02*
X37750000Y23750000D01*
X37750000Y23750000D02*
X40000000Y21500000D01*
X40000000Y21500000D02*
X42500000Y21500000D01*
X37750000Y22500000D02*
X38000000Y22500000D01*
X38000000Y22500000D02*
X41000000Y19500000D01*
X41000000Y19500000D02*
X42750000Y19500000D01*
X28500000Y25750000D02*
X28025000Y26225000D01*
X28025000Y26225000D02*
X26525000Y26225000D01*
X26525000Y26225000D02*
X25400000Y26225000D01*
X33000000Y19000000D02*
X28500000Y23500000D01*
X33000000Y17250000D02*
X33000000Y19000000D01*
X28500000Y23500000D02*
X28500000Y25750000D01*
X34250000Y17250000D02*
X34250000Y18386410D01*
X34250000Y18386410D02*
X28950011Y23686399D01*
X28011411Y26875000D02*
X26525000Y26875000D01*
X26525000Y26875000D02*
X25400000Y26875000D01*
X28950011Y25936400D02*
X28011411Y26875000D01*
X28950011Y23686399D02*
X28950011Y25936400D01*
X29400022Y23872799D02*
X35374980Y17897841D01*
X35374980Y17897841D02*
X35374980Y17702282D01*
X35374980Y17702282D02*
X35374980Y17278018D01*
X29400022Y26122800D02*
X29400022Y23872799D01*
X26697822Y28825000D02*
X29400022Y26122800D01*
X25400000Y28825000D02*
X26697822Y28825000D01*
X37125001Y17488589D02*
X37125001Y11375001D01*
X30300044Y24313545D02*
X37125001Y17488589D01*
X37125001Y11375001D02*
X35799999Y10049999D01*
X32600000Y27525000D02*
X31475000Y27525000D01*
X30300044Y26350044D02*
X30300044Y24313545D01*
X35799999Y10049999D02*
X35500000Y9750000D01*
X31475000Y27525000D02*
X30300044Y26350044D01*
X32600000Y27525000D02*
X35475000Y27525000D01*
X36250000Y28300000D02*
X36250000Y28500000D01*
X35475000Y27525000D02*
X36250000Y28300000D01*
X32600000Y28175000D02*
X31475000Y28175000D01*
X31475000Y28175000D02*
X29850033Y26550033D01*
X29850033Y26550033D02*
X29850033Y24127145D01*
X29850033Y24127145D02*
X36250000Y17727178D01*
X36250000Y17674264D02*
X36250000Y17250000D01*
X36250000Y17727178D02*
X36250000Y17674264D01*
X37575012Y17674988D02*
X30750055Y24499945D01*
X36750000Y9750000D02*
X37575012Y10575012D01*
X37575012Y10575012D02*
X37575012Y17674988D01*
X30750055Y24499945D02*
X30750055Y26150055D01*
X30750055Y26150055D02*
X31475000Y26875000D01*
X31475000Y26875000D02*
X32600000Y26875000D01*
X23525000Y27525000D02*
X22360000Y26360000D01*
X22360000Y26360000D02*
X20280000Y26360000D01*
X25400000Y27525000D02*
X23525000Y27525000D01*
X32600000Y26225000D02*
X40465000Y26225000D01*
X40465000Y26225000D02*
X40600000Y26360000D01*
X25400000Y30125000D02*
X23357600Y30125000D01*
X23357600Y30125000D02*
X21635000Y31847600D01*
X21635000Y31847600D02*
X21635000Y32000000D01*
X32600000Y25575000D02*
X33925000Y25575000D01*
X33925000Y25575000D02*
X35000000Y24500000D01*
X35000000Y24500000D02*
X36250000Y24500000D01*
X32600000Y24925000D02*
X33825000Y24925000D01*
X33825000Y24925000D02*
X36250000Y22500000D01*
D21*
G36*
X48575000Y53500000D02*
X48583166Y53458947D01*
X48583166Y53417087D01*
X48925708Y51695013D01*
X48925708Y51695011D01*
X48989167Y51541808D01*
X49964644Y50081902D01*
X50081902Y49964644D01*
X51541807Y48989168D01*
X51541808Y48989167D01*
X51695012Y48925708D01*
X53417086Y48583166D01*
X53458947Y48583166D01*
X53500000Y48575000D01*
X57575000Y48575000D01*
X57575000Y9425000D01*
X53500000Y9425000D01*
X53458947Y9416834D01*
X53417086Y9416834D01*
X51695012Y9074292D01*
X51541808Y9010833D01*
X51541807Y9010832D01*
X50081902Y8035356D01*
X49964644Y7918098D01*
X48989167Y6458192D01*
X48928711Y6312237D01*
X48925708Y6304988D01*
X48583166Y4582913D01*
X48583166Y4541053D01*
X48575000Y4500000D01*
X48575000Y425000D01*
X9425000Y425000D01*
X9425000Y971274D01*
X12349888Y971274D01*
X12448636Y732286D01*
X12631324Y549278D01*
X12870140Y450113D01*
X13128726Y449888D01*
X13367714Y548636D01*
X13550722Y731324D01*
X13649887Y970140D01*
X13649887Y971274D01*
X44349888Y971274D01*
X44448636Y732286D01*
X44631324Y549278D01*
X44870140Y450113D01*
X45128726Y449888D01*
X45367714Y548636D01*
X45550722Y731324D01*
X45649887Y970140D01*
X45650112Y1228726D01*
X45551364Y1467714D01*
X45368676Y1650722D01*
X45312092Y1674218D01*
X46046944Y1674218D01*
X46145692Y1435230D01*
X46328380Y1252222D01*
X46567196Y1153057D01*
X46825782Y1152832D01*
X47064770Y1251580D01*
X47247778Y1434268D01*
X47346943Y1673084D01*
X47347168Y1931670D01*
X47248420Y2170658D01*
X47065732Y2353666D01*
X46826916Y2452831D01*
X46568330Y2453056D01*
X46329342Y2354308D01*
X46146334Y2171620D01*
X46047169Y1932804D01*
X46046944Y1674218D01*
X45312092Y1674218D01*
X45129860Y1749887D01*
X44871274Y1750112D01*
X44632286Y1651364D01*
X44449278Y1468676D01*
X44350113Y1229860D01*
X44349888Y971274D01*
X13649887Y971274D01*
X13650112Y1228726D01*
X13551364Y1467714D01*
X13368676Y1650722D01*
X13312092Y1674218D01*
X14046944Y1674218D01*
X14145692Y1435230D01*
X14328380Y1252222D01*
X14567196Y1153057D01*
X14825782Y1152832D01*
X15064770Y1251580D01*
X15247778Y1434268D01*
X15346943Y1673084D01*
X15346943Y1674218D01*
X42652832Y1674218D01*
X42751580Y1435230D01*
X42934268Y1252222D01*
X43173084Y1153057D01*
X43431670Y1152832D01*
X43670658Y1251580D01*
X43853666Y1434268D01*
X43952831Y1673084D01*
X43953056Y1931670D01*
X43854308Y2170658D01*
X43671620Y2353666D01*
X43432804Y2452831D01*
X43174218Y2453056D01*
X42935230Y2354308D01*
X42752222Y2171620D01*
X42653057Y1932804D01*
X42652832Y1674218D01*
X15346943Y1674218D01*
X15347168Y1931670D01*
X15248420Y2170658D01*
X15065732Y2353666D01*
X14826916Y2452831D01*
X14568330Y2453056D01*
X14329342Y2354308D01*
X14146334Y2171620D01*
X14047169Y1932804D01*
X14046944Y1674218D01*
X13312092Y1674218D01*
X13129860Y1749887D01*
X12871274Y1750112D01*
X12632286Y1651364D01*
X12449278Y1468676D01*
X12350113Y1229860D01*
X12349888Y971274D01*
X9425000Y971274D01*
X9425000Y1674218D01*
X10652832Y1674218D01*
X10751580Y1435230D01*
X10934268Y1252222D01*
X11173084Y1153057D01*
X11431670Y1152832D01*
X11670658Y1251580D01*
X11853666Y1434268D01*
X11952831Y1673084D01*
X11953056Y1931670D01*
X11854308Y2170658D01*
X11671620Y2353666D01*
X11432804Y2452831D01*
X11174218Y2453056D01*
X10935230Y2354308D01*
X10752222Y2171620D01*
X10653057Y1932804D01*
X10652832Y1674218D01*
X9425000Y1674218D01*
X9425000Y3371274D01*
X9949888Y3371274D01*
X10048636Y3132286D01*
X10231324Y2949278D01*
X10470140Y2850113D01*
X10728726Y2849888D01*
X10967714Y2948636D01*
X11150722Y3131324D01*
X11249887Y3370140D01*
X11249887Y3371274D01*
X14749888Y3371274D01*
X14848636Y3132286D01*
X15031324Y2949278D01*
X15270140Y2850113D01*
X15528726Y2849888D01*
X15767714Y2948636D01*
X15950722Y3131324D01*
X16049887Y3370140D01*
X16049887Y3371274D01*
X41949888Y3371274D01*
X42048636Y3132286D01*
X42231324Y2949278D01*
X42470140Y2850113D01*
X42728726Y2849888D01*
X42967714Y2948636D01*
X43150722Y3131324D01*
X43249887Y3370140D01*
X43249887Y3371274D01*
X46749888Y3371274D01*
X46848636Y3132286D01*
X47031324Y2949278D01*
X47270140Y2850113D01*
X47528726Y2849888D01*
X47767714Y2948636D01*
X47950722Y3131324D01*
X48049887Y3370140D01*
X48050112Y3628726D01*
X47951364Y3867714D01*
X47768676Y4050722D01*
X47529860Y4149887D01*
X47271274Y4150112D01*
X47032286Y4051364D01*
X46849278Y3868676D01*
X46750113Y3629860D01*
X46749888Y3371274D01*
X43249887Y3371274D01*
X43250112Y3628726D01*
X43151364Y3867714D01*
X42968676Y4050722D01*
X42729860Y4149887D01*
X42471274Y4150112D01*
X42232286Y4051364D01*
X42049278Y3868676D01*
X41950113Y3629860D01*
X41949888Y3371274D01*
X16049887Y3371274D01*
X16050112Y3628726D01*
X15951364Y3867714D01*
X15768676Y4050722D01*
X15529860Y4149887D01*
X15271274Y4150112D01*
X15032286Y4051364D01*
X14849278Y3868676D01*
X14750113Y3629860D01*
X14749888Y3371274D01*
X11249887Y3371274D01*
X11250112Y3628726D01*
X11151364Y3867714D01*
X10968676Y4050722D01*
X10729860Y4149887D01*
X10471274Y4150112D01*
X10232286Y4051364D01*
X10049278Y3868676D01*
X9950113Y3629860D01*
X9949888Y3371274D01*
X9425000Y3371274D01*
X9425000Y4500000D01*
X9416834Y4541053D01*
X9416834Y4582914D01*
X9320279Y5068330D01*
X10652832Y5068330D01*
X10751580Y4829342D01*
X10934268Y4646334D01*
X11173084Y4547169D01*
X11431670Y4546944D01*
X11670658Y4645692D01*
X11853666Y4828380D01*
X11952831Y5067196D01*
X11952831Y5068330D01*
X14046944Y5068330D01*
X14145692Y4829342D01*
X14328380Y4646334D01*
X14567196Y4547169D01*
X14825782Y4546944D01*
X15064770Y4645692D01*
X15247778Y4828380D01*
X15346943Y5067196D01*
X15346943Y5068330D01*
X42652832Y5068330D01*
X42751580Y4829342D01*
X42934268Y4646334D01*
X43173084Y4547169D01*
X43431670Y4546944D01*
X43670658Y4645692D01*
X43853666Y4828380D01*
X43952831Y5067196D01*
X43952831Y5068330D01*
X46046944Y5068330D01*
X46145692Y4829342D01*
X46328380Y4646334D01*
X46567196Y4547169D01*
X46825782Y4546944D01*
X47064770Y4645692D01*
X47247778Y4828380D01*
X47346943Y5067196D01*
X47347168Y5325782D01*
X47248420Y5564770D01*
X47065732Y5747778D01*
X46826916Y5846943D01*
X46568330Y5847168D01*
X46329342Y5748420D01*
X46146334Y5565732D01*
X46047169Y5326916D01*
X46046944Y5068330D01*
X43952831Y5068330D01*
X43953056Y5325782D01*
X43854308Y5564770D01*
X43671620Y5747778D01*
X43615036Y5771274D01*
X44349888Y5771274D01*
X44448636Y5532286D01*
X44631324Y5349278D01*
X44870140Y5250113D01*
X45128726Y5249888D01*
X45367714Y5348636D01*
X45550722Y5531324D01*
X45649887Y5770140D01*
X45650112Y6028726D01*
X45551364Y6267714D01*
X45368676Y6450722D01*
X45129860Y6549887D01*
X44871274Y6550112D01*
X44632286Y6451364D01*
X44449278Y6268676D01*
X44350113Y6029860D01*
X44349888Y5771274D01*
X43615036Y5771274D01*
X43432804Y5846943D01*
X43174218Y5847168D01*
X42935230Y5748420D01*
X42752222Y5565732D01*
X42653057Y5326916D01*
X42652832Y5068330D01*
X15346943Y5068330D01*
X15347168Y5325782D01*
X15248420Y5564770D01*
X15065732Y5747778D01*
X14826916Y5846943D01*
X14568330Y5847168D01*
X14329342Y5748420D01*
X14146334Y5565732D01*
X14047169Y5326916D01*
X14046944Y5068330D01*
X11952831Y5068330D01*
X11953056Y5325782D01*
X11854308Y5564770D01*
X11671620Y5747778D01*
X11615036Y5771274D01*
X12349888Y5771274D01*
X12448636Y5532286D01*
X12631324Y5349278D01*
X12870140Y5250113D01*
X13128726Y5249888D01*
X13367714Y5348636D01*
X13550722Y5531324D01*
X13649887Y5770140D01*
X13650112Y6028726D01*
X13551364Y6267714D01*
X13368676Y6450722D01*
X13129860Y6549887D01*
X12871274Y6550112D01*
X12632286Y6451364D01*
X12449278Y6268676D01*
X12350113Y6029860D01*
X12349888Y5771274D01*
X11615036Y5771274D01*
X11432804Y5846943D01*
X11174218Y5847168D01*
X10935230Y5748420D01*
X10752222Y5565732D01*
X10653057Y5326916D01*
X10652832Y5068330D01*
X9320279Y5068330D01*
X9074292Y6304988D01*
X9010833Y6458192D01*
X9010832Y6458193D01*
X8035356Y7918098D01*
X7918098Y8035356D01*
X6458192Y9010833D01*
X6304989Y9074292D01*
X6304988Y9074292D01*
X4582913Y9416834D01*
X4541053Y9416834D01*
X4500000Y9425000D01*
X425000Y9425000D01*
X425000Y10471274D01*
X2849888Y10471274D01*
X2948636Y10232286D01*
X3131324Y10049278D01*
X3370140Y9950113D01*
X3628726Y9949888D01*
X3867714Y10048636D01*
X4050722Y10231324D01*
X4149887Y10470140D01*
X4150112Y10728726D01*
X4051364Y10967714D01*
X3868676Y11150722D01*
X3812092Y11174218D01*
X4546944Y11174218D01*
X4645692Y10935230D01*
X4828380Y10752222D01*
X5067196Y10653057D01*
X5325782Y10652832D01*
X5564770Y10751580D01*
X5646245Y10832913D01*
X6272506Y10832913D01*
X6272506Y10667087D01*
X6353244Y10261190D01*
X6353244Y10261189D01*
X6416703Y10107986D01*
X6646625Y9763883D01*
X6676225Y9734283D01*
X6699480Y9699480D01*
X9699480Y6699479D01*
X9734285Y6676223D01*
X9763883Y6646625D01*
X10107986Y6416703D01*
X10261189Y6353244D01*
X10261190Y6353244D01*
X10667087Y6272506D01*
X10832913Y6272506D01*
X11238810Y6353244D01*
X11238811Y6353244D01*
X11392014Y6416703D01*
X11736117Y6646625D01*
X11853375Y6763883D01*
X12066544Y7082914D01*
X14833166Y7082914D01*
X14833166Y6917087D01*
X14909286Y6534404D01*
X14909286Y6534403D01*
X14972745Y6381200D01*
X15189518Y6056776D01*
X15306776Y5939518D01*
X15631197Y5722748D01*
X15631200Y5722745D01*
X15739531Y5677873D01*
X15784403Y5659286D01*
X15784404Y5659286D01*
X16167087Y5583166D01*
X16208947Y5583166D01*
X16250000Y5575000D01*
X41750000Y5575000D01*
X41791053Y5583166D01*
X41832913Y5583166D01*
X42215596Y5659286D01*
X42215597Y5659286D01*
X42368800Y5722745D01*
X42693224Y5939518D01*
X42810482Y6056776D01*
X43027252Y6381197D01*
X43027255Y6381200D01*
X43090714Y6534404D01*
X43166834Y6917087D01*
X43166834Y7082914D01*
X43090714Y7465596D01*
X43027255Y7618800D01*
X43027252Y7618803D01*
X42884190Y7832913D01*
X45772506Y7832913D01*
X45772506Y7667087D01*
X45853244Y7261190D01*
X45853244Y7261189D01*
X45916703Y7107986D01*
X46146625Y6763883D01*
X46263883Y6646625D01*
X46607986Y6416703D01*
X46761189Y6353244D01*
X46761190Y6353244D01*
X47167087Y6272506D01*
X47332913Y6272506D01*
X47738810Y6353244D01*
X47738811Y6353244D01*
X47892014Y6416703D01*
X48236117Y6646625D01*
X48265717Y6676225D01*
X48300520Y6699480D01*
X51300521Y9699480D01*
X51323777Y9734285D01*
X51353375Y9763883D01*
X51583297Y10107986D01*
X51646756Y10261189D01*
X51646756Y10261190D01*
X51688544Y10471274D01*
X53849888Y10471274D01*
X53948636Y10232286D01*
X54131324Y10049278D01*
X54370140Y9950113D01*
X54628726Y9949888D01*
X54867714Y10048636D01*
X55050722Y10231324D01*
X55149887Y10470140D01*
X55150112Y10728726D01*
X55051364Y10967714D01*
X54868676Y11150722D01*
X54812092Y11174218D01*
X55546944Y11174218D01*
X55645692Y10935230D01*
X55828380Y10752222D01*
X56067196Y10653057D01*
X56325782Y10652832D01*
X56564770Y10751580D01*
X56747778Y10934268D01*
X56846943Y11173084D01*
X56847168Y11431670D01*
X56748420Y11670658D01*
X56565732Y11853666D01*
X56326916Y11952831D01*
X56068330Y11953056D01*
X55829342Y11854308D01*
X55646334Y11671620D01*
X55547169Y11432804D01*
X55546944Y11174218D01*
X54812092Y11174218D01*
X54629860Y11249887D01*
X54371274Y11250112D01*
X54132286Y11151364D01*
X53949278Y10968676D01*
X53850113Y10729860D01*
X53849888Y10471274D01*
X51688544Y10471274D01*
X51727494Y10667087D01*
X51727494Y10832913D01*
X51659605Y11174218D01*
X52152832Y11174218D01*
X52251580Y10935230D01*
X52434268Y10752222D01*
X52673084Y10653057D01*
X52931670Y10652832D01*
X53170658Y10751580D01*
X53353666Y10934268D01*
X53452831Y11173084D01*
X53453056Y11431670D01*
X53354308Y11670658D01*
X53171620Y11853666D01*
X52932804Y11952831D01*
X52674218Y11953056D01*
X52435230Y11854308D01*
X52252222Y11671620D01*
X52153057Y11432804D01*
X52152832Y11174218D01*
X51659605Y11174218D01*
X51646756Y11238810D01*
X51636371Y11263883D01*
X51583297Y11392014D01*
X51353375Y11736117D01*
X51236117Y11853375D01*
X50892014Y12083297D01*
X50738811Y12146756D01*
X50738810Y12146756D01*
X50332913Y12227494D01*
X50167087Y12227494D01*
X49761190Y12146756D01*
X49607986Y12083297D01*
X49263883Y11853375D01*
X49234285Y11823777D01*
X49199480Y11800521D01*
X46199480Y8800520D01*
X46176225Y8765717D01*
X46146625Y8736117D01*
X45916703Y8392014D01*
X45863630Y8263883D01*
X45853244Y8238810D01*
X45772506Y7832913D01*
X42884190Y7832913D01*
X42810482Y7943224D01*
X42693224Y8060482D01*
X42368800Y8277255D01*
X42215597Y8340714D01*
X42215596Y8340714D01*
X41832913Y8416834D01*
X41791053Y8416834D01*
X41750000Y8425000D01*
X16250000Y8425000D01*
X16208947Y8416834D01*
X16167087Y8416834D01*
X15784404Y8340714D01*
X15739531Y8322127D01*
X15631200Y8277255D01*
X15631197Y8277252D01*
X15306776Y8060482D01*
X15189518Y7943224D01*
X14972745Y7618800D01*
X14929287Y7513883D01*
X14909286Y7465596D01*
X14833166Y7082914D01*
X12066544Y7082914D01*
X12083297Y7107986D01*
X12146756Y7261189D01*
X12146756Y7261190D01*
X12227494Y7667087D01*
X12227494Y7832913D01*
X12146756Y8238810D01*
X12136371Y8263883D01*
X12083297Y8392014D01*
X11853375Y8736117D01*
X11823777Y8765715D01*
X11800521Y8800520D01*
X9629767Y10971274D01*
X12849888Y10971274D01*
X12948636Y10732286D01*
X13131324Y10549278D01*
X13370140Y10450113D01*
X13628726Y10449888D01*
X13867714Y10548636D01*
X14050722Y10731324D01*
X14149887Y10970140D01*
X14150112Y11228726D01*
X14051364Y11467714D01*
X13868676Y11650722D01*
X13812092Y11674218D01*
X14546944Y11674218D01*
X14645692Y11435230D01*
X14828380Y11252222D01*
X15067196Y11153057D01*
X15325782Y11152832D01*
X15564770Y11251580D01*
X15747778Y11434268D01*
X15846943Y11673084D01*
X15847168Y11931670D01*
X15748420Y12170658D01*
X15565732Y12353666D01*
X15326916Y12452831D01*
X15068330Y12453056D01*
X14829342Y12354308D01*
X14646334Y12171620D01*
X14547169Y11932804D01*
X14546944Y11674218D01*
X13812092Y11674218D01*
X13629860Y11749887D01*
X13371274Y11750112D01*
X13132286Y11651364D01*
X12949278Y11468676D01*
X12850113Y11229860D01*
X12849888Y10971274D01*
X9629767Y10971274D01*
X8926823Y11674218D01*
X11152832Y11674218D01*
X11251580Y11435230D01*
X11434268Y11252222D01*
X11673084Y11153057D01*
X11931670Y11152832D01*
X12170658Y11251580D01*
X12353666Y11434268D01*
X12452831Y11673084D01*
X12453056Y11931670D01*
X12354308Y12170658D01*
X12171620Y12353666D01*
X11932804Y12452831D01*
X11674218Y12453056D01*
X11435230Y12354308D01*
X11252222Y12171620D01*
X11153057Y11932804D01*
X11152832Y11674218D01*
X8926823Y11674218D01*
X8800520Y11800520D01*
X8765717Y11823775D01*
X8736117Y11853375D01*
X8392014Y12083297D01*
X8238811Y12146756D01*
X8238810Y12146756D01*
X7832913Y12227494D01*
X7667087Y12227494D01*
X7261190Y12146756D01*
X7107986Y12083297D01*
X6763883Y11853375D01*
X6646625Y11736117D01*
X6416703Y11392014D01*
X6363630Y11263883D01*
X6353244Y11238810D01*
X6272506Y10832913D01*
X5646245Y10832913D01*
X5747778Y10934268D01*
X5846943Y11173084D01*
X5847168Y11431670D01*
X5748420Y11670658D01*
X5565732Y11853666D01*
X5326916Y11952831D01*
X5068330Y11953056D01*
X4829342Y11854308D01*
X4646334Y11671620D01*
X4547169Y11432804D01*
X4546944Y11174218D01*
X3812092Y11174218D01*
X3629860Y11249887D01*
X3371274Y11250112D01*
X3132286Y11151364D01*
X2949278Y10968676D01*
X2850113Y10729860D01*
X2849888Y10471274D01*
X425000Y10471274D01*
X425000Y11174218D01*
X1152832Y11174218D01*
X1251580Y10935230D01*
X1434268Y10752222D01*
X1673084Y10653057D01*
X1931670Y10652832D01*
X2170658Y10751580D01*
X2353666Y10934268D01*
X2452831Y11173084D01*
X2453056Y11431670D01*
X2354308Y11670658D01*
X2171620Y11853666D01*
X1932804Y11952831D01*
X1674218Y11953056D01*
X1435230Y11854308D01*
X1252222Y11671620D01*
X1153057Y11432804D01*
X1152832Y11174218D01*
X425000Y11174218D01*
X425000Y12871274D01*
X449888Y12871274D01*
X548636Y12632286D01*
X731324Y12449278D01*
X970140Y12350113D01*
X1228726Y12349888D01*
X1467714Y12448636D01*
X1650722Y12631324D01*
X1749887Y12870140D01*
X1749887Y12871274D01*
X5249888Y12871274D01*
X5348636Y12632286D01*
X5531324Y12449278D01*
X5770140Y12350113D01*
X6028726Y12349888D01*
X6267714Y12448636D01*
X6450722Y12631324D01*
X6549887Y12870140D01*
X6550112Y13128726D01*
X6451364Y13367714D01*
X6447811Y13371274D01*
X10449888Y13371274D01*
X10548636Y13132286D01*
X10731324Y12949278D01*
X10970140Y12850113D01*
X11228726Y12849888D01*
X11467714Y12948636D01*
X11650722Y13131324D01*
X11749887Y13370140D01*
X11749887Y13371274D01*
X15249888Y13371274D01*
X15348636Y13132286D01*
X15531324Y12949278D01*
X15770140Y12850113D01*
X16028726Y12849888D01*
X16267714Y12948636D01*
X16450722Y13131324D01*
X16549887Y13370140D01*
X16550112Y13628726D01*
X16451364Y13867714D01*
X16268676Y14050722D01*
X16029860Y14149887D01*
X15771274Y14150112D01*
X15532286Y14051364D01*
X15349278Y13868676D01*
X15250113Y13629860D01*
X15249888Y13371274D01*
X11749887Y13371274D01*
X11750112Y13628726D01*
X11651364Y13867714D01*
X11468676Y14050722D01*
X11229860Y14149887D01*
X10971274Y14150112D01*
X10732286Y14051364D01*
X10549278Y13868676D01*
X10450113Y13629860D01*
X10449888Y13371274D01*
X6447811Y13371274D01*
X6268676Y13550722D01*
X6029860Y13649887D01*
X5771274Y13650112D01*
X5532286Y13551364D01*
X5349278Y13368676D01*
X5250113Y13129860D01*
X5249888Y12871274D01*
X1749887Y12871274D01*
X1750112Y13128726D01*
X1651364Y13367714D01*
X1468676Y13550722D01*
X1229860Y13649887D01*
X971274Y13650112D01*
X732286Y13551364D01*
X549278Y13368676D01*
X450113Y13129860D01*
X449888Y12871274D01*
X425000Y12871274D01*
X425000Y14568330D01*
X1152832Y14568330D01*
X1251580Y14329342D01*
X1434268Y14146334D01*
X1673084Y14047169D01*
X1931670Y14046944D01*
X2170658Y14145692D01*
X2353666Y14328380D01*
X2452831Y14567196D01*
X2452831Y14568330D01*
X4546944Y14568330D01*
X4645692Y14329342D01*
X4828380Y14146334D01*
X5067196Y14047169D01*
X5325782Y14046944D01*
X5564770Y14145692D01*
X5747778Y14328380D01*
X5846943Y14567196D01*
X5847168Y14825782D01*
X5748420Y15064770D01*
X5565732Y15247778D01*
X5326916Y15346943D01*
X5068330Y15347168D01*
X4829342Y15248420D01*
X4646334Y15065732D01*
X4547169Y14826916D01*
X4546944Y14568330D01*
X2452831Y14568330D01*
X2453056Y14825782D01*
X2354308Y15064770D01*
X2171620Y15247778D01*
X2115036Y15271274D01*
X2849888Y15271274D01*
X2948636Y15032286D01*
X3131324Y14849278D01*
X3370140Y14750113D01*
X3628726Y14749888D01*
X3867714Y14848636D01*
X4050722Y15031324D01*
X4149887Y15270140D01*
X4150112Y15528726D01*
X4051364Y15767714D01*
X3868676Y15950722D01*
X3629860Y16049887D01*
X3371274Y16050112D01*
X3132286Y15951364D01*
X2949278Y15768676D01*
X2850113Y15529860D01*
X2849888Y15271274D01*
X2115036Y15271274D01*
X1932804Y15346943D01*
X1674218Y15347168D01*
X1435230Y15248420D01*
X1252222Y15065732D01*
X1153057Y14826916D01*
X1152832Y14568330D01*
X425000Y14568330D01*
X425000Y41750000D01*
X5575000Y41750000D01*
X5575000Y16250000D01*
X5583166Y16208947D01*
X5583166Y16167087D01*
X5659286Y15784404D01*
X5659286Y15784403D01*
X5722745Y15631200D01*
X5939518Y15306776D01*
X6056776Y15189518D01*
X6381197Y14972748D01*
X6381200Y14972745D01*
X6489531Y14927873D01*
X6534403Y14909286D01*
X6534404Y14909286D01*
X6917087Y14833166D01*
X7082913Y14833166D01*
X7465596Y14909286D01*
X7465597Y14909286D01*
X7618800Y14972745D01*
X7761853Y15068330D01*
X11152832Y15068330D01*
X11251580Y14829342D01*
X11434268Y14646334D01*
X11673084Y14547169D01*
X11931670Y14546944D01*
X12170658Y14645692D01*
X12353666Y14828380D01*
X12452831Y15067196D01*
X12452831Y15068330D01*
X14546944Y15068330D01*
X14645692Y14829342D01*
X14828380Y14646334D01*
X15067196Y14547169D01*
X15325782Y14546944D01*
X15564770Y14645692D01*
X15747778Y14828380D01*
X15846943Y15067196D01*
X15847168Y15325782D01*
X15748420Y15564770D01*
X15565732Y15747778D01*
X15326916Y15846943D01*
X15068330Y15847168D01*
X14829342Y15748420D01*
X14646334Y15565732D01*
X14547169Y15326916D01*
X14546944Y15068330D01*
X12452831Y15068330D01*
X12453056Y15325782D01*
X12354308Y15564770D01*
X12171620Y15747778D01*
X12115036Y15771274D01*
X12849888Y15771274D01*
X12948636Y15532286D01*
X13131324Y15349278D01*
X13370140Y15250113D01*
X13628726Y15249888D01*
X13867714Y15348636D01*
X14050722Y15531324D01*
X14149887Y15770140D01*
X14150112Y16028726D01*
X14051364Y16267714D01*
X13868676Y16450722D01*
X13629860Y16549887D01*
X13371274Y16550112D01*
X13132286Y16451364D01*
X12949278Y16268676D01*
X12850113Y16029860D01*
X12849888Y15771274D01*
X12115036Y15771274D01*
X11932804Y15846943D01*
X11674218Y15847168D01*
X11435230Y15748420D01*
X11252222Y15565732D01*
X11153057Y15326916D01*
X11152832Y15068330D01*
X7761853Y15068330D01*
X7943224Y15189518D01*
X8060482Y15306776D01*
X8277252Y15631197D01*
X8277255Y15631200D01*
X8333801Y15767714D01*
X8340714Y15784403D01*
X8340714Y15784404D01*
X8416834Y16167087D01*
X8416834Y16208947D01*
X8425000Y16250000D01*
X8425000Y26519501D01*
X16415948Y26519501D01*
X16455697Y26000667D01*
X16577773Y25705947D01*
X16802697Y25640486D01*
X17522211Y26360000D01*
X16802697Y27079514D01*
X16577773Y27014053D01*
X16415948Y26519501D01*
X8425000Y26519501D01*
X8425000Y27297303D01*
X17020486Y27297303D01*
X17740000Y26577789D01*
X17754142Y26591931D01*
X17971931Y26374142D01*
X17957789Y26360000D01*
X17971931Y26345858D01*
X17754142Y26128069D01*
X17740000Y26142211D01*
X17020486Y25422697D01*
X17085947Y25197773D01*
X17580499Y25035948D01*
X18099333Y25075697D01*
X18394053Y25197773D01*
X18459513Y25422695D01*
X18525000Y25357208D01*
X18525000Y23750000D01*
X18561157Y23568225D01*
X18664124Y23414124D01*
X32664124Y9414124D01*
X32818225Y9311157D01*
X33000000Y9275000D01*
X33805734Y9275000D01*
X33881324Y9199278D01*
X34120140Y9100113D01*
X34378726Y9099888D01*
X34617714Y9198636D01*
X34800722Y9381324D01*
X34875061Y9560352D01*
X34948636Y9382286D01*
X35131324Y9199278D01*
X35370140Y9100113D01*
X35628726Y9099888D01*
X35867714Y9198636D01*
X36050722Y9381324D01*
X36125061Y9560352D01*
X36198636Y9382286D01*
X36381324Y9199278D01*
X36620140Y9100113D01*
X36878726Y9099888D01*
X37117714Y9198636D01*
X37300722Y9381324D01*
X37399887Y9620140D01*
X37399981Y9728229D01*
X37910888Y10239136D01*
X38013855Y10393237D01*
X38050012Y10575012D01*
X38050012Y10971274D01*
X43849888Y10971274D01*
X43948636Y10732286D01*
X44131324Y10549278D01*
X44370140Y10450113D01*
X44628726Y10449888D01*
X44867714Y10548636D01*
X45050722Y10731324D01*
X45149887Y10970140D01*
X45150112Y11228726D01*
X45051364Y11467714D01*
X44868676Y11650722D01*
X44812092Y11674218D01*
X45546944Y11674218D01*
X45645692Y11435230D01*
X45828380Y11252222D01*
X46067196Y11153057D01*
X46325782Y11152832D01*
X46564770Y11251580D01*
X46747778Y11434268D01*
X46846943Y11673084D01*
X46847168Y11931670D01*
X46748420Y12170658D01*
X46565732Y12353666D01*
X46326916Y12452831D01*
X46068330Y12453056D01*
X45829342Y12354308D01*
X45646334Y12171620D01*
X45547169Y11932804D01*
X45546944Y11674218D01*
X44812092Y11674218D01*
X44629860Y11749887D01*
X44371274Y11750112D01*
X44132286Y11651364D01*
X43949278Y11468676D01*
X43850113Y11229860D01*
X43849888Y10971274D01*
X38050012Y10971274D01*
X38050012Y11674218D01*
X42152832Y11674218D01*
X42251580Y11435230D01*
X42434268Y11252222D01*
X42673084Y11153057D01*
X42931670Y11152832D01*
X43170658Y11251580D01*
X43353666Y11434268D01*
X43452831Y11673084D01*
X43453056Y11931670D01*
X43354308Y12170658D01*
X43171620Y12353666D01*
X42932804Y12452831D01*
X42674218Y12453056D01*
X42435230Y12354308D01*
X42252222Y12171620D01*
X42153057Y11932804D01*
X42152832Y11674218D01*
X38050012Y11674218D01*
X38050012Y17674983D01*
X38050013Y17674988D01*
X38013855Y17856762D01*
X38013855Y17856763D01*
X37910888Y18010864D01*
X31473541Y24448211D01*
X31586163Y24371259D01*
X31725000Y24343144D01*
X33475000Y24343144D01*
X33604702Y24367549D01*
X33669197Y24409051D01*
X35643144Y22435104D01*
X35643144Y22050000D01*
X35667549Y21920298D01*
X35744203Y21801175D01*
X35861163Y21721259D01*
X36000000Y21693144D01*
X36500000Y21693144D01*
X36629702Y21717549D01*
X36748825Y21794203D01*
X36828741Y21911163D01*
X36856856Y22050000D01*
X36856856Y22950000D01*
X36832451Y23079702D01*
X36755797Y23198825D01*
X36638837Y23278741D01*
X36500000Y23306856D01*
X36114896Y23306856D01*
X35396752Y24025000D01*
X35647848Y24025000D01*
X35667549Y23920298D01*
X35744203Y23801175D01*
X35861163Y23721259D01*
X36000000Y23693144D01*
X36500000Y23693144D01*
X36629702Y23717549D01*
X36748825Y23794203D01*
X36828741Y23911163D01*
X36856856Y24050000D01*
X36856856Y24950000D01*
X36832451Y25079702D01*
X36755797Y25198825D01*
X36638837Y25278741D01*
X36500000Y25306856D01*
X36000000Y25306856D01*
X35870298Y25282451D01*
X35751175Y25205797D01*
X35671259Y25088837D01*
X35648207Y24975000D01*
X35196751Y24975000D01*
X34421752Y25750000D01*
X39661846Y25750000D01*
X39666922Y25737714D01*
X39976087Y25428009D01*
X40380237Y25260192D01*
X40817844Y25259810D01*
X41222286Y25426922D01*
X41531991Y25736087D01*
X41696347Y26131902D01*
X43025000Y24803249D01*
X43025000Y22944266D01*
X42949278Y22868676D01*
X42850113Y22629860D01*
X42849888Y22371274D01*
X42948636Y22132286D01*
X43025000Y22055788D01*
X43025000Y21894124D01*
X42868676Y22050722D01*
X42629860Y22149887D01*
X42371274Y22150112D01*
X42132286Y22051364D01*
X42055788Y21975000D01*
X40196751Y21975000D01*
X38301077Y23870675D01*
X38328741Y23911163D01*
X38356856Y24050000D01*
X38356856Y24950000D01*
X38332451Y25079702D01*
X38255797Y25198825D01*
X38138837Y25278741D01*
X38000000Y25306856D01*
X37500000Y25306856D01*
X37370298Y25282451D01*
X37251175Y25205797D01*
X37171259Y25088837D01*
X37143144Y24950000D01*
X37143144Y24050000D01*
X37167549Y23920298D01*
X37244203Y23801175D01*
X37275000Y23780132D01*
X37275000Y23750000D01*
X37311157Y23568225D01*
X37414124Y23414124D01*
X37521392Y23306856D01*
X37500000Y23306856D01*
X37370298Y23282451D01*
X37251175Y23205797D01*
X37171259Y23088837D01*
X37143144Y22950000D01*
X37143144Y22050000D01*
X37167549Y21920298D01*
X37244203Y21801175D01*
X37361163Y21721259D01*
X37500000Y21693144D01*
X38000000Y21693144D01*
X38113709Y21714540D01*
X40664122Y19164127D01*
X40664124Y19164124D01*
X40818225Y19061157D01*
X40848384Y19055158D01*
X41000000Y19024999D01*
X41000005Y19025000D01*
X42305734Y19025000D01*
X42381324Y18949278D01*
X42620140Y18850113D01*
X42878726Y18849888D01*
X42962927Y18884679D01*
X38664124Y14585876D01*
X38561157Y14431775D01*
X38525000Y14250000D01*
X38525000Y13944266D01*
X38449278Y13868676D01*
X38350113Y13629860D01*
X38349888Y13371274D01*
X38448636Y13132286D01*
X38631324Y12949278D01*
X38870140Y12850113D01*
X39128726Y12849888D01*
X39367714Y12948636D01*
X39550722Y13131324D01*
X39649887Y13370140D01*
X39649887Y13371274D01*
X41449888Y13371274D01*
X41548636Y13132286D01*
X41731324Y12949278D01*
X41970140Y12850113D01*
X42228726Y12849888D01*
X42467714Y12948636D01*
X42650722Y13131324D01*
X42749887Y13370140D01*
X42749887Y13371274D01*
X46249888Y13371274D01*
X46348636Y13132286D01*
X46531324Y12949278D01*
X46770140Y12850113D01*
X47028726Y12849888D01*
X47080483Y12871274D01*
X51449888Y12871274D01*
X51548636Y12632286D01*
X51731324Y12449278D01*
X51970140Y12350113D01*
X52228726Y12349888D01*
X52467714Y12448636D01*
X52650722Y12631324D01*
X52749887Y12870140D01*
X52749887Y12871274D01*
X56249888Y12871274D01*
X56348636Y12632286D01*
X56531324Y12449278D01*
X56770140Y12350113D01*
X57028726Y12349888D01*
X57267714Y12448636D01*
X57450722Y12631324D01*
X57549887Y12870140D01*
X57550112Y13128726D01*
X57451364Y13367714D01*
X57268676Y13550722D01*
X57029860Y13649887D01*
X56771274Y13650112D01*
X56532286Y13551364D01*
X56349278Y13368676D01*
X56250113Y13129860D01*
X56249888Y12871274D01*
X52749887Y12871274D01*
X52750112Y13128726D01*
X52651364Y13367714D01*
X52468676Y13550722D01*
X52229860Y13649887D01*
X51971274Y13650112D01*
X51732286Y13551364D01*
X51549278Y13368676D01*
X51450113Y13129860D01*
X51449888Y12871274D01*
X47080483Y12871274D01*
X47267714Y12948636D01*
X47450722Y13131324D01*
X47549887Y13370140D01*
X47550112Y13628726D01*
X47451364Y13867714D01*
X47268676Y14050722D01*
X47029860Y14149887D01*
X46771274Y14150112D01*
X46532286Y14051364D01*
X46349278Y13868676D01*
X46250113Y13629860D01*
X46249888Y13371274D01*
X42749887Y13371274D01*
X42750112Y13628726D01*
X42651364Y13867714D01*
X42468676Y14050722D01*
X42229860Y14149887D01*
X41971274Y14150112D01*
X41732286Y14051364D01*
X41549278Y13868676D01*
X41450113Y13629860D01*
X41449888Y13371274D01*
X39649887Y13371274D01*
X39650112Y13628726D01*
X39551364Y13867714D01*
X39475000Y13944212D01*
X39475000Y14053248D01*
X40490082Y15068330D01*
X42152832Y15068330D01*
X42251580Y14829342D01*
X42434268Y14646334D01*
X42673084Y14547169D01*
X42931670Y14546944D01*
X43170658Y14645692D01*
X43353666Y14828380D01*
X43452831Y15067196D01*
X43452831Y15068330D01*
X45546944Y15068330D01*
X45645692Y14829342D01*
X45828380Y14646334D01*
X46067196Y14547169D01*
X46325782Y14546944D01*
X46377539Y14568330D01*
X52152832Y14568330D01*
X52251580Y14329342D01*
X52434268Y14146334D01*
X52673084Y14047169D01*
X52931670Y14046944D01*
X53170658Y14145692D01*
X53353666Y14328380D01*
X53452831Y14567196D01*
X53452831Y14568330D01*
X55546944Y14568330D01*
X55645692Y14329342D01*
X55828380Y14146334D01*
X56067196Y14047169D01*
X56325782Y14046944D01*
X56564770Y14145692D01*
X56747778Y14328380D01*
X56846943Y14567196D01*
X56847168Y14825782D01*
X56748420Y15064770D01*
X56565732Y15247778D01*
X56326916Y15346943D01*
X56068330Y15347168D01*
X55829342Y15248420D01*
X55646334Y15065732D01*
X55547169Y14826916D01*
X55546944Y14568330D01*
X53452831Y14568330D01*
X53453056Y14825782D01*
X53354308Y15064770D01*
X53171620Y15247778D01*
X53115036Y15271274D01*
X53849888Y15271274D01*
X53948636Y15032286D01*
X54131324Y14849278D01*
X54370140Y14750113D01*
X54628726Y14749888D01*
X54867714Y14848636D01*
X55050722Y15031324D01*
X55149887Y15270140D01*
X55150112Y15528726D01*
X55051364Y15767714D01*
X54868676Y15950722D01*
X54629860Y16049887D01*
X54371274Y16050112D01*
X54132286Y15951364D01*
X53949278Y15768676D01*
X53850113Y15529860D01*
X53849888Y15271274D01*
X53115036Y15271274D01*
X52932804Y15346943D01*
X52674218Y15347168D01*
X52435230Y15248420D01*
X52252222Y15065732D01*
X52153057Y14826916D01*
X52152832Y14568330D01*
X46377539Y14568330D01*
X46564770Y14645692D01*
X46747778Y14828380D01*
X46846943Y15067196D01*
X46847168Y15325782D01*
X46748420Y15564770D01*
X46565732Y15747778D01*
X46326916Y15846943D01*
X46068330Y15847168D01*
X45829342Y15748420D01*
X45646334Y15565732D01*
X45547169Y15326916D01*
X45546944Y15068330D01*
X43452831Y15068330D01*
X43453056Y15325782D01*
X43354308Y15564770D01*
X43171620Y15747778D01*
X43115036Y15771274D01*
X43849888Y15771274D01*
X43948636Y15532286D01*
X44131324Y15349278D01*
X44370140Y15250113D01*
X44628726Y15249888D01*
X44867714Y15348636D01*
X45050722Y15531324D01*
X45149887Y15770140D01*
X45150112Y16028726D01*
X45051364Y16267714D01*
X44868676Y16450722D01*
X44629860Y16549887D01*
X44371274Y16550112D01*
X44132286Y16451364D01*
X43949278Y16268676D01*
X43850113Y16029860D01*
X43849888Y15771274D01*
X43115036Y15771274D01*
X42932804Y15846943D01*
X42674218Y15847168D01*
X42435230Y15748420D01*
X42252222Y15565732D01*
X42153057Y15326916D01*
X42152832Y15068330D01*
X40490082Y15068330D01*
X43835876Y18414124D01*
X43938843Y18568225D01*
X43975000Y18750000D01*
X43975000Y22055734D01*
X44050722Y22131324D01*
X44149887Y22370140D01*
X44150112Y22628726D01*
X44051364Y22867714D01*
X43975000Y22944212D01*
X43975000Y25000000D01*
X43938843Y25181775D01*
X43835876Y25335876D01*
X43835873Y25335878D01*
X40335876Y28835876D01*
X40181775Y28938843D01*
X40000000Y28975000D01*
X38352152Y28975000D01*
X38332451Y29079702D01*
X38255797Y29198825D01*
X38138837Y29278741D01*
X38000000Y29306856D01*
X37500000Y29306856D01*
X37370298Y29282451D01*
X37251175Y29205797D01*
X37171259Y29088837D01*
X37143144Y28950000D01*
X37143144Y28050000D01*
X37167549Y27920298D01*
X37244203Y27801175D01*
X37361163Y27721259D01*
X37500000Y27693144D01*
X38000000Y27693144D01*
X38129702Y27717549D01*
X38248825Y27794203D01*
X38328741Y27911163D01*
X38351793Y28025000D01*
X39803248Y28025000D01*
X40372180Y27456068D01*
X39977714Y27293078D01*
X39668009Y26983913D01*
X39550119Y26700000D01*
X33831856Y26700000D01*
X33831856Y27050000D01*
X35475000Y27050000D01*
X35656775Y27086157D01*
X35810876Y27189124D01*
X36314895Y27693144D01*
X36500000Y27693144D01*
X36629702Y27717549D01*
X36748825Y27794203D01*
X36828741Y27911163D01*
X36856856Y28050000D01*
X36856856Y28950000D01*
X36832451Y29079702D01*
X36755797Y29198825D01*
X36638837Y29278741D01*
X36500000Y29306856D01*
X36000000Y29306856D01*
X35870298Y29282451D01*
X35751175Y29205797D01*
X35671259Y29088837D01*
X35643144Y28950000D01*
X35643144Y28364895D01*
X35278248Y28000000D01*
X33831856Y28000000D01*
X33831856Y28097014D01*
X33990438Y28255596D01*
X34083000Y28479062D01*
X34083000Y28560500D01*
X33931000Y28712500D01*
X33766140Y28712500D01*
X33819405Y28734563D01*
X33990438Y28905596D01*
X34055026Y29061526D01*
X34083000Y29089500D01*
X34083000Y29210500D01*
X34055026Y29238474D01*
X33990438Y29394404D01*
X33909842Y29475000D01*
X33990438Y29555596D01*
X34055026Y29711526D01*
X34083000Y29739500D01*
X34083000Y29860500D01*
X34055026Y29888474D01*
X33990438Y30044404D01*
X33909842Y30125000D01*
X33990438Y30205596D01*
X34055026Y30361526D01*
X34083000Y30389500D01*
X34083000Y30510500D01*
X34055026Y30538474D01*
X33990438Y30694404D01*
X33819405Y30865437D01*
X33766140Y30887500D01*
X33931000Y30887500D01*
X34083000Y31039500D01*
X34083000Y31120938D01*
X33990438Y31344404D01*
X33819405Y31515437D01*
X33595939Y31608000D01*
X32906000Y31608000D01*
X32754000Y31456000D01*
X32754000Y30887500D01*
X32835500Y30887500D01*
X32754000Y30806000D01*
X32754000Y29301000D01*
X32446000Y29301000D01*
X32446000Y30806000D01*
X32364500Y30887500D01*
X32446000Y30887500D01*
X32446000Y31456000D01*
X32294000Y31608000D01*
X31604061Y31608000D01*
X31380595Y31515437D01*
X31209562Y31344404D01*
X31117000Y31120938D01*
X31117000Y31039500D01*
X31269000Y30887500D01*
X31433860Y30887500D01*
X31380595Y30865437D01*
X31209562Y30694404D01*
X31144974Y30538474D01*
X31117000Y30510500D01*
X31117000Y30389500D01*
X31144974Y30361526D01*
X31209562Y30205596D01*
X31290158Y30125000D01*
X31209562Y30044404D01*
X31144974Y29888474D01*
X31117000Y29860500D01*
X31117000Y29739500D01*
X31144974Y29711526D01*
X31209562Y29555596D01*
X31290158Y29475000D01*
X31209562Y29394404D01*
X31144974Y29238474D01*
X31117000Y29210500D01*
X31117000Y29089500D01*
X31144974Y29061526D01*
X31209562Y28905596D01*
X31380595Y28734563D01*
X31433860Y28712500D01*
X31269000Y28712500D01*
X31117000Y28560500D01*
X31117000Y28488751D01*
X29514157Y26885909D01*
X29431848Y26762726D01*
X27033698Y29160876D01*
X26879597Y29263843D01*
X26697822Y29300000D01*
X26631856Y29300000D01*
X26631856Y29700000D01*
X26612349Y29803671D01*
X26631856Y29900000D01*
X26631856Y30047014D01*
X26790438Y30205596D01*
X26883000Y30429062D01*
X26883000Y30510500D01*
X26731000Y30662500D01*
X26437606Y30662500D01*
X26413837Y30678741D01*
X26275000Y30706856D01*
X24525000Y30706856D01*
X24395298Y30682451D01*
X24364293Y30662500D01*
X24069000Y30662500D01*
X24006500Y30600000D01*
X23554352Y30600000D01*
X23033414Y31120938D01*
X23917000Y31120938D01*
X23917000Y31039500D01*
X24069000Y30887500D01*
X25246000Y30887500D01*
X25246000Y31456000D01*
X25554000Y31456000D01*
X25554000Y30887500D01*
X26731000Y30887500D01*
X26883000Y31039500D01*
X26883000Y31120938D01*
X26790438Y31344404D01*
X26619405Y31515437D01*
X26395939Y31608000D01*
X25706000Y31608000D01*
X25554000Y31456000D01*
X25246000Y31456000D01*
X25094000Y31608000D01*
X24404061Y31608000D01*
X24180595Y31515437D01*
X24009562Y31344404D01*
X23917000Y31120938D01*
X23033414Y31120938D01*
X22474456Y31679896D01*
X22474456Y32635000D01*
X22450051Y32764702D01*
X22373397Y32883825D01*
X22256437Y32963741D01*
X22117600Y32991856D01*
X21152400Y32991856D01*
X21022698Y32967451D01*
X21001227Y32953635D01*
X20986437Y32963741D01*
X20847600Y32991856D01*
X19882400Y32991856D01*
X19752698Y32967451D01*
X19633575Y32890797D01*
X19553659Y32773837D01*
X19525544Y32635000D01*
X19525544Y31679895D01*
X18664124Y30818476D01*
X18561157Y30664375D01*
X18525000Y30482600D01*
X18525000Y27362792D01*
X18459513Y27297305D01*
X18394053Y27522227D01*
X17899501Y27684052D01*
X17380667Y27644303D01*
X17085947Y27522227D01*
X17020486Y27297303D01*
X8425000Y27297303D01*
X8425000Y41750000D01*
X8416834Y41791053D01*
X8416834Y41832913D01*
X8389313Y41971274D01*
X12849888Y41971274D01*
X12948636Y41732286D01*
X13131324Y41549278D01*
X13370140Y41450113D01*
X13628726Y41449888D01*
X13867714Y41548636D01*
X14050722Y41731324D01*
X14149887Y41970140D01*
X14149887Y41971274D01*
X43849888Y41971274D01*
X43948636Y41732286D01*
X44131324Y41549278D01*
X44370140Y41450113D01*
X44628726Y41449888D01*
X44867714Y41548636D01*
X45050722Y41731324D01*
X45058476Y41750000D01*
X49575000Y41750000D01*
X49575000Y16250000D01*
X49583166Y16208947D01*
X49583166Y16167087D01*
X49659286Y15784404D01*
X49659286Y15784403D01*
X49722745Y15631200D01*
X49939518Y15306776D01*
X50056776Y15189518D01*
X50381197Y14972748D01*
X50381200Y14972745D01*
X50489531Y14927873D01*
X50534403Y14909286D01*
X50534404Y14909286D01*
X50917087Y14833166D01*
X51082913Y14833166D01*
X51465596Y14909286D01*
X51465597Y14909286D01*
X51618800Y14972745D01*
X51943224Y15189518D01*
X52060482Y15306776D01*
X52277252Y15631197D01*
X52277255Y15631200D01*
X52333801Y15767714D01*
X52340714Y15784403D01*
X52340714Y15784404D01*
X52416834Y16167087D01*
X52416834Y16208947D01*
X52425000Y16250000D01*
X52425000Y41750000D01*
X52416834Y41791053D01*
X52416834Y41832913D01*
X52340714Y42215596D01*
X52335276Y42228726D01*
X52297259Y42320505D01*
X52277255Y42368800D01*
X52277252Y42368803D01*
X52208784Y42471274D01*
X53849888Y42471274D01*
X53948636Y42232286D01*
X54131324Y42049278D01*
X54370140Y41950113D01*
X54628726Y41949888D01*
X54867714Y42048636D01*
X55050722Y42231324D01*
X55149887Y42470140D01*
X55150112Y42728726D01*
X55051364Y42967714D01*
X54868676Y43150722D01*
X54812092Y43174218D01*
X55546944Y43174218D01*
X55645692Y42935230D01*
X55828380Y42752222D01*
X56067196Y42653057D01*
X56325782Y42652832D01*
X56564770Y42751580D01*
X56747778Y42934268D01*
X56846943Y43173084D01*
X56847168Y43431670D01*
X56748420Y43670658D01*
X56565732Y43853666D01*
X56326916Y43952831D01*
X56068330Y43953056D01*
X55829342Y43854308D01*
X55646334Y43671620D01*
X55547169Y43432804D01*
X55546944Y43174218D01*
X54812092Y43174218D01*
X54629860Y43249887D01*
X54371274Y43250112D01*
X54132286Y43151364D01*
X53949278Y42968676D01*
X53850113Y42729860D01*
X53849888Y42471274D01*
X52208784Y42471274D01*
X52060482Y42693224D01*
X51943224Y42810482D01*
X51618800Y43027255D01*
X51465597Y43090714D01*
X51465596Y43090714D01*
X51082913Y43166834D01*
X50917087Y43166834D01*
X50534404Y43090714D01*
X50489531Y43072127D01*
X50381200Y43027255D01*
X50381197Y43027252D01*
X50056776Y42810482D01*
X49939518Y42693224D01*
X49722745Y42368800D01*
X49661520Y42220990D01*
X49659286Y42215596D01*
X49583166Y41832913D01*
X49583166Y41791053D01*
X49575000Y41750000D01*
X45058476Y41750000D01*
X45149887Y41970140D01*
X45150112Y42228726D01*
X45051364Y42467714D01*
X44868676Y42650722D01*
X44812092Y42674218D01*
X45546944Y42674218D01*
X45645692Y42435230D01*
X45828380Y42252222D01*
X46067196Y42153057D01*
X46325782Y42152832D01*
X46564770Y42251580D01*
X46747778Y42434268D01*
X46846943Y42673084D01*
X46847168Y42931670D01*
X46748420Y43170658D01*
X46744867Y43174218D01*
X52152832Y43174218D01*
X52251580Y42935230D01*
X52434268Y42752222D01*
X52673084Y42653057D01*
X52931670Y42652832D01*
X53170658Y42751580D01*
X53353666Y42934268D01*
X53452831Y43173084D01*
X53453056Y43431670D01*
X53354308Y43670658D01*
X53171620Y43853666D01*
X52932804Y43952831D01*
X52674218Y43953056D01*
X52435230Y43854308D01*
X52252222Y43671620D01*
X52153057Y43432804D01*
X52152832Y43174218D01*
X46744867Y43174218D01*
X46565732Y43353666D01*
X46326916Y43452831D01*
X46068330Y43453056D01*
X45829342Y43354308D01*
X45646334Y43171620D01*
X45547169Y42932804D01*
X45546944Y42674218D01*
X44812092Y42674218D01*
X44629860Y42749887D01*
X44371274Y42750112D01*
X44132286Y42651364D01*
X43949278Y42468676D01*
X43850113Y42229860D01*
X43849888Y41971274D01*
X14149887Y41971274D01*
X14150112Y42228726D01*
X14051364Y42467714D01*
X13868676Y42650722D01*
X13812092Y42674218D01*
X14546944Y42674218D01*
X14645692Y42435230D01*
X14828380Y42252222D01*
X15067196Y42153057D01*
X15325782Y42152832D01*
X15564770Y42251580D01*
X15747778Y42434268D01*
X15846943Y42673084D01*
X15846943Y42674218D01*
X42152832Y42674218D01*
X42251580Y42435230D01*
X42434268Y42252222D01*
X42673084Y42153057D01*
X42931670Y42152832D01*
X43170658Y42251580D01*
X43353666Y42434268D01*
X43452831Y42673084D01*
X43453056Y42931670D01*
X43354308Y43170658D01*
X43171620Y43353666D01*
X42932804Y43452831D01*
X42674218Y43453056D01*
X42435230Y43354308D01*
X42252222Y43171620D01*
X42153057Y42932804D01*
X42152832Y42674218D01*
X15846943Y42674218D01*
X15847168Y42931670D01*
X15748420Y43170658D01*
X15565732Y43353666D01*
X15326916Y43452831D01*
X15068330Y43453056D01*
X14829342Y43354308D01*
X14646334Y43171620D01*
X14547169Y42932804D01*
X14546944Y42674218D01*
X13812092Y42674218D01*
X13629860Y42749887D01*
X13371274Y42750112D01*
X13132286Y42651364D01*
X12949278Y42468676D01*
X12850113Y42229860D01*
X12849888Y41971274D01*
X8389313Y41971274D01*
X8340714Y42215596D01*
X8335276Y42228726D01*
X8297259Y42320505D01*
X8277255Y42368800D01*
X8277252Y42368803D01*
X8073182Y42674218D01*
X11152832Y42674218D01*
X11251580Y42435230D01*
X11434268Y42252222D01*
X11673084Y42153057D01*
X11931670Y42152832D01*
X12170658Y42251580D01*
X12353666Y42434268D01*
X12452831Y42673084D01*
X12453056Y42931670D01*
X12354308Y43170658D01*
X12171620Y43353666D01*
X11932804Y43452831D01*
X11674218Y43453056D01*
X11435230Y43354308D01*
X11252222Y43171620D01*
X11153057Y42932804D01*
X11152832Y42674218D01*
X8073182Y42674218D01*
X8060482Y42693224D01*
X7943224Y42810482D01*
X7618800Y43027255D01*
X7465597Y43090714D01*
X7465596Y43090714D01*
X7082913Y43166834D01*
X6917087Y43166834D01*
X6534404Y43090714D01*
X6489531Y43072127D01*
X6381200Y43027255D01*
X6381197Y43027252D01*
X6056776Y42810482D01*
X5939518Y42693224D01*
X5722745Y42368800D01*
X5661520Y42220990D01*
X5659286Y42215596D01*
X5583166Y41832913D01*
X5583166Y41791053D01*
X5575000Y41750000D01*
X425000Y41750000D01*
X425000Y42471274D01*
X2849888Y42471274D01*
X2948636Y42232286D01*
X3131324Y42049278D01*
X3370140Y41950113D01*
X3628726Y41949888D01*
X3867714Y42048636D01*
X4050722Y42231324D01*
X4149887Y42470140D01*
X4150112Y42728726D01*
X4051364Y42967714D01*
X3868676Y43150722D01*
X3812092Y43174218D01*
X4546944Y43174218D01*
X4645692Y42935230D01*
X4828380Y42752222D01*
X5067196Y42653057D01*
X5325782Y42652832D01*
X5564770Y42751580D01*
X5747778Y42934268D01*
X5846943Y43173084D01*
X5847168Y43431670D01*
X5748420Y43670658D01*
X5565732Y43853666D01*
X5326916Y43952831D01*
X5068330Y43953056D01*
X4829342Y43854308D01*
X4646334Y43671620D01*
X4547169Y43432804D01*
X4546944Y43174218D01*
X3812092Y43174218D01*
X3629860Y43249887D01*
X3371274Y43250112D01*
X3132286Y43151364D01*
X2949278Y42968676D01*
X2850113Y42729860D01*
X2849888Y42471274D01*
X425000Y42471274D01*
X425000Y43174218D01*
X1152832Y43174218D01*
X1251580Y42935230D01*
X1434268Y42752222D01*
X1673084Y42653057D01*
X1931670Y42652832D01*
X2170658Y42751580D01*
X2353666Y42934268D01*
X2452831Y43173084D01*
X2453056Y43431670D01*
X2354308Y43670658D01*
X2171620Y43853666D01*
X1932804Y43952831D01*
X1674218Y43953056D01*
X1435230Y43854308D01*
X1252222Y43671620D01*
X1153057Y43432804D01*
X1152832Y43174218D01*
X425000Y43174218D01*
X425000Y44871274D01*
X449888Y44871274D01*
X548636Y44632286D01*
X731324Y44449278D01*
X970140Y44350113D01*
X1228726Y44349888D01*
X1467714Y44448636D01*
X1650722Y44631324D01*
X1749887Y44870140D01*
X1749887Y44871274D01*
X5249888Y44871274D01*
X5348636Y44632286D01*
X5531324Y44449278D01*
X5770140Y44350113D01*
X6028726Y44349888D01*
X6080483Y44371274D01*
X10449888Y44371274D01*
X10548636Y44132286D01*
X10731324Y43949278D01*
X10970140Y43850113D01*
X11228726Y43849888D01*
X11467714Y43948636D01*
X11650722Y44131324D01*
X11749887Y44370140D01*
X11749887Y44371274D01*
X15249888Y44371274D01*
X15348636Y44132286D01*
X15531324Y43949278D01*
X15770140Y43850113D01*
X16028726Y43849888D01*
X16267714Y43948636D01*
X16450722Y44131324D01*
X16549887Y44370140D01*
X16549887Y44371274D01*
X41449888Y44371274D01*
X41548636Y44132286D01*
X41731324Y43949278D01*
X41970140Y43850113D01*
X42228726Y43849888D01*
X42467714Y43948636D01*
X42650722Y44131324D01*
X42749887Y44370140D01*
X42749887Y44371274D01*
X46249888Y44371274D01*
X46348636Y44132286D01*
X46531324Y43949278D01*
X46770140Y43850113D01*
X47028726Y43849888D01*
X47267714Y43948636D01*
X47450722Y44131324D01*
X47549887Y44370140D01*
X47550112Y44628726D01*
X47451364Y44867714D01*
X47447811Y44871274D01*
X51449888Y44871274D01*
X51548636Y44632286D01*
X51731324Y44449278D01*
X51970140Y44350113D01*
X52228726Y44349888D01*
X52467714Y44448636D01*
X52650722Y44631324D01*
X52749887Y44870140D01*
X52749887Y44871274D01*
X56249888Y44871274D01*
X56348636Y44632286D01*
X56531324Y44449278D01*
X56770140Y44350113D01*
X57028726Y44349888D01*
X57267714Y44448636D01*
X57450722Y44631324D01*
X57549887Y44870140D01*
X57550112Y45128726D01*
X57451364Y45367714D01*
X57268676Y45550722D01*
X57029860Y45649887D01*
X56771274Y45650112D01*
X56532286Y45551364D01*
X56349278Y45368676D01*
X56250113Y45129860D01*
X56249888Y44871274D01*
X52749887Y44871274D01*
X52750112Y45128726D01*
X52651364Y45367714D01*
X52468676Y45550722D01*
X52229860Y45649887D01*
X51971274Y45650112D01*
X51732286Y45551364D01*
X51549278Y45368676D01*
X51450113Y45129860D01*
X51449888Y44871274D01*
X47447811Y44871274D01*
X47268676Y45050722D01*
X47029860Y45149887D01*
X46771274Y45150112D01*
X46532286Y45051364D01*
X46349278Y44868676D01*
X46250113Y44629860D01*
X46249888Y44371274D01*
X42749887Y44371274D01*
X42750112Y44628726D01*
X42651364Y44867714D01*
X42468676Y45050722D01*
X42229860Y45149887D01*
X41971274Y45150112D01*
X41732286Y45051364D01*
X41549278Y44868676D01*
X41450113Y44629860D01*
X41449888Y44371274D01*
X16549887Y44371274D01*
X16550112Y44628726D01*
X16451364Y44867714D01*
X16268676Y45050722D01*
X16029860Y45149887D01*
X15771274Y45150112D01*
X15532286Y45051364D01*
X15349278Y44868676D01*
X15250113Y44629860D01*
X15249888Y44371274D01*
X11749887Y44371274D01*
X11750112Y44628726D01*
X11651364Y44867714D01*
X11468676Y45050722D01*
X11229860Y45149887D01*
X10971274Y45150112D01*
X10732286Y45051364D01*
X10549278Y44868676D01*
X10450113Y44629860D01*
X10449888Y44371274D01*
X6080483Y44371274D01*
X6267714Y44448636D01*
X6450722Y44631324D01*
X6549887Y44870140D01*
X6550112Y45128726D01*
X6451364Y45367714D01*
X6268676Y45550722D01*
X6029860Y45649887D01*
X5771274Y45650112D01*
X5532286Y45551364D01*
X5349278Y45368676D01*
X5250113Y45129860D01*
X5249888Y44871274D01*
X1749887Y44871274D01*
X1750112Y45128726D01*
X1651364Y45367714D01*
X1468676Y45550722D01*
X1229860Y45649887D01*
X971274Y45650112D01*
X732286Y45551364D01*
X549278Y45368676D01*
X450113Y45129860D01*
X449888Y44871274D01*
X425000Y44871274D01*
X425000Y46568330D01*
X1152832Y46568330D01*
X1251580Y46329342D01*
X1434268Y46146334D01*
X1673084Y46047169D01*
X1931670Y46046944D01*
X2170658Y46145692D01*
X2353666Y46328380D01*
X2452831Y46567196D01*
X2452831Y46568330D01*
X4546944Y46568330D01*
X4645692Y46329342D01*
X4828380Y46146334D01*
X5067196Y46047169D01*
X5325782Y46046944D01*
X5564770Y46145692D01*
X5747778Y46328380D01*
X5846943Y46567196D01*
X5847168Y46825782D01*
X5748420Y47064770D01*
X5565732Y47247778D01*
X5360705Y47332913D01*
X6272506Y47332913D01*
X6272506Y47167087D01*
X6353244Y46761190D01*
X6353244Y46761189D01*
X6416703Y46607986D01*
X6646625Y46263883D01*
X6763883Y46146625D01*
X7107986Y45916703D01*
X7261189Y45853244D01*
X7261190Y45853244D01*
X7667087Y45772506D01*
X7832913Y45772506D01*
X8238810Y45853244D01*
X8238811Y45853244D01*
X8392014Y45916703D01*
X8618940Y46068330D01*
X11152832Y46068330D01*
X11251580Y45829342D01*
X11434268Y45646334D01*
X11673084Y45547169D01*
X11931670Y45546944D01*
X12170658Y45645692D01*
X12353666Y45828380D01*
X12452831Y46067196D01*
X12452831Y46068330D01*
X14546944Y46068330D01*
X14645692Y45829342D01*
X14828380Y45646334D01*
X15067196Y45547169D01*
X15325782Y45546944D01*
X15564770Y45645692D01*
X15747778Y45828380D01*
X15846943Y46067196D01*
X15846943Y46068330D01*
X42152832Y46068330D01*
X42251580Y45829342D01*
X42434268Y45646334D01*
X42673084Y45547169D01*
X42931670Y45546944D01*
X43170658Y45645692D01*
X43353666Y45828380D01*
X43452831Y46067196D01*
X43452831Y46068330D01*
X45546944Y46068330D01*
X45645692Y45829342D01*
X45828380Y45646334D01*
X46067196Y45547169D01*
X46325782Y45546944D01*
X46564770Y45645692D01*
X46747778Y45828380D01*
X46846943Y46067196D01*
X46847168Y46325782D01*
X46748420Y46564770D01*
X46565732Y46747778D01*
X46326916Y46846943D01*
X46068330Y46847168D01*
X45829342Y46748420D01*
X45646334Y46565732D01*
X45547169Y46326916D01*
X45546944Y46068330D01*
X43452831Y46068330D01*
X43453056Y46325782D01*
X43354308Y46564770D01*
X43171620Y46747778D01*
X43115036Y46771274D01*
X43849888Y46771274D01*
X43948636Y46532286D01*
X44131324Y46349278D01*
X44370140Y46250113D01*
X44628726Y46249888D01*
X44867714Y46348636D01*
X45050722Y46531324D01*
X45149887Y46770140D01*
X45150112Y47028726D01*
X45051364Y47267714D01*
X44868676Y47450722D01*
X44629860Y47549887D01*
X44371274Y47550112D01*
X44132286Y47451364D01*
X43949278Y47268676D01*
X43850113Y47029860D01*
X43849888Y46771274D01*
X43115036Y46771274D01*
X42932804Y46846943D01*
X42674218Y46847168D01*
X42435230Y46748420D01*
X42252222Y46565732D01*
X42153057Y46326916D01*
X42152832Y46068330D01*
X15846943Y46068330D01*
X15847168Y46325782D01*
X15748420Y46564770D01*
X15565732Y46747778D01*
X15326916Y46846943D01*
X15068330Y46847168D01*
X14829342Y46748420D01*
X14646334Y46565732D01*
X14547169Y46326916D01*
X14546944Y46068330D01*
X12452831Y46068330D01*
X12453056Y46325782D01*
X12354308Y46564770D01*
X12171620Y46747778D01*
X12115036Y46771274D01*
X12849888Y46771274D01*
X12948636Y46532286D01*
X13131324Y46349278D01*
X13370140Y46250113D01*
X13628726Y46249888D01*
X13867714Y46348636D01*
X14050722Y46531324D01*
X14149887Y46770140D01*
X14150112Y47028726D01*
X14051364Y47267714D01*
X13868676Y47450722D01*
X13629860Y47549887D01*
X13371274Y47550112D01*
X13132286Y47451364D01*
X12949278Y47268676D01*
X12850113Y47029860D01*
X12849888Y46771274D01*
X12115036Y46771274D01*
X11932804Y46846943D01*
X11674218Y46847168D01*
X11435230Y46748420D01*
X11252222Y46565732D01*
X11153057Y46326916D01*
X11152832Y46068330D01*
X8618940Y46068330D01*
X8736117Y46146625D01*
X8765717Y46176225D01*
X8800520Y46199480D01*
X11800521Y49199480D01*
X11823777Y49234285D01*
X11853375Y49263883D01*
X12083297Y49607986D01*
X12146756Y49761189D01*
X12146756Y49761190D01*
X12227494Y50167087D01*
X12227494Y50332913D01*
X12146756Y50738810D01*
X12136371Y50763883D01*
X12083297Y50892014D01*
X11955742Y51082914D01*
X14833166Y51082914D01*
X14833166Y50917087D01*
X14909286Y50534404D01*
X14909286Y50534403D01*
X14972745Y50381200D01*
X15189518Y50056776D01*
X15306776Y49939518D01*
X15631197Y49722748D01*
X15631200Y49722745D01*
X15739531Y49677873D01*
X15784403Y49659286D01*
X15784404Y49659286D01*
X16167087Y49583166D01*
X16208947Y49583166D01*
X16250000Y49575000D01*
X41750000Y49575000D01*
X41791053Y49583166D01*
X41832913Y49583166D01*
X42215596Y49659286D01*
X42215597Y49659286D01*
X42368800Y49722745D01*
X42693224Y49939518D01*
X42810482Y50056776D01*
X42994989Y50332913D01*
X45772506Y50332913D01*
X45772506Y50167087D01*
X45853244Y49761190D01*
X45853244Y49761189D01*
X45916703Y49607986D01*
X46146625Y49263883D01*
X46176225Y49234283D01*
X46199480Y49199480D01*
X49199480Y46199479D01*
X49234285Y46176223D01*
X49263883Y46146625D01*
X49607986Y45916703D01*
X49761189Y45853244D01*
X49761190Y45853244D01*
X50167087Y45772506D01*
X50332913Y45772506D01*
X50738810Y45853244D01*
X50738811Y45853244D01*
X50892014Y45916703D01*
X51236117Y46146625D01*
X51353375Y46263883D01*
X51556799Y46568330D01*
X52152832Y46568330D01*
X52251580Y46329342D01*
X52434268Y46146334D01*
X52673084Y46047169D01*
X52931670Y46046944D01*
X53170658Y46145692D01*
X53353666Y46328380D01*
X53452831Y46567196D01*
X53452831Y46568330D01*
X55546944Y46568330D01*
X55645692Y46329342D01*
X55828380Y46146334D01*
X56067196Y46047169D01*
X56325782Y46046944D01*
X56564770Y46145692D01*
X56747778Y46328380D01*
X56846943Y46567196D01*
X56847168Y46825782D01*
X56748420Y47064770D01*
X56565732Y47247778D01*
X56326916Y47346943D01*
X56068330Y47347168D01*
X55829342Y47248420D01*
X55646334Y47065732D01*
X55547169Y46826916D01*
X55546944Y46568330D01*
X53452831Y46568330D01*
X53453056Y46825782D01*
X53354308Y47064770D01*
X53171620Y47247778D01*
X53115036Y47271274D01*
X53849888Y47271274D01*
X53948636Y47032286D01*
X54131324Y46849278D01*
X54370140Y46750113D01*
X54628726Y46749888D01*
X54867714Y46848636D01*
X55050722Y47031324D01*
X55149887Y47270140D01*
X55150112Y47528726D01*
X55051364Y47767714D01*
X54868676Y47950722D01*
X54629860Y48049887D01*
X54371274Y48050112D01*
X54132286Y47951364D01*
X53949278Y47768676D01*
X53850113Y47529860D01*
X53849888Y47271274D01*
X53115036Y47271274D01*
X52932804Y47346943D01*
X52674218Y47347168D01*
X52435230Y47248420D01*
X52252222Y47065732D01*
X52153057Y46826916D01*
X52152832Y46568330D01*
X51556799Y46568330D01*
X51583297Y46607986D01*
X51646756Y46761189D01*
X51646756Y46761190D01*
X51727494Y47167087D01*
X51727494Y47332913D01*
X51646756Y47738810D01*
X51636371Y47763883D01*
X51583297Y47892014D01*
X51353375Y48236117D01*
X51323777Y48265715D01*
X51300521Y48300520D01*
X48300520Y51300520D01*
X48265717Y51323775D01*
X48236117Y51353375D01*
X47892014Y51583297D01*
X47738811Y51646756D01*
X47738810Y51646756D01*
X47332913Y51727494D01*
X47167087Y51727494D01*
X46761190Y51646756D01*
X46607986Y51583297D01*
X46263883Y51353375D01*
X46146625Y51236117D01*
X45916703Y50892014D01*
X45863630Y50763883D01*
X45853244Y50738810D01*
X45772506Y50332913D01*
X42994989Y50332913D01*
X43027252Y50381197D01*
X43027255Y50381200D01*
X43090714Y50534404D01*
X43166834Y50917087D01*
X43166834Y51082914D01*
X43090714Y51465596D01*
X43027255Y51618800D01*
X43027252Y51618803D01*
X42810482Y51943224D01*
X42782432Y51971274D01*
X44349888Y51971274D01*
X44448636Y51732286D01*
X44631324Y51549278D01*
X44870140Y51450113D01*
X45128726Y51449888D01*
X45367714Y51548636D01*
X45550722Y51731324D01*
X45649887Y51970140D01*
X45650112Y52228726D01*
X45551364Y52467714D01*
X45368676Y52650722D01*
X45312092Y52674218D01*
X46046944Y52674218D01*
X46145692Y52435230D01*
X46328380Y52252222D01*
X46567196Y52153057D01*
X46825782Y52152832D01*
X47064770Y52251580D01*
X47247778Y52434268D01*
X47346943Y52673084D01*
X47347168Y52931670D01*
X47248420Y53170658D01*
X47065732Y53353666D01*
X46826916Y53452831D01*
X46568330Y53453056D01*
X46329342Y53354308D01*
X46146334Y53171620D01*
X46047169Y52932804D01*
X46046944Y52674218D01*
X45312092Y52674218D01*
X45129860Y52749887D01*
X44871274Y52750112D01*
X44632286Y52651364D01*
X44449278Y52468676D01*
X44350113Y52229860D01*
X44349888Y51971274D01*
X42782432Y51971274D01*
X42693224Y52060482D01*
X42368800Y52277255D01*
X42215597Y52340714D01*
X42215596Y52340714D01*
X41832913Y52416834D01*
X41791053Y52416834D01*
X41750000Y52425000D01*
X16250000Y52425000D01*
X16208947Y52416834D01*
X16167087Y52416834D01*
X15784404Y52340714D01*
X15739531Y52322127D01*
X15631200Y52277255D01*
X15631197Y52277252D01*
X15306776Y52060482D01*
X15189518Y51943224D01*
X14972745Y51618800D01*
X14926455Y51507046D01*
X14909286Y51465596D01*
X14833166Y51082914D01*
X11955742Y51082914D01*
X11853375Y51236117D01*
X11736117Y51353375D01*
X11392014Y51583297D01*
X11238811Y51646756D01*
X11238810Y51646756D01*
X10832913Y51727494D01*
X10667087Y51727494D01*
X10261190Y51646756D01*
X10107986Y51583297D01*
X9763883Y51353375D01*
X9734285Y51323777D01*
X9699480Y51300521D01*
X6699480Y48300520D01*
X6676225Y48265717D01*
X6646625Y48236117D01*
X6416703Y47892014D01*
X6363630Y47763883D01*
X6353244Y47738810D01*
X6272506Y47332913D01*
X5360705Y47332913D01*
X5326916Y47346943D01*
X5068330Y47347168D01*
X4829342Y47248420D01*
X4646334Y47065732D01*
X4547169Y46826916D01*
X4546944Y46568330D01*
X2452831Y46568330D01*
X2453056Y46825782D01*
X2354308Y47064770D01*
X2171620Y47247778D01*
X2115036Y47271274D01*
X2849888Y47271274D01*
X2948636Y47032286D01*
X3131324Y46849278D01*
X3370140Y46750113D01*
X3628726Y46749888D01*
X3867714Y46848636D01*
X4050722Y47031324D01*
X4149887Y47270140D01*
X4150112Y47528726D01*
X4051364Y47767714D01*
X3868676Y47950722D01*
X3629860Y48049887D01*
X3371274Y48050112D01*
X3132286Y47951364D01*
X2949278Y47768676D01*
X2850113Y47529860D01*
X2849888Y47271274D01*
X2115036Y47271274D01*
X1932804Y47346943D01*
X1674218Y47347168D01*
X1435230Y47248420D01*
X1252222Y47065732D01*
X1153057Y46826916D01*
X1152832Y46568330D01*
X425000Y46568330D01*
X425000Y48575000D01*
X4500000Y48575000D01*
X4541053Y48583166D01*
X4582913Y48583166D01*
X6304988Y48925708D01*
X6304989Y48925708D01*
X6458192Y48989167D01*
X7918098Y49964644D01*
X8035356Y50081902D01*
X9010832Y51541807D01*
X9010833Y51541808D01*
X9074292Y51695012D01*
X9129243Y51971274D01*
X12349888Y51971274D01*
X12448636Y51732286D01*
X12631324Y51549278D01*
X12870140Y51450113D01*
X13128726Y51449888D01*
X13367714Y51548636D01*
X13550722Y51731324D01*
X13649887Y51970140D01*
X13650112Y52228726D01*
X13551364Y52467714D01*
X13368676Y52650722D01*
X13312092Y52674218D01*
X14046944Y52674218D01*
X14145692Y52435230D01*
X14328380Y52252222D01*
X14567196Y52153057D01*
X14825782Y52152832D01*
X15064770Y52251580D01*
X15247778Y52434268D01*
X15346943Y52673084D01*
X15346943Y52674218D01*
X42652832Y52674218D01*
X42751580Y52435230D01*
X42934268Y52252222D01*
X43173084Y52153057D01*
X43431670Y52152832D01*
X43670658Y52251580D01*
X43853666Y52434268D01*
X43952831Y52673084D01*
X43953056Y52931670D01*
X43854308Y53170658D01*
X43671620Y53353666D01*
X43432804Y53452831D01*
X43174218Y53453056D01*
X42935230Y53354308D01*
X42752222Y53171620D01*
X42653057Y52932804D01*
X42652832Y52674218D01*
X15346943Y52674218D01*
X15347168Y52931670D01*
X15248420Y53170658D01*
X15065732Y53353666D01*
X14826916Y53452831D01*
X14568330Y53453056D01*
X14329342Y53354308D01*
X14146334Y53171620D01*
X14047169Y52932804D01*
X14046944Y52674218D01*
X13312092Y52674218D01*
X13129860Y52749887D01*
X12871274Y52750112D01*
X12632286Y52651364D01*
X12449278Y52468676D01*
X12350113Y52229860D01*
X12349888Y51971274D01*
X9129243Y51971274D01*
X9269068Y52674218D01*
X10652832Y52674218D01*
X10751580Y52435230D01*
X10934268Y52252222D01*
X11173084Y52153057D01*
X11431670Y52152832D01*
X11670658Y52251580D01*
X11853666Y52434268D01*
X11952831Y52673084D01*
X11953056Y52931670D01*
X11854308Y53170658D01*
X11671620Y53353666D01*
X11432804Y53452831D01*
X11174218Y53453056D01*
X10935230Y53354308D01*
X10752222Y53171620D01*
X10653057Y52932804D01*
X10652832Y52674218D01*
X9269068Y52674218D01*
X9416834Y53417086D01*
X9416834Y53458947D01*
X9425000Y53500000D01*
X9425000Y54371274D01*
X9949888Y54371274D01*
X10048636Y54132286D01*
X10231324Y53949278D01*
X10470140Y53850113D01*
X10728726Y53849888D01*
X10967714Y53948636D01*
X11150722Y54131324D01*
X11249887Y54370140D01*
X11249887Y54371274D01*
X14749888Y54371274D01*
X14848636Y54132286D01*
X15031324Y53949278D01*
X15270140Y53850113D01*
X15528726Y53849888D01*
X15767714Y53948636D01*
X15950722Y54131324D01*
X16049887Y54370140D01*
X16049887Y54371274D01*
X41949888Y54371274D01*
X42048636Y54132286D01*
X42231324Y53949278D01*
X42470140Y53850113D01*
X42728726Y53849888D01*
X42967714Y53948636D01*
X43150722Y54131324D01*
X43249887Y54370140D01*
X43249887Y54371274D01*
X46749888Y54371274D01*
X46848636Y54132286D01*
X47031324Y53949278D01*
X47270140Y53850113D01*
X47528726Y53849888D01*
X47767714Y53948636D01*
X47950722Y54131324D01*
X48049887Y54370140D01*
X48050112Y54628726D01*
X47951364Y54867714D01*
X47768676Y55050722D01*
X47529860Y55149887D01*
X47271274Y55150112D01*
X47032286Y55051364D01*
X46849278Y54868676D01*
X46750113Y54629860D01*
X46749888Y54371274D01*
X43249887Y54371274D01*
X43250112Y54628726D01*
X43151364Y54867714D01*
X42968676Y55050722D01*
X42729860Y55149887D01*
X42471274Y55150112D01*
X42232286Y55051364D01*
X42049278Y54868676D01*
X41950113Y54629860D01*
X41949888Y54371274D01*
X16049887Y54371274D01*
X16050112Y54628726D01*
X15951364Y54867714D01*
X15768676Y55050722D01*
X15529860Y55149887D01*
X15271274Y55150112D01*
X15032286Y55051364D01*
X14849278Y54868676D01*
X14750113Y54629860D01*
X14749888Y54371274D01*
X11249887Y54371274D01*
X11250112Y54628726D01*
X11151364Y54867714D01*
X10968676Y55050722D01*
X10729860Y55149887D01*
X10471274Y55150112D01*
X10232286Y55051364D01*
X10049278Y54868676D01*
X9950113Y54629860D01*
X9949888Y54371274D01*
X9425000Y54371274D01*
X9425000Y56068330D01*
X10652832Y56068330D01*
X10751580Y55829342D01*
X10934268Y55646334D01*
X11173084Y55547169D01*
X11431670Y55546944D01*
X11670658Y55645692D01*
X11853666Y55828380D01*
X11952831Y56067196D01*
X11952831Y56068330D01*
X14046944Y56068330D01*
X14145692Y55829342D01*
X14328380Y55646334D01*
X14567196Y55547169D01*
X14825782Y55546944D01*
X15064770Y55645692D01*
X15247778Y55828380D01*
X15346943Y56067196D01*
X15346943Y56068330D01*
X42652832Y56068330D01*
X42751580Y55829342D01*
X42934268Y55646334D01*
X43173084Y55547169D01*
X43431670Y55546944D01*
X43670658Y55645692D01*
X43853666Y55828380D01*
X43952831Y56067196D01*
X43952831Y56068330D01*
X46046944Y56068330D01*
X46145692Y55829342D01*
X46328380Y55646334D01*
X46567196Y55547169D01*
X46825782Y55546944D01*
X47064770Y55645692D01*
X47247778Y55828380D01*
X47346943Y56067196D01*
X47347168Y56325782D01*
X47248420Y56564770D01*
X47065732Y56747778D01*
X46826916Y56846943D01*
X46568330Y56847168D01*
X46329342Y56748420D01*
X46146334Y56565732D01*
X46047169Y56326916D01*
X46046944Y56068330D01*
X43952831Y56068330D01*
X43953056Y56325782D01*
X43854308Y56564770D01*
X43671620Y56747778D01*
X43615036Y56771274D01*
X44349888Y56771274D01*
X44448636Y56532286D01*
X44631324Y56349278D01*
X44870140Y56250113D01*
X45128726Y56249888D01*
X45367714Y56348636D01*
X45550722Y56531324D01*
X45649887Y56770140D01*
X45650112Y57028726D01*
X45551364Y57267714D01*
X45368676Y57450722D01*
X45129860Y57549887D01*
X44871274Y57550112D01*
X44632286Y57451364D01*
X44449278Y57268676D01*
X44350113Y57029860D01*
X44349888Y56771274D01*
X43615036Y56771274D01*
X43432804Y56846943D01*
X43174218Y56847168D01*
X42935230Y56748420D01*
X42752222Y56565732D01*
X42653057Y56326916D01*
X42652832Y56068330D01*
X15346943Y56068330D01*
X15347168Y56325782D01*
X15248420Y56564770D01*
X15065732Y56747778D01*
X14826916Y56846943D01*
X14568330Y56847168D01*
X14329342Y56748420D01*
X14146334Y56565732D01*
X14047169Y56326916D01*
X14046944Y56068330D01*
X11952831Y56068330D01*
X11953056Y56325782D01*
X11854308Y56564770D01*
X11671620Y56747778D01*
X11615036Y56771274D01*
X12349888Y56771274D01*
X12448636Y56532286D01*
X12631324Y56349278D01*
X12870140Y56250113D01*
X13128726Y56249888D01*
X13367714Y56348636D01*
X13550722Y56531324D01*
X13649887Y56770140D01*
X13650112Y57028726D01*
X13551364Y57267714D01*
X13368676Y57450722D01*
X13129860Y57549887D01*
X12871274Y57550112D01*
X12632286Y57451364D01*
X12449278Y57268676D01*
X12350113Y57029860D01*
X12349888Y56771274D01*
X11615036Y56771274D01*
X11432804Y56846943D01*
X11174218Y56847168D01*
X10935230Y56748420D01*
X10752222Y56565732D01*
X10653057Y56326916D01*
X10652832Y56068330D01*
X9425000Y56068330D01*
X9425000Y57575000D01*
X48575000Y57575000D01*
X48575000Y53500000D01*
X48575000Y53500000D01*
G37*
X48575000Y53500000D02*
X48583166Y53458947D01*
X48583166Y53417087D01*
X48925708Y51695013D01*
X48925708Y51695011D01*
X48989167Y51541808D01*
X49964644Y50081902D01*
X50081902Y49964644D01*
X51541807Y48989168D01*
X51541808Y48989167D01*
X51695012Y48925708D01*
X53417086Y48583166D01*
X53458947Y48583166D01*
X53500000Y48575000D01*
X57575000Y48575000D01*
X57575000Y9425000D01*
X53500000Y9425000D01*
X53458947Y9416834D01*
X53417086Y9416834D01*
X51695012Y9074292D01*
X51541808Y9010833D01*
X51541807Y9010832D01*
X50081902Y8035356D01*
X49964644Y7918098D01*
X48989167Y6458192D01*
X48928711Y6312237D01*
X48925708Y6304988D01*
X48583166Y4582913D01*
X48583166Y4541053D01*
X48575000Y4500000D01*
X48575000Y425000D01*
X9425000Y425000D01*
X9425000Y971274D01*
X12349888Y971274D01*
X12448636Y732286D01*
X12631324Y549278D01*
X12870140Y450113D01*
X13128726Y449888D01*
X13367714Y548636D01*
X13550722Y731324D01*
X13649887Y970140D01*
X13649887Y971274D01*
X44349888Y971274D01*
X44448636Y732286D01*
X44631324Y549278D01*
X44870140Y450113D01*
X45128726Y449888D01*
X45367714Y548636D01*
X45550722Y731324D01*
X45649887Y970140D01*
X45650112Y1228726D01*
X45551364Y1467714D01*
X45368676Y1650722D01*
X45312092Y1674218D01*
X46046944Y1674218D01*
X46145692Y1435230D01*
X46328380Y1252222D01*
X46567196Y1153057D01*
X46825782Y1152832D01*
X47064770Y1251580D01*
X47247778Y1434268D01*
X47346943Y1673084D01*
X47347168Y1931670D01*
X47248420Y2170658D01*
X47065732Y2353666D01*
X46826916Y2452831D01*
X46568330Y2453056D01*
X46329342Y2354308D01*
X46146334Y2171620D01*
X46047169Y1932804D01*
X46046944Y1674218D01*
X45312092Y1674218D01*
X45129860Y1749887D01*
X44871274Y1750112D01*
X44632286Y1651364D01*
X44449278Y1468676D01*
X44350113Y1229860D01*
X44349888Y971274D01*
X13649887Y971274D01*
X13650112Y1228726D01*
X13551364Y1467714D01*
X13368676Y1650722D01*
X13312092Y1674218D01*
X14046944Y1674218D01*
X14145692Y1435230D01*
X14328380Y1252222D01*
X14567196Y1153057D01*
X14825782Y1152832D01*
X15064770Y1251580D01*
X15247778Y1434268D01*
X15346943Y1673084D01*
X15346943Y1674218D01*
X42652832Y1674218D01*
X42751580Y1435230D01*
X42934268Y1252222D01*
X43173084Y1153057D01*
X43431670Y1152832D01*
X43670658Y1251580D01*
X43853666Y1434268D01*
X43952831Y1673084D01*
X43953056Y1931670D01*
X43854308Y2170658D01*
X43671620Y2353666D01*
X43432804Y2452831D01*
X43174218Y2453056D01*
X42935230Y2354308D01*
X42752222Y2171620D01*
X42653057Y1932804D01*
X42652832Y1674218D01*
X15346943Y1674218D01*
X15347168Y1931670D01*
X15248420Y2170658D01*
X15065732Y2353666D01*
X14826916Y2452831D01*
X14568330Y2453056D01*
X14329342Y2354308D01*
X14146334Y2171620D01*
X14047169Y1932804D01*
X14046944Y1674218D01*
X13312092Y1674218D01*
X13129860Y1749887D01*
X12871274Y1750112D01*
X12632286Y1651364D01*
X12449278Y1468676D01*
X12350113Y1229860D01*
X12349888Y971274D01*
X9425000Y971274D01*
X9425000Y1674218D01*
X10652832Y1674218D01*
X10751580Y1435230D01*
X10934268Y1252222D01*
X11173084Y1153057D01*
X11431670Y1152832D01*
X11670658Y1251580D01*
X11853666Y1434268D01*
X11952831Y1673084D01*
X11953056Y1931670D01*
X11854308Y2170658D01*
X11671620Y2353666D01*
X11432804Y2452831D01*
X11174218Y2453056D01*
X10935230Y2354308D01*
X10752222Y2171620D01*
X10653057Y1932804D01*
X10652832Y1674218D01*
X9425000Y1674218D01*
X9425000Y3371274D01*
X9949888Y3371274D01*
X10048636Y3132286D01*
X10231324Y2949278D01*
X10470140Y2850113D01*
X10728726Y2849888D01*
X10967714Y2948636D01*
X11150722Y3131324D01*
X11249887Y3370140D01*
X11249887Y3371274D01*
X14749888Y3371274D01*
X14848636Y3132286D01*
X15031324Y2949278D01*
X15270140Y2850113D01*
X15528726Y2849888D01*
X15767714Y2948636D01*
X15950722Y3131324D01*
X16049887Y3370140D01*
X16049887Y3371274D01*
X41949888Y3371274D01*
X42048636Y3132286D01*
X42231324Y2949278D01*
X42470140Y2850113D01*
X42728726Y2849888D01*
X42967714Y2948636D01*
X43150722Y3131324D01*
X43249887Y3370140D01*
X43249887Y3371274D01*
X46749888Y3371274D01*
X46848636Y3132286D01*
X47031324Y2949278D01*
X47270140Y2850113D01*
X47528726Y2849888D01*
X47767714Y2948636D01*
X47950722Y3131324D01*
X48049887Y3370140D01*
X48050112Y3628726D01*
X47951364Y3867714D01*
X47768676Y4050722D01*
X47529860Y4149887D01*
X47271274Y4150112D01*
X47032286Y4051364D01*
X46849278Y3868676D01*
X46750113Y3629860D01*
X46749888Y3371274D01*
X43249887Y3371274D01*
X43250112Y3628726D01*
X43151364Y3867714D01*
X42968676Y4050722D01*
X42729860Y4149887D01*
X42471274Y4150112D01*
X42232286Y4051364D01*
X42049278Y3868676D01*
X41950113Y3629860D01*
X41949888Y3371274D01*
X16049887Y3371274D01*
X16050112Y3628726D01*
X15951364Y3867714D01*
X15768676Y4050722D01*
X15529860Y4149887D01*
X15271274Y4150112D01*
X15032286Y4051364D01*
X14849278Y3868676D01*
X14750113Y3629860D01*
X14749888Y3371274D01*
X11249887Y3371274D01*
X11250112Y3628726D01*
X11151364Y3867714D01*
X10968676Y4050722D01*
X10729860Y4149887D01*
X10471274Y4150112D01*
X10232286Y4051364D01*
X10049278Y3868676D01*
X9950113Y3629860D01*
X9949888Y3371274D01*
X9425000Y3371274D01*
X9425000Y4500000D01*
X9416834Y4541053D01*
X9416834Y4582914D01*
X9320279Y5068330D01*
X10652832Y5068330D01*
X10751580Y4829342D01*
X10934268Y4646334D01*
X11173084Y4547169D01*
X11431670Y4546944D01*
X11670658Y4645692D01*
X11853666Y4828380D01*
X11952831Y5067196D01*
X11952831Y5068330D01*
X14046944Y5068330D01*
X14145692Y4829342D01*
X14328380Y4646334D01*
X14567196Y4547169D01*
X14825782Y4546944D01*
X15064770Y4645692D01*
X15247778Y4828380D01*
X15346943Y5067196D01*
X15346943Y5068330D01*
X42652832Y5068330D01*
X42751580Y4829342D01*
X42934268Y4646334D01*
X43173084Y4547169D01*
X43431670Y4546944D01*
X43670658Y4645692D01*
X43853666Y4828380D01*
X43952831Y5067196D01*
X43952831Y5068330D01*
X46046944Y5068330D01*
X46145692Y4829342D01*
X46328380Y4646334D01*
X46567196Y4547169D01*
X46825782Y4546944D01*
X47064770Y4645692D01*
X47247778Y4828380D01*
X47346943Y5067196D01*
X47347168Y5325782D01*
X47248420Y5564770D01*
X47065732Y5747778D01*
X46826916Y5846943D01*
X46568330Y5847168D01*
X46329342Y5748420D01*
X46146334Y5565732D01*
X46047169Y5326916D01*
X46046944Y5068330D01*
X43952831Y5068330D01*
X43953056Y5325782D01*
X43854308Y5564770D01*
X43671620Y5747778D01*
X43615036Y5771274D01*
X44349888Y5771274D01*
X44448636Y5532286D01*
X44631324Y5349278D01*
X44870140Y5250113D01*
X45128726Y5249888D01*
X45367714Y5348636D01*
X45550722Y5531324D01*
X45649887Y5770140D01*
X45650112Y6028726D01*
X45551364Y6267714D01*
X45368676Y6450722D01*
X45129860Y6549887D01*
X44871274Y6550112D01*
X44632286Y6451364D01*
X44449278Y6268676D01*
X44350113Y6029860D01*
X44349888Y5771274D01*
X43615036Y5771274D01*
X43432804Y5846943D01*
X43174218Y5847168D01*
X42935230Y5748420D01*
X42752222Y5565732D01*
X42653057Y5326916D01*
X42652832Y5068330D01*
X15346943Y5068330D01*
X15347168Y5325782D01*
X15248420Y5564770D01*
X15065732Y5747778D01*
X14826916Y5846943D01*
X14568330Y5847168D01*
X14329342Y5748420D01*
X14146334Y5565732D01*
X14047169Y5326916D01*
X14046944Y5068330D01*
X11952831Y5068330D01*
X11953056Y5325782D01*
X11854308Y5564770D01*
X11671620Y5747778D01*
X11615036Y5771274D01*
X12349888Y5771274D01*
X12448636Y5532286D01*
X12631324Y5349278D01*
X12870140Y5250113D01*
X13128726Y5249888D01*
X13367714Y5348636D01*
X13550722Y5531324D01*
X13649887Y5770140D01*
X13650112Y6028726D01*
X13551364Y6267714D01*
X13368676Y6450722D01*
X13129860Y6549887D01*
X12871274Y6550112D01*
X12632286Y6451364D01*
X12449278Y6268676D01*
X12350113Y6029860D01*
X12349888Y5771274D01*
X11615036Y5771274D01*
X11432804Y5846943D01*
X11174218Y5847168D01*
X10935230Y5748420D01*
X10752222Y5565732D01*
X10653057Y5326916D01*
X10652832Y5068330D01*
X9320279Y5068330D01*
X9074292Y6304988D01*
X9010833Y6458192D01*
X9010832Y6458193D01*
X8035356Y7918098D01*
X7918098Y8035356D01*
X6458192Y9010833D01*
X6304989Y9074292D01*
X6304988Y9074292D01*
X4582913Y9416834D01*
X4541053Y9416834D01*
X4500000Y9425000D01*
X425000Y9425000D01*
X425000Y10471274D01*
X2849888Y10471274D01*
X2948636Y10232286D01*
X3131324Y10049278D01*
X3370140Y9950113D01*
X3628726Y9949888D01*
X3867714Y10048636D01*
X4050722Y10231324D01*
X4149887Y10470140D01*
X4150112Y10728726D01*
X4051364Y10967714D01*
X3868676Y11150722D01*
X3812092Y11174218D01*
X4546944Y11174218D01*
X4645692Y10935230D01*
X4828380Y10752222D01*
X5067196Y10653057D01*
X5325782Y10652832D01*
X5564770Y10751580D01*
X5646245Y10832913D01*
X6272506Y10832913D01*
X6272506Y10667087D01*
X6353244Y10261190D01*
X6353244Y10261189D01*
X6416703Y10107986D01*
X6646625Y9763883D01*
X6676225Y9734283D01*
X6699480Y9699480D01*
X9699480Y6699479D01*
X9734285Y6676223D01*
X9763883Y6646625D01*
X10107986Y6416703D01*
X10261189Y6353244D01*
X10261190Y6353244D01*
X10667087Y6272506D01*
X10832913Y6272506D01*
X11238810Y6353244D01*
X11238811Y6353244D01*
X11392014Y6416703D01*
X11736117Y6646625D01*
X11853375Y6763883D01*
X12066544Y7082914D01*
X14833166Y7082914D01*
X14833166Y6917087D01*
X14909286Y6534404D01*
X14909286Y6534403D01*
X14972745Y6381200D01*
X15189518Y6056776D01*
X15306776Y5939518D01*
X15631197Y5722748D01*
X15631200Y5722745D01*
X15739531Y5677873D01*
X15784403Y5659286D01*
X15784404Y5659286D01*
X16167087Y5583166D01*
X16208947Y5583166D01*
X16250000Y5575000D01*
X41750000Y5575000D01*
X41791053Y5583166D01*
X41832913Y5583166D01*
X42215596Y5659286D01*
X42215597Y5659286D01*
X42368800Y5722745D01*
X42693224Y5939518D01*
X42810482Y6056776D01*
X43027252Y6381197D01*
X43027255Y6381200D01*
X43090714Y6534404D01*
X43166834Y6917087D01*
X43166834Y7082914D01*
X43090714Y7465596D01*
X43027255Y7618800D01*
X43027252Y7618803D01*
X42884190Y7832913D01*
X45772506Y7832913D01*
X45772506Y7667087D01*
X45853244Y7261190D01*
X45853244Y7261189D01*
X45916703Y7107986D01*
X46146625Y6763883D01*
X46263883Y6646625D01*
X46607986Y6416703D01*
X46761189Y6353244D01*
X46761190Y6353244D01*
X47167087Y6272506D01*
X47332913Y6272506D01*
X47738810Y6353244D01*
X47738811Y6353244D01*
X47892014Y6416703D01*
X48236117Y6646625D01*
X48265717Y6676225D01*
X48300520Y6699480D01*
X51300521Y9699480D01*
X51323777Y9734285D01*
X51353375Y9763883D01*
X51583297Y10107986D01*
X51646756Y10261189D01*
X51646756Y10261190D01*
X51688544Y10471274D01*
X53849888Y10471274D01*
X53948636Y10232286D01*
X54131324Y10049278D01*
X54370140Y9950113D01*
X54628726Y9949888D01*
X54867714Y10048636D01*
X55050722Y10231324D01*
X55149887Y10470140D01*
X55150112Y10728726D01*
X55051364Y10967714D01*
X54868676Y11150722D01*
X54812092Y11174218D01*
X55546944Y11174218D01*
X55645692Y10935230D01*
X55828380Y10752222D01*
X56067196Y10653057D01*
X56325782Y10652832D01*
X56564770Y10751580D01*
X56747778Y10934268D01*
X56846943Y11173084D01*
X56847168Y11431670D01*
X56748420Y11670658D01*
X56565732Y11853666D01*
X56326916Y11952831D01*
X56068330Y11953056D01*
X55829342Y11854308D01*
X55646334Y11671620D01*
X55547169Y11432804D01*
X55546944Y11174218D01*
X54812092Y11174218D01*
X54629860Y11249887D01*
X54371274Y11250112D01*
X54132286Y11151364D01*
X53949278Y10968676D01*
X53850113Y10729860D01*
X53849888Y10471274D01*
X51688544Y10471274D01*
X51727494Y10667087D01*
X51727494Y10832913D01*
X51659605Y11174218D01*
X52152832Y11174218D01*
X52251580Y10935230D01*
X52434268Y10752222D01*
X52673084Y10653057D01*
X52931670Y10652832D01*
X53170658Y10751580D01*
X53353666Y10934268D01*
X53452831Y11173084D01*
X53453056Y11431670D01*
X53354308Y11670658D01*
X53171620Y11853666D01*
X52932804Y11952831D01*
X52674218Y11953056D01*
X52435230Y11854308D01*
X52252222Y11671620D01*
X52153057Y11432804D01*
X52152832Y11174218D01*
X51659605Y11174218D01*
X51646756Y11238810D01*
X51636371Y11263883D01*
X51583297Y11392014D01*
X51353375Y11736117D01*
X51236117Y11853375D01*
X50892014Y12083297D01*
X50738811Y12146756D01*
X50738810Y12146756D01*
X50332913Y12227494D01*
X50167087Y12227494D01*
X49761190Y12146756D01*
X49607986Y12083297D01*
X49263883Y11853375D01*
X49234285Y11823777D01*
X49199480Y11800521D01*
X46199480Y8800520D01*
X46176225Y8765717D01*
X46146625Y8736117D01*
X45916703Y8392014D01*
X45863630Y8263883D01*
X45853244Y8238810D01*
X45772506Y7832913D01*
X42884190Y7832913D01*
X42810482Y7943224D01*
X42693224Y8060482D01*
X42368800Y8277255D01*
X42215597Y8340714D01*
X42215596Y8340714D01*
X41832913Y8416834D01*
X41791053Y8416834D01*
X41750000Y8425000D01*
X16250000Y8425000D01*
X16208947Y8416834D01*
X16167087Y8416834D01*
X15784404Y8340714D01*
X15739531Y8322127D01*
X15631200Y8277255D01*
X15631197Y8277252D01*
X15306776Y8060482D01*
X15189518Y7943224D01*
X14972745Y7618800D01*
X14929287Y7513883D01*
X14909286Y7465596D01*
X14833166Y7082914D01*
X12066544Y7082914D01*
X12083297Y7107986D01*
X12146756Y7261189D01*
X12146756Y7261190D01*
X12227494Y7667087D01*
X12227494Y7832913D01*
X12146756Y8238810D01*
X12136371Y8263883D01*
X12083297Y8392014D01*
X11853375Y8736117D01*
X11823777Y8765715D01*
X11800521Y8800520D01*
X9629767Y10971274D01*
X12849888Y10971274D01*
X12948636Y10732286D01*
X13131324Y10549278D01*
X13370140Y10450113D01*
X13628726Y10449888D01*
X13867714Y10548636D01*
X14050722Y10731324D01*
X14149887Y10970140D01*
X14150112Y11228726D01*
X14051364Y11467714D01*
X13868676Y11650722D01*
X13812092Y11674218D01*
X14546944Y11674218D01*
X14645692Y11435230D01*
X14828380Y11252222D01*
X15067196Y11153057D01*
X15325782Y11152832D01*
X15564770Y11251580D01*
X15747778Y11434268D01*
X15846943Y11673084D01*
X15847168Y11931670D01*
X15748420Y12170658D01*
X15565732Y12353666D01*
X15326916Y12452831D01*
X15068330Y12453056D01*
X14829342Y12354308D01*
X14646334Y12171620D01*
X14547169Y11932804D01*
X14546944Y11674218D01*
X13812092Y11674218D01*
X13629860Y11749887D01*
X13371274Y11750112D01*
X13132286Y11651364D01*
X12949278Y11468676D01*
X12850113Y11229860D01*
X12849888Y10971274D01*
X9629767Y10971274D01*
X8926823Y11674218D01*
X11152832Y11674218D01*
X11251580Y11435230D01*
X11434268Y11252222D01*
X11673084Y11153057D01*
X11931670Y11152832D01*
X12170658Y11251580D01*
X12353666Y11434268D01*
X12452831Y11673084D01*
X12453056Y11931670D01*
X12354308Y12170658D01*
X12171620Y12353666D01*
X11932804Y12452831D01*
X11674218Y12453056D01*
X11435230Y12354308D01*
X11252222Y12171620D01*
X11153057Y11932804D01*
X11152832Y11674218D01*
X8926823Y11674218D01*
X8800520Y11800520D01*
X8765717Y11823775D01*
X8736117Y11853375D01*
X8392014Y12083297D01*
X8238811Y12146756D01*
X8238810Y12146756D01*
X7832913Y12227494D01*
X7667087Y12227494D01*
X7261190Y12146756D01*
X7107986Y12083297D01*
X6763883Y11853375D01*
X6646625Y11736117D01*
X6416703Y11392014D01*
X6363630Y11263883D01*
X6353244Y11238810D01*
X6272506Y10832913D01*
X5646245Y10832913D01*
X5747778Y10934268D01*
X5846943Y11173084D01*
X5847168Y11431670D01*
X5748420Y11670658D01*
X5565732Y11853666D01*
X5326916Y11952831D01*
X5068330Y11953056D01*
X4829342Y11854308D01*
X4646334Y11671620D01*
X4547169Y11432804D01*
X4546944Y11174218D01*
X3812092Y11174218D01*
X3629860Y11249887D01*
X3371274Y11250112D01*
X3132286Y11151364D01*
X2949278Y10968676D01*
X2850113Y10729860D01*
X2849888Y10471274D01*
X425000Y10471274D01*
X425000Y11174218D01*
X1152832Y11174218D01*
X1251580Y10935230D01*
X1434268Y10752222D01*
X1673084Y10653057D01*
X1931670Y10652832D01*
X2170658Y10751580D01*
X2353666Y10934268D01*
X2452831Y11173084D01*
X2453056Y11431670D01*
X2354308Y11670658D01*
X2171620Y11853666D01*
X1932804Y11952831D01*
X1674218Y11953056D01*
X1435230Y11854308D01*
X1252222Y11671620D01*
X1153057Y11432804D01*
X1152832Y11174218D01*
X425000Y11174218D01*
X425000Y12871274D01*
X449888Y12871274D01*
X548636Y12632286D01*
X731324Y12449278D01*
X970140Y12350113D01*
X1228726Y12349888D01*
X1467714Y12448636D01*
X1650722Y12631324D01*
X1749887Y12870140D01*
X1749887Y12871274D01*
X5249888Y12871274D01*
X5348636Y12632286D01*
X5531324Y12449278D01*
X5770140Y12350113D01*
X6028726Y12349888D01*
X6267714Y12448636D01*
X6450722Y12631324D01*
X6549887Y12870140D01*
X6550112Y13128726D01*
X6451364Y13367714D01*
X6447811Y13371274D01*
X10449888Y13371274D01*
X10548636Y13132286D01*
X10731324Y12949278D01*
X10970140Y12850113D01*
X11228726Y12849888D01*
X11467714Y12948636D01*
X11650722Y13131324D01*
X11749887Y13370140D01*
X11749887Y13371274D01*
X15249888Y13371274D01*
X15348636Y13132286D01*
X15531324Y12949278D01*
X15770140Y12850113D01*
X16028726Y12849888D01*
X16267714Y12948636D01*
X16450722Y13131324D01*
X16549887Y13370140D01*
X16550112Y13628726D01*
X16451364Y13867714D01*
X16268676Y14050722D01*
X16029860Y14149887D01*
X15771274Y14150112D01*
X15532286Y14051364D01*
X15349278Y13868676D01*
X15250113Y13629860D01*
X15249888Y13371274D01*
X11749887Y13371274D01*
X11750112Y13628726D01*
X11651364Y13867714D01*
X11468676Y14050722D01*
X11229860Y14149887D01*
X10971274Y14150112D01*
X10732286Y14051364D01*
X10549278Y13868676D01*
X10450113Y13629860D01*
X10449888Y13371274D01*
X6447811Y13371274D01*
X6268676Y13550722D01*
X6029860Y13649887D01*
X5771274Y13650112D01*
X5532286Y13551364D01*
X5349278Y13368676D01*
X5250113Y13129860D01*
X5249888Y12871274D01*
X1749887Y12871274D01*
X1750112Y13128726D01*
X1651364Y13367714D01*
X1468676Y13550722D01*
X1229860Y13649887D01*
X971274Y13650112D01*
X732286Y13551364D01*
X549278Y13368676D01*
X450113Y13129860D01*
X449888Y12871274D01*
X425000Y12871274D01*
X425000Y14568330D01*
X1152832Y14568330D01*
X1251580Y14329342D01*
X1434268Y14146334D01*
X1673084Y14047169D01*
X1931670Y14046944D01*
X2170658Y14145692D01*
X2353666Y14328380D01*
X2452831Y14567196D01*
X2452831Y14568330D01*
X4546944Y14568330D01*
X4645692Y14329342D01*
X4828380Y14146334D01*
X5067196Y14047169D01*
X5325782Y14046944D01*
X5564770Y14145692D01*
X5747778Y14328380D01*
X5846943Y14567196D01*
X5847168Y14825782D01*
X5748420Y15064770D01*
X5565732Y15247778D01*
X5326916Y15346943D01*
X5068330Y15347168D01*
X4829342Y15248420D01*
X4646334Y15065732D01*
X4547169Y14826916D01*
X4546944Y14568330D01*
X2452831Y14568330D01*
X2453056Y14825782D01*
X2354308Y15064770D01*
X2171620Y15247778D01*
X2115036Y15271274D01*
X2849888Y15271274D01*
X2948636Y15032286D01*
X3131324Y14849278D01*
X3370140Y14750113D01*
X3628726Y14749888D01*
X3867714Y14848636D01*
X4050722Y15031324D01*
X4149887Y15270140D01*
X4150112Y15528726D01*
X4051364Y15767714D01*
X3868676Y15950722D01*
X3629860Y16049887D01*
X3371274Y16050112D01*
X3132286Y15951364D01*
X2949278Y15768676D01*
X2850113Y15529860D01*
X2849888Y15271274D01*
X2115036Y15271274D01*
X1932804Y15346943D01*
X1674218Y15347168D01*
X1435230Y15248420D01*
X1252222Y15065732D01*
X1153057Y14826916D01*
X1152832Y14568330D01*
X425000Y14568330D01*
X425000Y41750000D01*
X5575000Y41750000D01*
X5575000Y16250000D01*
X5583166Y16208947D01*
X5583166Y16167087D01*
X5659286Y15784404D01*
X5659286Y15784403D01*
X5722745Y15631200D01*
X5939518Y15306776D01*
X6056776Y15189518D01*
X6381197Y14972748D01*
X6381200Y14972745D01*
X6489531Y14927873D01*
X6534403Y14909286D01*
X6534404Y14909286D01*
X6917087Y14833166D01*
X7082913Y14833166D01*
X7465596Y14909286D01*
X7465597Y14909286D01*
X7618800Y14972745D01*
X7761853Y15068330D01*
X11152832Y15068330D01*
X11251580Y14829342D01*
X11434268Y14646334D01*
X11673084Y14547169D01*
X11931670Y14546944D01*
X12170658Y14645692D01*
X12353666Y14828380D01*
X12452831Y15067196D01*
X12452831Y15068330D01*
X14546944Y15068330D01*
X14645692Y14829342D01*
X14828380Y14646334D01*
X15067196Y14547169D01*
X15325782Y14546944D01*
X15564770Y14645692D01*
X15747778Y14828380D01*
X15846943Y15067196D01*
X15847168Y15325782D01*
X15748420Y15564770D01*
X15565732Y15747778D01*
X15326916Y15846943D01*
X15068330Y15847168D01*
X14829342Y15748420D01*
X14646334Y15565732D01*
X14547169Y15326916D01*
X14546944Y15068330D01*
X12452831Y15068330D01*
X12453056Y15325782D01*
X12354308Y15564770D01*
X12171620Y15747778D01*
X12115036Y15771274D01*
X12849888Y15771274D01*
X12948636Y15532286D01*
X13131324Y15349278D01*
X13370140Y15250113D01*
X13628726Y15249888D01*
X13867714Y15348636D01*
X14050722Y15531324D01*
X14149887Y15770140D01*
X14150112Y16028726D01*
X14051364Y16267714D01*
X13868676Y16450722D01*
X13629860Y16549887D01*
X13371274Y16550112D01*
X13132286Y16451364D01*
X12949278Y16268676D01*
X12850113Y16029860D01*
X12849888Y15771274D01*
X12115036Y15771274D01*
X11932804Y15846943D01*
X11674218Y15847168D01*
X11435230Y15748420D01*
X11252222Y15565732D01*
X11153057Y15326916D01*
X11152832Y15068330D01*
X7761853Y15068330D01*
X7943224Y15189518D01*
X8060482Y15306776D01*
X8277252Y15631197D01*
X8277255Y15631200D01*
X8333801Y15767714D01*
X8340714Y15784403D01*
X8340714Y15784404D01*
X8416834Y16167087D01*
X8416834Y16208947D01*
X8425000Y16250000D01*
X8425000Y26519501D01*
X16415948Y26519501D01*
X16455697Y26000667D01*
X16577773Y25705947D01*
X16802697Y25640486D01*
X17522211Y26360000D01*
X16802697Y27079514D01*
X16577773Y27014053D01*
X16415948Y26519501D01*
X8425000Y26519501D01*
X8425000Y27297303D01*
X17020486Y27297303D01*
X17740000Y26577789D01*
X17754142Y26591931D01*
X17971931Y26374142D01*
X17957789Y26360000D01*
X17971931Y26345858D01*
X17754142Y26128069D01*
X17740000Y26142211D01*
X17020486Y25422697D01*
X17085947Y25197773D01*
X17580499Y25035948D01*
X18099333Y25075697D01*
X18394053Y25197773D01*
X18459513Y25422695D01*
X18525000Y25357208D01*
X18525000Y23750000D01*
X18561157Y23568225D01*
X18664124Y23414124D01*
X32664124Y9414124D01*
X32818225Y9311157D01*
X33000000Y9275000D01*
X33805734Y9275000D01*
X33881324Y9199278D01*
X34120140Y9100113D01*
X34378726Y9099888D01*
X34617714Y9198636D01*
X34800722Y9381324D01*
X34875061Y9560352D01*
X34948636Y9382286D01*
X35131324Y9199278D01*
X35370140Y9100113D01*
X35628726Y9099888D01*
X35867714Y9198636D01*
X36050722Y9381324D01*
X36125061Y9560352D01*
X36198636Y9382286D01*
X36381324Y9199278D01*
X36620140Y9100113D01*
X36878726Y9099888D01*
X37117714Y9198636D01*
X37300722Y9381324D01*
X37399887Y9620140D01*
X37399981Y9728229D01*
X37910888Y10239136D01*
X38013855Y10393237D01*
X38050012Y10575012D01*
X38050012Y10971274D01*
X43849888Y10971274D01*
X43948636Y10732286D01*
X44131324Y10549278D01*
X44370140Y10450113D01*
X44628726Y10449888D01*
X44867714Y10548636D01*
X45050722Y10731324D01*
X45149887Y10970140D01*
X45150112Y11228726D01*
X45051364Y11467714D01*
X44868676Y11650722D01*
X44812092Y11674218D01*
X45546944Y11674218D01*
X45645692Y11435230D01*
X45828380Y11252222D01*
X46067196Y11153057D01*
X46325782Y11152832D01*
X46564770Y11251580D01*
X46747778Y11434268D01*
X46846943Y11673084D01*
X46847168Y11931670D01*
X46748420Y12170658D01*
X46565732Y12353666D01*
X46326916Y12452831D01*
X46068330Y12453056D01*
X45829342Y12354308D01*
X45646334Y12171620D01*
X45547169Y11932804D01*
X45546944Y11674218D01*
X44812092Y11674218D01*
X44629860Y11749887D01*
X44371274Y11750112D01*
X44132286Y11651364D01*
X43949278Y11468676D01*
X43850113Y11229860D01*
X43849888Y10971274D01*
X38050012Y10971274D01*
X38050012Y11674218D01*
X42152832Y11674218D01*
X42251580Y11435230D01*
X42434268Y11252222D01*
X42673084Y11153057D01*
X42931670Y11152832D01*
X43170658Y11251580D01*
X43353666Y11434268D01*
X43452831Y11673084D01*
X43453056Y11931670D01*
X43354308Y12170658D01*
X43171620Y12353666D01*
X42932804Y12452831D01*
X42674218Y12453056D01*
X42435230Y12354308D01*
X42252222Y12171620D01*
X42153057Y11932804D01*
X42152832Y11674218D01*
X38050012Y11674218D01*
X38050012Y17674983D01*
X38050013Y17674988D01*
X38013855Y17856762D01*
X38013855Y17856763D01*
X37910888Y18010864D01*
X31473541Y24448211D01*
X31586163Y24371259D01*
X31725000Y24343144D01*
X33475000Y24343144D01*
X33604702Y24367549D01*
X33669197Y24409051D01*
X35643144Y22435104D01*
X35643144Y22050000D01*
X35667549Y21920298D01*
X35744203Y21801175D01*
X35861163Y21721259D01*
X36000000Y21693144D01*
X36500000Y21693144D01*
X36629702Y21717549D01*
X36748825Y21794203D01*
X36828741Y21911163D01*
X36856856Y22050000D01*
X36856856Y22950000D01*
X36832451Y23079702D01*
X36755797Y23198825D01*
X36638837Y23278741D01*
X36500000Y23306856D01*
X36114896Y23306856D01*
X35396752Y24025000D01*
X35647848Y24025000D01*
X35667549Y23920298D01*
X35744203Y23801175D01*
X35861163Y23721259D01*
X36000000Y23693144D01*
X36500000Y23693144D01*
X36629702Y23717549D01*
X36748825Y23794203D01*
X36828741Y23911163D01*
X36856856Y24050000D01*
X36856856Y24950000D01*
X36832451Y25079702D01*
X36755797Y25198825D01*
X36638837Y25278741D01*
X36500000Y25306856D01*
X36000000Y25306856D01*
X35870298Y25282451D01*
X35751175Y25205797D01*
X35671259Y25088837D01*
X35648207Y24975000D01*
X35196751Y24975000D01*
X34421752Y25750000D01*
X39661846Y25750000D01*
X39666922Y25737714D01*
X39976087Y25428009D01*
X40380237Y25260192D01*
X40817844Y25259810D01*
X41222286Y25426922D01*
X41531991Y25736087D01*
X41696347Y26131902D01*
X43025000Y24803249D01*
X43025000Y22944266D01*
X42949278Y22868676D01*
X42850113Y22629860D01*
X42849888Y22371274D01*
X42948636Y22132286D01*
X43025000Y22055788D01*
X43025000Y21894124D01*
X42868676Y22050722D01*
X42629860Y22149887D01*
X42371274Y22150112D01*
X42132286Y22051364D01*
X42055788Y21975000D01*
X40196751Y21975000D01*
X38301077Y23870675D01*
X38328741Y23911163D01*
X38356856Y24050000D01*
X38356856Y24950000D01*
X38332451Y25079702D01*
X38255797Y25198825D01*
X38138837Y25278741D01*
X38000000Y25306856D01*
X37500000Y25306856D01*
X37370298Y25282451D01*
X37251175Y25205797D01*
X37171259Y25088837D01*
X37143144Y24950000D01*
X37143144Y24050000D01*
X37167549Y23920298D01*
X37244203Y23801175D01*
X37275000Y23780132D01*
X37275000Y23750000D01*
X37311157Y23568225D01*
X37414124Y23414124D01*
X37521392Y23306856D01*
X37500000Y23306856D01*
X37370298Y23282451D01*
X37251175Y23205797D01*
X37171259Y23088837D01*
X37143144Y22950000D01*
X37143144Y22050000D01*
X37167549Y21920298D01*
X37244203Y21801175D01*
X37361163Y21721259D01*
X37500000Y21693144D01*
X38000000Y21693144D01*
X38113709Y21714540D01*
X40664122Y19164127D01*
X40664124Y19164124D01*
X40818225Y19061157D01*
X40848384Y19055158D01*
X41000000Y19024999D01*
X41000005Y19025000D01*
X42305734Y19025000D01*
X42381324Y18949278D01*
X42620140Y18850113D01*
X42878726Y18849888D01*
X42962927Y18884679D01*
X38664124Y14585876D01*
X38561157Y14431775D01*
X38525000Y14250000D01*
X38525000Y13944266D01*
X38449278Y13868676D01*
X38350113Y13629860D01*
X38349888Y13371274D01*
X38448636Y13132286D01*
X38631324Y12949278D01*
X38870140Y12850113D01*
X39128726Y12849888D01*
X39367714Y12948636D01*
X39550722Y13131324D01*
X39649887Y13370140D01*
X39649887Y13371274D01*
X41449888Y13371274D01*
X41548636Y13132286D01*
X41731324Y12949278D01*
X41970140Y12850113D01*
X42228726Y12849888D01*
X42467714Y12948636D01*
X42650722Y13131324D01*
X42749887Y13370140D01*
X42749887Y13371274D01*
X46249888Y13371274D01*
X46348636Y13132286D01*
X46531324Y12949278D01*
X46770140Y12850113D01*
X47028726Y12849888D01*
X47080483Y12871274D01*
X51449888Y12871274D01*
X51548636Y12632286D01*
X51731324Y12449278D01*
X51970140Y12350113D01*
X52228726Y12349888D01*
X52467714Y12448636D01*
X52650722Y12631324D01*
X52749887Y12870140D01*
X52749887Y12871274D01*
X56249888Y12871274D01*
X56348636Y12632286D01*
X56531324Y12449278D01*
X56770140Y12350113D01*
X57028726Y12349888D01*
X57267714Y12448636D01*
X57450722Y12631324D01*
X57549887Y12870140D01*
X57550112Y13128726D01*
X57451364Y13367714D01*
X57268676Y13550722D01*
X57029860Y13649887D01*
X56771274Y13650112D01*
X56532286Y13551364D01*
X56349278Y13368676D01*
X56250113Y13129860D01*
X56249888Y12871274D01*
X52749887Y12871274D01*
X52750112Y13128726D01*
X52651364Y13367714D01*
X52468676Y13550722D01*
X52229860Y13649887D01*
X51971274Y13650112D01*
X51732286Y13551364D01*
X51549278Y13368676D01*
X51450113Y13129860D01*
X51449888Y12871274D01*
X47080483Y12871274D01*
X47267714Y12948636D01*
X47450722Y13131324D01*
X47549887Y13370140D01*
X47550112Y13628726D01*
X47451364Y13867714D01*
X47268676Y14050722D01*
X47029860Y14149887D01*
X46771274Y14150112D01*
X46532286Y14051364D01*
X46349278Y13868676D01*
X46250113Y13629860D01*
X46249888Y13371274D01*
X42749887Y13371274D01*
X42750112Y13628726D01*
X42651364Y13867714D01*
X42468676Y14050722D01*
X42229860Y14149887D01*
X41971274Y14150112D01*
X41732286Y14051364D01*
X41549278Y13868676D01*
X41450113Y13629860D01*
X41449888Y13371274D01*
X39649887Y13371274D01*
X39650112Y13628726D01*
X39551364Y13867714D01*
X39475000Y13944212D01*
X39475000Y14053248D01*
X40490082Y15068330D01*
X42152832Y15068330D01*
X42251580Y14829342D01*
X42434268Y14646334D01*
X42673084Y14547169D01*
X42931670Y14546944D01*
X43170658Y14645692D01*
X43353666Y14828380D01*
X43452831Y15067196D01*
X43452831Y15068330D01*
X45546944Y15068330D01*
X45645692Y14829342D01*
X45828380Y14646334D01*
X46067196Y14547169D01*
X46325782Y14546944D01*
X46377539Y14568330D01*
X52152832Y14568330D01*
X52251580Y14329342D01*
X52434268Y14146334D01*
X52673084Y14047169D01*
X52931670Y14046944D01*
X53170658Y14145692D01*
X53353666Y14328380D01*
X53452831Y14567196D01*
X53452831Y14568330D01*
X55546944Y14568330D01*
X55645692Y14329342D01*
X55828380Y14146334D01*
X56067196Y14047169D01*
X56325782Y14046944D01*
X56564770Y14145692D01*
X56747778Y14328380D01*
X56846943Y14567196D01*
X56847168Y14825782D01*
X56748420Y15064770D01*
X56565732Y15247778D01*
X56326916Y15346943D01*
X56068330Y15347168D01*
X55829342Y15248420D01*
X55646334Y15065732D01*
X55547169Y14826916D01*
X55546944Y14568330D01*
X53452831Y14568330D01*
X53453056Y14825782D01*
X53354308Y15064770D01*
X53171620Y15247778D01*
X53115036Y15271274D01*
X53849888Y15271274D01*
X53948636Y15032286D01*
X54131324Y14849278D01*
X54370140Y14750113D01*
X54628726Y14749888D01*
X54867714Y14848636D01*
X55050722Y15031324D01*
X55149887Y15270140D01*
X55150112Y15528726D01*
X55051364Y15767714D01*
X54868676Y15950722D01*
X54629860Y16049887D01*
X54371274Y16050112D01*
X54132286Y15951364D01*
X53949278Y15768676D01*
X53850113Y15529860D01*
X53849888Y15271274D01*
X53115036Y15271274D01*
X52932804Y15346943D01*
X52674218Y15347168D01*
X52435230Y15248420D01*
X52252222Y15065732D01*
X52153057Y14826916D01*
X52152832Y14568330D01*
X46377539Y14568330D01*
X46564770Y14645692D01*
X46747778Y14828380D01*
X46846943Y15067196D01*
X46847168Y15325782D01*
X46748420Y15564770D01*
X46565732Y15747778D01*
X46326916Y15846943D01*
X46068330Y15847168D01*
X45829342Y15748420D01*
X45646334Y15565732D01*
X45547169Y15326916D01*
X45546944Y15068330D01*
X43452831Y15068330D01*
X43453056Y15325782D01*
X43354308Y15564770D01*
X43171620Y15747778D01*
X43115036Y15771274D01*
X43849888Y15771274D01*
X43948636Y15532286D01*
X44131324Y15349278D01*
X44370140Y15250113D01*
X44628726Y15249888D01*
X44867714Y15348636D01*
X45050722Y15531324D01*
X45149887Y15770140D01*
X45150112Y16028726D01*
X45051364Y16267714D01*
X44868676Y16450722D01*
X44629860Y16549887D01*
X44371274Y16550112D01*
X44132286Y16451364D01*
X43949278Y16268676D01*
X43850113Y16029860D01*
X43849888Y15771274D01*
X43115036Y15771274D01*
X42932804Y15846943D01*
X42674218Y15847168D01*
X42435230Y15748420D01*
X42252222Y15565732D01*
X42153057Y15326916D01*
X42152832Y15068330D01*
X40490082Y15068330D01*
X43835876Y18414124D01*
X43938843Y18568225D01*
X43975000Y18750000D01*
X43975000Y22055734D01*
X44050722Y22131324D01*
X44149887Y22370140D01*
X44150112Y22628726D01*
X44051364Y22867714D01*
X43975000Y22944212D01*
X43975000Y25000000D01*
X43938843Y25181775D01*
X43835876Y25335876D01*
X43835873Y25335878D01*
X40335876Y28835876D01*
X40181775Y28938843D01*
X40000000Y28975000D01*
X38352152Y28975000D01*
X38332451Y29079702D01*
X38255797Y29198825D01*
X38138837Y29278741D01*
X38000000Y29306856D01*
X37500000Y29306856D01*
X37370298Y29282451D01*
X37251175Y29205797D01*
X37171259Y29088837D01*
X37143144Y28950000D01*
X37143144Y28050000D01*
X37167549Y27920298D01*
X37244203Y27801175D01*
X37361163Y27721259D01*
X37500000Y27693144D01*
X38000000Y27693144D01*
X38129702Y27717549D01*
X38248825Y27794203D01*
X38328741Y27911163D01*
X38351793Y28025000D01*
X39803248Y28025000D01*
X40372180Y27456068D01*
X39977714Y27293078D01*
X39668009Y26983913D01*
X39550119Y26700000D01*
X33831856Y26700000D01*
X33831856Y27050000D01*
X35475000Y27050000D01*
X35656775Y27086157D01*
X35810876Y27189124D01*
X36314895Y27693144D01*
X36500000Y27693144D01*
X36629702Y27717549D01*
X36748825Y27794203D01*
X36828741Y27911163D01*
X36856856Y28050000D01*
X36856856Y28950000D01*
X36832451Y29079702D01*
X36755797Y29198825D01*
X36638837Y29278741D01*
X36500000Y29306856D01*
X36000000Y29306856D01*
X35870298Y29282451D01*
X35751175Y29205797D01*
X35671259Y29088837D01*
X35643144Y28950000D01*
X35643144Y28364895D01*
X35278248Y28000000D01*
X33831856Y28000000D01*
X33831856Y28097014D01*
X33990438Y28255596D01*
X34083000Y28479062D01*
X34083000Y28560500D01*
X33931000Y28712500D01*
X33766140Y28712500D01*
X33819405Y28734563D01*
X33990438Y28905596D01*
X34055026Y29061526D01*
X34083000Y29089500D01*
X34083000Y29210500D01*
X34055026Y29238474D01*
X33990438Y29394404D01*
X33909842Y29475000D01*
X33990438Y29555596D01*
X34055026Y29711526D01*
X34083000Y29739500D01*
X34083000Y29860500D01*
X34055026Y29888474D01*
X33990438Y30044404D01*
X33909842Y30125000D01*
X33990438Y30205596D01*
X34055026Y30361526D01*
X34083000Y30389500D01*
X34083000Y30510500D01*
X34055026Y30538474D01*
X33990438Y30694404D01*
X33819405Y30865437D01*
X33766140Y30887500D01*
X33931000Y30887500D01*
X34083000Y31039500D01*
X34083000Y31120938D01*
X33990438Y31344404D01*
X33819405Y31515437D01*
X33595939Y31608000D01*
X32906000Y31608000D01*
X32754000Y31456000D01*
X32754000Y30887500D01*
X32835500Y30887500D01*
X32754000Y30806000D01*
X32754000Y29301000D01*
X32446000Y29301000D01*
X32446000Y30806000D01*
X32364500Y30887500D01*
X32446000Y30887500D01*
X32446000Y31456000D01*
X32294000Y31608000D01*
X31604061Y31608000D01*
X31380595Y31515437D01*
X31209562Y31344404D01*
X31117000Y31120938D01*
X31117000Y31039500D01*
X31269000Y30887500D01*
X31433860Y30887500D01*
X31380595Y30865437D01*
X31209562Y30694404D01*
X31144974Y30538474D01*
X31117000Y30510500D01*
X31117000Y30389500D01*
X31144974Y30361526D01*
X31209562Y30205596D01*
X31290158Y30125000D01*
X31209562Y30044404D01*
X31144974Y29888474D01*
X31117000Y29860500D01*
X31117000Y29739500D01*
X31144974Y29711526D01*
X31209562Y29555596D01*
X31290158Y29475000D01*
X31209562Y29394404D01*
X31144974Y29238474D01*
X31117000Y29210500D01*
X31117000Y29089500D01*
X31144974Y29061526D01*
X31209562Y28905596D01*
X31380595Y28734563D01*
X31433860Y28712500D01*
X31269000Y28712500D01*
X31117000Y28560500D01*
X31117000Y28488751D01*
X29514157Y26885909D01*
X29431848Y26762726D01*
X27033698Y29160876D01*
X26879597Y29263843D01*
X26697822Y29300000D01*
X26631856Y29300000D01*
X26631856Y29700000D01*
X26612349Y29803671D01*
X26631856Y29900000D01*
X26631856Y30047014D01*
X26790438Y30205596D01*
X26883000Y30429062D01*
X26883000Y30510500D01*
X26731000Y30662500D01*
X26437606Y30662500D01*
X26413837Y30678741D01*
X26275000Y30706856D01*
X24525000Y30706856D01*
X24395298Y30682451D01*
X24364293Y30662500D01*
X24069000Y30662500D01*
X24006500Y30600000D01*
X23554352Y30600000D01*
X23033414Y31120938D01*
X23917000Y31120938D01*
X23917000Y31039500D01*
X24069000Y30887500D01*
X25246000Y30887500D01*
X25246000Y31456000D01*
X25554000Y31456000D01*
X25554000Y30887500D01*
X26731000Y30887500D01*
X26883000Y31039500D01*
X26883000Y31120938D01*
X26790438Y31344404D01*
X26619405Y31515437D01*
X26395939Y31608000D01*
X25706000Y31608000D01*
X25554000Y31456000D01*
X25246000Y31456000D01*
X25094000Y31608000D01*
X24404061Y31608000D01*
X24180595Y31515437D01*
X24009562Y31344404D01*
X23917000Y31120938D01*
X23033414Y31120938D01*
X22474456Y31679896D01*
X22474456Y32635000D01*
X22450051Y32764702D01*
X22373397Y32883825D01*
X22256437Y32963741D01*
X22117600Y32991856D01*
X21152400Y32991856D01*
X21022698Y32967451D01*
X21001227Y32953635D01*
X20986437Y32963741D01*
X20847600Y32991856D01*
X19882400Y32991856D01*
X19752698Y32967451D01*
X19633575Y32890797D01*
X19553659Y32773837D01*
X19525544Y32635000D01*
X19525544Y31679895D01*
X18664124Y30818476D01*
X18561157Y30664375D01*
X18525000Y30482600D01*
X18525000Y27362792D01*
X18459513Y27297305D01*
X18394053Y27522227D01*
X17899501Y27684052D01*
X17380667Y27644303D01*
X17085947Y27522227D01*
X17020486Y27297303D01*
X8425000Y27297303D01*
X8425000Y41750000D01*
X8416834Y41791053D01*
X8416834Y41832913D01*
X8389313Y41971274D01*
X12849888Y41971274D01*
X12948636Y41732286D01*
X13131324Y41549278D01*
X13370140Y41450113D01*
X13628726Y41449888D01*
X13867714Y41548636D01*
X14050722Y41731324D01*
X14149887Y41970140D01*
X14149887Y41971274D01*
X43849888Y41971274D01*
X43948636Y41732286D01*
X44131324Y41549278D01*
X44370140Y41450113D01*
X44628726Y41449888D01*
X44867714Y41548636D01*
X45050722Y41731324D01*
X45058476Y41750000D01*
X49575000Y41750000D01*
X49575000Y16250000D01*
X49583166Y16208947D01*
X49583166Y16167087D01*
X49659286Y15784404D01*
X49659286Y15784403D01*
X49722745Y15631200D01*
X49939518Y15306776D01*
X50056776Y15189518D01*
X50381197Y14972748D01*
X50381200Y14972745D01*
X50489531Y14927873D01*
X50534403Y14909286D01*
X50534404Y14909286D01*
X50917087Y14833166D01*
X51082913Y14833166D01*
X51465596Y14909286D01*
X51465597Y14909286D01*
X51618800Y14972745D01*
X51943224Y15189518D01*
X52060482Y15306776D01*
X52277252Y15631197D01*
X52277255Y15631200D01*
X52333801Y15767714D01*
X52340714Y15784403D01*
X52340714Y15784404D01*
X52416834Y16167087D01*
X52416834Y16208947D01*
X52425000Y16250000D01*
X52425000Y41750000D01*
X52416834Y41791053D01*
X52416834Y41832913D01*
X52340714Y42215596D01*
X52335276Y42228726D01*
X52297259Y42320505D01*
X52277255Y42368800D01*
X52277252Y42368803D01*
X52208784Y42471274D01*
X53849888Y42471274D01*
X53948636Y42232286D01*
X54131324Y42049278D01*
X54370140Y41950113D01*
X54628726Y41949888D01*
X54867714Y42048636D01*
X55050722Y42231324D01*
X55149887Y42470140D01*
X55150112Y42728726D01*
X55051364Y42967714D01*
X54868676Y43150722D01*
X54812092Y43174218D01*
X55546944Y43174218D01*
X55645692Y42935230D01*
X55828380Y42752222D01*
X56067196Y42653057D01*
X56325782Y42652832D01*
X56564770Y42751580D01*
X56747778Y42934268D01*
X56846943Y43173084D01*
X56847168Y43431670D01*
X56748420Y43670658D01*
X56565732Y43853666D01*
X56326916Y43952831D01*
X56068330Y43953056D01*
X55829342Y43854308D01*
X55646334Y43671620D01*
X55547169Y43432804D01*
X55546944Y43174218D01*
X54812092Y43174218D01*
X54629860Y43249887D01*
X54371274Y43250112D01*
X54132286Y43151364D01*
X53949278Y42968676D01*
X53850113Y42729860D01*
X53849888Y42471274D01*
X52208784Y42471274D01*
X52060482Y42693224D01*
X51943224Y42810482D01*
X51618800Y43027255D01*
X51465597Y43090714D01*
X51465596Y43090714D01*
X51082913Y43166834D01*
X50917087Y43166834D01*
X50534404Y43090714D01*
X50489531Y43072127D01*
X50381200Y43027255D01*
X50381197Y43027252D01*
X50056776Y42810482D01*
X49939518Y42693224D01*
X49722745Y42368800D01*
X49661520Y42220990D01*
X49659286Y42215596D01*
X49583166Y41832913D01*
X49583166Y41791053D01*
X49575000Y41750000D01*
X45058476Y41750000D01*
X45149887Y41970140D01*
X45150112Y42228726D01*
X45051364Y42467714D01*
X44868676Y42650722D01*
X44812092Y42674218D01*
X45546944Y42674218D01*
X45645692Y42435230D01*
X45828380Y42252222D01*
X46067196Y42153057D01*
X46325782Y42152832D01*
X46564770Y42251580D01*
X46747778Y42434268D01*
X46846943Y42673084D01*
X46847168Y42931670D01*
X46748420Y43170658D01*
X46744867Y43174218D01*
X52152832Y43174218D01*
X52251580Y42935230D01*
X52434268Y42752222D01*
X52673084Y42653057D01*
X52931670Y42652832D01*
X53170658Y42751580D01*
X53353666Y42934268D01*
X53452831Y43173084D01*
X53453056Y43431670D01*
X53354308Y43670658D01*
X53171620Y43853666D01*
X52932804Y43952831D01*
X52674218Y43953056D01*
X52435230Y43854308D01*
X52252222Y43671620D01*
X52153057Y43432804D01*
X52152832Y43174218D01*
X46744867Y43174218D01*
X46565732Y43353666D01*
X46326916Y43452831D01*
X46068330Y43453056D01*
X45829342Y43354308D01*
X45646334Y43171620D01*
X45547169Y42932804D01*
X45546944Y42674218D01*
X44812092Y42674218D01*
X44629860Y42749887D01*
X44371274Y42750112D01*
X44132286Y42651364D01*
X43949278Y42468676D01*
X43850113Y42229860D01*
X43849888Y41971274D01*
X14149887Y41971274D01*
X14150112Y42228726D01*
X14051364Y42467714D01*
X13868676Y42650722D01*
X13812092Y42674218D01*
X14546944Y42674218D01*
X14645692Y42435230D01*
X14828380Y42252222D01*
X15067196Y42153057D01*
X15325782Y42152832D01*
X15564770Y42251580D01*
X15747778Y42434268D01*
X15846943Y42673084D01*
X15846943Y42674218D01*
X42152832Y42674218D01*
X42251580Y42435230D01*
X42434268Y42252222D01*
X42673084Y42153057D01*
X42931670Y42152832D01*
X43170658Y42251580D01*
X43353666Y42434268D01*
X43452831Y42673084D01*
X43453056Y42931670D01*
X43354308Y43170658D01*
X43171620Y43353666D01*
X42932804Y43452831D01*
X42674218Y43453056D01*
X42435230Y43354308D01*
X42252222Y43171620D01*
X42153057Y42932804D01*
X42152832Y42674218D01*
X15846943Y42674218D01*
X15847168Y42931670D01*
X15748420Y43170658D01*
X15565732Y43353666D01*
X15326916Y43452831D01*
X15068330Y43453056D01*
X14829342Y43354308D01*
X14646334Y43171620D01*
X14547169Y42932804D01*
X14546944Y42674218D01*
X13812092Y42674218D01*
X13629860Y42749887D01*
X13371274Y42750112D01*
X13132286Y42651364D01*
X12949278Y42468676D01*
X12850113Y42229860D01*
X12849888Y41971274D01*
X8389313Y41971274D01*
X8340714Y42215596D01*
X8335276Y42228726D01*
X8297259Y42320505D01*
X8277255Y42368800D01*
X8277252Y42368803D01*
X8073182Y42674218D01*
X11152832Y42674218D01*
X11251580Y42435230D01*
X11434268Y42252222D01*
X11673084Y42153057D01*
X11931670Y42152832D01*
X12170658Y42251580D01*
X12353666Y42434268D01*
X12452831Y42673084D01*
X12453056Y42931670D01*
X12354308Y43170658D01*
X12171620Y43353666D01*
X11932804Y43452831D01*
X11674218Y43453056D01*
X11435230Y43354308D01*
X11252222Y43171620D01*
X11153057Y42932804D01*
X11152832Y42674218D01*
X8073182Y42674218D01*
X8060482Y42693224D01*
X7943224Y42810482D01*
X7618800Y43027255D01*
X7465597Y43090714D01*
X7465596Y43090714D01*
X7082913Y43166834D01*
X6917087Y43166834D01*
X6534404Y43090714D01*
X6489531Y43072127D01*
X6381200Y43027255D01*
X6381197Y43027252D01*
X6056776Y42810482D01*
X5939518Y42693224D01*
X5722745Y42368800D01*
X5661520Y42220990D01*
X5659286Y42215596D01*
X5583166Y41832913D01*
X5583166Y41791053D01*
X5575000Y41750000D01*
X425000Y41750000D01*
X425000Y42471274D01*
X2849888Y42471274D01*
X2948636Y42232286D01*
X3131324Y42049278D01*
X3370140Y41950113D01*
X3628726Y41949888D01*
X3867714Y42048636D01*
X4050722Y42231324D01*
X4149887Y42470140D01*
X4150112Y42728726D01*
X4051364Y42967714D01*
X3868676Y43150722D01*
X3812092Y43174218D01*
X4546944Y43174218D01*
X4645692Y42935230D01*
X4828380Y42752222D01*
X5067196Y42653057D01*
X5325782Y42652832D01*
X5564770Y42751580D01*
X5747778Y42934268D01*
X5846943Y43173084D01*
X5847168Y43431670D01*
X5748420Y43670658D01*
X5565732Y43853666D01*
X5326916Y43952831D01*
X5068330Y43953056D01*
X4829342Y43854308D01*
X4646334Y43671620D01*
X4547169Y43432804D01*
X4546944Y43174218D01*
X3812092Y43174218D01*
X3629860Y43249887D01*
X3371274Y43250112D01*
X3132286Y43151364D01*
X2949278Y42968676D01*
X2850113Y42729860D01*
X2849888Y42471274D01*
X425000Y42471274D01*
X425000Y43174218D01*
X1152832Y43174218D01*
X1251580Y42935230D01*
X1434268Y42752222D01*
X1673084Y42653057D01*
X1931670Y42652832D01*
X2170658Y42751580D01*
X2353666Y42934268D01*
X2452831Y43173084D01*
X2453056Y43431670D01*
X2354308Y43670658D01*
X2171620Y43853666D01*
X1932804Y43952831D01*
X1674218Y43953056D01*
X1435230Y43854308D01*
X1252222Y43671620D01*
X1153057Y43432804D01*
X1152832Y43174218D01*
X425000Y43174218D01*
X425000Y44871274D01*
X449888Y44871274D01*
X548636Y44632286D01*
X731324Y44449278D01*
X970140Y44350113D01*
X1228726Y44349888D01*
X1467714Y44448636D01*
X1650722Y44631324D01*
X1749887Y44870140D01*
X1749887Y44871274D01*
X5249888Y44871274D01*
X5348636Y44632286D01*
X5531324Y44449278D01*
X5770140Y44350113D01*
X6028726Y44349888D01*
X6080483Y44371274D01*
X10449888Y44371274D01*
X10548636Y44132286D01*
X10731324Y43949278D01*
X10970140Y43850113D01*
X11228726Y43849888D01*
X11467714Y43948636D01*
X11650722Y44131324D01*
X11749887Y44370140D01*
X11749887Y44371274D01*
X15249888Y44371274D01*
X15348636Y44132286D01*
X15531324Y43949278D01*
X15770140Y43850113D01*
X16028726Y43849888D01*
X16267714Y43948636D01*
X16450722Y44131324D01*
X16549887Y44370140D01*
X16549887Y44371274D01*
X41449888Y44371274D01*
X41548636Y44132286D01*
X41731324Y43949278D01*
X41970140Y43850113D01*
X42228726Y43849888D01*
X42467714Y43948636D01*
X42650722Y44131324D01*
X42749887Y44370140D01*
X42749887Y44371274D01*
X46249888Y44371274D01*
X46348636Y44132286D01*
X46531324Y43949278D01*
X46770140Y43850113D01*
X47028726Y43849888D01*
X47267714Y43948636D01*
X47450722Y44131324D01*
X47549887Y44370140D01*
X47550112Y44628726D01*
X47451364Y44867714D01*
X47447811Y44871274D01*
X51449888Y44871274D01*
X51548636Y44632286D01*
X51731324Y44449278D01*
X51970140Y44350113D01*
X52228726Y44349888D01*
X52467714Y44448636D01*
X52650722Y44631324D01*
X52749887Y44870140D01*
X52749887Y44871274D01*
X56249888Y44871274D01*
X56348636Y44632286D01*
X56531324Y44449278D01*
X56770140Y44350113D01*
X57028726Y44349888D01*
X57267714Y44448636D01*
X57450722Y44631324D01*
X57549887Y44870140D01*
X57550112Y45128726D01*
X57451364Y45367714D01*
X57268676Y45550722D01*
X57029860Y45649887D01*
X56771274Y45650112D01*
X56532286Y45551364D01*
X56349278Y45368676D01*
X56250113Y45129860D01*
X56249888Y44871274D01*
X52749887Y44871274D01*
X52750112Y45128726D01*
X52651364Y45367714D01*
X52468676Y45550722D01*
X52229860Y45649887D01*
X51971274Y45650112D01*
X51732286Y45551364D01*
X51549278Y45368676D01*
X51450113Y45129860D01*
X51449888Y44871274D01*
X47447811Y44871274D01*
X47268676Y45050722D01*
X47029860Y45149887D01*
X46771274Y45150112D01*
X46532286Y45051364D01*
X46349278Y44868676D01*
X46250113Y44629860D01*
X46249888Y44371274D01*
X42749887Y44371274D01*
X42750112Y44628726D01*
X42651364Y44867714D01*
X42468676Y45050722D01*
X42229860Y45149887D01*
X41971274Y45150112D01*
X41732286Y45051364D01*
X41549278Y44868676D01*
X41450113Y44629860D01*
X41449888Y44371274D01*
X16549887Y44371274D01*
X16550112Y44628726D01*
X16451364Y44867714D01*
X16268676Y45050722D01*
X16029860Y45149887D01*
X15771274Y45150112D01*
X15532286Y45051364D01*
X15349278Y44868676D01*
X15250113Y44629860D01*
X15249888Y44371274D01*
X11749887Y44371274D01*
X11750112Y44628726D01*
X11651364Y44867714D01*
X11468676Y45050722D01*
X11229860Y45149887D01*
X10971274Y45150112D01*
X10732286Y45051364D01*
X10549278Y44868676D01*
X10450113Y44629860D01*
X10449888Y44371274D01*
X6080483Y44371274D01*
X6267714Y44448636D01*
X6450722Y44631324D01*
X6549887Y44870140D01*
X6550112Y45128726D01*
X6451364Y45367714D01*
X6268676Y45550722D01*
X6029860Y45649887D01*
X5771274Y45650112D01*
X5532286Y45551364D01*
X5349278Y45368676D01*
X5250113Y45129860D01*
X5249888Y44871274D01*
X1749887Y44871274D01*
X1750112Y45128726D01*
X1651364Y45367714D01*
X1468676Y45550722D01*
X1229860Y45649887D01*
X971274Y45650112D01*
X732286Y45551364D01*
X549278Y45368676D01*
X450113Y45129860D01*
X449888Y44871274D01*
X425000Y44871274D01*
X425000Y46568330D01*
X1152832Y46568330D01*
X1251580Y46329342D01*
X1434268Y46146334D01*
X1673084Y46047169D01*
X1931670Y46046944D01*
X2170658Y46145692D01*
X2353666Y46328380D01*
X2452831Y46567196D01*
X2452831Y46568330D01*
X4546944Y46568330D01*
X4645692Y46329342D01*
X4828380Y46146334D01*
X5067196Y46047169D01*
X5325782Y46046944D01*
X5564770Y46145692D01*
X5747778Y46328380D01*
X5846943Y46567196D01*
X5847168Y46825782D01*
X5748420Y47064770D01*
X5565732Y47247778D01*
X5360705Y47332913D01*
X6272506Y47332913D01*
X6272506Y47167087D01*
X6353244Y46761190D01*
X6353244Y46761189D01*
X6416703Y46607986D01*
X6646625Y46263883D01*
X6763883Y46146625D01*
X7107986Y45916703D01*
X7261189Y45853244D01*
X7261190Y45853244D01*
X7667087Y45772506D01*
X7832913Y45772506D01*
X8238810Y45853244D01*
X8238811Y45853244D01*
X8392014Y45916703D01*
X8618940Y46068330D01*
X11152832Y46068330D01*
X11251580Y45829342D01*
X11434268Y45646334D01*
X11673084Y45547169D01*
X11931670Y45546944D01*
X12170658Y45645692D01*
X12353666Y45828380D01*
X12452831Y46067196D01*
X12452831Y46068330D01*
X14546944Y46068330D01*
X14645692Y45829342D01*
X14828380Y45646334D01*
X15067196Y45547169D01*
X15325782Y45546944D01*
X15564770Y45645692D01*
X15747778Y45828380D01*
X15846943Y46067196D01*
X15846943Y46068330D01*
X42152832Y46068330D01*
X42251580Y45829342D01*
X42434268Y45646334D01*
X42673084Y45547169D01*
X42931670Y45546944D01*
X43170658Y45645692D01*
X43353666Y45828380D01*
X43452831Y46067196D01*
X43452831Y46068330D01*
X45546944Y46068330D01*
X45645692Y45829342D01*
X45828380Y45646334D01*
X46067196Y45547169D01*
X46325782Y45546944D01*
X46564770Y45645692D01*
X46747778Y45828380D01*
X46846943Y46067196D01*
X46847168Y46325782D01*
X46748420Y46564770D01*
X46565732Y46747778D01*
X46326916Y46846943D01*
X46068330Y46847168D01*
X45829342Y46748420D01*
X45646334Y46565732D01*
X45547169Y46326916D01*
X45546944Y46068330D01*
X43452831Y46068330D01*
X43453056Y46325782D01*
X43354308Y46564770D01*
X43171620Y46747778D01*
X43115036Y46771274D01*
X43849888Y46771274D01*
X43948636Y46532286D01*
X44131324Y46349278D01*
X44370140Y46250113D01*
X44628726Y46249888D01*
X44867714Y46348636D01*
X45050722Y46531324D01*
X45149887Y46770140D01*
X45150112Y47028726D01*
X45051364Y47267714D01*
X44868676Y47450722D01*
X44629860Y47549887D01*
X44371274Y47550112D01*
X44132286Y47451364D01*
X43949278Y47268676D01*
X43850113Y47029860D01*
X43849888Y46771274D01*
X43115036Y46771274D01*
X42932804Y46846943D01*
X42674218Y46847168D01*
X42435230Y46748420D01*
X42252222Y46565732D01*
X42153057Y46326916D01*
X42152832Y46068330D01*
X15846943Y46068330D01*
X15847168Y46325782D01*
X15748420Y46564770D01*
X15565732Y46747778D01*
X15326916Y46846943D01*
X15068330Y46847168D01*
X14829342Y46748420D01*
X14646334Y46565732D01*
X14547169Y46326916D01*
X14546944Y46068330D01*
X12452831Y46068330D01*
X12453056Y46325782D01*
X12354308Y46564770D01*
X12171620Y46747778D01*
X12115036Y46771274D01*
X12849888Y46771274D01*
X12948636Y46532286D01*
X13131324Y46349278D01*
X13370140Y46250113D01*
X13628726Y46249888D01*
X13867714Y46348636D01*
X14050722Y46531324D01*
X14149887Y46770140D01*
X14150112Y47028726D01*
X14051364Y47267714D01*
X13868676Y47450722D01*
X13629860Y47549887D01*
X13371274Y47550112D01*
X13132286Y47451364D01*
X12949278Y47268676D01*
X12850113Y47029860D01*
X12849888Y46771274D01*
X12115036Y46771274D01*
X11932804Y46846943D01*
X11674218Y46847168D01*
X11435230Y46748420D01*
X11252222Y46565732D01*
X11153057Y46326916D01*
X11152832Y46068330D01*
X8618940Y46068330D01*
X8736117Y46146625D01*
X8765717Y46176225D01*
X8800520Y46199480D01*
X11800521Y49199480D01*
X11823777Y49234285D01*
X11853375Y49263883D01*
X12083297Y49607986D01*
X12146756Y49761189D01*
X12146756Y49761190D01*
X12227494Y50167087D01*
X12227494Y50332913D01*
X12146756Y50738810D01*
X12136371Y50763883D01*
X12083297Y50892014D01*
X11955742Y51082914D01*
X14833166Y51082914D01*
X14833166Y50917087D01*
X14909286Y50534404D01*
X14909286Y50534403D01*
X14972745Y50381200D01*
X15189518Y50056776D01*
X15306776Y49939518D01*
X15631197Y49722748D01*
X15631200Y49722745D01*
X15739531Y49677873D01*
X15784403Y49659286D01*
X15784404Y49659286D01*
X16167087Y49583166D01*
X16208947Y49583166D01*
X16250000Y49575000D01*
X41750000Y49575000D01*
X41791053Y49583166D01*
X41832913Y49583166D01*
X42215596Y49659286D01*
X42215597Y49659286D01*
X42368800Y49722745D01*
X42693224Y49939518D01*
X42810482Y50056776D01*
X42994989Y50332913D01*
X45772506Y50332913D01*
X45772506Y50167087D01*
X45853244Y49761190D01*
X45853244Y49761189D01*
X45916703Y49607986D01*
X46146625Y49263883D01*
X46176225Y49234283D01*
X46199480Y49199480D01*
X49199480Y46199479D01*
X49234285Y46176223D01*
X49263883Y46146625D01*
X49607986Y45916703D01*
X49761189Y45853244D01*
X49761190Y45853244D01*
X50167087Y45772506D01*
X50332913Y45772506D01*
X50738810Y45853244D01*
X50738811Y45853244D01*
X50892014Y45916703D01*
X51236117Y46146625D01*
X51353375Y46263883D01*
X51556799Y46568330D01*
X52152832Y46568330D01*
X52251580Y46329342D01*
X52434268Y46146334D01*
X52673084Y46047169D01*
X52931670Y46046944D01*
X53170658Y46145692D01*
X53353666Y46328380D01*
X53452831Y46567196D01*
X53452831Y46568330D01*
X55546944Y46568330D01*
X55645692Y46329342D01*
X55828380Y46146334D01*
X56067196Y46047169D01*
X56325782Y46046944D01*
X56564770Y46145692D01*
X56747778Y46328380D01*
X56846943Y46567196D01*
X56847168Y46825782D01*
X56748420Y47064770D01*
X56565732Y47247778D01*
X56326916Y47346943D01*
X56068330Y47347168D01*
X55829342Y47248420D01*
X55646334Y47065732D01*
X55547169Y46826916D01*
X55546944Y46568330D01*
X53452831Y46568330D01*
X53453056Y46825782D01*
X53354308Y47064770D01*
X53171620Y47247778D01*
X53115036Y47271274D01*
X53849888Y47271274D01*
X53948636Y47032286D01*
X54131324Y46849278D01*
X54370140Y46750113D01*
X54628726Y46749888D01*
X54867714Y46848636D01*
X55050722Y47031324D01*
X55149887Y47270140D01*
X55150112Y47528726D01*
X55051364Y47767714D01*
X54868676Y47950722D01*
X54629860Y48049887D01*
X54371274Y48050112D01*
X54132286Y47951364D01*
X53949278Y47768676D01*
X53850113Y47529860D01*
X53849888Y47271274D01*
X53115036Y47271274D01*
X52932804Y47346943D01*
X52674218Y47347168D01*
X52435230Y47248420D01*
X52252222Y47065732D01*
X52153057Y46826916D01*
X52152832Y46568330D01*
X51556799Y46568330D01*
X51583297Y46607986D01*
X51646756Y46761189D01*
X51646756Y46761190D01*
X51727494Y47167087D01*
X51727494Y47332913D01*
X51646756Y47738810D01*
X51636371Y47763883D01*
X51583297Y47892014D01*
X51353375Y48236117D01*
X51323777Y48265715D01*
X51300521Y48300520D01*
X48300520Y51300520D01*
X48265717Y51323775D01*
X48236117Y51353375D01*
X47892014Y51583297D01*
X47738811Y51646756D01*
X47738810Y51646756D01*
X47332913Y51727494D01*
X47167087Y51727494D01*
X46761190Y51646756D01*
X46607986Y51583297D01*
X46263883Y51353375D01*
X46146625Y51236117D01*
X45916703Y50892014D01*
X45863630Y50763883D01*
X45853244Y50738810D01*
X45772506Y50332913D01*
X42994989Y50332913D01*
X43027252Y50381197D01*
X43027255Y50381200D01*
X43090714Y50534404D01*
X43166834Y50917087D01*
X43166834Y51082914D01*
X43090714Y51465596D01*
X43027255Y51618800D01*
X43027252Y51618803D01*
X42810482Y51943224D01*
X42782432Y51971274D01*
X44349888Y51971274D01*
X44448636Y51732286D01*
X44631324Y51549278D01*
X44870140Y51450113D01*
X45128726Y51449888D01*
X45367714Y51548636D01*
X45550722Y51731324D01*
X45649887Y51970140D01*
X45650112Y52228726D01*
X45551364Y52467714D01*
X45368676Y52650722D01*
X45312092Y52674218D01*
X46046944Y52674218D01*
X46145692Y52435230D01*
X46328380Y52252222D01*
X46567196Y52153057D01*
X46825782Y52152832D01*
X47064770Y52251580D01*
X47247778Y52434268D01*
X47346943Y52673084D01*
X47347168Y52931670D01*
X47248420Y53170658D01*
X47065732Y53353666D01*
X46826916Y53452831D01*
X46568330Y53453056D01*
X46329342Y53354308D01*
X46146334Y53171620D01*
X46047169Y52932804D01*
X46046944Y52674218D01*
X45312092Y52674218D01*
X45129860Y52749887D01*
X44871274Y52750112D01*
X44632286Y52651364D01*
X44449278Y52468676D01*
X44350113Y52229860D01*
X44349888Y51971274D01*
X42782432Y51971274D01*
X42693224Y52060482D01*
X42368800Y52277255D01*
X42215597Y52340714D01*
X42215596Y52340714D01*
X41832913Y52416834D01*
X41791053Y52416834D01*
X41750000Y52425000D01*
X16250000Y52425000D01*
X16208947Y52416834D01*
X16167087Y52416834D01*
X15784404Y52340714D01*
X15739531Y52322127D01*
X15631200Y52277255D01*
X15631197Y52277252D01*
X15306776Y52060482D01*
X15189518Y51943224D01*
X14972745Y51618800D01*
X14926455Y51507046D01*
X14909286Y51465596D01*
X14833166Y51082914D01*
X11955742Y51082914D01*
X11853375Y51236117D01*
X11736117Y51353375D01*
X11392014Y51583297D01*
X11238811Y51646756D01*
X11238810Y51646756D01*
X10832913Y51727494D01*
X10667087Y51727494D01*
X10261190Y51646756D01*
X10107986Y51583297D01*
X9763883Y51353375D01*
X9734285Y51323777D01*
X9699480Y51300521D01*
X6699480Y48300520D01*
X6676225Y48265717D01*
X6646625Y48236117D01*
X6416703Y47892014D01*
X6363630Y47763883D01*
X6353244Y47738810D01*
X6272506Y47332913D01*
X5360705Y47332913D01*
X5326916Y47346943D01*
X5068330Y47347168D01*
X4829342Y47248420D01*
X4646334Y47065732D01*
X4547169Y46826916D01*
X4546944Y46568330D01*
X2452831Y46568330D01*
X2453056Y46825782D01*
X2354308Y47064770D01*
X2171620Y47247778D01*
X2115036Y47271274D01*
X2849888Y47271274D01*
X2948636Y47032286D01*
X3131324Y46849278D01*
X3370140Y46750113D01*
X3628726Y46749888D01*
X3867714Y46848636D01*
X4050722Y47031324D01*
X4149887Y47270140D01*
X4150112Y47528726D01*
X4051364Y47767714D01*
X3868676Y47950722D01*
X3629860Y48049887D01*
X3371274Y48050112D01*
X3132286Y47951364D01*
X2949278Y47768676D01*
X2850113Y47529860D01*
X2849888Y47271274D01*
X2115036Y47271274D01*
X1932804Y47346943D01*
X1674218Y47347168D01*
X1435230Y47248420D01*
X1252222Y47065732D01*
X1153057Y46826916D01*
X1152832Y46568330D01*
X425000Y46568330D01*
X425000Y48575000D01*
X4500000Y48575000D01*
X4541053Y48583166D01*
X4582913Y48583166D01*
X6304988Y48925708D01*
X6304989Y48925708D01*
X6458192Y48989167D01*
X7918098Y49964644D01*
X8035356Y50081902D01*
X9010832Y51541807D01*
X9010833Y51541808D01*
X9074292Y51695012D01*
X9129243Y51971274D01*
X12349888Y51971274D01*
X12448636Y51732286D01*
X12631324Y51549278D01*
X12870140Y51450113D01*
X13128726Y51449888D01*
X13367714Y51548636D01*
X13550722Y51731324D01*
X13649887Y51970140D01*
X13650112Y52228726D01*
X13551364Y52467714D01*
X13368676Y52650722D01*
X13312092Y52674218D01*
X14046944Y52674218D01*
X14145692Y52435230D01*
X14328380Y52252222D01*
X14567196Y52153057D01*
X14825782Y52152832D01*
X15064770Y52251580D01*
X15247778Y52434268D01*
X15346943Y52673084D01*
X15346943Y52674218D01*
X42652832Y52674218D01*
X42751580Y52435230D01*
X42934268Y52252222D01*
X43173084Y52153057D01*
X43431670Y52152832D01*
X43670658Y52251580D01*
X43853666Y52434268D01*
X43952831Y52673084D01*
X43953056Y52931670D01*
X43854308Y53170658D01*
X43671620Y53353666D01*
X43432804Y53452831D01*
X43174218Y53453056D01*
X42935230Y53354308D01*
X42752222Y53171620D01*
X42653057Y52932804D01*
X42652832Y52674218D01*
X15346943Y52674218D01*
X15347168Y52931670D01*
X15248420Y53170658D01*
X15065732Y53353666D01*
X14826916Y53452831D01*
X14568330Y53453056D01*
X14329342Y53354308D01*
X14146334Y53171620D01*
X14047169Y52932804D01*
X14046944Y52674218D01*
X13312092Y52674218D01*
X13129860Y52749887D01*
X12871274Y52750112D01*
X12632286Y52651364D01*
X12449278Y52468676D01*
X12350113Y52229860D01*
X12349888Y51971274D01*
X9129243Y51971274D01*
X9269068Y52674218D01*
X10652832Y52674218D01*
X10751580Y52435230D01*
X10934268Y52252222D01*
X11173084Y52153057D01*
X11431670Y52152832D01*
X11670658Y52251580D01*
X11853666Y52434268D01*
X11952831Y52673084D01*
X11953056Y52931670D01*
X11854308Y53170658D01*
X11671620Y53353666D01*
X11432804Y53452831D01*
X11174218Y53453056D01*
X10935230Y53354308D01*
X10752222Y53171620D01*
X10653057Y52932804D01*
X10652832Y52674218D01*
X9269068Y52674218D01*
X9416834Y53417086D01*
X9416834Y53458947D01*
X9425000Y53500000D01*
X9425000Y54371274D01*
X9949888Y54371274D01*
X10048636Y54132286D01*
X10231324Y53949278D01*
X10470140Y53850113D01*
X10728726Y53849888D01*
X10967714Y53948636D01*
X11150722Y54131324D01*
X11249887Y54370140D01*
X11249887Y54371274D01*
X14749888Y54371274D01*
X14848636Y54132286D01*
X15031324Y53949278D01*
X15270140Y53850113D01*
X15528726Y53849888D01*
X15767714Y53948636D01*
X15950722Y54131324D01*
X16049887Y54370140D01*
X16049887Y54371274D01*
X41949888Y54371274D01*
X42048636Y54132286D01*
X42231324Y53949278D01*
X42470140Y53850113D01*
X42728726Y53849888D01*
X42967714Y53948636D01*
X43150722Y54131324D01*
X43249887Y54370140D01*
X43249887Y54371274D01*
X46749888Y54371274D01*
X46848636Y54132286D01*
X47031324Y53949278D01*
X47270140Y53850113D01*
X47528726Y53849888D01*
X47767714Y53948636D01*
X47950722Y54131324D01*
X48049887Y54370140D01*
X48050112Y54628726D01*
X47951364Y54867714D01*
X47768676Y55050722D01*
X47529860Y55149887D01*
X47271274Y55150112D01*
X47032286Y55051364D01*
X46849278Y54868676D01*
X46750113Y54629860D01*
X46749888Y54371274D01*
X43249887Y54371274D01*
X43250112Y54628726D01*
X43151364Y54867714D01*
X42968676Y55050722D01*
X42729860Y55149887D01*
X42471274Y55150112D01*
X42232286Y55051364D01*
X42049278Y54868676D01*
X41950113Y54629860D01*
X41949888Y54371274D01*
X16049887Y54371274D01*
X16050112Y54628726D01*
X15951364Y54867714D01*
X15768676Y55050722D01*
X15529860Y55149887D01*
X15271274Y55150112D01*
X15032286Y55051364D01*
X14849278Y54868676D01*
X14750113Y54629860D01*
X14749888Y54371274D01*
X11249887Y54371274D01*
X11250112Y54628726D01*
X11151364Y54867714D01*
X10968676Y55050722D01*
X10729860Y55149887D01*
X10471274Y55150112D01*
X10232286Y55051364D01*
X10049278Y54868676D01*
X9950113Y54629860D01*
X9949888Y54371274D01*
X9425000Y54371274D01*
X9425000Y56068330D01*
X10652832Y56068330D01*
X10751580Y55829342D01*
X10934268Y55646334D01*
X11173084Y55547169D01*
X11431670Y55546944D01*
X11670658Y55645692D01*
X11853666Y55828380D01*
X11952831Y56067196D01*
X11952831Y56068330D01*
X14046944Y56068330D01*
X14145692Y55829342D01*
X14328380Y55646334D01*
X14567196Y55547169D01*
X14825782Y55546944D01*
X15064770Y55645692D01*
X15247778Y55828380D01*
X15346943Y56067196D01*
X15346943Y56068330D01*
X42652832Y56068330D01*
X42751580Y55829342D01*
X42934268Y55646334D01*
X43173084Y55547169D01*
X43431670Y55546944D01*
X43670658Y55645692D01*
X43853666Y55828380D01*
X43952831Y56067196D01*
X43952831Y56068330D01*
X46046944Y56068330D01*
X46145692Y55829342D01*
X46328380Y55646334D01*
X46567196Y55547169D01*
X46825782Y55546944D01*
X47064770Y55645692D01*
X47247778Y55828380D01*
X47346943Y56067196D01*
X47347168Y56325782D01*
X47248420Y56564770D01*
X47065732Y56747778D01*
X46826916Y56846943D01*
X46568330Y56847168D01*
X46329342Y56748420D01*
X46146334Y56565732D01*
X46047169Y56326916D01*
X46046944Y56068330D01*
X43952831Y56068330D01*
X43953056Y56325782D01*
X43854308Y56564770D01*
X43671620Y56747778D01*
X43615036Y56771274D01*
X44349888Y56771274D01*
X44448636Y56532286D01*
X44631324Y56349278D01*
X44870140Y56250113D01*
X45128726Y56249888D01*
X45367714Y56348636D01*
X45550722Y56531324D01*
X45649887Y56770140D01*
X45650112Y57028726D01*
X45551364Y57267714D01*
X45368676Y57450722D01*
X45129860Y57549887D01*
X44871274Y57550112D01*
X44632286Y57451364D01*
X44449278Y57268676D01*
X44350113Y57029860D01*
X44349888Y56771274D01*
X43615036Y56771274D01*
X43432804Y56846943D01*
X43174218Y56847168D01*
X42935230Y56748420D01*
X42752222Y56565732D01*
X42653057Y56326916D01*
X42652832Y56068330D01*
X15346943Y56068330D01*
X15347168Y56325782D01*
X15248420Y56564770D01*
X15065732Y56747778D01*
X14826916Y56846943D01*
X14568330Y56847168D01*
X14329342Y56748420D01*
X14146334Y56565732D01*
X14047169Y56326916D01*
X14046944Y56068330D01*
X11952831Y56068330D01*
X11953056Y56325782D01*
X11854308Y56564770D01*
X11671620Y56747778D01*
X11615036Y56771274D01*
X12349888Y56771274D01*
X12448636Y56532286D01*
X12631324Y56349278D01*
X12870140Y56250113D01*
X13128726Y56249888D01*
X13367714Y56348636D01*
X13550722Y56531324D01*
X13649887Y56770140D01*
X13650112Y57028726D01*
X13551364Y57267714D01*
X13368676Y57450722D01*
X13129860Y57549887D01*
X12871274Y57550112D01*
X12632286Y57451364D01*
X12449278Y57268676D01*
X12350113Y57029860D01*
X12349888Y56771274D01*
X11615036Y56771274D01*
X11432804Y56846943D01*
X11174218Y56847168D01*
X10935230Y56748420D01*
X10752222Y56565732D01*
X10653057Y56326916D01*
X10652832Y56068330D01*
X9425000Y56068330D01*
X9425000Y57575000D01*
X48575000Y57575000D01*
X48575000Y53500000D01*
G36*
X28025000Y25553249D02*
X28025000Y23500000D01*
X28061157Y23318225D01*
X28164124Y23164124D01*
X32525000Y18803248D01*
X32525000Y17694266D01*
X32449278Y17618676D01*
X32350113Y17379860D01*
X32349888Y17121274D01*
X32448636Y16882286D01*
X32631324Y16699278D01*
X32870140Y16600113D01*
X33128726Y16599888D01*
X33367714Y16698636D01*
X33550722Y16881324D01*
X33625061Y17060352D01*
X33698636Y16882286D01*
X33881324Y16699278D01*
X34120140Y16600113D01*
X34378726Y16599888D01*
X34617714Y16698636D01*
X34800722Y16881324D01*
X34818199Y16923414D01*
X34823616Y16910304D01*
X35006304Y16727296D01*
X35245120Y16628131D01*
X35503706Y16627906D01*
X35742694Y16726654D01*
X35798442Y16782305D01*
X35881324Y16699278D01*
X36120140Y16600113D01*
X36378726Y16599888D01*
X36617714Y16698636D01*
X36650001Y16730867D01*
X36650001Y11571753D01*
X35478267Y10400019D01*
X35371274Y10400112D01*
X35132286Y10301364D01*
X34949278Y10118676D01*
X34874939Y9939648D01*
X34801364Y10117714D01*
X34618676Y10300722D01*
X34379860Y10399887D01*
X34121274Y10400112D01*
X33882286Y10301364D01*
X33805788Y10225000D01*
X33196752Y10225000D01*
X32015395Y11406357D01*
X32117718Y11448636D01*
X32300726Y11631324D01*
X32399891Y11870140D01*
X32400116Y12128726D01*
X32301368Y12367714D01*
X32118680Y12550722D01*
X31879864Y12649887D01*
X31771775Y12649981D01*
X25725000Y18696756D01*
X25725000Y21282256D01*
X25779702Y21292549D01*
X25819108Y21317906D01*
X25834562Y21280596D01*
X26005595Y21109563D01*
X26229061Y21017000D01*
X26444000Y21017000D01*
X26596000Y21169000D01*
X26596000Y21846000D01*
X26904000Y21846000D01*
X26904000Y21169000D01*
X27056000Y21017000D01*
X27270939Y21017000D01*
X27494405Y21109563D01*
X27665438Y21280596D01*
X27758000Y21504062D01*
X27758000Y21694000D01*
X27606000Y21846000D01*
X26904000Y21846000D01*
X26596000Y21846000D01*
X26576000Y21846000D01*
X26576000Y22154000D01*
X26596000Y22154000D01*
X26596000Y22831000D01*
X26904000Y22831000D01*
X26904000Y22154000D01*
X27606000Y22154000D01*
X27758000Y22306000D01*
X27758000Y22495938D01*
X27665438Y22719404D01*
X27494405Y22890437D01*
X27270939Y22983000D01*
X27056000Y22983000D01*
X26904000Y22831000D01*
X26596000Y22831000D01*
X26444000Y22983000D01*
X26229061Y22983000D01*
X26005595Y22890437D01*
X25875000Y22759842D01*
X25875000Y24343144D01*
X26275000Y24343144D01*
X26404702Y24367549D01*
X26523825Y24444203D01*
X26603741Y24561163D01*
X26631856Y24700000D01*
X26631856Y25150000D01*
X26612349Y25253671D01*
X26631856Y25350000D01*
X26631856Y25750000D01*
X27828248Y25750000D01*
X28025000Y25553249D01*
X28025000Y25553249D01*
G37*
X28025000Y25553249D02*
X28025000Y23500000D01*
X28061157Y23318225D01*
X28164124Y23164124D01*
X32525000Y18803248D01*
X32525000Y17694266D01*
X32449278Y17618676D01*
X32350113Y17379860D01*
X32349888Y17121274D01*
X32448636Y16882286D01*
X32631324Y16699278D01*
X32870140Y16600113D01*
X33128726Y16599888D01*
X33367714Y16698636D01*
X33550722Y16881324D01*
X33625061Y17060352D01*
X33698636Y16882286D01*
X33881324Y16699278D01*
X34120140Y16600113D01*
X34378726Y16599888D01*
X34617714Y16698636D01*
X34800722Y16881324D01*
X34818199Y16923414D01*
X34823616Y16910304D01*
X35006304Y16727296D01*
X35245120Y16628131D01*
X35503706Y16627906D01*
X35742694Y16726654D01*
X35798442Y16782305D01*
X35881324Y16699278D01*
X36120140Y16600113D01*
X36378726Y16599888D01*
X36617714Y16698636D01*
X36650001Y16730867D01*
X36650001Y11571753D01*
X35478267Y10400019D01*
X35371274Y10400112D01*
X35132286Y10301364D01*
X34949278Y10118676D01*
X34874939Y9939648D01*
X34801364Y10117714D01*
X34618676Y10300722D01*
X34379860Y10399887D01*
X34121274Y10400112D01*
X33882286Y10301364D01*
X33805788Y10225000D01*
X33196752Y10225000D01*
X32015395Y11406357D01*
X32117718Y11448636D01*
X32300726Y11631324D01*
X32399891Y11870140D01*
X32400116Y12128726D01*
X32301368Y12367714D01*
X32118680Y12550722D01*
X31879864Y12649887D01*
X31771775Y12649981D01*
X25725000Y18696756D01*
X25725000Y21282256D01*
X25779702Y21292549D01*
X25819108Y21317906D01*
X25834562Y21280596D01*
X26005595Y21109563D01*
X26229061Y21017000D01*
X26444000Y21017000D01*
X26596000Y21169000D01*
X26596000Y21846000D01*
X26904000Y21846000D01*
X26904000Y21169000D01*
X27056000Y21017000D01*
X27270939Y21017000D01*
X27494405Y21109563D01*
X27665438Y21280596D01*
X27758000Y21504062D01*
X27758000Y21694000D01*
X27606000Y21846000D01*
X26904000Y21846000D01*
X26596000Y21846000D01*
X26576000Y21846000D01*
X26576000Y22154000D01*
X26596000Y22154000D01*
X26596000Y22831000D01*
X26904000Y22831000D01*
X26904000Y22154000D01*
X27606000Y22154000D01*
X27758000Y22306000D01*
X27758000Y22495938D01*
X27665438Y22719404D01*
X27494405Y22890437D01*
X27270939Y22983000D01*
X27056000Y22983000D01*
X26904000Y22831000D01*
X26596000Y22831000D01*
X26444000Y22983000D01*
X26229061Y22983000D01*
X26005595Y22890437D01*
X25875000Y22759842D01*
X25875000Y24343144D01*
X26275000Y24343144D01*
X26404702Y24367549D01*
X26523825Y24444203D01*
X26603741Y24561163D01*
X26631856Y24700000D01*
X26631856Y25150000D01*
X26612349Y25253671D01*
X26631856Y25350000D01*
X26631856Y25750000D01*
X27828248Y25750000D01*
X28025000Y25553249D01*
G36*
X20720248Y30483000D02*
X20556000Y30483000D01*
X20404000Y30331000D01*
X20404000Y29654000D01*
X20424000Y29654000D01*
X20424000Y29346000D01*
X20404000Y29346000D01*
X20404000Y28669000D01*
X20556000Y28517000D01*
X20770939Y28517000D01*
X20994405Y28609563D01*
X21165438Y28780596D01*
X21180581Y28817155D01*
X21211163Y28796259D01*
X21350000Y28768144D01*
X22150000Y28768144D01*
X22279702Y28792549D01*
X22398825Y28869203D01*
X22478741Y28986163D01*
X22481543Y29000000D01*
X24168144Y29000000D01*
X24168144Y28902986D01*
X24009562Y28744404D01*
X23917000Y28520938D01*
X23917000Y28439500D01*
X24069000Y28287500D01*
X24362394Y28287500D01*
X24386163Y28271259D01*
X24525000Y28243144D01*
X25574000Y28243144D01*
X25574000Y28106856D01*
X24525000Y28106856D01*
X24395298Y28082451D01*
X24364293Y28062500D01*
X24069000Y28062500D01*
X24006500Y28000000D01*
X23525005Y28000000D01*
X23525000Y28000001D01*
X23373384Y27969842D01*
X23343225Y27963843D01*
X23264384Y27911163D01*
X23189124Y27860876D01*
X22163248Y26835000D01*
X21219836Y26835000D01*
X21170666Y26954000D01*
X20875554Y27249628D01*
X20489774Y27409818D01*
X20072058Y27410182D01*
X19686000Y27250666D01*
X19475000Y27040034D01*
X19475000Y28640158D01*
X19505595Y28609563D01*
X19729061Y28517000D01*
X19944000Y28517000D01*
X20096000Y28669000D01*
X20096000Y29346000D01*
X20076000Y29346000D01*
X20076000Y29654000D01*
X20096000Y29654000D01*
X20096000Y30331000D01*
X19944000Y30483000D01*
X19729061Y30483000D01*
X19631911Y30442759D01*
X20196200Y31007048D01*
X20720248Y30483000D01*
X20720248Y30483000D01*
G37*
X20720248Y30483000D02*
X20556000Y30483000D01*
X20404000Y30331000D01*
X20404000Y29654000D01*
X20424000Y29654000D01*
X20424000Y29346000D01*
X20404000Y29346000D01*
X20404000Y28669000D01*
X20556000Y28517000D01*
X20770939Y28517000D01*
X20994405Y28609563D01*
X21165438Y28780596D01*
X21180581Y28817155D01*
X21211163Y28796259D01*
X21350000Y28768144D01*
X22150000Y28768144D01*
X22279702Y28792549D01*
X22398825Y28869203D01*
X22478741Y28986163D01*
X22481543Y29000000D01*
X24168144Y29000000D01*
X24168144Y28902986D01*
X24009562Y28744404D01*
X23917000Y28520938D01*
X23917000Y28439500D01*
X24069000Y28287500D01*
X24362394Y28287500D01*
X24386163Y28271259D01*
X24525000Y28243144D01*
X25574000Y28243144D01*
X25574000Y28106856D01*
X24525000Y28106856D01*
X24395298Y28082451D01*
X24364293Y28062500D01*
X24069000Y28062500D01*
X24006500Y28000000D01*
X23525005Y28000000D01*
X23525000Y28000001D01*
X23373384Y27969842D01*
X23343225Y27963843D01*
X23264384Y27911163D01*
X23189124Y27860876D01*
X22163248Y26835000D01*
X21219836Y26835000D01*
X21170666Y26954000D01*
X20875554Y27249628D01*
X20489774Y27409818D01*
X20072058Y27410182D01*
X19686000Y27250666D01*
X19475000Y27040034D01*
X19475000Y28640158D01*
X19505595Y28609563D01*
X19729061Y28517000D01*
X19944000Y28517000D01*
X20096000Y28669000D01*
X20096000Y29346000D01*
X20076000Y29346000D01*
X20076000Y29654000D01*
X20096000Y29654000D01*
X20096000Y30331000D01*
X19944000Y30483000D01*
X19729061Y30483000D01*
X19631911Y30442759D01*
X20196200Y31007048D01*
X20720248Y30483000D01*
M02*
