G04 This is an RS-274x file exported by *
G04 gerbv version 2.6.2 *
G04 More information is available about gerbv at *
G04 http://gerbv.geda-project.org/ *
G04 --End of header info--*
%MOIN*%
%FSLAX34Y34*%
%IPPOS*%
G04 --Define apertures--*
%ADD10C,0.0039*%
%ADD11C,0.0079*%
%ADD12C,0.0047*%
%ADD13C,0.0059*%
G04 --Start main section--*
G54D11*
G01X0019291Y0011417D02*
G01X0015354Y0011417D01*
G01X0003543Y0011417D02*
G01X0007480Y0011417D01*
G01X0011417Y0003543D02*
G01X0011417Y0008661D01*
G01X0011417Y0019291D02*
G01X0011417Y0013189D01*
G54D12*
G01X0010374Y0008898D02*
G01X0010098Y0008898D01*
G01X0010098Y0008425D02*
G01X0010374Y0008425D01*
G01X0008130Y0011378D02*
G01X0008406Y0011378D01*
G01X0008406Y0011850D02*
G01X0008130Y0011850D01*
G54D13*
G01X0007768Y0012948D02*
G01X0008768Y0012948D01*
G01X0008768Y0012248D02*
G01X0007768Y0012248D01*
G01X0008768Y0012248D02*
G01X0008768Y0012948D01*
G01X0007768Y0012948D02*
G01X0007768Y0012248D01*
G54D12*
G01X0014370Y0010953D02*
G01X0014764Y0010953D01*
G01X0014764Y0011488D02*
G01X0014370Y0011488D01*
G01X0014764Y0009913D02*
G01X0014370Y0009913D01*
G01X0014370Y0009378D02*
G01X0014764Y0009378D01*
G01X0014370Y0008591D02*
G01X0014764Y0008591D01*
G01X0014764Y0009126D02*
G01X0014370Y0009126D01*
G54D13*
G01X0010285Y0009459D02*
G01X0010285Y0009596D01*
G01X0012549Y0009459D02*
G01X0012549Y0009636D01*
G01X0012549Y0012470D02*
G01X0012549Y0012293D01*
G01X0010285Y0012470D02*
G01X0010285Y0012293D01*
G01X0010285Y0009459D02*
G01X0012549Y0009459D01*
G01X0010285Y0012470D02*
G01X0012549Y0012470D01*
G01X0010285Y0009596D02*
G01X0009656Y0009596D01*
G01X0008596Y0013503D02*
G01X0008596Y0013222D01*
G01X0008596Y0013222D02*
G01X0008615Y0013166D01*
G01X0008615Y0013166D02*
G01X0008652Y0013128D01*
G01X0008652Y0013128D02*
G01X0008708Y0013109D01*
G01X0008708Y0013109D02*
G01X0008746Y0013109D01*
G01X0008408Y0013109D02*
G01X0008408Y0013503D01*
G01X0008408Y0013503D02*
G01X0008258Y0013503D01*
G01X0008258Y0013503D02*
G01X0008221Y0013484D01*
G01X0008221Y0013484D02*
G01X0008202Y0013466D01*
G01X0008202Y0013466D02*
G01X0008183Y0013428D01*
G01X0008183Y0013428D02*
G01X0008183Y0013372D01*
G01X0008183Y0013372D02*
G01X0008202Y0013334D01*
G01X0008202Y0013334D02*
G01X0008221Y0013316D01*
G01X0008221Y0013316D02*
G01X0008258Y0013297D01*
G01X0008258Y0013297D02*
G01X0008408Y0013297D01*
G01X0007808Y0013109D02*
G01X0008033Y0013109D01*
G01X0007921Y0013109D02*
G01X0007921Y0013503D01*
G01X0007921Y0013503D02*
G01X0007958Y0013447D01*
G01X0007958Y0013447D02*
G01X0007996Y0013409D01*
G01X0007996Y0013409D02*
G01X0008033Y0013391D01*
G01X0011717Y0011042D02*
G01X0011717Y0010724D01*
G01X0011717Y0010724D02*
G01X0011699Y0010686D01*
G01X0011699Y0010686D02*
G01X0011680Y0010667D01*
G01X0011680Y0010667D02*
G01X0011642Y0010649D01*
G01X0011642Y0010649D02*
G01X0011567Y0010649D01*
G01X0011567Y0010649D02*
G01X0011530Y0010667D01*
G01X0011530Y0010667D02*
G01X0011511Y0010686D01*
G01X0011511Y0010686D02*
G01X0011492Y0010724D01*
G01X0011492Y0010724D02*
G01X0011492Y0011042D01*
G01X0011099Y0010649D02*
G01X0011324Y0010649D01*
G01X0011211Y0010649D02*
G01X0011211Y0011042D01*
G01X0011211Y0011042D02*
G01X0011249Y0010986D01*
G01X0011249Y0010986D02*
G01X0011286Y0010949D01*
G01X0011286Y0010949D02*
G01X0011324Y0010930D01*
M02*
